<?xml version="1.0" encoding="UTF-8" standalone="no"?>
<!DOCTYPE svg PUBLIC "-//W3C//DTD SVG 1.1//EN"
 "http://www.w3.org/Graphics/SVG/1.1/DTD/svg11.dtd">
<!-- Generated by graphviz version 6.0.1 (20220911.1526)
 -->
<!-- Pages: 1 -->
<svg width="607pt" height="131pt"
 viewBox="0.00 0.00 607.44 131.00" xmlns="http://www.w3.org/2000/svg" xmlns:xlink="http://www.w3.org/1999/xlink">
<g id="graph0" class="graph" transform="scale(1 1) rotate(0) translate(4 127)">
<polygon fill="white" stroke="none" points="-4,4 -4,-127 603.44,-127 603.44,4 -4,4"/>
<!-- Start -->
<g id="node1" class="node">
<title>Start</title>
<ellipse fill="none" stroke="black" cx="215.8" cy="-105" rx="77.19" ry="18"/>
<text text-anchor="middle" x="215.8" y="-101.3" font-family="Times New Roman,serif" font-size="14.00">Malware (Subject)</text>
</g>
<!-- 1 -->
<g id="node2" class="node">
<title>1</title>
<ellipse fill="none" stroke="black" cx="33.8" cy="-18" rx="33.6" ry="18"/>
<text text-anchor="middle" x="33.8" y="-14.3" font-family="Times New Roman,serif" font-size="14.00">/etc/rc</text>
</g>
<!-- Start&#45;&gt;1 -->
<g id="edge1" class="edge">
<title>Start&#45;&gt;1</title>
<path fill="none" stroke="black" d="M182.84,-88.61C150.21,-73.37 100.49,-50.15 67.57,-34.77"/>
<polygon fill="black" stroke="black" points="68.89,-31.53 58.35,-30.47 65.93,-37.87 68.89,-31.53"/>
<text text-anchor="middle" x="155.8" y="-57.8" font-family="Times New Roman,serif" font-size="14.00">modify</text>
</g>
<!-- 2 -->
<g id="node3" class="node">
<title>2</title>
<ellipse fill="none" stroke="black" cx="215.8" cy="-18" rx="129.98" ry="18"/>
<text text-anchor="middle" x="215.8" y="-14.3" font-family="Times New Roman,serif" font-size="14.00">d{1,3}.d{1,3}.d{1,3}.d{1,3}:d+</text>
</g>
<!-- Start&#45;&gt;2 -->
<g id="edge2" class="edge">
<title>Start&#45;&gt;2</title>
<path fill="none" stroke="black" d="M215.8,-86.8C215.8,-75.16 215.8,-59.55 215.8,-46.24"/>
<polygon fill="black" stroke="black" points="219.3,-46.18 215.8,-36.18 212.3,-46.18 219.3,-46.18"/>
<text text-anchor="middle" x="238.3" y="-57.8" font-family="Times New Roman,serif" font-size="14.00">connect</text>
</g>
<!-- 3 -->
<g id="node4" class="node">
<title>3</title>
<ellipse fill="none" stroke="black" cx="481.8" cy="-18" rx="117.78" ry="18"/>
<text text-anchor="middle" x="481.8" y="-14.3" font-family="Times New Roman,serif" font-size="14.00">d{1,3}.d{1,3}.d{1,3}.d{1,3}</text>
</g>
<!-- Start&#45;&gt;3 -->
<g id="edge3" class="edge">
<title>Start&#45;&gt;3</title>
<path fill="none" stroke="black" d="M259.42,-90.06C304.19,-75.75 374.11,-53.41 423.58,-37.6"/>
<polygon fill="black" stroke="black" points="424.72,-40.91 433.18,-34.53 422.59,-34.24 424.72,-40.91"/>
<text text-anchor="middle" x="387.3" y="-57.8" font-family="Times New Roman,serif" font-size="14.00">connect</text>
</g>
</g>
</svg>
