<?xml version="1.0" encoding="UTF-8" standalone="no"?>
<!DOCTYPE svg PUBLIC "-//W3C//DTD SVG 1.1//EN"
 "http://www.w3.org/Graphics/SVG/1.1/DTD/svg11.dtd">
<!-- Generated by graphviz version 6.0.1 (20220911.1526)
 -->
<!-- Title: Dofloo_asg_OPset Pages: 1 -->
<svg width="1789pt" height="204pt"
 viewBox="0.00 0.00 1789.06 204.00" xmlns="http://www.w3.org/2000/svg" xmlns:xlink="http://www.w3.org/1999/xlink">
<g id="graph0" class="graph" transform="scale(1 1) rotate(0) translate(4 200)">
<title>Dofloo_asg_OPset</title>
<polygon fill="white" stroke="none" points="-4,4 -4,-200 1785.06,-200 1785.06,4 -4,4"/>
<!-- Start -->
<g id="node1" class="node">
<title>Start</title>
<ellipse fill="none" stroke="black" cx="913.26" cy="-178" rx="77.19" ry="18"/>
<text text-anchor="middle" x="913.26" y="-174.3" font-family="Times New Roman,serif" font-size="14.00">Malware (Subject)</text>
</g>
<!-- 1 -->
<g id="node2" class="node">
<title>1</title>
<ellipse fill="none" stroke="black" cx="29.26" cy="-91" rx="27.9" ry="18"/>
<text text-anchor="middle" x="29.26" y="-87.3" font-family="Times New Roman,serif" font-size="14.00">/sys/</text>
</g>
<!-- Start&#45;&gt;1 -->
<g id="edge1" class="edge">
<title>Start&#45;&gt;1</title>
<path fill="none" stroke="black" d="M835.87,-176.9C621.33,-176.25 32.88,-171.75 4.26,-142 -3.34,-134.1 0.63,-123.44 7.44,-114"/>
<polygon fill="black" stroke="black" points="10.28,-116.05 13.94,-106.11 4.88,-111.6 10.28,-116.05"/>
<text text-anchor="middle" x="18.26" y="-130.8" font-family="Times New Roman,serif" font-size="14.00">open</text>
</g>
<!-- Start&#45;&gt;1 -->
<g id="edge2" class="edge">
<title>Start&#45;&gt;1</title>
<path fill="none" stroke="black" d="M835.78,-177.48C639.84,-178.16 135.39,-176.51 68.26,-142 57.62,-136.53 48.98,-126.69 42.56,-117.17"/>
<polygon fill="black" stroke="black" points="45.54,-115.33 37.3,-108.66 39.58,-119.01 45.54,-115.33"/>
<text text-anchor="middle" x="83.76" y="-130.8" font-family="Times New Roman,serif" font-size="14.00">statfs</text>
</g>
<!-- 2 -->
<g id="node3" class="node">
<title>2</title>
<ellipse fill="none" stroke="black" cx="242.26" cy="-91" rx="129.98" ry="18"/>
<text text-anchor="middle" x="242.26" y="-87.3" font-family="Times New Roman,serif" font-size="14.00">d{1,3}.d{1,3}.d{1,3}.d{1,3}:d+</text>
</g>
<!-- Start&#45;&gt;2 -->
<g id="edge3" class="edge">
<title>Start&#45;&gt;2</title>
<path fill="none" stroke="black" d="M836.08,-176.49C639.59,-174.81 134.14,-167.99 109.26,-142 92.4,-124.39 108.39,-112.92 134.38,-105.48"/>
<polygon fill="black" stroke="black" points="135.55,-108.79 144.36,-102.92 133.81,-102.01 135.55,-108.79"/>
<text text-anchor="middle" x="128.26" y="-130.8" font-family="Times New Roman,serif" font-size="14.00">fstat64</text>
</g>
<!-- Start&#45;&gt;2 -->
<g id="edge4" class="edge">
<title>Start&#45;&gt;2</title>
<path fill="none" stroke="black" d="M836.22,-176.2C650.74,-173.89 192.98,-165.81 170.26,-142 159.55,-130.77 168.8,-120.55 183.8,-112.32"/>
<polygon fill="black" stroke="black" points="185.76,-115.26 193.2,-107.71 182.68,-108.98 185.76,-115.26"/>
<text text-anchor="middle" x="201.26" y="-130.8" font-family="Times New Roman,serif" font-size="14.00">_newselect</text>
</g>
<!-- Start&#45;&gt;2 -->
<g id="edge5" class="edge">
<title>Start&#45;&gt;2</title>
<path fill="none" stroke="black" d="M836.71,-175.33C668.02,-171.32 277.45,-160.12 255.26,-142 248.44,-136.43 244.94,-127.79 243.22,-119.25"/>
<polygon fill="black" stroke="black" points="246.66,-118.55 241.89,-109.09 239.72,-119.46 246.66,-118.55"/>
<text text-anchor="middle" x="276.26" y="-130.8" font-family="Times New Roman,serif" font-size="14.00">mmap2</text>
</g>
<!-- Start&#45;&gt;2 -->
<g id="edge6" class="edge">
<title>Start&#45;&gt;2</title>
<path fill="none" stroke="black" d="M835.99,-176.48C700.62,-174.87 426.23,-168.36 334.26,-142 313.47,-136.04 292.13,-124.82 275.25,-114.52"/>
<polygon fill="black" stroke="black" points="276.69,-111.29 266.36,-108.93 272.96,-117.22 276.69,-111.29"/>
<text text-anchor="middle" x="356.76" y="-130.8" font-family="Times New Roman,serif" font-size="14.00">connect</text>
</g>
<!-- 3 -->
<g id="node4" class="node">
<title>3</title>
<ellipse fill="none" stroke="black" cx="501.26" cy="-91" rx="38.99" ry="18"/>
<text text-anchor="middle" x="501.26" y="-87.3" font-family="Times New Roman,serif" font-size="14.00">/etc/sed</text>
</g>
<!-- Start&#45;&gt;3 -->
<g id="edge7" class="edge">
<title>Start&#45;&gt;3</title>
<path fill="none" stroke="black" d="M835.76,-177.54C697.09,-177.68 418.14,-173.94 388.26,-142 365.22,-117.38 413.07,-104.14 453.45,-97.59"/>
<polygon fill="black" stroke="black" points="454.14,-101.03 463.5,-96.07 453.09,-94.11 454.14,-101.03"/>
<text text-anchor="middle" x="409.76" y="-130.8" font-family="Times New Roman,serif" font-size="14.00">fchown</text>
</g>
<!-- Start&#45;&gt;3 -->
<g id="edge8" class="edge">
<title>Start&#45;&gt;3</title>
<path fill="none" stroke="black" d="M835.74,-176.71C711.62,-175.42 479.59,-169.33 454.26,-142 444.54,-131.51 454.28,-119.86 467.36,-110.44"/>
<polygon fill="black" stroke="black" points="469.36,-113.32 475.79,-104.9 465.51,-107.47 469.36,-113.32"/>
<text text-anchor="middle" x="466.76" y="-130.8" font-family="Times New Roman,serif" font-size="14.00">fstat</text>
</g>
<!-- Start&#45;&gt;3 -->
<g id="edge9" class="edge">
<title>Start&#45;&gt;3</title>
<path fill="none" stroke="black" d="M836.14,-175.89C723.42,-173.46 524.57,-165.81 502.26,-142 496.58,-135.94 495.01,-127.43 495.26,-119.15"/>
<polygon fill="black" stroke="black" points="498.77,-119.3 496.39,-108.98 491.81,-118.53 498.77,-119.3"/>
<text text-anchor="middle" x="514.76" y="-130.8" font-family="Times New Roman,serif" font-size="14.00">fcntl</text>
</g>
<!-- Start&#45;&gt;3 -->
<g id="edge10" class="edge">
<title>Start&#45;&gt;3</title>
<path fill="none" stroke="black" d="M836.33,-175.72C745.08,-173.14 599.17,-165.38 550.26,-142 538.09,-136.19 527.27,-126.02 518.91,-116.37"/>
<polygon fill="black" stroke="black" points="521.52,-114.03 512.49,-108.49 516.09,-118.45 521.52,-114.03"/>
<text text-anchor="middle" x="564.26" y="-130.8" font-family="Times New Roman,serif" font-size="14.00">write</text>
</g>
<!-- Start&#45;&gt;3 -->
<g id="edge11" class="edge">
<title>Start&#45;&gt;3</title>
<path fill="none" stroke="black" d="M837.66,-174.19C776.93,-170.48 689.94,-161.89 616.26,-142 608.14,-139.81 567.93,-122.05 537.32,-108.31"/>
<polygon fill="black" stroke="black" points="538.73,-105.11 528.18,-104.2 535.86,-111.49 538.73,-105.11"/>
<text text-anchor="middle" x="638.26" y="-130.8" font-family="Times New Roman,serif" font-size="14.00">fchmod</text>
</g>
<!-- 4 -->
<g id="node5" class="node">
<title>4</title>
<ellipse fill="none" stroke="black" cx="752.26" cy="-91" rx="117.78" ry="18"/>
<text text-anchor="middle" x="752.26" y="-87.3" font-family="Times New Roman,serif" font-size="14.00">d{1,3}.d{1,3}.d{1,3}.d{1,3}</text>
</g>
<!-- Start&#45;&gt;4 -->
<g id="edge12" class="edge">
<title>Start&#45;&gt;4</title>
<path fill="none" stroke="black" d="M836.03,-176.6C772.56,-174.43 689.73,-166.75 668.26,-142 657.09,-129.12 667.63,-118.64 684.56,-110.67"/>
<polygon fill="black" stroke="black" points="686.05,-113.84 693.91,-106.73 683.33,-107.39 686.05,-113.84"/>
<text text-anchor="middle" x="699.26" y="-130.8" font-family="Times New Roman,serif" font-size="14.00">_newselect</text>
</g>
<!-- Start&#45;&gt;4 -->
<g id="edge13" class="edge">
<title>Start&#45;&gt;4</title>
<path fill="none" stroke="black" d="M843.23,-170.23C805.75,-165.02 764.95,-156.23 753.26,-142 748.07,-135.68 746.56,-127.24 746.73,-119.09"/>
<polygon fill="black" stroke="black" points="750.22,-119.41 747.69,-109.12 743.25,-118.74 750.22,-119.41"/>
<text text-anchor="middle" x="772.26" y="-130.8" font-family="Times New Roman,serif" font-size="14.00">fstat64</text>
</g>
<!-- Start&#45;&gt;4 -->
<g id="edge14" class="edge">
<title>Start&#45;&gt;4</title>
<path fill="none" stroke="black" d="M865.51,-163.75C848.76,-158.17 830.18,-150.89 814.26,-142 801.27,-134.75 788.25,-124.76 777.52,-115.62"/>
<polygon fill="black" stroke="black" points="779.62,-112.81 769.8,-108.85 775.01,-118.07 779.62,-112.81"/>
<text text-anchor="middle" x="836.76" y="-130.8" font-family="Times New Roman,serif" font-size="14.00">connect</text>
</g>
<!-- Start&#45;&gt;4 -->
<g id="edge15" class="edge">
<title>Start&#45;&gt;4</title>
<path fill="none" stroke="black" d="M896.89,-160.37C884.19,-147.75 867.41,-131.79 859.26,-127 847.71,-120.21 834.68,-114.55 821.79,-109.9"/>
<polygon fill="black" stroke="black" points="822.57,-106.47 811.98,-106.53 820.3,-113.09 822.57,-106.47"/>
<text text-anchor="middle" x="898.26" y="-130.8" font-family="Times New Roman,serif" font-size="14.00">mmap2</text>
</g>
<!-- 5 -->
<g id="node6" class="node">
<title>5</title>
<ellipse fill="none" stroke="black" cx="919.26" cy="-91" rx="31.7" ry="18"/>
<text text-anchor="middle" x="919.26" y="-87.3" font-family="Times New Roman,serif" font-size="14.00">^sed$</text>
</g>
<!-- Start&#45;&gt;5 -->
<g id="edge16" class="edge">
<title>Start&#45;&gt;5</title>
<path fill="none" stroke="black" d="M919.81,-159.8C921.63,-154.21 923.35,-147.92 924.26,-142 925.39,-134.62 925.21,-126.58 924.46,-119.15"/>
<polygon fill="black" stroke="black" points="927.92,-118.62 923.11,-109.18 920.99,-119.56 927.92,-118.62"/>
<text text-anchor="middle" x="938.26" y="-130.8" font-family="Times New Roman,serif" font-size="14.00">exec</text>
</g>
<!-- 6 -->
<g id="node7" class="node">
<title>6</title>
<ellipse fill="none" stroke="black" cx="987.26" cy="-18" rx="37.09" ry="18"/>
<text text-anchor="middle" x="987.26" y="-14.3" font-family="Times New Roman,serif" font-size="14.00">bin/sed</text>
</g>
<!-- Start&#45;&gt;6 -->
<g id="edge17" class="edge">
<title>Start&#45;&gt;6</title>
<path fill="none" stroke="black" d="M938,-160.68C944.42,-155.39 950.79,-149.05 955.26,-142 973.96,-112.52 981.77,-72.5 985,-46.23"/>
<polygon fill="black" stroke="black" points="988.49,-46.54 986.1,-36.22 981.53,-45.78 988.49,-46.54"/>
<text text-anchor="middle" x="991.26" y="-87.3" font-family="Times New Roman,serif" font-size="14.00">stat</text>
</g>
<!-- 7 -->
<g id="node8" class="node">
<title>7</title>
<ellipse fill="none" stroke="black" cx="1059.26" cy="-91" rx="27.1" ry="18"/>
<text text-anchor="middle" x="1059.26" y="-87.3" font-family="Times New Roman,serif" font-size="14.00">^sh$</text>
</g>
<!-- Start&#45;&gt;7 -->
<g id="edge18" class="edge">
<title>Start&#45;&gt;7</title>
<path fill="none" stroke="black" d="M955.09,-162.63C969.23,-157.03 984.83,-150.02 998.26,-142 1011.88,-133.86 1025.67,-122.85 1036.68,-113.23"/>
<polygon fill="black" stroke="black" points="1039.05,-115.8 1044.17,-106.53 1034.38,-110.59 1039.05,-115.8"/>
<text text-anchor="middle" x="1040.76" y="-130.8" font-family="Times New Roman,serif" font-size="14.00">waitpid</text>
</g>
<!-- Start&#45;&gt;7 -->
<g id="edge19" class="edge">
<title>Start&#45;&gt;7</title>
<path fill="none" stroke="black" d="M981.06,-169.31C1015.32,-163.87 1051.82,-155.17 1062.26,-142 1067.42,-135.48 1068.31,-126.86 1067.4,-118.61"/>
<polygon fill="black" stroke="black" points="1070.79,-117.71 1065.46,-108.55 1063.91,-119.03 1070.79,-117.71"/>
<text text-anchor="middle" x="1083.76" y="-130.8" font-family="Times New Roman,serif" font-size="14.00">clone</text>
</g>
<!-- 8 -->
<g id="node9" class="node">
<title>8</title>
<ellipse fill="none" stroke="black" cx="1138.26" cy="-91" rx="27" ry="18"/>
<text text-anchor="middle" x="1138.26" y="-87.3" font-family="Times New Roman,serif" font-size="14.00">bin/</text>
</g>
<!-- Start&#45;&gt;8 -->
<g id="edge20" class="edge">
<title>Start&#45;&gt;8</title>
<path fill="none" stroke="black" d="M982.28,-169.83C1028.14,-164.04 1083.44,-154.74 1103.26,-142 1112.62,-135.99 1120.19,-126.49 1125.86,-117.39"/>
<polygon fill="black" stroke="black" points="1128.99,-118.98 1130.9,-108.56 1122.91,-115.51 1128.99,-118.98"/>
<text text-anchor="middle" x="1129.26" y="-130.8" font-family="Times New Roman,serif" font-size="14.00">stat</text>
</g>
<!-- 9 -->
<g id="node10" class="node">
<title>9</title>
<ellipse fill="none" stroke="black" cx="1231.26" cy="-91" rx="33.6" ry="18"/>
<text text-anchor="middle" x="1231.26" y="-87.3" font-family="Times New Roman,serif" font-size="14.00">/etc/rc</text>
</g>
<!-- Start&#45;&gt;9 -->
<g id="edge21" class="edge">
<title>Start&#45;&gt;9</title>
<path fill="none" stroke="black" d="M987.16,-172.64C1033.09,-168.26 1092.79,-159.5 1143.26,-142 1164.41,-134.66 1186.31,-122.25 1202.96,-111.62"/>
<polygon fill="black" stroke="black" points="1205.19,-114.35 1211.64,-105.95 1201.36,-108.49 1205.19,-114.35"/>
<text text-anchor="middle" x="1196.26" y="-130.8" font-family="Times New Roman,serif" font-size="14.00">rename</text>
</g>
<!-- Start&#45;&gt;9 -->
<g id="edge22" class="edge">
<title>Start&#45;&gt;9</title>
<path fill="none" stroke="black" d="M987.81,-173C1073.12,-167.72 1203.31,-157.29 1220.26,-142 1226.64,-136.24 1229.77,-127.7 1231.2,-119.3"/>
<polygon fill="black" stroke="black" points="1234.68,-119.62 1232.19,-109.32 1227.72,-118.93 1234.68,-119.62"/>
<text text-anchor="middle" x="1243.26" y="-130.8" font-family="Times New Roman,serif" font-size="14.00">open</text>
</g>
<!-- 10 -->
<g id="node11" class="node">
<title>10</title>
<ellipse fill="none" stroke="black" cx="1342.26" cy="-91" rx="38.19" ry="18"/>
<text text-anchor="middle" x="1342.26" y="-87.3" font-family="Times New Roman,serif" font-size="14.00">/selinux</text>
</g>
<!-- Start&#45;&gt;10 -->
<g id="edge23" class="edge">
<title>Start&#45;&gt;10</title>
<path fill="none" stroke="black" d="M988.14,-173.41C1074.96,-168.56 1212.38,-158.56 1261.26,-142 1280.62,-135.44 1300.19,-123.54 1315.24,-113"/>
<polygon fill="black" stroke="black" points="1317.49,-115.69 1323.54,-107 1313.39,-110.02 1317.49,-115.69"/>
<text text-anchor="middle" x="1306.76" y="-130.8" font-family="Times New Roman,serif" font-size="14.00">statfs</text>
</g>
<!-- Start&#45;&gt;10 -->
<g id="edge24" class="edge">
<title>Start&#45;&gt;10</title>
<path fill="none" stroke="black" d="M989.96,-175.05C1102.17,-171.51 1300.62,-162.43 1326.26,-142 1333.33,-136.37 1337.32,-127.59 1339.56,-118.96"/>
<polygon fill="black" stroke="black" points="1343.01,-119.56 1341.47,-109.08 1336.14,-118.24 1343.01,-119.56"/>
<text text-anchor="middle" x="1355.26" y="-130.8" font-family="Times New Roman,serif" font-size="14.00">access</text>
</g>
<!-- 11 -->
<g id="node12" class="node">
<title>11</title>
<ellipse fill="none" stroke="black" cx="1494.26" cy="-91" rx="32.49" ry="18"/>
<text text-anchor="middle" x="1494.26" y="-87.3" font-family="Times New Roman,serif" font-size="14.00">/proc/</text>
</g>
<!-- Start&#45;&gt;11 -->
<g id="edge25" class="edge">
<title>Start&#45;&gt;11</title>
<path fill="none" stroke="black" d="M989.47,-174.5C1101.98,-170.26 1306.89,-160.29 1378.26,-142 1393.87,-138 1396.5,-133.46 1411.26,-127 1427.01,-120.1 1444.53,-112.68 1459.41,-106.45"/>
<polygon fill="black" stroke="black" points="1460.88,-109.63 1468.75,-102.54 1458.18,-103.17 1460.88,-109.63"/>
<text text-anchor="middle" x="1425.26" y="-130.8" font-family="Times New Roman,serif" font-size="14.00">open</text>
</g>
<!-- Start&#45;&gt;11 -->
<g id="edge26" class="edge">
<title>Start&#45;&gt;11</title>
<path fill="none" stroke="black" d="M989.46,-174.7C1125.32,-170.2 1398.99,-159.13 1439.26,-142 1446.88,-138.76 1460.69,-126.2 1472.56,-114.48"/>
<polygon fill="black" stroke="black" points="1475.05,-116.93 1479.63,-107.38 1470.09,-111.99 1475.05,-116.93"/>
<text text-anchor="middle" x="1481.26" y="-130.8" font-family="Times New Roman,serif" font-size="14.00">readlink</text>
</g>
<!-- Start&#45;&gt;11 -->
<g id="edge27" class="edge">
<title>Start&#45;&gt;11</title>
<path fill="none" stroke="black" d="M989.86,-175.24C1146.2,-171.27 1488.82,-160.5 1506.26,-142 1512.4,-135.49 1511.89,-126.41 1509,-117.77"/>
<polygon fill="black" stroke="black" points="1512.12,-116.16 1504.94,-108.36 1505.69,-118.93 1512.12,-116.16"/>
<text text-anchor="middle" x="1529.26" y="-130.8" font-family="Times New Roman,serif" font-size="14.00">fstat64</text>
</g>
<!-- Start&#45;&gt;11 -->
<g id="edge28" class="edge">
<title>Start&#45;&gt;11</title>
<path fill="none" stroke="black" d="M990.11,-175.58C1155.78,-172.14 1533.21,-162.12 1552.26,-142 1564.51,-129.06 1548.03,-115.96 1529.54,-106.42"/>
<polygon fill="black" stroke="black" points="1530.95,-103.21 1520.42,-102.03 1527.92,-109.52 1530.95,-103.21"/>
<text text-anchor="middle" x="1570.26" y="-130.8" font-family="Times New Roman,serif" font-size="14.00">lseek</text>
</g>
<!-- 12 -->
<g id="node13" class="node">
<title>12</title>
<ellipse fill="none" stroke="black" cx="1632.26" cy="-18" rx="109.68" ry="18"/>
<text text-anchor="middle" x="1632.26" y="-14.3" font-family="Times New Roman,serif" font-size="14.00">permission:{0,1}[0&#45;9]{0,4}</text>
</g>
<!-- Start&#45;&gt;12 -->
<g id="edge29" class="edge">
<title>Start&#45;&gt;12</title>
<path fill="none" stroke="black" d="M990.84,-177.74C1158.08,-178.67 1541.33,-176.91 1588.26,-142 1618.11,-119.8 1627.77,-75.54 1630.86,-46.62"/>
<polygon fill="black" stroke="black" points="1634.37,-46.62 1631.75,-36.36 1627.4,-46.02 1634.37,-46.62"/>
<text text-anchor="middle" x="1644.76" y="-87.3" font-family="Times New Roman,serif" font-size="14.00">umask</text>
</g>
<!-- 13 -->
<g id="node14" class="node">
<title>13</title>
<ellipse fill="none" stroke="black" cx="1734.26" cy="-91" rx="46.59" ry="18"/>
<text text-anchor="middle" x="1734.26" y="-87.3" font-family="Times New Roman,serif" font-size="14.00">/etc/init.d/</text>
</g>
<!-- Start&#45;&gt;13 -->
<g id="edge30" class="edge">
<title>Start&#45;&gt;13</title>
<path fill="none" stroke="black" d="M990.07,-175.35C1165.37,-171.31 1584.58,-159.88 1646.26,-142 1667.33,-135.89 1688.79,-123.84 1705.24,-113.11"/>
<polygon fill="black" stroke="black" points="1707.49,-115.81 1713.82,-107.32 1703.58,-110 1707.49,-115.81"/>
<text text-anchor="middle" x="1693.26" y="-130.8" font-family="Times New Roman,serif" font-size="14.00">open</text>
</g>
</g>
</svg>
