<?xml version="1.0" encoding="UTF-8" standalone="no"?>
<!DOCTYPE svg PUBLIC "-//W3C//DTD SVG 1.1//EN"
 "http://www.w3.org/Graphics/SVG/1.1/DTD/svg11.dtd">
<!-- Generated by graphviz version 6.0.1 (20220911.1526)
 -->
<!-- Pages: 1 -->
<svg width="271pt" height="131pt"
 viewBox="0.00 0.00 271.29 131.00" xmlns="http://www.w3.org/2000/svg" xmlns:xlink="http://www.w3.org/1999/xlink">
<g id="graph0" class="graph" transform="scale(1 1) rotate(0) translate(4 127)">
<polygon fill="white" stroke="none" points="-4,4 -4,-127 267.29,-127 267.29,4 -4,4"/>
<!-- Start -->
<g id="node1" class="node">
<title>Start</title>
<ellipse fill="none" stroke="black" cx="106.5" cy="-105" rx="77.19" ry="18"/>
<text text-anchor="middle" x="106.5" y="-101.3" font-family="Times New Roman,serif" font-size="14.00">Malware (Subject)</text>
</g>
<!-- 1 -->
<g id="node2" class="node">
<title>1</title>
<ellipse fill="none" stroke="black" cx="32.5" cy="-18" rx="32.49" ry="18"/>
<text text-anchor="middle" x="32.5" y="-14.3" font-family="Times New Roman,serif" font-size="14.00">/proc/</text>
</g>
<!-- Start&#45;&gt;1 -->
<g id="edge1" class="edge">
<title>Start&#45;&gt;1</title>
<path fill="none" stroke="black" d="M58.29,-90.74C48.09,-85.63 38.58,-78.61 32.5,-69 28.23,-62.27 27.03,-53.94 27.24,-46.02"/>
<polygon fill="black" stroke="black" points="30.72,-46.3 28.18,-36.01 23.76,-45.64 30.72,-46.3"/>
<text text-anchor="middle" x="46.5" y="-57.8" font-family="Times New Roman,serif" font-size="14.00">open</text>
</g>
<!-- Start&#45;&gt;1 -->
<g id="edge2" class="edge">
<title>Start&#45;&gt;1</title>
<path fill="none" stroke="black" d="M91.88,-87.21C80.75,-74.43 65.3,-56.68 52.95,-42.49"/>
<polygon fill="black" stroke="black" points="55.29,-39.86 46.09,-34.61 50.02,-44.45 55.29,-39.86"/>
<text text-anchor="middle" x="87" y="-57.8" font-family="Times New Roman,serif" font-size="14.00">read</text>
</g>
<!-- 2 -->
<g id="node3" class="node">
<title>2</title>
<ellipse fill="none" stroke="black" cx="130.5" cy="-18" rx="46.59" ry="18"/>
<text text-anchor="middle" x="130.5" y="-14.3" font-family="Times New Roman,serif" font-size="14.00">/etc/init.d/</text>
</g>
<!-- Start&#45;&gt;2 -->
<g id="edge3" class="edge">
<title>Start&#45;&gt;2</title>
<path fill="none" stroke="black" d="M111.35,-86.8C114.67,-75.05 119.14,-59.24 122.92,-45.84"/>
<polygon fill="black" stroke="black" points="126.3,-46.75 125.65,-36.18 119.56,-44.85 126.3,-46.75"/>
<text text-anchor="middle" x="131.5" y="-57.8" font-family="Times New Roman,serif" font-size="14.00">add</text>
</g>
<!-- 3 -->
<g id="node4" class="node">
<title>3</title>
<ellipse fill="none" stroke="black" cx="229.5" cy="-18" rx="33.6" ry="18"/>
<text text-anchor="middle" x="229.5" y="-14.3" font-family="Times New Roman,serif" font-size="14.00">/etc/rc</text>
</g>
<!-- Start&#45;&gt;3 -->
<g id="edge4" class="edge">
<title>Start&#45;&gt;3</title>
<path fill="none" stroke="black" d="M129.92,-87.81C150.14,-73.84 179.4,-53.62 200.98,-38.71"/>
<polygon fill="black" stroke="black" points="203.18,-41.44 209.42,-32.88 199.2,-35.68 203.18,-41.44"/>
<text text-anchor="middle" x="194" y="-57.8" font-family="Times New Roman,serif" font-size="14.00">format</text>
</g>
</g>
</svg>
