<?xml version="1.0" encoding="UTF-8" standalone="no"?>
<!DOCTYPE svg PUBLIC "-//W3C//DTD SVG 1.1//EN"
 "http://www.w3.org/Graphics/SVG/1.1/DTD/svg11.dtd">
<!-- Generated by graphviz version 6.0.1 (20220911.1526)
 -->
<!-- Title: Xorddos_asg_OPset Pages: 1 -->
<svg width="4376pt" height="204pt"
 viewBox="0.00 0.00 4375.50 204.00" xmlns="http://www.w3.org/2000/svg" xmlns:xlink="http://www.w3.org/1999/xlink">
<g id="graph0" class="graph" transform="scale(1 1) rotate(0) translate(4 200)">
<title>Xorddos_asg_OPset</title>
<polygon fill="white" stroke="none" points="-4,4 -4,-200 4371.5,-200 4371.5,4 -4,4"/>
<!-- Start -->
<g id="node1" class="node">
<title>Start</title>
<ellipse fill="none" stroke="black" cx="2173.46" cy="-178" rx="77.19" ry="18"/>
<text text-anchor="middle" x="2173.46" y="-174.3" font-family="Times New Roman,serif" font-size="14.00">Malware (Subject)</text>
</g>
<!-- 1 -->
<g id="node2" class="node">
<title>1</title>
<ellipse fill="none" stroke="black" cx="139.46" cy="-91" rx="38.99" ry="18"/>
<text text-anchor="middle" x="139.46" y="-87.3" font-family="Times New Roman,serif" font-size="14.00">/etc/sed</text>
</g>
<!-- Start&#45;&gt;1 -->
<g id="edge1" class="edge">
<title>Start&#45;&gt;1</title>
<path fill="none" stroke="black" d="M2095.92,-177.22C1713.47,-178.14 44.82,-179.97 7.46,-142 -20.95,-113.14 42.32,-100.7 90.74,-95.51"/>
<polygon fill="black" stroke="black" points="91.21,-98.98 100.81,-94.51 90.51,-92.02 91.21,-98.98"/>
<text text-anchor="middle" x="28.96" y="-130.8" font-family="Times New Roman,serif" font-size="14.00">fchown</text>
</g>
<!-- Start&#45;&gt;1 -->
<g id="edge2" class="edge">
<title>Start&#45;&gt;1</title>
<path fill="none" stroke="black" d="M2096.12,-177.18C1721.24,-177.88 109.6,-178.75 73.46,-142 60.02,-128.34 78.46,-115.35 99.23,-106.04"/>
<polygon fill="black" stroke="black" points="100.64,-109.24 108.51,-102.15 97.94,-102.79 100.64,-109.24"/>
<text text-anchor="middle" x="95.46" y="-130.8" font-family="Times New Roman,serif" font-size="14.00">fchmod</text>
</g>
<!-- Start&#45;&gt;1 -->
<g id="edge3" class="edge">
<title>Start&#45;&gt;1</title>
<path fill="none" stroke="black" d="M2096.18,-177.12C1728.86,-177.53 175.71,-177.16 140.46,-142 134.51,-136.07 132.91,-127.49 133.23,-119.1"/>
<polygon fill="black" stroke="black" points="136.71,-119.5 134.4,-109.16 129.75,-118.69 136.71,-119.5"/>
<text text-anchor="middle" x="154.46" y="-130.8" font-family="Times New Roman,serif" font-size="14.00">write</text>
</g>
<!-- Start&#45;&gt;1 -->
<g id="edge4" class="edge">
<title>Start&#45;&gt;1</title>
<path fill="none" stroke="black" d="M2096.06,-177.21C1740.92,-177.99 280.82,-178.91 191.46,-142 178.3,-136.57 166.58,-126.11 157.61,-116.15"/>
<polygon fill="black" stroke="black" points="160.17,-113.75 151.03,-108.38 154.83,-118.28 160.17,-113.75"/>
<text text-anchor="middle" x="203.96" y="-130.8" font-family="Times New Roman,serif" font-size="14.00">fcntl</text>
</g>
<!-- Start&#45;&gt;1 -->
<g id="edge5" class="edge">
<title>Start&#45;&gt;1</title>
<path fill="none" stroke="black" d="M2096.39,-176.44C1749.38,-173.82 344.74,-162.01 253.46,-142 249.33,-141.1 207.73,-122.65 175.97,-108.43"/>
<polygon fill="black" stroke="black" points="177.03,-105.07 166.48,-104.17 174.17,-111.45 177.03,-105.07"/>
<text text-anchor="middle" x="265.96" y="-130.8" font-family="Times New Roman,serif" font-size="14.00">fstat</text>
</g>
<!-- 2 -->
<g id="node3" class="node">
<title>2</title>
<ellipse fill="none" stroke="black" cx="373.46" cy="-91" rx="32.49" ry="18"/>
<text text-anchor="middle" x="373.46" y="-87.3" font-family="Times New Roman,serif" font-size="14.00">/proc/</text>
</g>
<!-- Start&#45;&gt;2 -->
<g id="edge6" class="edge">
<title>Start&#45;&gt;2</title>
<path fill="none" stroke="black" d="M2095.99,-177.03C1745.01,-176.99 319.64,-174.78 287.46,-142 269.01,-123.2 303.05,-109.06 333.6,-100.69"/>
<polygon fill="black" stroke="black" points="334.52,-104.07 343.32,-98.18 332.77,-97.29 334.52,-104.07"/>
<text text-anchor="middle" x="306.46" y="-130.8" font-family="Times New Roman,serif" font-size="14.00">access</text>
</g>
<!-- Start&#45;&gt;2 -->
<g id="edge7" class="edge">
<title>Start&#45;&gt;2</title>
<path fill="none" stroke="black" d="M2096.21,-176.98C1752.72,-176.71 379.52,-173.66 348.46,-142 341.07,-134.47 344.46,-124.32 350.82,-115.13"/>
<polygon fill="black" stroke="black" points="353.75,-117.06 357.26,-107.06 348.28,-112.69 353.75,-117.06"/>
<text text-anchor="middle" x="362.46" y="-130.8" font-family="Times New Roman,serif" font-size="14.00">open</text>
</g>
<!-- Start&#45;&gt;2 -->
<g id="edge8" class="edge">
<title>Start&#45;&gt;2</title>
<path fill="none" stroke="black" d="M2096.14,-176.54C1759.42,-174.43 436,-164.68 399.46,-142 390.91,-136.7 385.03,-127.59 381.06,-118.59"/>
<polygon fill="black" stroke="black" points="384.27,-117.17 377.46,-109.05 377.72,-119.64 384.27,-117.17"/>
<text text-anchor="middle" x="427.96" y="-130.8" font-family="Times New Roman,serif" font-size="14.00">newfstatat</text>
</g>
<!-- Start&#45;&gt;2 -->
<g id="edge9" class="edge">
<title>Start&#45;&gt;2</title>
<path fill="none" stroke="black" d="M2096.2,-177.07C1787.56,-177.11 652.03,-174.99 494.46,-142 489.91,-141.05 441.74,-120.89 407.58,-106.46"/>
<polygon fill="black" stroke="black" points="408.93,-103.24 398.36,-102.57 406.21,-109.68 408.93,-103.24"/>
<text text-anchor="middle" x="516.46" y="-130.8" font-family="Times New Roman,serif" font-size="14.00">readlink</text>
</g>
<!-- 3 -->
<g id="node4" class="node">
<title>3</title>
<ellipse fill="none" stroke="black" cx="614.46" cy="-91" rx="40.89" ry="18"/>
<text text-anchor="middle" x="614.46" y="-87.3" font-family="Times New Roman,serif" font-size="14.00">/var/run/</text>
</g>
<!-- Start&#45;&gt;3 -->
<g id="edge10" class="edge">
<title>Start&#45;&gt;3</title>
<path fill="none" stroke="black" d="M2096.16,-176.79C1776.59,-175.76 573.87,-170.01 546.46,-142 532.88,-128.13 551.54,-115.24 572.72,-106.01"/>
<polygon fill="black" stroke="black" points="574.24,-109.17 582.19,-102.17 571.61,-102.69 574.24,-109.17"/>
<text text-anchor="middle" x="560.46" y="-130.8" font-family="Times New Roman,serif" font-size="14.00">open</text>
</g>
<!-- Start&#45;&gt;3 -->
<g id="edge11" class="edge">
<title>Start&#45;&gt;3</title>
<path fill="none" stroke="black" d="M2096.22,-176.74C1783.13,-175.5 623.93,-169.07 597.46,-142 590.89,-135.29 592.3,-125.94 596.35,-117.15"/>
<polygon fill="black" stroke="black" points="599.47,-118.74 601.31,-108.31 593.36,-115.32 599.47,-118.74"/>
<text text-anchor="middle" x="614.46" y="-130.8" font-family="Times New Roman,serif" font-size="14.00">stat64</text>
</g>
<!-- Start&#45;&gt;3 -->
<g id="edge12" class="edge">
<title>Start&#45;&gt;3</title>
<path fill="none" stroke="black" d="M2096.16,-177.03C1795.78,-176.9 719.51,-174.19 654.46,-142 643.62,-136.64 634.78,-126.81 628.18,-117.28"/>
<polygon fill="black" stroke="black" points="631.08,-115.32 622.77,-108.75 625.17,-119.07 631.08,-115.32"/>
<text text-anchor="middle" x="668.46" y="-130.8" font-family="Times New Roman,serif" font-size="14.00">write</text>
</g>
<!-- Start&#45;&gt;3 -->
<g id="edge13" class="edge">
<title>Start&#45;&gt;3</title>
<path fill="none" stroke="black" d="M2096.19,-177.03C1814.68,-176.87 853.39,-173.96 719.46,-142 712.07,-140.24 677.08,-123.27 649.5,-109.58"/>
<polygon fill="black" stroke="black" points="650.99,-106.41 640.48,-105.09 647.87,-112.68 650.99,-106.41"/>
<text text-anchor="middle" x="733.46" y="-130.8" font-family="Times New Roman,serif" font-size="14.00">lseek</text>
</g>
<!-- 4 -->
<g id="node5" class="node">
<title>4</title>
<ellipse fill="none" stroke="black" cx="840.46" cy="-91" rx="148.67" ry="18"/>
<text text-anchor="middle" x="840.46" y="-87.3" font-family="Times New Roman,serif" font-size="14.00">d{1,3}.d{1,3}.d{1,3}.d{1,3}:d{1,5}$</text>
</g>
<!-- Start&#45;&gt;4 -->
<g id="edge14" class="edge">
<title>Start&#45;&gt;4</title>
<path fill="none" stroke="black" d="M2096.19,-176.54C1803.75,-174.61 780.02,-166.15 756.46,-142 744.6,-129.85 754.84,-119.55 771.72,-111.53"/>
<polygon fill="black" stroke="black" points="773.25,-114.68 781.07,-107.54 770.5,-108.24 773.25,-114.68"/>
<text text-anchor="middle" x="787.46" y="-130.8" font-family="Times New Roman,serif" font-size="14.00">_newselect</text>
</g>
<!-- Start&#45;&gt;4 -->
<g id="edge15" class="edge">
<title>Start&#45;&gt;4</title>
<path fill="none" stroke="black" d="M2096.07,-176.4C1815.05,-174.03 863.69,-164.37 841.46,-142 835.54,-136.05 833.95,-127.46 834.26,-119.07"/>
<polygon fill="black" stroke="black" points="837.74,-119.48 835.42,-109.14 830.78,-118.66 837.74,-119.48"/>
<text text-anchor="middle" x="854.96" y="-130.8" font-family="Times New Roman,serif" font-size="14.00">send</text>
</g>
<!-- Start&#45;&gt;4 -->
<g id="edge16" class="edge">
<title>Start&#45;&gt;4</title>
<path fill="none" stroke="black" d="M2096.35,-176.15C1830.26,-173.06 963.66,-161.53 907.46,-142 891.64,-136.5 876.47,-125.81 864.58,-115.71"/>
<polygon fill="black" stroke="black" points="866.7,-112.92 856.9,-108.89 862.05,-118.15 866.7,-112.92"/>
<text text-anchor="middle" x="929.96" y="-130.8" font-family="Times New Roman,serif" font-size="14.00">connect</text>
</g>
<!-- 5 -->
<g id="node6" class="node">
<title>5</title>
<ellipse fill="none" stroke="black" cx="1118.46" cy="-91" rx="27.1" ry="18"/>
<text text-anchor="middle" x="1118.46" y="-87.3" font-family="Times New Roman,serif" font-size="14.00">/run/</text>
</g>
<!-- Start&#45;&gt;5 -->
<g id="edge17" class="edge">
<title>Start&#45;&gt;5</title>
<path fill="none" stroke="black" d="M2096.17,-176.21C1831.89,-173.32 979.31,-162.44 959.46,-142 954.81,-137.22 955.28,-132.2 959.46,-127 967.16,-117.42 1037.8,-104.7 1082.3,-97.53"/>
<polygon fill="black" stroke="black" points="1082.85,-100.99 1092.18,-95.96 1081.75,-94.07 1082.85,-100.99"/>
<text text-anchor="middle" x="973.46" y="-130.8" font-family="Times New Roman,serif" font-size="14.00">open</text>
</g>
<!-- Start&#45;&gt;5 -->
<g id="edge18" class="edge">
<title>Start&#45;&gt;5</title>
<path fill="none" stroke="black" d="M2096.32,-176.11C1839.64,-172.97 1029.39,-161.51 1010.46,-142 986.03,-116.83 1041.47,-103.06 1081.6,-96.63"/>
<polygon fill="black" stroke="black" points="1082.31,-100.07 1091.67,-95.12 1081.27,-93.15 1082.31,-100.07"/>
<text text-anchor="middle" x="1038.96" y="-130.8" font-family="Times New Roman,serif" font-size="14.00">newfstatat</text>
</g>
<!-- Start&#45;&gt;5 -->
<g id="edge19" class="edge">
<title>Start&#45;&gt;5</title>
<path fill="none" stroke="black" d="M2095.86,-177.41C1853.6,-178.32 1125.34,-178.03 1090.46,-142 1082.45,-133.74 1087.39,-122.74 1095.21,-113.16"/>
<polygon fill="black" stroke="black" points="1098.03,-115.26 1102.24,-105.54 1092.89,-110.52 1098.03,-115.26"/>
<text text-anchor="middle" x="1107.46" y="-130.8" font-family="Times New Roman,serif" font-size="14.00">stat64</text>
</g>
<!-- Start&#45;&gt;5 -->
<g id="edge20" class="edge">
<title>Start&#45;&gt;5</title>
<path fill="none" stroke="black" d="M2096.13,-176.4C1864.21,-174.34 1187.95,-166.25 1147.46,-142 1138.51,-136.64 1132.05,-127.4 1127.53,-118.3"/>
<polygon fill="black" stroke="black" points="1130.7,-116.82 1123.5,-109.05 1124.28,-119.61 1130.7,-116.82"/>
<text text-anchor="middle" x="1161.46" y="-130.8" font-family="Times New Roman,serif" font-size="14.00">write</text>
</g>
<!-- Start&#45;&gt;5 -->
<g id="edge21" class="edge">
<title>Start&#45;&gt;5</title>
<path fill="none" stroke="black" d="M2096.24,-176.6C1880.72,-175.16 1282.92,-168.77 1198.46,-142 1186.82,-138.31 1185.77,-133.53 1175.46,-127 1166.18,-121.13 1155.99,-114.83 1146.82,-109.21"/>
<polygon fill="black" stroke="black" points="1148.42,-106.08 1138.06,-103.86 1144.77,-112.06 1148.42,-106.08"/>
<text text-anchor="middle" x="1208.46" y="-130.8" font-family="Times New Roman,serif" font-size="14.00">stat</text>
</g>
<!-- Start&#45;&gt;5 -->
<g id="edge22" class="edge">
<title>Start&#45;&gt;5</title>
<path fill="none" stroke="black" d="M2096.06,-177.39C1905.16,-177.81 1415.78,-175.47 1256.46,-142 1238.69,-138.27 1235.47,-133.33 1218.46,-127 1196.44,-118.8 1171.49,-110.07 1152.03,-103.38"/>
<polygon fill="black" stroke="black" points="1152.99,-100.01 1142.39,-100.08 1150.72,-106.63 1152.99,-100.01"/>
<text text-anchor="middle" x="1270.46" y="-130.8" font-family="Times New Roman,serif" font-size="14.00">lseek</text>
</g>
<!-- 6 -->
<g id="node7" class="node">
<title>6</title>
<ellipse fill="none" stroke="black" cx="1374.46" cy="-91" rx="42.79" ry="18"/>
<text text-anchor="middle" x="1374.46" y="-87.3" font-family="Times New Roman,serif" font-size="14.00">/etc/cron</text>
</g>
<!-- Start&#45;&gt;6 -->
<g id="edge23" class="edge">
<title>Start&#45;&gt;6</title>
<path fill="none" stroke="black" d="M2096.2,-176.8C1886.43,-175.88 1320.08,-170.75 1292.46,-142 1276.51,-125.4 1301.6,-112.17 1328.11,-103.49"/>
<polygon fill="black" stroke="black" points="1329.34,-106.78 1337.87,-100.51 1327.29,-100.09 1329.34,-106.78"/>
<text text-anchor="middle" x="1306.46" y="-130.8" font-family="Times New Roman,serif" font-size="14.00">lseek</text>
</g>
<!-- Start&#45;&gt;6 -->
<g id="edge24" class="edge">
<title>Start&#45;&gt;6</title>
<path fill="none" stroke="black" d="M2095.98,-176.6C1894.74,-175.18 1369.25,-168.91 1343.46,-142 1335.72,-133.94 1340.26,-123.64 1347.99,-114.48"/>
<polygon fill="black" stroke="black" points="1350.64,-116.78 1355.03,-107.14 1345.59,-111.93 1350.64,-116.78"/>
<text text-anchor="middle" x="1363.46" y="-130.8" font-family="Times New Roman,serif" font-size="14.00">rename</text>
</g>
<!-- Start&#45;&gt;6 -->
<g id="edge25" class="edge">
<title>Start&#45;&gt;6</title>
<path fill="none" stroke="black" d="M2095.98,-177.47C1913,-178.01 1465.04,-175.82 1406.46,-142 1397.18,-136.65 1390.16,-127.4 1385.1,-118.31"/>
<polygon fill="black" stroke="black" points="1388.09,-116.46 1380.52,-109.05 1381.82,-119.57 1388.09,-116.46"/>
<text text-anchor="middle" x="1420.46" y="-130.8" font-family="Times New Roman,serif" font-size="14.00">open</text>
</g>
<!-- Start&#45;&gt;6 -->
<g id="edge26" class="edge">
<title>Start&#45;&gt;6</title>
<path fill="none" stroke="black" d="M2095.9,-177.21C1938.79,-176.97 1588.05,-172.85 1472.46,-142 1459.34,-138.5 1430.58,-123.47 1407.59,-110.8"/>
<polygon fill="black" stroke="black" points="1409.23,-107.71 1398.79,-105.91 1405.83,-113.83 1409.23,-107.71"/>
<text text-anchor="middle" x="1486.46" y="-130.8" font-family="Times New Roman,serif" font-size="14.00">write</text>
</g>
<!-- 7 -->
<g id="node8" class="node">
<title>7</title>
<ellipse fill="none" stroke="black" cx="1570.46" cy="-91" rx="71.49" ry="18"/>
<text text-anchor="middle" x="1570.46" y="-87.3" font-family="Times New Roman,serif" font-size="14.00">[a&#45;zA&#45;z]:d{1,5}$</text>
</g>
<!-- Start&#45;&gt;7 -->
<g id="edge27" class="edge">
<title>Start&#45;&gt;7</title>
<path fill="none" stroke="black" d="M2096.69,-175.75C1926.01,-172.61 1528.42,-163.05 1508.46,-142 1497.78,-130.74 1508.37,-119.75 1523.64,-110.95"/>
<polygon fill="black" stroke="black" points="1525.28,-114.04 1532.5,-106.3 1522.02,-107.84 1525.28,-114.04"/>
<text text-anchor="middle" x="1528.46" y="-130.8" font-family="Times New Roman,serif" font-size="14.00">shmget</text>
</g>
<!-- Start&#45;&gt;7 -->
<g id="edge28" class="edge">
<title>Start&#45;&gt;7</title>
<path fill="none" stroke="black" d="M2096.92,-175.28C1938.83,-171.37 1589.4,-160.64 1571.46,-142 1565.7,-136.02 1564.1,-127.53 1564.36,-119.24"/>
<polygon fill="black" stroke="black" points="1567.87,-119.38 1565.51,-109.05 1560.91,-118.6 1567.87,-119.38"/>
<text text-anchor="middle" x="1589.96" y="-130.8" font-family="Times New Roman,serif" font-size="14.00">umask</text>
</g>
<!-- Start&#45;&gt;7 -->
<g id="edge29" class="edge">
<title>Start&#45;&gt;7</title>
<path fill="none" stroke="black" d="M2096.21,-176.89C1969.85,-175.87 1724.88,-170.18 1643.46,-142 1626.43,-136.11 1609.68,-125.11 1596.52,-114.94"/>
<polygon fill="black" stroke="black" points="1598.42,-111.97 1588.44,-108.43 1594.03,-117.42 1598.42,-111.97"/>
<text text-anchor="middle" x="1673.96" y="-130.8" font-family="Times New Roman,serif" font-size="14.00">exit_group</text>
</g>
<!-- 8 -->
<g id="node9" class="node">
<title>8</title>
<ellipse fill="none" stroke="black" cx="1885.46" cy="-91" rx="53.09" ry="18"/>
<text text-anchor="middle" x="1885.46" y="-87.3" font-family="Times New Roman,serif" font-size="14.00">^systemctl$</text>
</g>
<!-- Start&#45;&gt;8 -->
<g id="edge30" class="edge">
<title>Start&#45;&gt;8</title>
<path fill="none" stroke="black" d="M2096.1,-176.69C1972.25,-175.38 1740.73,-169.27 1715.46,-142 1681.19,-105.02 1760.46,-94.89 1821.95,-92.4"/>
<polygon fill="black" stroke="black" points="1822.15,-95.89 1832.03,-92.05 1821.91,-88.9 1822.15,-95.89"/>
<text text-anchor="middle" x="1746.96" y="-130.8" font-family="Times New Roman,serif" font-size="14.00">getsockopt</text>
</g>
<!-- Start&#45;&gt;8 -->
<g id="edge31" class="edge">
<title>Start&#45;&gt;8</title>
<path fill="none" stroke="black" d="M2096.74,-175.19C1993.63,-171.95 1820.92,-163.38 1801.46,-142 1786.77,-125.86 1808.02,-113.32 1832.82,-104.84"/>
<polygon fill="black" stroke="black" points="1833.96,-108.15 1842.43,-101.79 1831.84,-101.48 1833.96,-108.15"/>
<text text-anchor="middle" x="1832.46" y="-130.8" font-family="Times New Roman,serif" font-size="14.00">setsockopt</text>
</g>
<!-- Start&#45;&gt;8 -->
<g id="edge32" class="edge">
<title>Start&#45;&gt;8</title>
<path fill="none" stroke="black" d="M2098.96,-172.91C2018.71,-167.74 1900.53,-157.57 1886.46,-142 1880.97,-135.93 1879.39,-127.56 1879.58,-119.39"/>
<polygon fill="black" stroke="black" points="1883.07,-119.67 1880.61,-109.36 1876.11,-118.95 1883.07,-119.67"/>
<text text-anchor="middle" x="1922.96" y="-130.8" font-family="Times New Roman,serif" font-size="14.00">getsockname</text>
</g>
<!-- Start&#45;&gt;8 -->
<g id="edge33" class="edge">
<title>Start&#45;&gt;8</title>
<path fill="none" stroke="black" d="M2102.19,-170.74C2065.46,-165.83 2020.5,-157.18 1982.46,-142 1971.12,-137.48 1970.11,-132.96 1959.46,-127 1948.9,-121.1 1937.19,-115.25 1926.26,-110.08"/>
<polygon fill="black" stroke="black" points="1927.44,-106.77 1916.89,-105.72 1924.48,-113.12 1927.44,-106.77"/>
<text text-anchor="middle" x="1997.46" y="-130.8" font-family="Times New Roman,serif" font-size="14.00">wait4</text>
</g>
<!-- Start&#45;&gt;8 -->
<g id="edge34" class="edge">
<title>Start&#45;&gt;8</title>
<path fill="none" stroke="black" d="M2124.03,-164.14C2101.44,-157.95 2074.43,-150.12 2050.46,-142 2033.26,-136.17 2029.68,-132.75 2012.46,-127 1987.99,-118.82 1960.42,-111.06 1937.24,-104.93"/>
<polygon fill="black" stroke="black" points="1937.82,-101.46 1927.26,-102.32 1936.05,-108.23 1937.82,-101.46"/>
<text text-anchor="middle" x="2063.46" y="-130.8" font-family="Times New Roman,serif" font-size="14.00">exec</text>
</g>
<!-- 9 -->
<g id="node10" class="node">
<title>9</title>
<ellipse fill="none" stroke="black" cx="2198.46" cy="-91" rx="32.49" ry="18"/>
<text text-anchor="middle" x="2198.46" y="-87.3" font-family="Times New Roman,serif" font-size="14.00">/boot/</text>
</g>
<!-- Start&#45;&gt;9 -->
<g id="edge35" class="edge">
<title>Start&#45;&gt;9</title>
<path fill="none" stroke="black" d="M2117.94,-165.4C2092.71,-157.45 2071.13,-145.03 2084.46,-127 2100.73,-104.98 2130.62,-96.37 2155.72,-93.19"/>
<polygon fill="black" stroke="black" points="2156.17,-96.66 2165.77,-92.17 2155.46,-89.7 2156.17,-96.66"/>
<text text-anchor="middle" x="2092.46" y="-130.8" font-family="Times New Roman,serif" font-size="14.00">rm</text>
</g>
<!-- Start&#45;&gt;9 -->
<g id="edge36" class="edge">
<title>Start&#45;&gt;9</title>
<path fill="none" stroke="black" d="M2141.44,-161.51C2127.13,-152.36 2115.15,-140.05 2123.46,-127 2131.41,-114.52 2145.1,-106.41 2158.63,-101.18"/>
<polygon fill="black" stroke="black" points="2160.03,-104.4 2168.37,-97.87 2157.77,-97.78 2160.03,-104.4"/>
<text text-anchor="middle" x="2137.46" y="-130.8" font-family="Times New Roman,serif" font-size="14.00">write</text>
</g>
<!-- Start&#45;&gt;9 -->
<g id="edge37" class="edge">
<title>Start&#45;&gt;9</title>
<path fill="none" stroke="black" d="M2171.41,-159.94C2170.81,-150.08 2171.06,-137.58 2174.46,-127 2175.63,-123.35 2177.32,-119.73 2179.26,-116.29"/>
<polygon fill="black" stroke="black" points="2182.34,-117.98 2184.84,-107.68 2176.46,-114.18 2182.34,-117.98"/>
<text text-anchor="middle" x="2188.46" y="-130.8" font-family="Times New Roman,serif" font-size="14.00">lseek</text>
</g>
<!-- Start&#45;&gt;9 -->
<g id="edge38" class="edge">
<title>Start&#45;&gt;9</title>
<path fill="none" stroke="black" d="M2191.18,-160.36C2195.75,-154.99 2200.05,-148.68 2202.46,-142 2205.02,-134.87 2205.39,-126.82 2204.74,-119.28"/>
<polygon fill="black" stroke="black" points="2208.17,-118.54 2203.29,-109.14 2201.24,-119.53 2208.17,-118.54"/>
<text text-anchor="middle" x="2219.46" y="-130.8" font-family="Times New Roman,serif" font-size="14.00">open</text>
</g>
<!-- Start&#45;&gt;9 -->
<g id="edge39" class="edge">
<title>Start&#45;&gt;9</title>
<path fill="none" stroke="black" d="M2214.95,-162.66C2223.9,-157.57 2232.22,-150.82 2237.46,-142 2243.81,-131.28 2236.93,-120.27 2227.27,-111.32"/>
<polygon fill="black" stroke="black" points="2229.45,-108.59 2219.51,-104.92 2224.99,-113.98 2229.45,-108.59"/>
<text text-anchor="middle" x="2255.96" y="-130.8" font-family="Times New Roman,serif" font-size="14.00">clone</text>
</g>
<!-- Start&#45;&gt;9 -->
<g id="edge40" class="edge">
<title>Start&#45;&gt;9</title>
<path fill="none" stroke="black" d="M2237.87,-167.98C2252.53,-162.77 2266.43,-154.65 2275.46,-142 2288.76,-123.37 2262.89,-109.9 2237.62,-101.67"/>
<polygon fill="black" stroke="black" points="2238.63,-98.32 2228.05,-98.77 2236.6,-105.02 2238.63,-98.32"/>
<text text-anchor="middle" x="2296.46" y="-130.8" font-family="Times New Roman,serif" font-size="14.00">stat64</text>
</g>
<!-- 10 -->
<g id="node11" class="node">
<title>10</title>
<ellipse fill="none" stroke="black" cx="2516.46" cy="-91" rx="66.89" ry="18"/>
<text text-anchor="middle" x="2516.46" y="-87.3" font-family="Times New Roman,serif" font-size="14.00">/boot/[a&#45;z]{10}</text>
</g>
<!-- Start&#45;&gt;10 -->
<g id="edge41" class="edge">
<title>Start&#45;&gt;10</title>
<path fill="none" stroke="black" d="M2225.13,-164.54C2252.57,-157.9 2286.86,-149.56 2317.46,-142 2365.44,-130.14 2419.86,-116.45 2459.65,-106.4"/>
<polygon fill="black" stroke="black" points="2460.6,-109.77 2469.44,-103.92 2458.89,-102.98 2460.6,-109.77"/>
<text text-anchor="middle" x="2393.96" y="-130.8" font-family="Times New Roman,serif" font-size="14.00">clone</text>
</g>
<!-- Start&#45;&gt;10 -->
<g id="edge42" class="edge">
<title>Start&#45;&gt;10</title>
<path fill="none" stroke="black" d="M2247.71,-172.83C2295.91,-168.52 2359.57,-159.76 2413.46,-142 2426.86,-137.58 2428.83,-133.32 2441.46,-127 2452.09,-121.68 2463.68,-116.14 2474.51,-111.08"/>
<polygon fill="black" stroke="black" points="2476.19,-114.16 2483.78,-106.77 2473.24,-107.81 2476.19,-114.16"/>
<text text-anchor="middle" x="2458.46" y="-130.8" font-family="Times New Roman,serif" font-size="14.00">stat64</text>
</g>
<!-- Start&#45;&gt;10 -->
<g id="edge43" class="edge">
<title>Start&#45;&gt;10</title>
<path fill="none" stroke="black" d="M2249.47,-174.64C2325.93,-171.14 2437.76,-162.58 2475.46,-142 2486.02,-136.23 2494.92,-126.53 2501.71,-117.2"/>
<polygon fill="black" stroke="black" points="2504.64,-119.11 2507.33,-108.86 2498.84,-115.19 2504.64,-119.11"/>
<text text-anchor="middle" x="2501.46" y="-130.8" font-family="Times New Roman,serif" font-size="14.00">rm</text>
</g>
<!-- Start&#45;&gt;10 -->
<g id="edge44" class="edge">
<title>Start&#45;&gt;10</title>
<path fill="none" stroke="black" d="M2249.45,-174.3C2344.08,-170.16 2495.55,-160.69 2513.46,-142 2519.21,-136 2521.08,-127.5 2521.17,-119.21"/>
<polygon fill="black" stroke="black" points="2524.65,-118.77 2520.49,-109.03 2517.67,-119.24 2524.65,-118.77"/>
<text text-anchor="middle" x="2534.46" y="-130.8" font-family="Times New Roman,serif" font-size="14.00">write</text>
</g>
<!-- Start&#45;&gt;10 -->
<g id="edge45" class="edge">
<title>Start&#45;&gt;10</title>
<path fill="none" stroke="black" d="M2250.29,-175.34C2355.17,-172.26 2532.53,-163.85 2552.46,-142 2560,-133.73 2555.35,-123.86 2547.23,-115.08"/>
<polygon fill="black" stroke="black" points="2549.44,-112.36 2539.77,-108.03 2544.63,-117.44 2549.44,-112.36"/>
<text text-anchor="middle" x="2570.46" y="-130.8" font-family="Times New Roman,serif" font-size="14.00">lseek</text>
</g>
<!-- Start&#45;&gt;10 -->
<g id="edge46" class="edge">
<title>Start&#45;&gt;10</title>
<path fill="none" stroke="black" d="M2250.45,-176.02C2364.18,-173.75 2566.1,-166.32 2588.46,-142 2600.36,-129.05 2586.84,-117.6 2568.42,-108.94"/>
<polygon fill="black" stroke="black" points="2569.65,-105.65 2559.08,-104.91 2566.88,-112.08 2569.65,-105.65"/>
<text text-anchor="middle" x="2607.46" y="-130.8" font-family="Times New Roman,serif" font-size="14.00">open</text>
</g>
<!-- 11 -->
<g id="node12" class="node">
<title>11</title>
<ellipse fill="none" stroke="black" cx="2740.46" cy="-91" rx="27" ry="18"/>
<text text-anchor="middle" x="2740.46" y="-87.3" font-family="Times New Roman,serif" font-size="14.00">/var/</text>
</g>
<!-- Start&#45;&gt;11 -->
<g id="edge47" class="edge">
<title>Start&#45;&gt;11</title>
<path fill="none" stroke="black" d="M2249.31,-174.17C2359,-169.57 2556.33,-159.19 2625.46,-142 2655.96,-134.42 2688.63,-119.48 2711.33,-107.9"/>
<polygon fill="black" stroke="black" points="2713.15,-110.9 2720.41,-103.18 2709.92,-104.69 2713.15,-110.9"/>
<text text-anchor="middle" x="2682.46" y="-130.8" font-family="Times New Roman,serif" font-size="14.00">write</text>
</g>
<!-- Start&#45;&gt;11 -->
<g id="edge48" class="edge">
<title>Start&#45;&gt;11</title>
<path fill="none" stroke="black" d="M2250.08,-175.31C2386.67,-171.8 2661.59,-162.29 2700.46,-142 2711.17,-136.41 2720,-126.55 2726.61,-117.05"/>
<polygon fill="black" stroke="black" points="2729.6,-118.88 2732.05,-108.57 2723.7,-115.1 2729.6,-118.88"/>
<text text-anchor="middle" x="2732.46" y="-130.8" font-family="Times New Roman,serif" font-size="14.00">lseek</text>
</g>
<!-- Start&#45;&gt;11 -->
<g id="edge49" class="edge">
<title>Start&#45;&gt;11</title>
<path fill="none" stroke="black" d="M2250.03,-175.11C2403.07,-170.95 2733.57,-159.94 2750.46,-142 2756.63,-135.44 2756.32,-126.2 2753.7,-117.45"/>
<polygon fill="black" stroke="black" points="2756.88,-115.98 2749.99,-107.94 2750.36,-118.52 2756.88,-115.98"/>
<text text-anchor="middle" x="2770.46" y="-130.8" font-family="Times New Roman,serif" font-size="14.00">open</text>
</g>
<!-- Start&#45;&gt;11 -->
<g id="edge50" class="edge">
<title>Start&#45;&gt;11</title>
<path fill="none" stroke="black" d="M2250.14,-175.41C2410.97,-171.69 2770.24,-161.28 2788.46,-142 2799.47,-130.34 2786,-117.26 2770.55,-107.41"/>
<polygon fill="black" stroke="black" points="2772.3,-104.38 2761.91,-102.3 2768.74,-110.4 2772.3,-104.38"/>
<text text-anchor="middle" x="2810.46" y="-130.8" font-family="Times New Roman,serif" font-size="14.00">stat64</text>
</g>
<!-- 12 -->
<g id="node13" class="node">
<title>12</title>
<ellipse fill="none" stroke="black" cx="2812.46" cy="-91" rx="27.1" ry="18"/>
<text text-anchor="middle" x="2812.46" y="-87.3" font-family="Times New Roman,serif" font-size="14.00">^sh$</text>
</g>
<!-- Start&#45;&gt;12 -->
<g id="edge51" class="edge">
<title>Start&#45;&gt;12</title>
<path fill="none" stroke="black" d="M2250.36,-175.71C2419.77,-172.48 2811.74,-162.79 2831.46,-142 2838.26,-134.82 2836.12,-124.96 2831.29,-115.9"/>
<polygon fill="black" stroke="black" points="2834.1,-113.8 2825.8,-107.22 2828.19,-117.54 2834.1,-113.8"/>
<text text-anchor="middle" x="2856.96" y="-130.8" font-family="Times New Roman,serif" font-size="14.00">waitpid</text>
</g>
<!-- Start&#45;&gt;12 -->
<g id="edge52" class="edge">
<title>Start&#45;&gt;12</title>
<path fill="none" stroke="black" d="M2250.48,-176.01C2429.48,-173.33 2859.98,-164.56 2881.46,-142 2886.05,-137.17 2884.94,-132.68 2881.46,-127 2880.27,-125.06 2861.03,-115.38 2843.18,-106.69"/>
<polygon fill="black" stroke="black" points="2844.59,-103.49 2834.07,-102.29 2841.54,-109.79 2844.59,-103.49"/>
<text text-anchor="middle" x="2900.96" y="-130.8" font-family="Times New Roman,serif" font-size="14.00">clone</text>
</g>
<!-- 13 -->
<g id="node14" class="node">
<title>13</title>
<ellipse fill="none" stroke="black" cx="2975.46" cy="-91" rx="117.78" ry="18"/>
<text text-anchor="middle" x="2975.46" y="-87.3" font-family="Times New Roman,serif" font-size="14.00">d{1,3}.d{1,3}.d{1,3}.d{1,3}</text>
</g>
<!-- Start&#45;&gt;13 -->
<g id="edge53" class="edge">
<title>Start&#45;&gt;13</title>
<path fill="none" stroke="black" d="M2250.73,-176.33C2429.27,-174.38 2859.84,-167.08 2920.46,-142 2933.63,-136.55 2945.67,-126.49 2955.11,-116.82"/>
<polygon fill="black" stroke="black" points="2957.89,-118.97 2962.09,-109.24 2952.74,-114.22 2957.89,-118.97"/>
<text text-anchor="middle" x="2965.96" y="-130.8" font-family="Times New Roman,serif" font-size="14.00">connect</text>
</g>
<!-- Start&#45;&gt;13 -->
<g id="edge54" class="edge">
<title>Start&#45;&gt;13</title>
<path fill="none" stroke="black" d="M2250.63,-176.56C2449.73,-175.03 2967.04,-168.52 2992.46,-142 2998.7,-135.49 2997.63,-126.59 2993.95,-118.11"/>
<polygon fill="black" stroke="black" points="2996.97,-116.34 2989.15,-109.2 2990.81,-119.66 2996.97,-116.34"/>
<text text-anchor="middle" x="3028.46" y="-130.8" font-family="Times New Roman,serif" font-size="14.00">_newselect</text>
</g>
<!-- Start&#45;&gt;13 -->
<g id="edge55" class="edge">
<title>Start&#45;&gt;13</title>
<path fill="none" stroke="black" d="M2250.74,-176.83C2462.04,-176 3035.51,-171.07 3063.46,-142 3076.07,-128.88 3064.07,-118.19 3045.3,-110.11"/>
<polygon fill="black" stroke="black" points="3046.54,-106.84 3035.95,-106.47 3044,-113.36 3046.54,-106.84"/>
<text text-anchor="middle" x="3082.96" y="-130.8" font-family="Times New Roman,serif" font-size="14.00">send</text>
</g>
<!-- 14 -->
<g id="node15" class="node">
<title>14</title>
<ellipse fill="none" stroke="black" cx="3161.46" cy="-91" rx="50.09" ry="18"/>
<text text-anchor="middle" x="3161.46" y="-87.3" font-family="Times New Roman,serif" font-size="14.00">bin/openrc</text>
</g>
<!-- Start&#45;&gt;14 -->
<g id="edge56" class="edge">
<title>Start&#45;&gt;14</title>
<path fill="none" stroke="black" d="M2250.74,-176.9C2459.12,-176.23 3022.14,-171.67 3100.46,-142 3115.29,-136.38 3129.2,-125.6 3139.97,-115.49"/>
<polygon fill="black" stroke="black" points="3142.57,-117.84 3147.23,-108.33 3137.66,-112.86 3142.57,-117.84"/>
<text text-anchor="middle" x="3136.46" y="-130.8" font-family="Times New Roman,serif" font-size="14.00">stat</text>
</g>
<!-- 15 -->
<g id="node16" class="node">
<title>15</title>
<ellipse fill="none" stroke="black" cx="3247.46" cy="-18" rx="50.09" ry="18"/>
<text text-anchor="middle" x="3247.46" y="-14.3" font-family="Times New Roman,serif" font-size="14.00">bin/insserv</text>
</g>
<!-- Start&#45;&gt;15 -->
<g id="edge57" class="edge">
<title>Start&#45;&gt;15</title>
<path fill="none" stroke="black" d="M2250.67,-176.02C2466.19,-173.03 3064.17,-162.95 3150.46,-142 3183.88,-133.89 3198.01,-135.06 3220.46,-109 3235.54,-91.48 3242.2,-65.77 3245.14,-46.31"/>
<polygon fill="black" stroke="black" points="3248.63,-46.59 3246.42,-36.23 3241.69,-45.71 3248.63,-46.59"/>
<text text-anchor="middle" x="3249.46" y="-87.3" font-family="Times New Roman,serif" font-size="14.00">stat</text>
</g>
<!-- 16 -->
<g id="node17" class="node">
<title>16</title>
<ellipse fill="none" stroke="black" cx="3319.46" cy="-91" rx="33.6" ry="18"/>
<text text-anchor="middle" x="3319.46" y="-87.3" font-family="Times New Roman,serif" font-size="14.00">/etc/rc</text>
</g>
<!-- Start&#45;&gt;16 -->
<g id="edge58" class="edge">
<title>Start&#45;&gt;16</title>
<path fill="none" stroke="black" d="M2250.38,-176.03C2491.56,-172.79 3219.7,-161.45 3266.46,-142 3273.88,-138.91 3287,-126.56 3298.33,-114.9"/>
<polygon fill="black" stroke="black" points="3301.07,-117.1 3305.44,-107.45 3296.01,-112.27 3301.07,-117.1"/>
<text text-anchor="middle" x="3297.96" y="-130.8" font-family="Times New Roman,serif" font-size="14.00">lstat</text>
</g>
<!-- Start&#45;&gt;16 -->
<g id="edge59" class="edge">
<title>Start&#45;&gt;16</title>
<path fill="none" stroke="black" d="M2250.87,-177.33C2500.91,-178.06 3272.99,-177.4 3312.46,-142 3318.76,-136.34 3321.31,-127.82 3322.03,-119.42"/>
<polygon fill="black" stroke="black" points="3325.53,-119.45 3322.13,-109.41 3318.53,-119.37 3325.53,-119.45"/>
<text text-anchor="middle" x="3335.46" y="-130.8" font-family="Times New Roman,serif" font-size="14.00">write</text>
</g>
<!-- Start&#45;&gt;16 -->
<g id="edge60" class="edge">
<title>Start&#45;&gt;16</title>
<path fill="none" stroke="black" d="M2250.82,-176.14C2510.24,-173.08 3334.22,-161.82 3353.46,-142 3361.9,-133.3 3355.8,-122.26 3346.56,-112.78"/>
<polygon fill="black" stroke="black" points="3348.8,-110.08 3339.07,-105.89 3344.06,-115.23 3348.8,-110.08"/>
<text text-anchor="middle" x="3366.46" y="-130.8" font-family="Times New Roman,serif" font-size="14.00">rm</text>
</g>
<!-- 17 -->
<g id="node18" class="node">
<title>17</title>
<ellipse fill="none" stroke="black" cx="3472.46" cy="-91" rx="100.98" ry="18"/>
<text text-anchor="middle" x="3472.46" y="-87.3" font-family="Times New Roman,serif" font-size="14.00">permission(s|:)[0&#45;9]{1,4}</text>
</g>
<!-- Start&#45;&gt;17 -->
<g id="edge61" class="edge">
<title>Start&#45;&gt;17</title>
<path fill="none" stroke="black" d="M2250.94,-176.8C2500,-175.87 3270.16,-170.69 3378.46,-142 3400.21,-136.24 3422.54,-124.64 3439.97,-114.07"/>
<polygon fill="black" stroke="black" points="3441.99,-116.94 3448.61,-108.67 3438.28,-111 3441.99,-116.94"/>
<text text-anchor="middle" x="3434.96" y="-130.8" font-family="Times New Roman,serif" font-size="14.00">umask</text>
</g>
<!-- 18 -->
<g id="node19" class="node">
<title>18</title>
<ellipse fill="none" stroke="black" cx="3638.46" cy="-91" rx="46.59" ry="18"/>
<text text-anchor="middle" x="3638.46" y="-87.3" font-family="Times New Roman,serif" font-size="14.00">/etc/init.d/</text>
</g>
<!-- Start&#45;&gt;18 -->
<g id="edge62" class="edge">
<title>Start&#45;&gt;18</title>
<path fill="none" stroke="black" d="M2250.91,-177.23C2491.32,-177.57 3222.65,-175.73 3457.46,-142 3505.68,-135.07 3559.29,-119.19 3595.55,-107.17"/>
<polygon fill="black" stroke="black" points="3596.94,-110.4 3605.3,-103.9 3594.71,-103.77 3596.94,-110.4"/>
<text text-anchor="middle" x="3542.46" y="-130.8" font-family="Times New Roman,serif" font-size="14.00">write</text>
</g>
<!-- Start&#45;&gt;18 -->
<g id="edge63" class="edge">
<title>Start&#45;&gt;18</title>
<path fill="none" stroke="black" d="M2251.05,-177.48C2524.75,-178.82 3435.45,-180.34 3560.46,-142 3565.81,-140.36 3588.46,-125.68 3607.98,-112.65"/>
<polygon fill="black" stroke="black" points="3610.01,-115.5 3616.37,-107.02 3606.12,-109.69 3610.01,-115.5"/>
<text text-anchor="middle" x="3600.46" y="-130.8" font-family="Times New Roman,serif" font-size="14.00">lseek</text>
</g>
<!-- Start&#45;&gt;18 -->
<g id="edge64" class="edge">
<title>Start&#45;&gt;18</title>
<path fill="none" stroke="black" d="M2251.03,-177.38C2542.45,-178.5 3558.15,-179.7 3615.46,-142 3623.57,-136.66 3628.87,-127.67 3632.31,-118.77"/>
<polygon fill="black" stroke="black" points="3635.73,-119.56 3635.45,-108.97 3629.07,-117.42 3635.73,-119.56"/>
<text text-anchor="middle" x="3642.46" y="-130.8" font-family="Times New Roman,serif" font-size="14.00">open</text>
</g>
<!-- 19 -->
<g id="node20" class="node">
<title>19</title>
<ellipse fill="none" stroke="black" cx="3721.46" cy="-18" rx="50.09" ry="18"/>
<text text-anchor="middle" x="3721.46" y="-14.3" font-family="Times New Roman,serif" font-size="14.00">^pipe($|.|$)</text>
</g>
<!-- Start&#45;&gt;19 -->
<g id="edge65" class="edge">
<title>Start&#45;&gt;19</title>
<path fill="none" stroke="black" d="M2250.78,-176.74C2546.83,-175.55 3595.06,-169.42 3660.46,-142 3697.62,-126.42 3712.3,-77.77 3717.99,-46.53"/>
<polygon fill="black" stroke="black" points="3721.5,-46.72 3719.65,-36.29 3714.59,-45.6 3721.5,-46.72"/>
<text text-anchor="middle" x="3724.96" y="-87.3" font-family="Times New Roman,serif" font-size="14.00">pipe</text>
</g>
<!-- 20 -->
<g id="node21" class="node">
<title>20</title>
<ellipse fill="none" stroke="black" cx="3802.46" cy="-91" rx="38.19" ry="18"/>
<text text-anchor="middle" x="3802.46" y="-87.3" font-family="Times New Roman,serif" font-size="14.00">/selinux</text>
</g>
<!-- Start&#45;&gt;20 -->
<g id="edge66" class="edge">
<title>Start&#45;&gt;20</title>
<path fill="none" stroke="black" d="M2250.74,-176.53C2555.59,-174.51 3661.64,-165.57 3732.46,-142 3734.96,-141.17 3756.04,-126.01 3774.42,-112.6"/>
<polygon fill="black" stroke="black" points="3776.59,-115.35 3782.6,-106.62 3772.46,-109.7 3776.59,-115.35"/>
<text text-anchor="middle" x="3772.46" y="-130.8" font-family="Times New Roman,serif" font-size="14.00">access</text>
</g>
<!-- Start&#45;&gt;20 -->
<g id="edge67" class="edge">
<title>Start&#45;&gt;20</title>
<path fill="none" stroke="black" d="M2250.83,-176.65C2569.33,-175.04 3763.81,-167.34 3793.46,-142 3800.03,-136.38 3802.89,-127.72 3803.92,-119.18"/>
<polygon fill="black" stroke="black" points="3807.42,-119.19 3804.38,-109.04 3800.43,-118.87 3807.42,-119.19"/>
<text text-anchor="middle" x="3817.96" y="-130.8" font-family="Times New Roman,serif" font-size="14.00">statfs</text>
</g>
<!-- 21 -->
<g id="node22" class="node">
<title>21</title>
<ellipse fill="none" stroke="black" cx="3911.46" cy="-91" rx="52.79" ry="18"/>
<text text-anchor="middle" x="3911.46" y="-87.3" font-family="Times New Roman,serif" font-size="14.00">update&#45;rc.d</text>
</g>
<!-- Start&#45;&gt;21 -->
<g id="edge68" class="edge">
<title>Start&#45;&gt;21</title>
<path fill="none" stroke="black" d="M2250.74,-176.59C2568.5,-174.75 3761.12,-166.25 3837.46,-142 3855.2,-136.36 3872.58,-125.01 3886.03,-114.55"/>
<polygon fill="black" stroke="black" points="3888.3,-117.22 3893.87,-108.21 3883.89,-111.78 3888.3,-117.22"/>
<text text-anchor="middle" x="3883.96" y="-130.8" font-family="Times New Roman,serif" font-size="14.00">clone</text>
</g>
<!-- 22 -->
<g id="node23" class="node">
<title>22</title>
<ellipse fill="none" stroke="black" cx="4000.46" cy="-18" rx="31.7" ry="18"/>
<text text-anchor="middle" x="4000.46" y="-14.3" font-family="Times New Roman,serif" font-size="14.00">^sed$</text>
</g>
<!-- Start&#45;&gt;22 -->
<g id="edge69" class="edge">
<title>Start&#45;&gt;22</title>
<path fill="none" stroke="black" d="M2250.96,-177.34C2566,-178.44 3741.59,-179.96 3903.46,-142 3936.94,-134.15 3951.01,-135.06 3973.46,-109 3988.54,-91.48 3995.2,-65.77 3998.14,-46.31"/>
<polygon fill="black" stroke="black" points="4001.63,-46.59 3999.42,-36.23 3994.69,-45.71 4001.63,-46.59"/>
<text text-anchor="middle" x="4005.46" y="-87.3" font-family="Times New Roman,serif" font-size="14.00">exec</text>
</g>
<!-- 23 -->
<g id="node24" class="node">
<title>23</title>
<ellipse fill="none" stroke="black" cx="4099.46" cy="-91" rx="55.49" ry="18"/>
<text text-anchor="middle" x="4099.46" y="-87.3" font-family="Times New Roman,serif" font-size="14.00">^chkconfig$</text>
</g>
<!-- Start&#45;&gt;23 -->
<g id="edge70" class="edge">
<title>Start&#45;&gt;23</title>
<path fill="none" stroke="black" d="M2250.78,-176.63C2589.4,-174.84 3928.51,-166.28 4014.46,-142 4034.75,-136.27 4055.2,-124.47 4070.95,-113.78"/>
<polygon fill="black" stroke="black" points="4073.01,-116.61 4079.18,-108 4068.99,-110.88 4073.01,-116.61"/>
<text text-anchor="middle" x="4064.96" y="-130.8" font-family="Times New Roman,serif" font-size="14.00">clone</text>
</g>
<!-- 24 -->
<g id="node25" class="node">
<title>24</title>
<ellipse fill="none" stroke="black" cx="4190.46" cy="-18" rx="57.69" ry="18"/>
<text text-anchor="middle" x="4190.46" y="-14.3" font-family="Times New Roman,serif" font-size="14.00">/proc/rs_dev</text>
</g>
<!-- Start&#45;&gt;24 -->
<g id="edge71" class="edge">
<title>Start&#45;&gt;24</title>
<path fill="none" stroke="black" d="M2250.94,-177.3C2586.23,-178.36 3903.31,-180.04 4084.46,-142 4121.69,-134.18 4137.99,-137.27 4163.46,-109 4179.02,-91.72 4185.63,-65.76 4188.42,-46.16"/>
<polygon fill="black" stroke="black" points="4191.92,-46.36 4189.61,-36.02 4184.97,-45.54 4191.92,-46.36"/>
<text text-anchor="middle" x="4197.46" y="-87.3" font-family="Times New Roman,serif" font-size="14.00">open</text>
</g>
<!-- 25 -->
<g id="node26" class="node">
<title>25</title>
<ellipse fill="none" stroke="black" cx="4265.46" cy="-91" rx="29.5" ry="18"/>
<text text-anchor="middle" x="4265.46" y="-87.3" font-family="Times New Roman,serif" font-size="14.00">/perl/</text>
</g>
<!-- Start&#45;&gt;25 -->
<g id="edge72" class="edge">
<title>Start&#45;&gt;25</title>
<path fill="none" stroke="black" d="M2250.89,-177.09C2611.34,-177.32 4111.3,-176.21 4204.46,-142 4219.76,-136.38 4234.03,-125.17 4244.91,-114.78"/>
<polygon fill="black" stroke="black" points="4247.63,-117.01 4252.2,-107.46 4242.67,-112.08 4247.63,-117.01"/>
<text text-anchor="middle" x="4240.46" y="-130.8" font-family="Times New Roman,serif" font-size="14.00">stat</text>
</g>
<!-- 26 -->
<g id="node27" class="node">
<title>26</title>
<ellipse fill="none" stroke="black" cx="4330.46" cy="-18" rx="37.09" ry="18"/>
<text text-anchor="middle" x="4330.46" y="-14.3" font-family="Times New Roman,serif" font-size="14.00">bin/sed</text>
</g>
<!-- Start&#45;&gt;26 -->
<g id="edge73" class="edge">
<title>Start&#45;&gt;26</title>
<path fill="none" stroke="black" d="M2250.9,-176.93C2616.63,-176.44 4157.3,-172.56 4254.46,-142 4279.5,-134.12 4287.89,-130.14 4303.46,-109 4317.02,-90.58 4323.83,-65.33 4327.21,-46.26"/>
<polygon fill="black" stroke="black" points="4330.71,-46.54 4328.79,-36.12 4323.79,-45.46 4330.71,-46.54"/>
<text text-anchor="middle" x="4331.46" y="-87.3" font-family="Times New Roman,serif" font-size="14.00">stat</text>
</g>
</g>
</svg>
