<?xml version="1.0" encoding="UTF-8" standalone="no"?>
<!DOCTYPE svg PUBLIC "-//W3C//DTD SVG 1.1//EN"
 "http://www.w3.org/Graphics/SVG/1.1/DTD/svg11.dtd">
<!-- Generated by graphviz version 6.0.1 (20220911.1526)
 -->
<!-- Title: Dofloo_asg_OPset Pages: 1 -->
<svg width="3402pt" height="291pt"
 viewBox="0.00 0.00 3402.03 291.00" xmlns="http://www.w3.org/2000/svg" xmlns:xlink="http://www.w3.org/1999/xlink">
<g id="graph0" class="graph" transform="scale(1 1) rotate(0) translate(4 287)">
<title>Dofloo_asg_OPset</title>
<polygon fill="white" stroke="none" points="-4,4 -4,-287 3398.03,-287 3398.03,4 -4,4"/>
<!-- Start -->
<g id="node1" class="node">
<title>Start</title>
<ellipse fill="none" stroke="black" cx="1691.78" cy="-265" rx="77.19" ry="18"/>
<text text-anchor="middle" x="1691.78" y="-261.3" font-family="Times New Roman,serif" font-size="14.00">Malware (Subject)</text>
</g>
<!-- 1 -->
<g id="node2" class="node">
<title>1</title>
<ellipse fill="none" stroke="black" cx="174.78" cy="-178" rx="94.78" ry="18"/>
<text text-anchor="middle" x="174.78" y="-174.3" font-family="Times New Roman,serif" font-size="14.00">/etc/sed[0&#45;9a&#45;zA&#45;Z]{6}</text>
</g>
<!-- Start&#45;&gt;1 -->
<g id="edge1" class="edge">
<title>Start&#45;&gt;1</title>
<path fill="none" stroke="black" d="M1614.32,-263.85C1287.57,-263.04 37.22,-258.03 8.78,-229 -18.31,-201.34 23.74,-188.85 72.28,-183.27"/>
<polygon fill="black" stroke="black" points="72.81,-186.74 82.39,-182.22 72.08,-179.78 72.81,-186.74"/>
<text text-anchor="middle" x="43.78" y="-217.8" font-family="Times New Roman,serif" font-size="14.00">22.fchmod()</text>
</g>
<!-- Start&#45;&gt;1 -->
<g id="edge2" class="edge">
<title>Start&#45;&gt;1</title>
<path fill="none" stroke="black" d="M1614.39,-263.75C1299.31,-262.57 128.51,-256.32 101.78,-229 90.16,-217.12 101.39,-206.36 118.23,-197.89"/>
<polygon fill="black" stroke="black" points="119.82,-201.01 127.46,-193.67 116.91,-194.64 119.82,-201.01"/>
<text text-anchor="middle" x="127.28" y="-217.8" font-family="Times New Roman,serif" font-size="14.00">19.fstat()</text>
</g>
<!-- Start&#45;&gt;1 -->
<g id="edge3" class="edge">
<title>Start&#45;&gt;1</title>
<path fill="none" stroke="black" d="M1614.4,-263.65C1308.84,-262.1 201.41,-254.71 175.78,-229 169.85,-223.05 168.26,-214.47 168.57,-206.08"/>
<polygon fill="black" stroke="black" points="172.05,-206.49 169.74,-196.15 165.1,-205.67 172.05,-206.49"/>
<text text-anchor="middle" x="201.78" y="-217.8" font-family="Times New Roman,serif" font-size="14.00">18.fcntl()</text>
</g>
<!-- Start&#45;&gt;1 -->
<g id="edge4" class="edge">
<title>Start&#45;&gt;1</title>
<path fill="none" stroke="black" d="M1614.77,-263.3C1325.39,-260.54 316.2,-249.46 250.78,-229 250.46,-228.9 228.59,-214.51 208.4,-201.19"/>
<polygon fill="black" stroke="black" points="210.19,-198.18 199.92,-195.6 206.34,-204.03 210.19,-198.18"/>
<text text-anchor="middle" x="285.28" y="-217.8" font-family="Times New Roman,serif" font-size="14.00">21.fchown()</text>
</g>
<!-- Start&#45;&gt;1 -->
<g id="edge5" class="edge">
<title>Start&#45;&gt;1</title>
<path fill="none" stroke="black" d="M1614.61,-263.29C1349.78,-260.68 487.49,-250.58 364.78,-229 344.02,-225.35 340.04,-219.81 319.78,-214 295.17,-206.94 267.93,-200.11 243.78,-194.39"/>
<polygon fill="black" stroke="black" points="244.52,-190.97 233.99,-192.09 242.92,-197.79 244.52,-190.97"/>
<text text-anchor="middle" x="391.78" y="-217.8" font-family="Times New Roman,serif" font-size="14.00">20.write()</text>
</g>
<!-- 2 -->
<g id="node3" class="node">
<title>2</title>
<ellipse fill="none" stroke="black" cx="418.78" cy="-178" rx="45.49" ry="18"/>
<text text-anchor="middle" x="418.78" y="-174.3" font-family="Times New Roman,serif" font-size="14.00">/proc/self</text>
</g>
<!-- Start&#45;&gt;2 -->
<g id="edge6" class="edge">
<title>Start&#45;&gt;2</title>
<path fill="none" stroke="black" d="M1614.44,-264.36C1347.63,-265.27 479.43,-265.41 432.78,-229 425.73,-223.5 422.04,-214.75 420.17,-206.11"/>
<polygon fill="black" stroke="black" points="423.63,-205.58 418.71,-196.2 416.7,-206.6 423.63,-205.58"/>
<text text-anchor="middle" x="464.78" y="-217.8" font-family="Times New Roman,serif" font-size="14.00">2.readlink()</text>
</g>
<!-- 3 -->
<g id="node4" class="node">
<title>3</title>
<ellipse fill="none" stroke="black" cx="639.78" cy="-178" rx="59.59" ry="18"/>
<text text-anchor="middle" x="639.78" y="-174.3" font-family="Times New Roman,serif" font-size="14.00">ip_addr+port</text>
</g>
<!-- Start&#45;&gt;3 -->
<g id="edge7" class="edge">
<title>Start&#45;&gt;3</title>
<path fill="none" stroke="black" d="M1614.54,-263.15C1354.52,-260.12 526.11,-248.91 506.78,-229 481.86,-203.33 527.86,-190.7 572.43,-184.57"/>
<polygon fill="black" stroke="black" points="573,-188.03 582.48,-183.29 572.12,-181.08 573,-188.03"/>
<text text-anchor="middle" x="538.78" y="-217.8" font-family="Times New Roman,serif" font-size="14.00">33.fstat64()</text>
</g>
<!-- Start&#45;&gt;3 -->
<g id="edge8" class="edge">
<title>Start&#45;&gt;3</title>
<path fill="none" stroke="black" d="M1614.4,-264.45C1370.1,-265.48 629.21,-265.58 593.78,-229 584.71,-219.64 592.04,-209.04 603.3,-200.02"/>
<polygon fill="black" stroke="black" points="605.51,-202.75 611.58,-194.06 601.42,-197.07 605.51,-202.75"/>
<text text-anchor="middle" x="629.28" y="-217.8" font-family="Times New Roman,serif" font-size="14.00">29.connect()</text>
</g>
<!-- Start&#45;&gt;3 -->
<g id="edge9" class="edge">
<title>Start&#45;&gt;3</title>
<path fill="none" stroke="black" d="M1614.73,-262.89C1386.93,-259.42 729.85,-247.8 687.78,-229 675.59,-223.55 664.95,-213.44 656.81,-203.72"/>
<polygon fill="black" stroke="black" points="659.5,-201.48 650.58,-195.77 653.99,-205.8 659.5,-201.48"/>
<text text-anchor="middle" x="721.78" y="-217.8" font-family="Times New Roman,serif" font-size="14.00">35.mmap2()</text>
</g>
<!-- Start&#45;&gt;3 -->
<g id="edge10" class="edge">
<title>Start&#45;&gt;3</title>
<path fill="none" stroke="black" d="M1614.16,-264.41C1425.75,-264.84 948.34,-262.49 792.78,-229 775.43,-225.27 772.51,-219.9 755.78,-214 735.07,-206.69 711.95,-199.53 691.84,-193.6"/>
<polygon fill="black" stroke="black" points="692.81,-190.24 682.23,-190.79 690.85,-196.95 692.81,-190.24"/>
<text text-anchor="middle" x="836.78" y="-217.8" font-family="Times New Roman,serif" font-size="14.00">31._newselect()</text>
</g>
<!-- 4 -->
<g id="node5" class="node">
<title>4</title>
<ellipse fill="none" stroke="black" cx="975.78" cy="-178" rx="45.49" ry="18"/>
<text text-anchor="middle" x="975.78" y="-174.3" font-family="Times New Roman,serif" font-size="14.00">/proc/stat</text>
</g>
<!-- Start&#45;&gt;4 -->
<g id="edge11" class="edge">
<title>Start&#45;&gt;4</title>
<path fill="none" stroke="black" d="M1614.43,-263.48C1418.17,-261.78 914.58,-254.91 889.78,-229 873.38,-211.87 899.31,-198.73 926.89,-190.23"/>
<polygon fill="black" stroke="black" points="928,-193.55 936.64,-187.42 926.06,-186.83 928,-193.55"/>
<text text-anchor="middle" x="921.78" y="-217.8" font-family="Times New Roman,serif" font-size="14.00">42.fstat64()</text>
</g>
<!-- Start&#45;&gt;4 -->
<g id="edge12" class="edge">
<title>Start&#45;&gt;4</title>
<path fill="none" stroke="black" d="M1614.69,-263.02C1434.39,-260.35 998.73,-251.59 976.78,-229 970.99,-223.05 969.39,-214.56 969.65,-206.27"/>
<polygon fill="black" stroke="black" points="973.16,-206.41 970.81,-196.08 966.2,-205.62 973.16,-206.41"/>
<text text-anchor="middle" x="1004.28" y="-217.8" font-family="Times New Roman,serif" font-size="14.00">41.open()</text>
</g>
<!-- Start&#45;&gt;4 -->
<g id="edge13" class="edge">
<title>Start&#45;&gt;4</title>
<path fill="none" stroke="black" d="M1614.46,-263.78C1471.22,-262.69 1170.04,-257.02 1069.78,-229 1047.19,-222.69 1023.9,-210.35 1006.16,-199.51"/>
<polygon fill="black" stroke="black" points="1007.74,-196.37 997.41,-194.02 1004.02,-202.3 1007.74,-196.37"/>
<text text-anchor="middle" x="1095.28" y="-217.8" font-family="Times New Roman,serif" font-size="14.00">43.read()</text>
</g>
<!-- 5 -->
<g id="node6" class="node">
<title>5</title>
<ellipse fill="none" stroke="black" cx="1201.78" cy="-178" rx="59.29" ry="18"/>
<text text-anchor="middle" x="1201.78" y="-174.3" font-family="Times New Roman,serif" font-size="14.00">/proc/net/dev</text>
</g>
<!-- Start&#45;&gt;5 -->
<g id="edge14" class="edge">
<title>Start&#45;&gt;5</title>
<path fill="none" stroke="black" d="M1615.34,-261.99C1465.27,-257.67 1145.18,-246.45 1128.78,-229 1116.1,-215.51 1131.54,-203.64 1151.44,-194.85"/>
<polygon fill="black" stroke="black" points="1152.87,-198.05 1160.81,-191.04 1150.23,-191.56 1152.87,-198.05"/>
<text text-anchor="middle" x="1154.28" y="-217.8" font-family="Times New Roman,serif" font-size="14.00">38.read()</text>
</g>
<!-- Start&#45;&gt;5 -->
<g id="edge15" class="edge">
<title>Start&#45;&gt;5</title>
<path fill="none" stroke="black" d="M1614.52,-264.05C1483.81,-263.34 1230.47,-258.16 1202.78,-229 1197.06,-222.98 1195.48,-214.48 1195.73,-206.2"/>
<polygon fill="black" stroke="black" points="1199.24,-206.34 1196.87,-196.02 1192.28,-205.56 1199.24,-206.34"/>
<text text-anchor="middle" x="1230.28" y="-217.8" font-family="Times New Roman,serif" font-size="14.00">37.lseek()</text>
</g>
<!-- Start&#45;&gt;5 -->
<g id="edge16" class="edge">
<title>Start&#45;&gt;5</title>
<path fill="none" stroke="black" d="M1616.36,-260.86C1518.86,-256.18 1354.73,-246.07 1296.78,-229 1274.7,-222.5 1251.82,-210.64 1234.05,-200.1"/>
<polygon fill="black" stroke="black" points="1235.61,-196.95 1225.25,-194.74 1231.97,-202.93 1235.61,-196.95"/>
<text text-anchor="middle" x="1324.28" y="-217.8" font-family="Times New Roman,serif" font-size="14.00">36.open()</text>
</g>
<!-- 6 -->
<g id="node7" class="node">
<title>6</title>
<ellipse fill="none" stroke="black" cx="1382.78" cy="-178" rx="27.1" ry="18"/>
<text text-anchor="middle" x="1382.78" y="-174.3" font-family="Times New Roman,serif" font-size="14.00">^sh$</text>
</g>
<!-- Start&#45;&gt;6 -->
<g id="edge17" class="edge">
<title>Start&#45;&gt;6</title>
<path fill="none" stroke="black" d="M1615.98,-261.29C1523.03,-257.18 1375.67,-247.76 1358.78,-229 1351.68,-221.11 1355.14,-210.74 1361.39,-201.5"/>
<polygon fill="black" stroke="black" points="1364.3,-203.46 1367.69,-193.42 1358.78,-199.15 1364.3,-203.46"/>
<text text-anchor="middle" x="1389.28" y="-217.8" font-family="Times New Roman,serif" font-size="14.00">4.waitpid()</text>
</g>
<!-- Start&#45;&gt;6 -->
<g id="edge18" class="edge">
<title>Start&#45;&gt;6</title>
<path fill="none" stroke="black" d="M1616.23,-260.9C1569.58,-257 1509.21,-248.3 1458.78,-229 1440.09,-221.85 1421.28,-209.53 1407.05,-198.91"/>
<polygon fill="black" stroke="black" points="1408.89,-195.9 1398.83,-192.57 1404.62,-201.45 1408.89,-195.9"/>
<text text-anchor="middle" x="1483.78" y="-217.8" font-family="Times New Roman,serif" font-size="14.00">3.clone()</text>
</g>
<!-- 7 -->
<g id="node8" class="node">
<title>7</title>
<ellipse fill="none" stroke="black" cx="1537.78" cy="-178" rx="61.19" ry="18"/>
<text text-anchor="middle" x="1537.78" y="-174.3" font-family="Times New Roman,serif" font-size="14.00">/dev/urandom</text>
</g>
<!-- Start&#45;&gt;7 -->
<g id="edge19" class="edge">
<title>Start&#45;&gt;7</title>
<path fill="none" stroke="black" d="M1618.98,-258.72C1576.62,-253.97 1529.02,-245.13 1515.78,-229 1509.8,-221.71 1511.78,-212.54 1516.45,-204.05"/>
<polygon fill="black" stroke="black" points="1519.47,-205.82 1522.06,-195.55 1513.63,-201.97 1519.47,-205.82"/>
<text text-anchor="middle" x="1541.28" y="-217.8" font-family="Times New Roman,serif" font-size="14.00">27.read()</text>
</g>
<!-- Start&#45;&gt;7 -->
<g id="edge20" class="edge">
<title>Start&#45;&gt;7</title>
<path fill="none" stroke="black" d="M1641.07,-251.39C1624.06,-245.93 1605.44,-238.56 1589.78,-229 1578.42,-222.07 1567.53,-212.27 1558.68,-203.19"/>
<polygon fill="black" stroke="black" points="1561.15,-200.71 1551.76,-195.81 1556.05,-205.5 1561.15,-200.71"/>
<text text-anchor="middle" x="1617.28" y="-217.8" font-family="Times New Roman,serif" font-size="14.00">26.open()</text>
</g>
<!-- 8 -->
<g id="node9" class="node">
<title>8</title>
<ellipse fill="none" stroke="black" cx="1658.78" cy="-91" rx="57.39" ry="18"/>
<text text-anchor="middle" x="1658.78" y="-87.3" font-family="Times New Roman,serif" font-size="14.00">/etc/rc.*.d/.*</text>
</g>
<!-- Start&#45;&gt;8 -->
<g id="edge21" class="edge">
<title>Start&#45;&gt;8</title>
<path fill="none" stroke="black" d="M1687.72,-246.94C1686.41,-241.25 1684.98,-234.86 1683.78,-229 1676.01,-191.16 1668.2,-147.18 1663.42,-119.47"/>
<polygon fill="black" stroke="black" points="1666.83,-118.61 1661.69,-109.35 1659.93,-119.8 1666.83,-118.61"/>
<text text-anchor="middle" x="1705.28" y="-174.3" font-family="Times New Roman,serif" font-size="14.00">24.open()</text>
</g>
<!-- 9 -->
<g id="node10" class="node">
<title>9</title>
<ellipse fill="none" stroke="black" cx="1831.78" cy="-178" rx="38.99" ry="18"/>
<text text-anchor="middle" x="1831.78" y="-174.3" font-family="Times New Roman,serif" font-size="14.00">ip_addr</text>
</g>
<!-- Start&#45;&gt;9 -->
<g id="edge22" class="edge">
<title>Start&#45;&gt;9</title>
<path fill="none" stroke="black" d="M1687.31,-246.96C1685.6,-236.38 1685.54,-223.1 1692.78,-214 1704.2,-199.64 1748.58,-190.21 1784.16,-184.8"/>
<polygon fill="black" stroke="black" points="1785,-188.21 1794.4,-183.31 1784,-181.29 1785,-188.21"/>
<text text-anchor="middle" x="1728.28" y="-217.8" font-family="Times New Roman,serif" font-size="14.00">28.connect()</text>
</g>
<!-- Start&#45;&gt;9 -->
<g id="edge23" class="edge">
<title>Start&#45;&gt;9</title>
<path fill="none" stroke="black" d="M1726.15,-248.85C1738.29,-243.1 1751.88,-236.18 1763.78,-229 1778.05,-220.38 1793.06,-209.55 1805.34,-200.18"/>
<polygon fill="black" stroke="black" points="1807.6,-202.85 1813.36,-193.96 1803.31,-197.32 1807.6,-202.85"/>
<text text-anchor="middle" x="1819.78" y="-217.8" font-family="Times New Roman,serif" font-size="14.00">34.mmap2()</text>
</g>
<!-- Start&#45;&gt;9 -->
<g id="edge24" class="edge">
<title>Start&#45;&gt;9</title>
<path fill="none" stroke="black" d="M1762.33,-257.6C1800.78,-252.5 1842.91,-243.69 1854.78,-229 1860.99,-221.31 1858.42,-211.66 1853.16,-202.9"/>
<polygon fill="black" stroke="black" points="1855.86,-200.66 1847.22,-194.54 1850.16,-204.72 1855.86,-200.66"/>
<text text-anchor="middle" x="1902.78" y="-217.8" font-family="Times New Roman,serif" font-size="14.00">30._newselect()</text>
</g>
<!-- Start&#45;&gt;9 -->
<g id="edge25" class="edge">
<title>Start&#45;&gt;9</title>
<path fill="none" stroke="black" d="M1769.13,-264.34C1836.7,-262.79 1927.53,-255.61 1950.78,-229 1974.26,-202.13 1922.49,-189.34 1880,-183.51"/>
<polygon fill="black" stroke="black" points="1880.36,-180.03 1870,-182.24 1879.48,-186.98 1880.36,-180.03"/>
<text text-anchor="middle" x="1988.78" y="-217.8" font-family="Times New Roman,serif" font-size="14.00">32.fstat64()</text>
</g>
<!-- 10 -->
<g id="node11" class="node">
<title>10</title>
<ellipse fill="none" stroke="black" cx="2117.78" cy="-178" rx="44.69" ry="18"/>
<text text-anchor="middle" x="2117.78" y="-174.3" font-family="Times New Roman,serif" font-size="14.00">.*/selinux</text>
</g>
<!-- Start&#45;&gt;10 -->
<g id="edge26" class="edge">
<title>Start&#45;&gt;10</title>
<path fill="none" stroke="black" d="M1769.18,-264.28C1837.77,-262.56 1939.92,-255.16 2024.78,-229 2046.86,-222.19 2069.74,-209.97 2087.28,-199.31"/>
<polygon fill="black" stroke="black" points="2089.3,-202.18 2095.93,-193.92 2085.59,-196.24 2089.3,-202.18"/>
<text text-anchor="middle" x="2091.78" y="-217.8" font-family="Times New Roman,serif" font-size="14.00">14.access()</text>
</g>
<!-- Start&#45;&gt;10 -->
<g id="edge27" class="edge">
<title>Start&#45;&gt;10</title>
<path fill="none" stroke="black" d="M1769.25,-263.36C1888.05,-261.56 2104.02,-254.74 2127.78,-229 2133.65,-222.64 2133.58,-213.85 2131.25,-205.41"/>
<polygon fill="black" stroke="black" points="2134.45,-203.99 2127.69,-195.83 2127.89,-206.42 2134.45,-203.99"/>
<text text-anchor="middle" x="2161.28" y="-217.8" font-family="Times New Roman,serif" font-size="14.00">13.statfs()</text>
</g>
<!-- 11 -->
<g id="node12" class="node">
<title>11</title>
<ellipse fill="none" stroke="black" cx="2233.78" cy="-18" rx="46.29" ry="18"/>
<text text-anchor="middle" x="2233.78" y="-14.3" font-family="Times New Roman,serif" font-size="14.00">/.*bin/sed</text>
</g>
<!-- Start&#45;&gt;11 -->
<g id="edge28" class="edge">
<title>Start&#45;&gt;11</title>
<path fill="none" stroke="black" d="M1769.01,-263.71C1901.94,-262.47 2162.79,-256.52 2193.78,-229 2245.81,-182.8 2243.09,-91.65 2237.9,-46.16"/>
<polygon fill="black" stroke="black" points="2241.36,-45.62 2236.63,-36.14 2234.42,-46.5 2241.36,-45.62"/>
<text text-anchor="middle" x="2261.78" y="-130.8" font-family="Times New Roman,serif" font-size="14.00">11.stat()</text>
</g>
<!-- 12 -->
<g id="node13" class="node">
<title>12</title>
<ellipse fill="none" stroke="black" cx="2333.78" cy="-178" rx="64.19" ry="18"/>
<text text-anchor="middle" x="2333.78" y="-174.3" font-family="Times New Roman,serif" font-size="14.00">/sys/devices/.*</text>
</g>
<!-- Start&#45;&gt;12 -->
<g id="edge29" class="edge">
<title>Start&#45;&gt;12</title>
<path fill="none" stroke="black" d="M1769.16,-263.94C1899.92,-263.03 2158.79,-257.55 2244.78,-229 2256.36,-225.15 2257.27,-220.2 2267.78,-214 2276.4,-208.92 2285.83,-203.72 2294.78,-198.93"/>
<polygon fill="black" stroke="black" points="2296.69,-201.88 2303.9,-194.12 2293.42,-195.69 2296.69,-201.88"/>
<text text-anchor="middle" x="2293.28" y="-217.8" font-family="Times New Roman,serif" font-size="14.00">40.read()</text>
</g>
<!-- Start&#45;&gt;12 -->
<g id="edge30" class="edge">
<title>Start&#45;&gt;12</title>
<path fill="none" stroke="black" d="M1769.32,-264.58C1927.6,-265.05 2276.58,-262.26 2318.78,-229 2325.84,-223.44 2329.68,-214.68 2331.74,-206.03"/>
<polygon fill="black" stroke="black" points="2335.19,-206.59 2333.42,-196.14 2328.29,-205.41 2335.19,-206.59"/>
<text text-anchor="middle" x="2357.28" y="-217.8" font-family="Times New Roman,serif" font-size="14.00">39.open()</text>
</g>
<!-- 13 -->
<g id="node14" class="node">
<title>13</title>
<ellipse fill="none" stroke="black" cx="2466.78" cy="-178" rx="37.09" ry="18"/>
<text text-anchor="middle" x="2466.78" y="-174.3" font-family="Times New Roman,serif" font-size="14.00">^UID.*</text>
</g>
<!-- Start&#45;&gt;13 -->
<g id="edge31" class="edge">
<title>Start&#45;&gt;13</title>
<path fill="none" stroke="black" d="M1768.33,-262.38C1937.14,-258.48 2331.02,-247.51 2388.78,-229 2399.24,-225.65 2420.76,-211.63 2438.55,-199.29"/>
<polygon fill="black" stroke="black" points="2440.74,-202.02 2446.92,-193.41 2436.72,-196.29 2440.74,-202.02"/>
<text text-anchor="middle" x="2443.78" y="-217.8" font-family="Times New Roman,serif" font-size="14.00">5.getuid()</text>
</g>
<!-- Start&#45;&gt;13 -->
<g id="edge32" class="edge">
<title>Start&#45;&gt;13</title>
<path fill="none" stroke="black" d="M1768.95,-263.39C1961.54,-261.49 2449.68,-254.2 2473.78,-229 2479.7,-222.81 2480.08,-214.05 2478.28,-205.6"/>
<polygon fill="black" stroke="black" points="2481.62,-204.54 2475.38,-195.98 2474.92,-206.56 2481.62,-204.54"/>
<text text-anchor="middle" x="2509.78" y="-217.8" font-family="Times New Roman,serif" font-size="14.00">8.geteuid()</text>
</g>
<!-- 14 -->
<g id="node15" class="node">
<title>14</title>
<ellipse fill="none" stroke="black" cx="2578.78" cy="-178" rx="50.89" ry="18"/>
<text text-anchor="middle" x="2578.78" y="-174.3" font-family="Times New Roman,serif" font-size="14.00">Permission</text>
</g>
<!-- Start&#45;&gt;14 -->
<g id="edge33" class="edge">
<title>Start&#45;&gt;14</title>
<path fill="none" stroke="black" d="M1768.67,-262.68C1971.91,-258.96 2510.11,-247.42 2543.78,-229 2553.54,-223.66 2561.18,-214.29 2566.8,-205.09"/>
<polygon fill="black" stroke="black" points="2569.99,-206.56 2571.75,-196.11 2563.86,-203.18 2569.99,-206.56"/>
<text text-anchor="middle" x="2592.28" y="-217.8" font-family="Times New Roman,serif" font-size="14.00">16.umask()</text>
</g>
<!-- 15 -->
<g id="node16" class="node">
<title>15</title>
<ellipse fill="none" stroke="black" cx="2713.78" cy="-178" rx="36.29" ry="18"/>
<text text-anchor="middle" x="2713.78" y="-174.3" font-family="Times New Roman,serif" font-size="14.00">^PID.*</text>
</g>
<!-- Start&#45;&gt;15 -->
<g id="edge34" class="edge">
<title>Start&#45;&gt;15</title>
<path fill="none" stroke="black" d="M1768.84,-263.26C1978.05,-260.95 2546.46,-252.56 2627.78,-229 2648.91,-222.88 2670.31,-210.46 2686.48,-199.54"/>
<polygon fill="black" stroke="black" points="2688.69,-202.26 2694.89,-193.67 2684.68,-196.52 2688.69,-202.26"/>
<text text-anchor="middle" x="2690.28" y="-217.8" font-family="Times New Roman,serif" font-size="14.00">7.getpid()</text>
</g>
<!-- Start&#45;&gt;15 -->
<g id="edge35" class="edge">
<title>Start&#45;&gt;15</title>
<path fill="none" stroke="black" d="M1769.19,-264.27C2002.98,-264.71 2687.84,-263.08 2720.78,-229 2726.82,-222.75 2727.13,-213.84 2725.24,-205.26"/>
<polygon fill="black" stroke="black" points="2728.53,-204.05 2722.23,-195.53 2721.84,-206.12 2728.53,-204.05"/>
<text text-anchor="middle" x="2757.78" y="-217.8" font-family="Times New Roman,serif" font-size="14.00">9.getppid()</text>
</g>
<!-- 16 -->
<g id="node17" class="node">
<title>16</title>
<ellipse fill="none" stroke="black" cx="2819.78" cy="-91" rx="31.7" ry="18"/>
<text text-anchor="middle" x="2819.78" y="-87.3" font-family="Times New Roman,serif" font-size="14.00">^sed$</text>
</g>
<!-- Start&#45;&gt;16 -->
<g id="edge36" class="edge">
<title>Start&#45;&gt;16</title>
<path fill="none" stroke="black" d="M1769.09,-264.16C2013.22,-264.31 2753.85,-262.05 2792.78,-229 2824.02,-202.47 2825.77,-151.23 2823.36,-119.49"/>
<polygon fill="black" stroke="black" points="2826.81,-118.77 2822.38,-109.15 2819.84,-119.43 2826.81,-118.77"/>
<text text-anchor="middle" x="2849.78" y="-174.3" font-family="Times New Roman,serif" font-size="14.00">12.exec()</text>
</g>
<!-- 17 -->
<g id="node18" class="node">
<title>17</title>
<ellipse fill="none" stroke="black" cx="2928.78" cy="-178" rx="37.89" ry="18"/>
<text text-anchor="middle" x="2928.78" y="-174.3" font-family="Times New Roman,serif" font-size="14.00">^GID.*</text>
</g>
<!-- Start&#45;&gt;17 -->
<g id="edge37" class="edge">
<title>Start&#45;&gt;17</title>
<path fill="none" stroke="black" d="M1769.3,-264.04C2009.36,-263.83 2730.33,-260.55 2830.78,-229 2842.42,-225.34 2843.11,-219.93 2853.78,-214 2866.09,-207.16 2879.97,-200.42 2892.41,-194.72"/>
<polygon fill="black" stroke="black" points="2893.92,-197.88 2901.59,-190.57 2891.04,-191.5 2893.92,-197.88"/>
<text text-anchor="middle" x="2880.78" y="-217.8" font-family="Times New Roman,serif" font-size="14.00">6.getgid()</text>
</g>
<!-- Start&#45;&gt;17 -->
<g id="edge38" class="edge">
<title>Start&#45;&gt;17</title>
<path fill="none" stroke="black" d="M1769.02,-264.06C2029.32,-263.99 2860.8,-261.21 2907.78,-229 2915.57,-223.66 2920.47,-214.84 2923.56,-206.07"/>
<polygon fill="black" stroke="black" points="2926.95,-206.97 2926.34,-196.39 2920.22,-205.04 2926.95,-206.97"/>
<text text-anchor="middle" x="2954.28" y="-217.8" font-family="Times New Roman,serif" font-size="14.00">10.getegid()</text>
</g>
<!-- 18 -->
<g id="node19" class="node">
<title>18</title>
<ellipse fill="none" stroke="black" cx="3068.78" cy="-178" rx="53.09" ry="18"/>
<text text-anchor="middle" x="3068.78" y="-174.3" font-family="Times New Roman,serif" font-size="14.00">/etc/rc.local</text>
</g>
<!-- Start&#45;&gt;18 -->
<g id="edge39" class="edge">
<title>Start&#45;&gt;18</title>
<path fill="none" stroke="black" d="M1769.46,-264.36C2031.86,-265.23 2875.49,-265.15 2991.78,-229 3001.76,-225.9 3021.72,-212.85 3038.82,-200.87"/>
<polygon fill="black" stroke="black" points="3041.3,-203.39 3047.43,-194.75 3037.25,-197.69 3041.3,-203.39"/>
<text text-anchor="middle" x="3047.28" y="-217.8" font-family="Times New Roman,serif" font-size="14.00">15.open()</text>
</g>
<!-- Start&#45;&gt;18 -->
<g id="edge40" class="edge">
<title>Start&#45;&gt;18</title>
<path fill="none" stroke="black" d="M1769.21,-263.49C2057.43,-261.41 3052.83,-252.54 3075.78,-229 3081.76,-222.87 3082.15,-214.13 3080.35,-205.66"/>
<polygon fill="black" stroke="black" points="3083.69,-204.59 3077.44,-196.03 3076.99,-206.62 3083.69,-204.59"/>
<text text-anchor="middle" x="3115.28" y="-217.8" font-family="Times New Roman,serif" font-size="14.00">23.rename()</text>
</g>
<!-- 19 -->
<g id="node20" class="node">
<title>19</title>
<ellipse fill="none" stroke="black" cx="3179.78" cy="-18" rx="61.99" ry="18"/>
<text text-anchor="middle" x="3179.78" y="-14.3" font-family="Times New Roman,serif" font-size="14.00">permission_id</text>
</g>
<!-- Start&#45;&gt;19 -->
<g id="edge41" class="edge">
<title>Start&#45;&gt;19</title>
<path fill="none" stroke="black" d="M1769.05,-263.5C2067.11,-261.41 3126.87,-252.35 3152.78,-229 3203.97,-182.87 3194.67,-91.68 3186.02,-46.17"/>
<polygon fill="black" stroke="black" points="3189.4,-45.26 3183.98,-36.15 3182.54,-46.65 3189.4,-45.26"/>
<text text-anchor="middle" x="3224.28" y="-130.8" font-family="Times New Roman,serif" font-size="14.00">17.umask()</text>
</g>
<!-- 20 -->
<g id="node21" class="node">
<title>20</title>
<ellipse fill="none" stroke="black" cx="3261.78" cy="-178" rx="53.89" ry="18"/>
<text text-anchor="middle" x="3261.78" y="-174.3" font-family="Times New Roman,serif" font-size="14.00">/etc/init.d/.*</text>
</g>
<!-- Start&#45;&gt;20 -->
<g id="edge42" class="edge">
<title>Start&#45;&gt;20</title>
<path fill="none" stroke="black" d="M1769.01,-263.49C2066.62,-261.35 3125.93,-252.14 3193.78,-229 3210.01,-223.47 3225.6,-212.55 3237.76,-202.32"/>
<polygon fill="black" stroke="black" points="3240.4,-204.66 3245.59,-195.43 3235.77,-199.41 3240.4,-204.66"/>
<text text-anchor="middle" x="3250.28" y="-217.8" font-family="Times New Roman,serif" font-size="14.00">25.open()</text>
</g>
<!-- 21 -->
<g id="node22" class="node">
<title>21</title>
<ellipse fill="none" stroke="black" cx="3351.78" cy="-91" rx="42.49" ry="18"/>
<text text-anchor="middle" x="3351.78" y="-87.3" font-family="Times New Roman,serif" font-size="14.00">^uname$</text>
</g>
<!-- Start&#45;&gt;21 -->
<g id="edge43" class="edge">
<title>Start&#45;&gt;21</title>
<path fill="none" stroke="black" d="M1769.04,-263.63C2077.79,-262 3209.85,-254.31 3281.78,-229 3304.5,-221.01 3311.47,-216.08 3324.78,-196 3340.1,-172.88 3346.73,-141.54 3349.6,-119.32"/>
<polygon fill="black" stroke="black" points="3353.09,-119.55 3350.73,-109.22 3346.14,-118.77 3353.09,-119.55"/>
<text text-anchor="middle" x="3364.78" y="-174.3" font-family="Times New Roman,serif" font-size="14.00">1.exec()</text>
</g>
</g>
</svg>
