<?xml version="1.0" encoding="UTF-8" standalone="no"?>
<!DOCTYPE svg PUBLIC "-//W3C//DTD SVG 1.1//EN"
 "http://www.w3.org/Graphics/SVG/1.1/DTD/svg11.dtd">
<!-- Generated by graphviz version 7.1.0 (20230121.1956)
 -->
<!-- Title: G Pages: 1 -->
<svg width="958pt" height="566pt"
 viewBox="0.00 0.00 958.00 566.00" xmlns="http://www.w3.org/2000/svg" xmlns:xlink="http://www.w3.org/1999/xlink">
<g id="graph0" class="graph" transform="scale(1 1) rotate(0) translate(4 562)">
<title>G</title>
<polygon fill="white" stroke="none" points="-4,4 -4,-562 954,-562 954,4 -4,4"/>
<!-- 0 -->
<g id="node1" class="node">
<title>0</title>
<text text-anchor="middle" x="190.5" y="-536.3" font-family="Times New Roman,serif" font-size="14.00">0 (None)</text>
</g>
<!-- 5 -->
<g id="node2" class="node">
<title>5</title>
<text text-anchor="middle" x="190.5" y="-449.3" font-family="Times New Roman,serif" font-size="14.00">5 (discovered)</text>
</g>
<!-- 0&#45;&gt;5 -->
<g id="edge1" class="edge">
<title>0&#45;&gt;5</title>
<path fill="none" stroke="black" d="M190.5,-522.21C190.5,-510.8 190.5,-495.43 190.5,-482.17"/>
<polygon fill="black" stroke="black" points="194,-482.27 190.5,-472.27 187,-482.27 194,-482.27"/>
<text text-anchor="middle" x="210.5" y="-492.8" font-family="Times New Roman,serif" font-size="14.00">ROOT</text>
</g>
<!-- 3 -->
<g id="node5" class="node">
<title>3</title>
<text text-anchor="middle" x="49.5" y="-362.3" font-family="Times New Roman,serif" font-size="14.00">3 (researchers)</text>
</g>
<!-- 5&#45;&gt;3 -->
<g id="edge4" class="edge">
<title>5&#45;&gt;3</title>
<path fill="none" stroke="black" d="M151.9,-435.15C140.59,-429.77 128.35,-423.51 117.5,-417 104.41,-409.15 90.72,-399.41 79.08,-390.62"/>
<polygon fill="black" stroke="black" points="81.5,-388.06 71.43,-384.74 77.23,-393.61 81.5,-388.06"/>
<text text-anchor="middle" x="133" y="-405.8" font-family="Times New Roman,serif" font-size="14.00">nsubj</text>
</g>
<!-- 4 -->
<g id="node6" class="node">
<title>4</title>
<text text-anchor="middle" x="146.5" y="-362.3" font-family="Times New Roman,serif" font-size="14.00">4 (also)</text>
</g>
<!-- 5&#45;&gt;4 -->
<g id="edge5" class="edge">
<title>5&#45;&gt;4</title>
<path fill="none" stroke="black" d="M171.3,-435.32C166.13,-429.94 161.01,-423.64 157.5,-417 153.96,-410.3 151.55,-402.51 149.92,-395.1"/>
<polygon fill="black" stroke="black" points="153.41,-394.71 148.21,-385.48 146.52,-395.94 153.41,-394.71"/>
<text text-anchor="middle" x="180.5" y="-405.8" font-family="Times New Roman,serif" font-size="14.00">advmod</text>
</g>
<!-- 15 -->
<g id="node7" class="node">
<title>15</title>
<text text-anchor="middle" x="235.5" y="-362.3" font-family="Times New Roman,serif" font-size="14.00">15 (modify)</text>
</g>
<!-- 5&#45;&gt;15 -->
<g id="edge6" class="edge">
<title>5&#45;&gt;15</title>
<path fill="none" stroke="black" d="M199.39,-435.21C205.68,-423.33 214.23,-407.17 221.44,-393.56"/>
<polygon fill="black" stroke="black" points="224.33,-395.57 225.92,-385.1 218.15,-392.3 224.33,-395.57"/>
<text text-anchor="middle" x="236.5" y="-405.8" font-family="Times New Roman,serif" font-size="14.00">ccomp</text>
</g>
<!-- 27 -->
<g id="node8" class="node">
<title>27</title>
<text text-anchor="middle" x="322.5" y="-362.3" font-family="Times New Roman,serif" font-size="14.00">27 (.)</text>
</g>
<!-- 5&#45;&gt;27 -->
<g id="edge7" class="edge">
<title>5&#45;&gt;27</title>
<path fill="none" stroke="black" d="M228.01,-435.1C238.77,-429.76 250.33,-423.54 260.5,-417 272.38,-409.37 284.64,-399.87 295.1,-391.21"/>
<polygon fill="black" stroke="black" points="297.23,-393.99 302.61,-384.86 292.71,-388.64 297.23,-393.99"/>
<text text-anchor="middle" x="296.5" y="-405.8" font-family="Times New Roman,serif" font-size="14.00">punct</text>
</g>
<!-- 1 -->
<g id="node3" class="node">
<title>1</title>
<text text-anchor="middle" x="49.5" y="-188.3" font-family="Times New Roman,serif" font-size="14.00">1 (Trend)</text>
</g>
<!-- 2 -->
<g id="node4" class="node">
<title>2</title>
<text text-anchor="middle" x="49.5" y="-275.3" font-family="Times New Roman,serif" font-size="14.00">2 (Micro)</text>
</g>
<!-- 2&#45;&gt;1 -->
<g id="edge2" class="edge">
<title>2&#45;&gt;1</title>
<path fill="none" stroke="black" d="M49.5,-261.21C49.5,-249.8 49.5,-234.43 49.5,-221.17"/>
<polygon fill="black" stroke="black" points="53,-221.27 49.5,-211.27 46,-221.27 53,-221.27"/>
<text text-anchor="middle" x="80" y="-231.8" font-family="Times New Roman,serif" font-size="14.00">compound</text>
</g>
<!-- 3&#45;&gt;2 -->
<g id="edge3" class="edge">
<title>3&#45;&gt;2</title>
<path fill="none" stroke="black" d="M49.5,-348.21C49.5,-336.8 49.5,-321.43 49.5,-308.17"/>
<polygon fill="black" stroke="black" points="53,-308.27 49.5,-298.27 46,-308.27 53,-308.27"/>
<text text-anchor="middle" x="80" y="-318.8" font-family="Times New Roman,serif" font-size="14.00">compound</text>
</g>
<!-- 6 -->
<g id="node9" class="node">
<title>6</title>
<text text-anchor="middle" x="142.5" y="-275.3" font-family="Times New Roman,serif" font-size="14.00">6 (that)</text>
</g>
<!-- 15&#45;&gt;6 -->
<g id="edge14" class="edge">
<title>15&#45;&gt;6</title>
<path fill="none" stroke="black" d="M217.13,-348.21C203.37,-335.63 184.35,-318.25 168.96,-304.18"/>
<polygon fill="black" stroke="black" points="171.7,-301.94 161.95,-297.78 166.97,-307.11 171.7,-301.94"/>
<text text-anchor="middle" x="209.5" y="-318.8" font-family="Times New Roman,serif" font-size="14.00">mark</text>
</g>
<!-- 9 -->
<g id="node12" class="node">
<title>9</title>
<text text-anchor="middle" x="225.5" y="-275.3" font-family="Times New Roman,serif" font-size="14.00">9 (variant)</text>
</g>
<!-- 15&#45;&gt;9 -->
<g id="edge15" class="edge">
<title>15&#45;&gt;9</title>
<path fill="none" stroke="black" d="M233.52,-348.21C232.18,-336.8 230.37,-321.43 228.81,-308.17"/>
<polygon fill="black" stroke="black" points="232.29,-307.78 227.65,-298.26 225.34,-308.6 232.29,-307.78"/>
<text text-anchor="middle" x="247" y="-318.8" font-family="Times New Roman,serif" font-size="14.00">nsubj</text>
</g>
<!-- 14 -->
<g id="node17" class="node">
<title>14</title>
<text text-anchor="middle" x="311.5" y="-275.3" font-family="Times New Roman,serif" font-size="14.00">14 (can)</text>
</g>
<!-- 15&#45;&gt;14 -->
<g id="edge16" class="edge">
<title>15&#45;&gt;14</title>
<path fill="none" stroke="black" d="M250.52,-348.21C261.55,-335.87 276.72,-318.89 289.18,-304.97"/>
<polygon fill="black" stroke="black" points="291.45,-307.67 295.51,-297.89 286.23,-303.01 291.45,-307.67"/>
<text text-anchor="middle" x="288.5" y="-318.8" font-family="Times New Roman,serif" font-size="14.00">aux</text>
</g>
<!-- 16 -->
<g id="node18" class="node">
<title>16</title>
<text text-anchor="middle" x="487.5" y="-275.3" font-family="Times New Roman,serif" font-size="14.00">16 (files)</text>
</g>
<!-- 15&#45;&gt;16 -->
<g id="edge17" class="edge">
<title>15&#45;&gt;16</title>
<path fill="none" stroke="black" d="M276.83,-351.06C323.11,-335.45 397.75,-310.27 444.64,-294.46"/>
<polygon fill="black" stroke="black" points="445.56,-297.84 453.92,-291.33 443.33,-291.21 445.56,-297.84"/>
<text text-anchor="middle" x="387" y="-318.8" font-family="Times New Roman,serif" font-size="14.00">obj</text>
</g>
<!-- 7 -->
<g id="node10" class="node">
<title>7</title>
<text text-anchor="middle" x="140.5" y="-188.3" font-family="Times New Roman,serif" font-size="14.00">7 (the)</text>
</g>
<!-- 8 -->
<g id="node11" class="node">
<title>8</title>
<text text-anchor="middle" x="218.5" y="-188.3" font-family="Times New Roman,serif" font-size="14.00">8 (latest)</text>
</g>
<!-- 9&#45;&gt;7 -->
<g id="edge8" class="edge">
<title>9&#45;&gt;7</title>
<path fill="none" stroke="black" d="M208.71,-261.21C196.25,-248.75 179.07,-231.57 165.07,-217.57"/>
<polygon fill="black" stroke="black" points="167.87,-215.42 158.33,-210.83 162.92,-220.37 167.87,-215.42"/>
<text text-anchor="middle" x="197.5" y="-231.8" font-family="Times New Roman,serif" font-size="14.00">det</text>
</g>
<!-- 9&#45;&gt;8 -->
<g id="edge9" class="edge">
<title>9&#45;&gt;8</title>
<path fill="none" stroke="black" d="M224.12,-261.21C223.18,-249.8 221.91,-234.43 220.82,-221.17"/>
<polygon fill="black" stroke="black" points="224.31,-220.95 220,-211.27 217.34,-221.52 224.31,-220.95"/>
<text text-anchor="middle" x="238.5" y="-231.8" font-family="Times New Roman,serif" font-size="14.00">amod</text>
</g>
<!-- 13 -->
<g id="node13" class="node">
<title>13</title>
<text text-anchor="middle" x="300.5" y="-188.3" font-family="Times New Roman,serif" font-size="14.00">13 (bot)</text>
</g>
<!-- 9&#45;&gt;13 -->
<g id="edge10" class="edge">
<title>9&#45;&gt;13</title>
<path fill="none" stroke="black" d="M241.81,-261.09C247.2,-255.41 253.17,-248.99 258.5,-243 265.43,-235.21 272.81,-226.56 279.41,-218.68"/>
<polygon fill="black" stroke="black" points="282.06,-220.96 285.77,-211.03 276.68,-216.48 282.06,-220.96"/>
<text text-anchor="middle" x="288" y="-231.8" font-family="Times New Roman,serif" font-size="14.00">nmod</text>
</g>
<!-- 10 -->
<g id="node14" class="node">
<title>10</title>
<text text-anchor="middle" x="181.5" y="-101.3" font-family="Times New Roman,serif" font-size="14.00">10 (of)</text>
</g>
<!-- 13&#45;&gt;10 -->
<g id="edge11" class="edge">
<title>13&#45;&gt;10</title>
<path fill="none" stroke="black" d="M274.12,-174.06C265.55,-168.43 256.05,-162.05 247.5,-156 235.68,-147.63 222.93,-138.1 211.83,-129.62"/>
<polygon fill="black" stroke="black" points="214.2,-127.03 204.14,-123.72 209.94,-132.59 214.2,-127.03"/>
<text text-anchor="middle" x="260" y="-144.8" font-family="Times New Roman,serif" font-size="14.00">case</text>
</g>
<!-- 11 -->
<g id="node15" class="node">
<title>11</title>
<text text-anchor="middle" x="256.5" y="-101.3" font-family="Times New Roman,serif" font-size="14.00">11 (the)</text>
</g>
<!-- 13&#45;&gt;11 -->
<g id="edge12" class="edge">
<title>13&#45;&gt;11</title>
<path fill="none" stroke="black" d="M291.81,-174.21C285.72,-162.45 277.46,-146.48 270.45,-132.96"/>
<polygon fill="black" stroke="black" points="273.58,-131.37 265.87,-124.1 267.36,-134.59 273.58,-131.37"/>
<text text-anchor="middle" x="290.5" y="-144.8" font-family="Times New Roman,serif" font-size="14.00">det</text>
</g>
<!-- 12 -->
<g id="node16" class="node">
<title>12</title>
<text text-anchor="middle" x="356.5" y="-101.3" font-family="Times New Roman,serif" font-size="14.00">12 (AESDDoS)</text>
</g>
<!-- 13&#45;&gt;12 -->
<g id="edge13" class="edge">
<title>13&#45;&gt;12</title>
<path fill="none" stroke="black" d="M311.56,-174.21C319.46,-162.22 330.25,-145.85 339.27,-132.16"/>
<polygon fill="black" stroke="black" points="342.05,-134.3 344.63,-124.02 336.2,-130.45 342.05,-134.3"/>
<text text-anchor="middle" x="363" y="-144.8" font-family="Times New Roman,serif" font-size="14.00">compound</text>
</g>
<!-- 19 -->
<g id="node19" class="node">
<title>19</title>
<text text-anchor="middle" x="567.5" y="-188.3" font-family="Times New Roman,serif" font-size="14.00">19 (file_1)</text>
</g>
<!-- 16&#45;&gt;19 -->
<g id="edge18" class="edge">
<title>16&#45;&gt;19</title>
<path fill="none" stroke="black" d="M503.31,-261.21C514.92,-248.87 530.89,-231.89 544,-217.97"/>
<polygon fill="black" stroke="black" points="546.39,-220.54 550.69,-210.86 541.29,-215.74 546.39,-220.54"/>
<text text-anchor="middle" x="543.5" y="-231.8" font-family="Times New Roman,serif" font-size="14.00">dep</text>
</g>
<!-- 17 -->
<g id="node20" class="node">
<title>17</title>
<text text-anchor="middle" x="456.5" y="-101.3" font-family="Times New Roman,serif" font-size="14.00">17 (i.e.)</text>
</g>
<!-- 19&#45;&gt;17 -->
<g id="edge19" class="edge">
<title>19&#45;&gt;17</title>
<path fill="none" stroke="black" d="M530.79,-177.9C518.17,-172.34 504.48,-165.02 493.5,-156 485.46,-149.4 478.24,-140.69 472.35,-132.39"/>
<polygon fill="black" stroke="black" points="475.38,-130.62 466.92,-124.24 469.56,-134.51 475.38,-130.62"/>
<text text-anchor="middle" x="516.5" y="-144.8" font-family="Times New Roman,serif" font-size="14.00">advmod</text>
</g>
<!-- 18 -->
<g id="node21" class="node">
<title>18</title>
<text text-anchor="middle" x="531.5" y="-101.3" font-family="Times New Roman,serif" font-size="14.00">18 (,)</text>
</g>
<!-- 19&#45;&gt;18 -->
<g id="edge20" class="edge">
<title>19&#45;&gt;18</title>
<path fill="none" stroke="black" d="M558.26,-174.12C555.3,-168.44 552.12,-162.02 549.5,-156 546.37,-148.81 543.34,-140.88 540.68,-133.5"/>
<polygon fill="black" stroke="black" points="544.07,-132.59 537.47,-124.31 537.46,-134.9 544.07,-132.59"/>
<text text-anchor="middle" x="565.5" y="-144.8" font-family="Times New Roman,serif" font-size="14.00">punct</text>
</g>
<!-- 22 -->
<g id="node22" class="node">
<title>22</title>
<text text-anchor="middle" x="603.5" y="-101.3" font-family="Times New Roman,serif" font-size="14.00">22 (,)</text>
</g>
<!-- 19&#45;&gt;22 -->
<g id="edge21" class="edge">
<title>19&#45;&gt;22</title>
<path fill="none" stroke="black" d="M574.61,-174.21C579.54,-162.56 586.22,-146.8 591.91,-133.36"/>
<polygon fill="black" stroke="black" points="595.13,-134.73 595.81,-124.15 588.69,-132 595.13,-134.73"/>
<text text-anchor="middle" x="604.5" y="-144.8" font-family="Times New Roman,serif" font-size="14.00">punct</text>
</g>
<!-- 21 -->
<g id="node23" class="node">
<title>21</title>
<text text-anchor="middle" x="685.5" y="-101.3" font-family="Times New Roman,serif" font-size="14.00">21 (file_2)</text>
</g>
<!-- 19&#45;&gt;21 -->
<g id="edge22" class="edge">
<title>19&#45;&gt;21</title>
<path fill="none" stroke="black" d="M596.7,-174.12C605.77,-168.59 615.7,-162.26 624.5,-156 635.72,-148.02 647.53,-138.59 657.75,-130.09"/>
<polygon fill="black" stroke="black" points="659.71,-133.01 665.1,-123.89 655.2,-127.66 659.71,-133.01"/>
<text text-anchor="middle" x="657" y="-144.8" font-family="Times New Roman,serif" font-size="14.00">conj</text>
</g>
<!-- 26 -->
<g id="node24" class="node">
<title>26</title>
<text text-anchor="middle" x="800.5" y="-101.3" font-family="Times New Roman,serif" font-size="14.00">26 (technique)</text>
</g>
<!-- 19&#45;&gt;26 -->
<g id="edge23" class="edge">
<title>19&#45;&gt;26</title>
<path fill="none" stroke="black" d="M604.47,-179.36C624.91,-172.78 650.72,-164.24 673.5,-156 698.41,-146.99 725.79,-136.32 748.72,-127.15"/>
<polygon fill="black" stroke="black" points="749.87,-130.45 757.85,-123.48 747.27,-123.96 749.87,-130.45"/>
<text text-anchor="middle" x="722" y="-144.8" font-family="Times New Roman,serif" font-size="14.00">obl</text>
</g>
<!-- 20 -->
<g id="node25" class="node">
<title>20</title>
<text text-anchor="middle" x="661.5" y="-14.3" font-family="Times New Roman,serif" font-size="14.00">20 (and)</text>
</g>
<!-- 21&#45;&gt;20 -->
<g id="edge24" class="edge">
<title>21&#45;&gt;20</title>
<path fill="none" stroke="black" d="M680.76,-87.21C677.5,-75.68 673.11,-60.12 669.34,-46.76"/>
<polygon fill="black" stroke="black" points="672.73,-45.89 666.64,-37.21 665.99,-47.79 672.73,-45.89"/>
<text text-anchor="middle" x="682.5" y="-57.8" font-family="Times New Roman,serif" font-size="14.00">cc</text>
</g>
<!-- 23 -->
<g id="node26" class="node">
<title>23</title>
<text text-anchor="middle" x="738.5" y="-14.3" font-family="Times New Roman,serif" font-size="14.00">23 (as)</text>
</g>
<!-- 26&#45;&gt;23 -->
<g id="edge25" class="edge">
<title>26&#45;&gt;23</title>
<path fill="none" stroke="black" d="M788.25,-87.21C779.42,-75.1 767.34,-58.53 757.29,-44.76"/>
<polygon fill="black" stroke="black" points="760.34,-43 751.62,-36.98 754.68,-47.12 760.34,-43"/>
<text text-anchor="middle" x="786" y="-57.8" font-family="Times New Roman,serif" font-size="14.00">case</text>
</g>
<!-- 24 -->
<g id="node27" class="node">
<title>24</title>
<text text-anchor="middle" x="812.5" y="-14.3" font-family="Times New Roman,serif" font-size="14.00">24 (an)</text>
</g>
<!-- 26&#45;&gt;24 -->
<g id="edge26" class="edge">
<title>26&#45;&gt;24</title>
<path fill="none" stroke="black" d="M802.87,-87.21C804.5,-75.68 806.7,-60.12 808.58,-46.76"/>
<polygon fill="black" stroke="black" points="811.99,-47.65 809.92,-37.26 805.06,-46.67 811.99,-47.65"/>
<text text-anchor="middle" x="816.5" y="-57.8" font-family="Times New Roman,serif" font-size="14.00">det</text>
</g>
<!-- 25 -->
<g id="node28" class="node">
<title>25</title>
<text text-anchor="middle" x="904.5" y="-14.3" font-family="Times New Roman,serif" font-size="14.00">25 (autostart)</text>
</g>
<!-- 26&#45;&gt;25 -->
<g id="edge27" class="edge">
<title>26&#45;&gt;25</title>
<path fill="none" stroke="black" d="M821.05,-87.21C836.57,-74.52 858.09,-56.93 875.39,-42.79"/>
<polygon fill="black" stroke="black" points="877.3,-45.75 882.82,-36.72 872.87,-40.33 877.3,-45.75"/>
<text text-anchor="middle" x="890" y="-57.8" font-family="Times New Roman,serif" font-size="14.00">compound</text>
</g>
</g>
</svg>
