<?xml version="1.0" encoding="UTF-8" standalone="no"?>
<!DOCTYPE svg PUBLIC "-//W3C//DTD SVG 1.1//EN"
 "http://www.w3.org/Graphics/SVG/1.1/DTD/svg11.dtd">
<!-- Generated by graphviz version 6.0.1 (20220911.1526)
 -->
<!-- Title: DATA_EXEC/report1_intezer.dot Pages: 1 -->
<svg width="188pt" height="333pt"
 viewBox="0.00 0.00 188.00 333.00" xmlns="http://www.w3.org/2000/svg" xmlns:xlink="http://www.w3.org/1999/xlink">
<g id="graph0" class="graph" transform="scale(1 1) rotate(0) translate(4 329)">
<title>DATA_EXEC/report1_intezer.dot</title>
<polygon fill="white" stroke="none" points="-4,4 -4,-329 184,-329 184,4 -4,4"/>
<!-- &#39;*&#39; -->
<g id="node1" class="node">
<title>&#39;*&#39;</title>
<polygon fill="none" stroke="black" points="70,-36 16,-36 16,0 70,0 70,-36"/>
<text text-anchor="middle" x="43" y="-14.3" font-family="Times New Roman,serif" font-size="14.00">&#39;*&#39;</text>
</g>
<!-- &#39;*&#39;&#45;&gt;&#39;*&#39; -->
<g id="edge6" class="edge">
<title>&#39;*&#39;&#45;&gt;&#39;*&#39;</title>
<path fill="none" stroke="black" d="M39.81,-36.1C39.03,-47.32 40.1,-58 43,-58 44.99,-58 46.12,-52.95 46.38,-46.15"/>
<polygon fill="black" stroke="black" points="49.88,-46.03 46.19,-36.1 42.88,-46.16 49.88,-46.03"/>
<text text-anchor="middle" x="43" y="-61.8" font-family="Times New Roman,serif" font-size="14.00">1: fork</text>
</g>
<!-- &#39;*&#39;&#45;&gt;&#39;*&#39; -->
<g id="edge7" class="edge">
<title>&#39;*&#39;&#45;&gt;&#39;*&#39;</title>
<path fill="none" stroke="black" d="M37.9,-36.09C34.39,-56.51 36.09,-80 43,-80 48.78,-80 50.91,-63.58 49.41,-46.27"/>
<polygon fill="black" stroke="black" points="52.85,-45.56 48.1,-36.09 45.9,-46.45 52.85,-45.56"/>
<text text-anchor="middle" x="43" y="-83.8" font-family="Times New Roman,serif" font-size="14.00">2: unlink</text>
</g>
<!-- &#39;*&#39;&#45;&gt;&#39;*&#39; -->
<g id="edge8" class="edge">
<title>&#39;*&#39;&#45;&gt;&#39;*&#39;</title>
<path fill="none" stroke="black" d="M36.72,-36.15C29.73,-65.03 31.83,-102 43,-102 52.91,-102 55.68,-72.93 51.31,-46.21"/>
<polygon fill="black" stroke="black" points="54.69,-45.26 49.28,-36.15 47.82,-46.64 54.69,-45.26"/>
<text text-anchor="middle" x="43" y="-105.8" font-family="Times New Roman,serif" font-size="14.00">3: write</text>
</g>
<!-- .*\* -->
<g id="node2" class="node">
<title>.*\*</title>
<ellipse fill="none" stroke="black" cx="153" cy="-18" rx="27" ry="18"/>
<text text-anchor="middle" x="153" y="-14.3" font-family="Times New Roman,serif" font-size="14.00">.**</text>
</g>
<!-- &#39;*&#39;&#45;&gt;.*\* -->
<g id="edge1" class="edge">
<title>&#39;*&#39;&#45;&gt;.*\*</title>
<path fill="none" stroke="black" d="M70.14,-18C83.71,-18 100.5,-18 115.34,-18"/>
<polygon fill="black" stroke="black" points="115.72,-21.5 125.72,-18 115.72,-14.5 115.72,-21.5"/>
<text text-anchor="middle" x="98" y="-21.8" font-family="Times New Roman,serif" font-size="14.00">1: exec</text>
</g>
<!-- * -->
<g id="node3" class="node">
<title>*</title>
<ellipse fill="none" stroke="black" cx="43" cy="-175" rx="27" ry="18"/>
<text text-anchor="middle" x="43" y="-171.3" font-family="Times New Roman,serif" font-size="14.00">*</text>
</g>
<!-- *&#45;&gt;* -->
<g id="edge2" class="edge">
<title>*&#45;&gt;*</title>
<path fill="none" stroke="black" d="M40.6,-193.1C40.03,-204.32 40.82,-215 43,-215 44.5,-215 45.34,-209.95 45.53,-203.15"/>
<polygon fill="black" stroke="black" points="49.03,-203.05 45.4,-193.1 42.03,-203.15 49.03,-203.05"/>
<text text-anchor="middle" x="43" y="-218.8" font-family="Times New Roman,serif" font-size="14.00">1: hide</text>
</g>
<!-- *&#45;&gt;* -->
<g id="edge3" class="edge">
<title>*&#45;&gt;*</title>
<path fill="none" stroke="black" d="M39.17,-193.09C36.54,-213.51 37.82,-237 43,-237 47.33,-237 48.93,-220.58 47.81,-203.27"/>
<polygon fill="black" stroke="black" points="51.27,-202.71 46.83,-193.09 44.3,-203.38 51.27,-202.71"/>
<text text-anchor="middle" x="43" y="-240.8" font-family="Times New Roman,serif" font-size="14.00">2: be</text>
</g>
<!-- *&#45;&gt;* -->
<g id="edge4" class="edge">
<title>*&#45;&gt;*</title>
<path fill="none" stroke="black" d="M38.36,-192.73C33.04,-221.67 34.58,-259 43,-259 50.47,-259 52.53,-229.65 49.18,-202.83"/>
<polygon fill="black" stroke="black" points="52.61,-202.09 47.64,-192.73 45.69,-203.15 52.61,-202.09"/>
<text text-anchor="middle" x="43" y="-262.8" font-family="Times New Roman,serif" font-size="14.00">3: compare</text>
</g>
<!-- *&#45;&gt;* -->
<g id="edge5" class="edge">
<title>*&#45;&gt;*</title>
<path fill="none" stroke="black" d="M37.79,-192.72C29.55,-229.76 31.29,-281 43,-281 53.7,-281 56.07,-238.18 50.12,-202.54"/>
<polygon fill="black" stroke="black" points="53.55,-201.88 48.21,-192.72 46.68,-203.21 53.55,-201.88"/>
<text text-anchor="middle" x="43" y="-284.8" font-family="Times New Roman,serif" font-size="14.00">4: donâx80x99t</text>
</g>
</g>
</svg>
