<?xml version="1.0" encoding="UTF-8" standalone="no"?>
<!DOCTYPE svg PUBLIC "-//W3C//DTD SVG 1.1//EN"
 "http://www.w3.org/Graphics/SVG/1.1/DTD/svg11.dtd">
<!-- Generated by graphviz version 6.0.1 (20220911.1526)
 -->
<!-- Title: DATA_EXEC/report2_ms.dot Pages: 1 -->
<svg width="205pt" height="358pt"
 viewBox="0.00 0.00 204.69 358.00" xmlns="http://www.w3.org/2000/svg" xmlns:xlink="http://www.w3.org/1999/xlink">
<g id="graph0" class="graph" transform="scale(1 1) rotate(0) translate(4 354)">
<title>DATA_EXEC/report2_ms.dot</title>
<polygon fill="white" stroke="none" points="-4,4 -4,-354 200.69,-354 200.69,4 -4,4"/>
<!-- &#39;*&#39; -->
<g id="node1" class="node">
<title>&#39;*&#39;</title>
<polygon fill="none" stroke="black" points="56,-94 2,-94 2,-58 56,-58 56,-94"/>
<text text-anchor="middle" x="29" y="-72.3" font-family="Times New Roman,serif" font-size="14.00">&#39;*&#39;</text>
</g>
<!-- &#39;*&#39;&#45;&gt;&#39;*&#39; -->
<g id="edge1" class="edge">
<title>&#39;*&#39;&#45;&gt;&#39;*&#39;</title>
<path fill="none" stroke="black" d="M25.57,-94.1C24.75,-105.32 25.89,-116 29,-116 31.14,-116 32.35,-110.95 32.63,-104.15"/>
<polygon fill="black" stroke="black" points="36.12,-104.03 32.43,-94.1 29.13,-104.17 36.12,-104.03"/>
<text text-anchor="middle" x="29" y="-119.8" font-family="Times New Roman,serif" font-size="14.00">1: write</text>
</g>
<!-- &#39;*&#39;&#45;&gt;&#39;*&#39; -->
<g id="edge2" class="edge">
<title>&#39;*&#39;&#45;&gt;&#39;*&#39;</title>
<path fill="none" stroke="black" d="M23.53,-94.09C19.76,-114.51 21.59,-138 29,-138 35.2,-138 37.49,-121.58 35.87,-104.27"/>
<polygon fill="black" stroke="black" points="39.3,-103.52 34.47,-94.09 32.37,-104.47 39.3,-103.52"/>
<text text-anchor="middle" x="29" y="-141.8" font-family="Times New Roman,serif" font-size="14.00">4: fork</text>
</g>
<!-- &#39;*&#39;&#45;&gt;&#39;*&#39; -->
<g id="edge3" class="edge">
<title>&#39;*&#39;&#45;&gt;&#39;*&#39;</title>
<path fill="none" stroke="black" d="M22.26,-94.15C14.77,-123.03 17.02,-160 29,-160 39.63,-160 42.6,-130.93 37.91,-104.21"/>
<polygon fill="black" stroke="black" points="41.27,-103.19 35.74,-94.15 34.43,-104.66 41.27,-103.19"/>
<text text-anchor="middle" x="29" y="-163.8" font-family="Times New Roman,serif" font-size="14.00">7: write</text>
</g>
<!-- .*\* -->
<g id="node2" class="node">
<title>.*\*</title>
<ellipse fill="none" stroke="black" cx="158.35" cy="-134" rx="27" ry="18"/>
<text text-anchor="middle" x="158.35" y="-130.3" font-family="Times New Roman,serif" font-size="14.00">.**</text>
</g>
<!-- &#39;*&#39;&#45;&gt;.*\* -->
<g id="edge4" class="edge">
<title>&#39;*&#39;&#45;&gt;.*\*</title>
<path fill="none" stroke="black" d="M56.15,-91.89C58.77,-93.33 61.42,-94.73 64,-96 83.72,-105.75 106.58,-115.09 124.75,-122.07"/>
<polygon fill="black" stroke="black" points="123.71,-125.42 134.3,-125.69 126.19,-118.87 123.71,-125.42"/>
<text text-anchor="middle" x="88" y="-119.8" font-family="Times New Roman,serif" font-size="14.00">5: exec</text>
</g>
<!-- &#39;gcc.sh&#39; -->
<g id="node4" class="node">
<title>&#39;gcc.sh&#39;</title>
<ellipse fill="none" stroke="black" cx="158.35" cy="-76" rx="38.19" ry="18"/>
<text text-anchor="middle" x="158.35" y="-72.3" font-family="Times New Roman,serif" font-size="14.00">&#39;gcc.sh&#39;</text>
</g>
<!-- &#39;*&#39;&#45;&gt;&#39;gcc.sh&#39; -->
<g id="edge8" class="edge">
<title>&#39;*&#39;&#45;&gt;&#39;gcc.sh&#39;</title>
<path fill="none" stroke="black" d="M56.08,-76C71.48,-76 91.45,-76 109.58,-76"/>
<polygon fill="black" stroke="black" points="109.71,-79.5 119.71,-76 109.71,-72.5 109.71,-79.5"/>
<text text-anchor="middle" x="88" y="-79.8" font-family="Times New Roman,serif" font-size="14.00">11: write</text>
</g>
<!-- &#39;cron.h&#39; -->
<g id="node5" class="node">
<title>&#39;cron.h&#39;</title>
<ellipse fill="none" stroke="black" cx="158.35" cy="-18" rx="38.19" ry="18"/>
<text text-anchor="middle" x="158.35" y="-14.3" font-family="Times New Roman,serif" font-size="14.00">&#39;cron.h&#39;</text>
</g>
<!-- &#39;*&#39;&#45;&gt;&#39;cron.h&#39; -->
<g id="edge9" class="edge">
<title>&#39;*&#39;&#45;&gt;&#39;cron.h&#39;</title>
<path fill="none" stroke="black" d="M56.15,-60.11C58.77,-58.67 61.42,-57.27 64,-56 81.31,-47.44 101.04,-39.2 117.89,-32.6"/>
<polygon fill="black" stroke="black" points="119.37,-35.78 127.43,-28.9 116.84,-29.25 119.37,-35.78"/>
<text text-anchor="middle" x="88" y="-59.8" font-family="Times New Roman,serif" font-size="14.00">12: write</text>
</g>
<!-- * -->
<g id="node3" class="node">
<title>*</title>
<ellipse fill="none" stroke="black" cx="29" cy="-233" rx="27" ry="18"/>
<text text-anchor="middle" x="29" y="-229.3" font-family="Times New Roman,serif" font-size="14.00">*</text>
</g>
<!-- *&#45;&gt;* -->
<g id="edge5" class="edge">
<title>*&#45;&gt;*</title>
<path fill="none" stroke="black" d="M25.57,-251.1C24.75,-262.32 25.89,-273 29,-273 31.14,-273 32.35,-267.95 32.63,-261.15"/>
<polygon fill="black" stroke="black" points="36.12,-261.03 32.43,-251.1 29.13,-261.17 36.12,-261.03"/>
<text text-anchor="middle" x="29" y="-276.8" font-family="Times New Roman,serif" font-size="14.00">2: embed</text>
</g>
<!-- *&#45;&gt;* -->
<g id="edge6" class="edge">
<title>*&#45;&gt;*</title>
<path fill="none" stroke="black" d="M23.59,-250.77C19.74,-271.26 21.55,-295 29,-295 35.23,-295 37.51,-278.41 35.85,-261"/>
<polygon fill="black" stroke="black" points="39.27,-260.19 34.41,-250.77 32.34,-261.16 39.27,-260.19"/>
<text text-anchor="middle" x="29" y="-298.8" font-family="Times New Roman,serif" font-size="14.00">3: have</text>
</g>
<!-- *&#45;&gt;* -->
<g id="edge7" class="edge">
<title>*&#45;&gt;*</title>
<path fill="none" stroke="black" d="M22.37,-250.73C14.75,-279.67 16.96,-317 29,-317 39.68,-317 42.63,-287.65 37.84,-260.83"/>
<polygon fill="black" stroke="black" points="41.19,-259.75 35.63,-250.73 34.35,-261.25 41.19,-259.75"/>
<text text-anchor="middle" x="29" y="-320.8" font-family="Times New Roman,serif" font-size="14.00">6: support</text>
</g>
</g>
</svg>
