<?xml version="1.0" encoding="UTF-8" standalone="no"?>
<!DOCTYPE svg PUBLIC "-//W3C//DTD SVG 1.1//EN"
 "http://www.w3.org/Graphics/SVG/1.1/DTD/svg11.dtd">
<!-- Generated by graphviz version 2.43.0 (0)
 -->
<!-- Title: %3 Pages: 1 -->
<svg width="4685pt" height="732pt"
 viewBox="0.00 0.00 4685.00 732.48" xmlns="http://www.w3.org/2000/svg" xmlns:xlink="http://www.w3.org/1999/xlink">
<g id="graph0" class="graph" transform="scale(1 1) rotate(0) translate(4 728.48)">
<title>%3</title>
<polygon fill="white" stroke="transparent" points="-4,4 -4,-728.48 4681,-728.48 4681,4 -4,4"/>
<!-- 0 -->
<g id="node1" class="node">
<title>0</title>
<ellipse fill="#26c485" stroke="#26c485" cx="2388" cy="-202.87" rx="50.82" ry="26.74"/>
<text text-anchor="middle" x="2388" y="-206.67" font-family="Times,serif" font-size="14.00">sh</text>
<text text-anchor="middle" x="2388" y="-191.67" font-family="Times,serif" font-size="14.00">(T1059)</text>
</g>
<!-- 1 -->
<g id="node2" class="node">
<title>1</title>
<polygon fill="lightgrey" stroke="black" points="1766,-37 1704,-37 1704,-41 1692,-41 1692,-1 1766,-1 1766,-37"/>
<polyline fill="none" stroke="black" points="1692,-37 1704,-37 "/>
<text text-anchor="middle" x="1729" y="-15.3" font-family="Times,serif" font-size="14.00">status:1</text>
</g>
<!-- 0&#45;&gt;1 -->
<g id="edge42" class="edge">
<title>0&#45;&gt;1</title>
<path fill="none" stroke="black" d="M2337.69,-198.36C2278.33,-193.21 2184.45,-181.53 2159,-158 2124.48,-126.09 2167.07,-86.14 2131,-56 2104.29,-33.68 1876.82,-24.32 1776.36,-21.25"/>
<polygon fill="black" stroke="black" points="1776.29,-17.74 1766.19,-20.95 1776.08,-24.74 1776.29,-17.74"/>
<text text-anchor="middle" x="2197.5" y="-103.3" font-family="Times,serif" font-size="14.00">34. exit_group</text>
</g>
<!-- 19 -->
<g id="node20" class="node">
<title>19</title>
<polygon fill="lightgrey" stroke="black" points="2808,-125 2766,-125 2766,-129 2754,-129 2754,-89 2808,-89 2808,-125"/>
<polyline fill="none" stroke="black" points="2754,-125 2766,-125 "/>
<text text-anchor="middle" x="2781" y="-103.3" font-family="Times,serif" font-size="14.00">ID</text>
</g>
<!-- 0&#45;&gt;19 -->
<g id="edge35" class="edge">
<title>0&#45;&gt;19</title>
<path fill="none" stroke="black" d="M2381.32,-176.1C2379.96,-164.58 2380.92,-151.68 2389,-143 2412.89,-117.32 2650.65,-110.32 2743.82,-108.55"/>
<polygon fill="black" stroke="black" points="2744,-112.05 2753.93,-108.37 2743.87,-105.05 2744,-112.05"/>
<text text-anchor="middle" x="2425.5" y="-146.8" font-family="Times,serif" font-size="14.00">25. getuid</text>
</g>
<!-- 0&#45;&gt;19 -->
<g id="edge36" class="edge">
<title>0&#45;&gt;19</title>
<path fill="none" stroke="black" d="M2421.34,-182.52C2434.13,-174.98 2448.81,-166.2 2462,-158 2472.36,-151.55 2473.53,-147.16 2485,-143 2573.85,-110.79 2686.58,-106.72 2743.89,-107.04"/>
<polygon fill="black" stroke="black" points="2743.9,-110.54 2753.93,-107.14 2743.97,-103.54 2743.9,-110.54"/>
<text text-anchor="middle" x="2521.5" y="-146.8" font-family="Times,serif" font-size="14.00">26. getgid</text>
</g>
<!-- 0&#45;&gt;19 -->
<g id="edge37" class="edge">
<title>0&#45;&gt;19</title>
<path fill="none" stroke="black" d="M2431.25,-188.5C2445.45,-184.29 2461.35,-179.76 2476,-176 2512.14,-166.73 2523.59,-172.43 2558,-158 2569.25,-153.28 2569.65,-147.48 2581,-143 2635.15,-121.65 2702.65,-113.28 2743.76,-110.03"/>
<polygon fill="black" stroke="black" points="2744.15,-113.51 2753.86,-109.29 2743.64,-106.53 2744.15,-113.51"/>
<text text-anchor="middle" x="2617.5" y="-146.8" font-family="Times,serif" font-size="14.00">27. getpid</text>
</g>
<!-- 0&#45;&gt;19 -->
<g id="edge38" class="edge">
<title>0&#45;&gt;19</title>
<path fill="none" stroke="black" d="M2430.13,-187.76C2444.54,-183.4 2460.84,-178.97 2476,-176 2554.03,-160.72 2579.02,-184.47 2654,-158 2665.51,-153.94 2666.02,-148.32 2677,-143 2698.41,-132.62 2723.69,-124.04 2743.96,-117.97"/>
<polygon fill="black" stroke="black" points="2745.14,-121.27 2753.76,-115.11 2743.18,-114.55 2745.14,-121.27"/>
<text text-anchor="middle" x="2718" y="-146.8" font-family="Times,serif" font-size="14.00">28. geteuid</text>
</g>
<!-- 0&#45;&gt;19 -->
<g id="edge39" class="edge">
<title>0&#45;&gt;19</title>
<path fill="none" stroke="black" d="M2430.07,-187.44C2444.47,-183.05 2460.79,-178.69 2476,-176 2507.03,-170.52 2733.17,-176.05 2759,-158 2766.79,-152.55 2771.86,-143.7 2775.13,-134.95"/>
<polygon fill="black" stroke="black" points="2778.51,-135.89 2778.12,-125.3 2771.82,-133.81 2778.51,-135.89"/>
<text text-anchor="middle" x="2812" y="-146.8" font-family="Times,serif" font-size="14.00">29. getppid</text>
</g>
<!-- 0&#45;&gt;19 -->
<g id="edge40" class="edge">
<title>0&#45;&gt;19</title>
<path fill="none" stroke="black" d="M2342.68,-190.54C2310.29,-180.37 2275.6,-163.84 2295,-143 2325.36,-110.37 2635.06,-107.75 2743.63,-107.84"/>
<polygon fill="black" stroke="black" points="2743.79,-111.34 2753.79,-107.85 2743.8,-104.34 2743.79,-111.34"/>
<text text-anchor="middle" x="2336" y="-146.8" font-family="Times,serif" font-size="14.00">30. getegid</text>
</g>
<!-- 27 -->
<g id="node26" class="node">
<title>27</title>
<ellipse fill="lightgrey" stroke="black" cx="1314" cy="-107" rx="27" ry="18"/>
<text text-anchor="middle" x="1314" y="-103.3" font-family="Times,serif" font-size="14.00">sed</text>
</g>
<!-- 0&#45;&gt;27 -->
<g id="edge41" class="edge">
<title>0&#45;&gt;27</title>
<path fill="none" stroke="#26c485" d="M2337.93,-197.63C2261.31,-190.69 2118.81,-175.87 2071,-158 2059.57,-153.73 2059.64,-146.68 2048,-143 1992.24,-125.38 1580.38,-128.38 1522,-125 1461.94,-121.52 1392.29,-115.4 1350.75,-111.53"/>
<polygon fill="#26c485" stroke="#26c485" points="1350.85,-108.03 1340.57,-110.58 1350.2,-115 1350.85,-108.03"/>
<text text-anchor="middle" x="2101" y="-146.8" font-family="Times,serif" font-size="14.00">31. exec</text>
</g>
<!-- 2 -->
<g id="node3" class="node">
<title>2</title>
<ellipse fill="lightgrey" stroke="black" cx="587" cy="-425.74" rx="27" ry="18"/>
<text text-anchor="middle" x="587" y="-422.04" font-family="Times,serif" font-size="14.00">sed</text>
</g>
<!-- 4 -->
<g id="node5" class="node">
<title>4</title>
<polygon fill="lightgrey" stroke="black" points="545,-125 421,-125 421,-129 409,-129 409,-89 545,-89 545,-125"/>
<polyline fill="none" stroke="black" points="409,-125 421,-125 "/>
<text text-anchor="middle" x="477" y="-103.3" font-family="Times,serif" font-size="14.00">Permission:0700</text>
</g>
<!-- 2&#45;&gt;4 -->
<g id="edge71" class="edge">
<title>2&#45;&gt;4</title>
<path fill="none" stroke="black" d="M560.08,-423.95C485.09,-420.06 275.51,-397.11 217,-262.74 203.92,-232.7 273.44,-157.12 303,-143 341.25,-124.72 357.07,-132.8 398.72,-125.88"/>
<polygon fill="black" stroke="black" points="399.44,-129.31 408.63,-124.04 398.16,-122.42 399.44,-129.31"/>
<text text-anchor="middle" x="254" y="-251.54" font-family="Times,serif" font-size="14.00">64. umask</text>
</g>
<!-- 9 -->
<g id="node10" class="node">
<title>9</title>
<polygon fill="lightgrey" stroke="black" points="905.5,-37 778.5,-37 778.5,-41 766.5,-41 766.5,-1 905.5,-1 905.5,-37"/>
<polyline fill="none" stroke="black" points="766.5,-37 778.5,-37 "/>
<text text-anchor="middle" x="836" y="-15.3" font-family="Times,serif" font-size="14.00">8192*1024 bytes</text>
</g>
<!-- 2&#45;&gt;9 -->
<g id="edge69" class="edge">
<title>2&#45;&gt;9</title>
<path fill="none" stroke="black" d="M559.82,-424.5C459.93,-422.88 119,-410.71 119,-319.74 119,-319.74 119,-319.74 119,-106 119,-42.41 569.37,-25.6 756.23,-21.36"/>
<polygon fill="black" stroke="black" points="756.35,-24.86 766.27,-21.14 756.2,-17.86 756.35,-24.86"/>
<text text-anchor="middle" x="166" y="-199.17" font-family="Times,serif" font-size="14.00">62. prlimit64</text>
</g>
<!-- 15 -->
<g id="node16" class="node">
<title>15</title>
<polygon fill="#9bc53d" stroke="#9bc53d" points="636.5,-337.74 537.5,-337.74 537.5,-299.74 636.5,-299.74 636.5,-337.74"/>
<text text-anchor="middle" x="587" y="-322.54" font-family="Times,serif" font-size="14.00">/etc/rc.local</text>
<text text-anchor="middle" x="587" y="-307.54" font-family="Times,serif" font-size="14.00">(T1168)</text>
</g>
<!-- 2&#45;&gt;15 -->
<g id="edge70" class="edge">
<title>2&#45;&gt;15</title>
<path fill="none" stroke="black" d="M560.79,-421.36C541.5,-417.35 516.54,-408.63 504,-389.74 491.62,-371.09 508.58,-354.68 530.33,-342.45"/>
<polygon fill="black" stroke="black" points="531.96,-345.55 539.19,-337.8 528.7,-339.35 531.96,-345.55"/>
<text text-anchor="middle" x="534.5" y="-378.54" font-family="Times,serif" font-size="14.00">63. fstat</text>
</g>
<!-- 2&#45;&gt;15 -->
<g id="edge75" class="edge">
<title>2&#45;&gt;15</title>
<path fill="none" stroke="#9bc53d" d="M585.24,-407.67C584.73,-401.97 584.25,-395.59 584,-389.74 583.41,-375.97 583.93,-360.68 584.69,-347.91"/>
<polygon fill="#9bc53d" stroke="#9bc53d" points="588.19,-348.08 585.37,-337.87 581.21,-347.61 588.19,-348.08"/>
<text text-anchor="middle" x="616.5" y="-378.54" font-family="Times,serif" font-size="14.00">68. write</text>
</g>
<!-- 2&#45;&gt;19 -->
<g id="edge72" class="edge">
<title>2&#45;&gt;19</title>
<path fill="none" stroke="black" d="M614.12,-423.56C728.85,-418.42 1185.56,-396.42 1559,-356.74 1955.89,-314.56 2057.38,-311.67 2448,-229.74 2535.15,-211.46 2553.36,-191.71 2641,-176 2664.71,-171.75 2840.69,-175.72 2857,-158 2861.51,-153.09 2860.62,-148.6 2857,-143 2847.74,-128.68 2837.61,-131.89 2817.41,-124.67"/>
<polygon fill="black" stroke="black" points="2818.68,-121.41 2808.1,-120.86 2816.03,-127.89 2818.68,-121.41"/>
<text text-anchor="middle" x="2390.5" y="-251.54" font-family="Times,serif" font-size="14.00">65. getpid</text>
</g>
<!-- 31 -->
<g id="node30" class="node">
<title>31</title>
<polygon fill="lightgrey" stroke="black" points="690.5,-125 575.5,-125 575.5,-129 563.5,-129 563.5,-89 690.5,-89 690.5,-125"/>
<polyline fill="none" stroke="black" points="563.5,-125 575.5,-125 "/>
<text text-anchor="middle" x="627" y="-103.3" font-family="Times,serif" font-size="14.00">Permission:022</text>
</g>
<!-- 2&#45;&gt;31 -->
<g id="edge73" class="edge">
<title>2&#45;&gt;31</title>
<path fill="none" stroke="black" d="M561.73,-419.36C503.66,-405.46 361.69,-362.21 309,-262.74 291.91,-230.48 219.91,-240.49 322,-143 339.31,-126.47 501.51,-128.5 553.23,-124.5"/>
<polygon fill="black" stroke="black" points="553.84,-127.95 563.41,-123.41 553.09,-120.99 553.84,-127.95"/>
<text text-anchor="middle" x="346" y="-251.54" font-family="Times,serif" font-size="14.00">66. umask</text>
</g>
<!-- 37 -->
<g id="node36" class="node">
<title>37</title>
<polygon fill="lightgrey" stroke="black" points="1049,-125 987,-125 987,-129 975,-129 975,-89 1049,-89 1049,-125"/>
<polyline fill="none" stroke="black" points="975,-125 987,-125 "/>
<text text-anchor="middle" x="1012" y="-103.3" font-family="Times,serif" font-size="14.00">status:0</text>
</g>
<!-- 2&#45;&gt;37 -->
<g id="edge76" class="edge">
<title>2&#45;&gt;37</title>
<path fill="none" stroke="black" d="M614.09,-424.85C710.7,-424.97 1034.2,-422.88 1065,-389.74 1069.54,-384.86 1065.94,-381.34 1065,-374.74 1055.57,-308.31 1035.41,-295.68 1023,-229.74 1016.95,-197.58 1014.2,-160 1012.96,-135.19"/>
<polygon fill="black" stroke="black" points="1016.46,-134.91 1012.51,-125.08 1009.46,-135.23 1016.46,-134.91"/>
<text text-anchor="middle" x="1081.5" y="-251.54" font-family="Times,serif" font-size="14.00">69. exit_group</text>
</g>
<!-- 3 -->
<g id="node4" class="node">
<title>3</title>
<ellipse fill="lightgrey" stroke="black" cx="459" cy="-202.87" rx="27" ry="18"/>
<text text-anchor="middle" x="459" y="-199.17" font-family="Times,serif" font-size="14.00">sed</text>
</g>
<!-- 3&#45;&gt;4 -->
<g id="edge55" class="edge">
<title>3&#45;&gt;4</title>
<path fill="none" stroke="black" d="M432.48,-199.47C387.11,-194.32 302.15,-179.59 331,-143 333.41,-139.94 365.48,-132.09 398.95,-124.6"/>
<polygon fill="black" stroke="black" points="399.87,-127.98 408.88,-122.4 398.36,-121.15 399.87,-127.98"/>
<text text-anchor="middle" x="368" y="-146.8" font-family="Times,serif" font-size="14.00">46. umask</text>
</g>
<!-- 3&#45;&gt;9 -->
<g id="edge53" class="edge">
<title>3&#45;&gt;9</title>
<path fill="none" stroke="black" d="M432.26,-199.56C402.21,-195.67 353.5,-185.33 322,-158 298.22,-137.37 285.23,-112.65 306,-89 335.21,-55.74 615.43,-33.72 756.17,-24.67"/>
<polygon fill="black" stroke="black" points="756.71,-28.14 766.46,-24.01 756.26,-21.16 756.71,-28.14"/>
<text text-anchor="middle" x="353" y="-103.3" font-family="Times,serif" font-size="14.00">44. prlimit64</text>
</g>
<!-- 3&#45;&gt;15 -->
<g id="edge54" class="edge">
<title>3&#45;&gt;15</title>
<path fill="none" stroke="black" d="M454.71,-220.79C452.52,-233.41 451.82,-250.51 460,-262.74 475.27,-285.57 502.23,-298.98 527.39,-306.83"/>
<polygon fill="black" stroke="black" points="526.71,-310.27 537.29,-309.67 528.64,-303.55 526.71,-310.27"/>
<text text-anchor="middle" x="490.5" y="-251.54" font-family="Times,serif" font-size="14.00">45. fstat</text>
</g>
<!-- 3&#45;&gt;15 -->
<g id="edge59" class="edge">
<title>3&#45;&gt;15</title>
<path fill="none" stroke="#9bc53d" d="M477.9,-215.82C490.57,-224.16 507.36,-235.89 521,-247.74 536.6,-261.29 552.54,-278.1 564.84,-291.84"/>
<polygon fill="#9bc53d" stroke="#9bc53d" points="562.39,-294.36 571.64,-299.53 567.64,-289.72 562.39,-294.36"/>
<text text-anchor="middle" x="569.5" y="-251.54" font-family="Times,serif" font-size="14.00">50. write</text>
</g>
<!-- 3&#45;&gt;19 -->
<g id="edge56" class="edge">
<title>3&#45;&gt;19</title>
<path fill="none" stroke="black" d="M485.95,-199.56C543.55,-194.69 682.96,-183.2 800,-176 842.41,-173.39 1142.2,-172.88 1182,-158 1192.08,-154.23 1190.87,-146.62 1201,-143 1256,-123.38 2193.62,-126.44 2252,-125 2436.52,-120.46 2657.17,-112.58 2743.64,-109.39"/>
<polygon fill="black" stroke="black" points="2743.89,-112.89 2753.75,-109.02 2743.63,-105.89 2743.89,-112.89"/>
<text text-anchor="middle" x="1237.5" y="-146.8" font-family="Times,serif" font-size="14.00">47. getpid</text>
</g>
<!-- 3&#45;&gt;31 -->
<g id="edge57" class="edge">
<title>3&#45;&gt;31</title>
<path fill="none" stroke="black" d="M443.1,-188.17C430.29,-175.5 416.19,-156.61 428,-143 445.01,-123.39 513.54,-129.01 553.42,-124.61"/>
<polygon fill="black" stroke="black" points="553.97,-128.06 563.37,-123.16 552.97,-121.14 553.97,-128.06"/>
<text text-anchor="middle" x="465" y="-146.8" font-family="Times,serif" font-size="14.00">48. umask</text>
</g>
<!-- 3&#45;&gt;37 -->
<g id="edge60" class="edge">
<title>3&#45;&gt;37</title>
<path fill="none" stroke="black" d="M485.12,-197.85C528.95,-190.92 620,-175.75 696,-158 719.84,-152.43 724.94,-147.54 749,-143 830.18,-127.69 852.39,-137.82 934,-125 944.06,-123.42 954.78,-121.35 964.94,-119.19"/>
<polygon fill="black" stroke="black" points="965.85,-122.58 974.87,-117.03 964.36,-115.74 965.85,-122.58"/>
<text text-anchor="middle" x="800.5" y="-146.8" font-family="Times,serif" font-size="14.00">51. exit_group</text>
</g>
<!-- 5 -->
<g id="node6" class="node">
<title>5</title>
<ellipse fill="lightgrey" stroke="black" cx="4077" cy="-521.61" rx="34.39" ry="18"/>
<text text-anchor="middle" x="4077" y="-517.91" font-family="Times,serif" font-size="14.00">1526</text>
</g>
<!-- 5&#45;&gt;19 -->
<g id="edge99" class="edge">
<title>5&#45;&gt;19</title>
<path fill="none" stroke="black" d="M4063.69,-504.81C4050.11,-487.02 4031,-456.69 4031,-426.74 4031,-426.74 4031,-426.74 4031,-201.87 4031,-172.7 4026.65,-158.6 4002,-143 3948.15,-108.93 2948.74,-137.89 2818.17,-123.81"/>
<polygon fill="black" stroke="black" points="2818.5,-120.31 2808.08,-122.25 2817.43,-127.23 2818.5,-120.31"/>
<text text-anchor="middle" x="4066" y="-315.04" font-family="Times,serif" font-size="14.00">98. setsid</text>
</g>
<!-- 21 -->
<g id="node21" class="node">
<title>21</title>
<polygon fill="#cc5a71" stroke="#cc5a71" points="4273,-356.74 4173,-318.74 4273,-280.74 4373,-318.74 4273,-356.74"/>
<text text-anchor="middle" x="4273" y="-322.54" font-family="Times,serif" font-size="14.00">External_IP</text>
<text text-anchor="middle" x="4273" y="-307.54" font-family="Times,serif" font-size="14.00">(C&amp;C)</text>
</g>
<!-- 5&#45;&gt;21 -->
<g id="edge103" class="edge">
<title>5&#45;&gt;21</title>
<path fill="none" stroke="#cc5a71" d="M4111.29,-519.06C4195.12,-514.45 4406.46,-497.62 4446,-443.74 4481.39,-395.53 4402.89,-358.71 4340.36,-338.16"/>
<polygon fill="#cc5a71" stroke="#cc5a71" points="4341.07,-334.71 4330.48,-335 4338.94,-341.38 4341.07,-334.71"/>
<text text-anchor="middle" x="4500" y="-422.04" font-family="Times,serif" font-size="14.00">108. connect</text>
</g>
<!-- 5&#45;&gt;21 -->
<g id="edge104" class="edge">
<title>5&#45;&gt;21</title>
<path fill="none" stroke="black" d="M4111.43,-520.75C4211.13,-520.32 4496.37,-512.96 4550,-443.74 4605.23,-372.47 4462.85,-341.07 4362.37,-328.09"/>
<polygon fill="black" stroke="black" points="4362.53,-324.58 4352.18,-326.82 4361.66,-331.53 4362.53,-324.58"/>
<text text-anchor="middle" x="4619.5" y="-422.04" font-family="Times,serif" font-size="14.00">109. _newselect</text>
</g>
<!-- 5&#45;&gt;21 -->
<g id="edge106" class="edge">
<title>5&#45;&gt;21</title>
<path fill="none" stroke="black" d="M4074.4,-503.52C4071.75,-479.72 4070.52,-436.31 4091,-407.74 4117.11,-371.32 4162.44,-349.34 4201.34,-336.45"/>
<polygon fill="black" stroke="black" points="4202.59,-339.73 4211.07,-333.37 4200.48,-333.05 4202.59,-339.73"/>
<text text-anchor="middle" x="4135" y="-422.04" font-family="Times,serif" font-size="14.00">113. fstat64</text>
</g>
<!-- 5&#45;&gt;21 -->
<g id="edge107" class="edge">
<title>5&#45;&gt;21</title>
<path fill="none" stroke="black" d="M4098.8,-507.63C4120.85,-493.77 4155.01,-470.18 4179,-443.74 4191.6,-429.85 4190.15,-423.03 4201,-407.74 4213.65,-389.92 4228.82,-371.05 4241.97,-355.38"/>
<polygon fill="black" stroke="black" points="4244.85,-357.39 4248.64,-347.5 4239.51,-352.87 4244.85,-357.39"/>
<text text-anchor="middle" x="4246" y="-422.04" font-family="Times,serif" font-size="14.00">114. mmap2</text>
</g>
<!-- 35 -->
<g id="node34" class="node">
<title>35</title>
<polygon fill="lightgrey" stroke="black" points="3811,-336.74 3699,-336.74 3699,-340.74 3687,-340.74 3687,-300.74 3811,-300.74 3811,-336.74"/>
<polyline fill="none" stroke="black" points="3687,-336.74 3699,-336.74 "/>
<text text-anchor="middle" x="3749" y="-315.04" font-family="Times,serif" font-size="14.00">Sleep Duration</text>
</g>
<!-- 5&#45;&gt;35 -->
<g id="edge108" class="edge">
<title>5&#45;&gt;35</title>
<path fill="none" stroke="black" d="M4042.51,-519.67C3986.68,-516.38 3875.84,-502.35 3807,-443.74 3802.97,-440.31 3776.43,-381.54 3760.69,-346.16"/>
<polygon fill="black" stroke="black" points="3763.82,-344.59 3756.56,-336.87 3757.42,-347.43 3763.82,-344.59"/>
<text text-anchor="middle" x="3861.5" y="-422.04" font-family="Times,serif" font-size="14.00">115. nanosleep</text>
</g>
<!-- 36 -->
<g id="node35" class="node">
<title>36</title>
<ellipse fill="lightgrey" stroke="black" cx="3487" cy="-425.74" rx="34.39" ry="18"/>
<text text-anchor="middle" x="3487" y="-422.04" font-family="Times,serif" font-size="14.00">1527</text>
</g>
<!-- 5&#45;&gt;36 -->
<g id="edge100" class="edge">
<title>5&#45;&gt;36</title>
<path fill="none" stroke="black" d="M4043.47,-517.34C3980.86,-511.04 3842,-496.09 3726,-476.74 3655.88,-465.04 3575.07,-447.22 3527.66,-436.31"/>
<polygon fill="black" stroke="black" points="3528.32,-432.87 3517.79,-434.02 3526.74,-439.69 3528.32,-432.87"/>
<text text-anchor="middle" x="3763" y="-465.54" font-family="Times,serif" font-size="14.00">100. clone</text>
</g>
<!-- 6 -->
<g id="node7" class="node">
<title>6</title>
<polygon fill="#fde74c" stroke="#fde74c" points="3373.5,-337.74 3288.5,-337.74 3288.5,-299.74 3373.5,-299.74 3373.5,-337.74"/>
<text text-anchor="middle" x="3331" y="-322.54" font-family="Times,serif" font-size="14.00">/proc/stat</text>
<text text-anchor="middle" x="3331" y="-307.54" font-family="Times,serif" font-size="14.00">(T1082)</text>
</g>
<!-- 6&#45;&gt;36 -->
<g id="edge116" class="edge">
<title>6&#45;&gt;36</title>
<path fill="none" stroke="#fde74c" d="M3317.95,-337.99C3308.72,-353.32 3299.94,-375.04 3312,-389.74 3328.21,-409.51 3396.24,-418.34 3442.54,-422.11"/>
<polygon fill="#fde74c" stroke="#fde74c" points="3442.41,-425.61 3452.64,-422.88 3442.94,-418.63 3442.41,-425.61"/>
<text text-anchor="middle" x="3346.5" y="-378.54" font-family="Times,serif" font-size="14.00">112. read</text>
</g>
<!-- 7 -->
<g id="node8" class="node">
<title>7</title>
<ellipse fill="lightgrey" stroke="black" cx="2303" cy="-617.48" rx="50.89" ry="18"/>
<text text-anchor="middle" x="2303" y="-613.78" font-family="Times,serif" font-size="14.00">malware</text>
</g>
<!-- 7&#45;&gt;0 -->
<g id="edge7" class="edge">
<title>7&#45;&gt;0</title>
<path fill="none" stroke="#26c485" d="M2291.52,-599.77C2283.16,-586.52 2272.53,-567.19 2268,-548.48 2262.38,-525.27 2263.69,-518.23 2268,-494.74 2285.98,-396.66 2339.33,-290.56 2368.47,-237.75"/>
<polygon fill="#26c485" stroke="#26c485" points="2371.63,-239.26 2373.44,-228.82 2365.52,-235.86 2371.63,-239.26"/>
<text text-anchor="middle" x="2322.5" y="-422.04" font-family="Times,serif" font-size="14.00">23. clone</text>
</g>
<!-- 7&#45;&gt;0 -->
<g id="edge8" class="edge">
<title>7&#45;&gt;0</title>
<path fill="none" stroke="black" d="M2340.42,-605.3C2352.72,-599.92 2365.43,-592.23 2374,-581.48 2390.77,-560.45 2388,-549.5 2388,-522.61 2388,-522.61 2388,-522.61 2388,-317.74 2388,-291.8 2388,-262.53 2388,-240.17"/>
<polygon fill="black" stroke="black" points="2391.5,-240.1 2388,-230.1 2384.5,-240.1 2391.5,-240.1"/>
<text text-anchor="middle" x="2428.5" y="-422.04" font-family="Times,serif" font-size="14.00">24. waitpid</text>
</g>
<!-- 7&#45;&gt;5 -->
<g id="edge17" class="edge">
<title>7&#45;&gt;5</title>
<path fill="none" stroke="black" d="M2353.87,-616.58C2582.13,-616.83 3513.27,-615.68 3803,-581.48 3887.48,-571.51 3984.38,-547.7 4037.32,-533.6"/>
<polygon fill="black" stroke="black" points="4038.56,-536.89 4047.31,-530.92 4036.74,-530.13 4038.56,-536.89"/>
<text text-anchor="middle" x="3926.5" y="-570.28" font-family="Times,serif" font-size="14.00">97. clone</text>
</g>
<!-- 8 -->
<g id="node9" class="node">
<title>8</title>
<polygon fill="lightgrey" stroke="black" points="925,-539.61 813,-539.61 813,-503.61 925,-503.61 925,-539.61"/>
<text text-anchor="middle" x="869" y="-517.91" font-family="Times,serif" font-size="14.00">/proc/self/exe</text>
</g>
<!-- 7&#45;&gt;8 -->
<g id="edge3" class="edge">
<title>7&#45;&gt;8</title>
<path fill="none" stroke="black" d="M2252.13,-616.19C1999.92,-614.66 894.85,-606.51 870,-581.48 861.9,-573.32 860.72,-560.95 861.96,-549.66"/>
<polygon fill="black" stroke="black" points="865.42,-550.18 863.63,-539.74 858.51,-549.02 865.42,-550.18"/>
<text text-anchor="middle" x="908.5" y="-570.28" font-family="Times,serif" font-size="14.00">3. readlink</text>
</g>
<!-- 7&#45;&gt;9 -->
<g id="edge2" class="edge">
<title>7&#45;&gt;9</title>
<path fill="none" stroke="black" d="M2252.49,-615.78C1914.94,-610.95 0,-580.99 0,-522.61 0,-522.61 0,-522.61 0,-106 0,-30.49 546.63,-20.87 755.86,-19.95"/>
<polygon fill="black" stroke="black" points="756.17,-23.45 766.16,-19.91 756.15,-16.45 756.17,-23.45"/>
<text text-anchor="middle" x="45.5" y="-315.04" font-family="Times,serif" font-size="14.00">2. ugetrlimit</text>
</g>
<!-- 10 -->
<g id="node11" class="node">
<title>10</title>
<ellipse fill="#26c485" stroke="#26c485" cx="2612" cy="-521.61" rx="50.82" ry="26.74"/>
<text text-anchor="middle" x="2612" y="-525.41" font-family="Times,serif" font-size="14.00">sh</text>
<text text-anchor="middle" x="2612" y="-510.41" font-family="Times,serif" font-size="14.00">(T1059)</text>
</g>
<!-- 7&#45;&gt;10 -->
<g id="edge11" class="edge">
<title>7&#45;&gt;10</title>
<path fill="none" stroke="#26c485" d="M2352.93,-614.09C2397.68,-610.62 2464.48,-602.16 2519,-581.48 2539.08,-573.86 2559.46,-561.59 2576,-550.21"/>
<polygon fill="#26c485" stroke="#26c485" points="2578.12,-552.99 2584.28,-544.37 2574.09,-547.27 2578.12,-552.99"/>
<text text-anchor="middle" x="2580.5" y="-570.28" font-family="Times,serif" font-size="14.00">53. clone</text>
</g>
<!-- 7&#45;&gt;10 -->
<g id="edge12" class="edge">
<title>7&#45;&gt;10</title>
<path fill="none" stroke="black" d="M2339.06,-604.69C2357.97,-598.26 2381.42,-589.92 2402,-581.48 2416.53,-575.52 2419.19,-571.72 2434,-566.48 2473.33,-552.57 2519.04,-541.4 2554.29,-533.82"/>
<polygon fill="black" stroke="black" points="2555.35,-537.17 2564.41,-531.68 2553.9,-530.32 2555.35,-537.17"/>
<text text-anchor="middle" x="2474.5" y="-570.28" font-family="Times,serif" font-size="14.00">54. waitpid</text>
</g>
<!-- 13 -->
<g id="node14" class="node">
<title>13</title>
<ellipse fill="#26c485" stroke="#26c485" cx="3220" cy="-318.74" rx="50.82" ry="26.74"/>
<text text-anchor="middle" x="3220" y="-322.54" font-family="Times,serif" font-size="14.00">sh</text>
<text text-anchor="middle" x="3220" y="-307.54" font-family="Times,serif" font-size="14.00">(T1059)</text>
</g>
<!-- 7&#45;&gt;13 -->
<g id="edge5" class="edge">
<title>7&#45;&gt;13</title>
<path fill="none" stroke="#26c485" d="M2352.22,-612.91C2414.27,-607.98 2524.07,-597.78 2617,-581.48 2812.87,-547.12 2882.51,-580.76 3052,-476.74 3102.78,-445.57 3094.62,-414.5 3139,-374.74 3151.05,-363.95 3165.33,-353.58 3178.52,-344.81"/>
<polygon fill="#26c485" stroke="#26c485" points="3180.53,-347.68 3187,-339.29 3176.71,-341.81 3180.53,-347.68"/>
<text text-anchor="middle" x="3099" y="-465.54" font-family="Times,serif" font-size="14.00">5. clone</text>
</g>
<!-- 7&#45;&gt;13 -->
<g id="edge6" class="edge">
<title>7&#45;&gt;13</title>
<path fill="none" stroke="black" d="M2353.82,-616.75C2466.11,-616.17 2742.98,-608.22 2965,-548.48 3042.61,-527.6 3073.27,-532.66 3131,-476.74 3166.99,-441.88 3153.23,-417.71 3179,-374.74 3183.58,-367.11 3188.98,-359.24 3194.33,-351.93"/>
<polygon fill="black" stroke="black" points="3197.34,-353.75 3200.54,-343.65 3191.74,-349.55 3197.34,-353.75"/>
<text text-anchor="middle" x="3179" y="-465.54" font-family="Times,serif" font-size="14.00">6. waitpid</text>
</g>
<!-- 14 -->
<g id="node15" class="node">
<title>14</title>
<ellipse fill="#26c485" stroke="#26c485" cx="3874" cy="-202.87" rx="50.82" ry="26.74"/>
<text text-anchor="middle" x="3874" y="-206.67" font-family="Times,serif" font-size="14.00">sh</text>
<text text-anchor="middle" x="3874" y="-191.67" font-family="Times,serif" font-size="14.00">(T1059)</text>
</g>
<!-- 7&#45;&gt;14 -->
<g id="edge15" class="edge">
<title>7&#45;&gt;14</title>
<path fill="none" stroke="#26c485" d="M2353.76,-616.75C2588.18,-617.79 3560.09,-619.72 3690,-581.48 3825.01,-541.74 3910.69,-526.95 3942,-389.74 3951.48,-348.18 3998.68,-369.54 3932,-247.74 3928.16,-240.73 3922.68,-234.51 3916.6,-229.11"/>
<polygon fill="#26c485" stroke="#26c485" points="3918.64,-226.26 3908.65,-222.71 3914.25,-231.71 3918.64,-226.26"/>
<text text-anchor="middle" x="3969.5" y="-422.04" font-family="Times,serif" font-size="14.00">84. clone</text>
</g>
<!-- 7&#45;&gt;14 -->
<g id="edge16" class="edge">
<title>7&#45;&gt;14</title>
<path fill="none" stroke="black" d="M2353.73,-615.64C2576.23,-611.7 3459.86,-593.33 3575,-548.48 3621.7,-530.29 3629.18,-514.62 3662,-476.74 3685.51,-449.61 3673.47,-426.63 3704,-407.74 3744.39,-382.74 3884.86,-424.71 3917,-389.74 3955.63,-347.71 3922.75,-278.02 3897.14,-236.97"/>
<polygon fill="black" stroke="black" points="3900,-234.95 3891.66,-228.42 3894.11,-238.73 3900,-234.95"/>
<text text-anchor="middle" x="3744.5" y="-422.04" font-family="Times,serif" font-size="14.00">85. waitpid</text>
</g>
<!-- 16 -->
<g id="node17" class="node">
<title>16</title>
<polygon fill="lightgrey" stroke="black" points="2359.5,-539.61 2276.5,-539.61 2276.5,-503.61 2359.5,-503.61 2359.5,-539.61"/>
<text text-anchor="middle" x="2318" y="-517.91" font-family="Times,serif" font-size="14.00">&quot;/prober&quot;</text>
</g>
<!-- 7&#45;&gt;16 -->
<g id="edge4" class="edge">
<title>7&#45;&gt;16</title>
<path fill="none" stroke="black" d="M2302.13,-599.24C2301.94,-589.55 2302.21,-577.27 2304,-566.48 2304.93,-560.86 2306.43,-554.97 2308.11,-549.4"/>
<polygon fill="black" stroke="black" points="2311.45,-550.42 2311.23,-539.83 2304.8,-548.25 2311.45,-550.42"/>
<text text-anchor="middle" x="2339" y="-570.28" font-family="Times,serif" font-size="14.00">4. getcwd</text>
</g>
<!-- 17 -->
<g id="node18" class="node">
<title>17</title>
<ellipse fill="#26c485" stroke="#26c485" cx="1499" cy="-318.74" rx="50.82" ry="26.74"/>
<text text-anchor="middle" x="1499" y="-322.54" font-family="Times,serif" font-size="14.00">sh</text>
<text text-anchor="middle" x="1499" y="-307.54" font-family="Times,serif" font-size="14.00">(T1059)</text>
</g>
<!-- 7&#45;&gt;17 -->
<g id="edge9" class="edge">
<title>7&#45;&gt;17</title>
<path fill="none" stroke="#26c485" d="M2252.58,-615.54C2194.58,-613.27 2097.05,-605.79 2017,-581.48 1918.52,-551.57 1647.33,-402.71 1541.8,-343.8"/>
<polygon fill="#26c485" stroke="#26c485" points="1543.44,-340.71 1533.01,-338.88 1540.03,-346.82 1543.44,-340.71"/>
<text text-anchor="middle" x="1818.5" y="-465.54" font-family="Times,serif" font-size="14.00">35. clone</text>
</g>
<!-- 7&#45;&gt;17 -->
<g id="edge10" class="edge">
<title>7&#45;&gt;17</title>
<path fill="none" stroke="black" d="M2252.06,-617.32C2138.33,-616.77 1859.18,-601.8 1674,-476.74 1618.02,-438.94 1561.29,-384.4 1528.17,-350.57"/>
<polygon fill="black" stroke="black" points="1530.55,-347.99 1521.07,-343.26 1525.53,-352.87 1530.55,-347.99"/>
<text text-anchor="middle" x="1714.5" y="-465.54" font-family="Times,serif" font-size="14.00">36. waitpid</text>
</g>
<!-- 18 -->
<g id="node19" class="node">
<title>18</title>
<ellipse fill="#26c485" stroke="#26c485" cx="2075" cy="-202.87" rx="50.82" ry="26.74"/>
<text text-anchor="middle" x="2075" y="-206.67" font-family="Times,serif" font-size="14.00">sh</text>
<text text-anchor="middle" x="2075" y="-191.67" font-family="Times,serif" font-size="14.00">(T1059)</text>
</g>
<!-- 7&#45;&gt;18 -->
<g id="edge13" class="edge">
<title>7&#45;&gt;18</title>
<path fill="none" stroke="#26c485" d="M2258.17,-609.01C2212.39,-598.51 2148,-574.52 2148,-522.61 2148,-522.61 2148,-522.61 2148,-317.74 2148,-285.53 2127.05,-255.15 2107.59,-233.88"/>
<polygon fill="#26c485" stroke="#26c485" points="2109.96,-231.3 2100.53,-226.47 2104.9,-236.13 2109.96,-231.3"/>
<text text-anchor="middle" x="2180.5" y="-422.04" font-family="Times,serif" font-size="14.00">71. clone</text>
</g>
<!-- 7&#45;&gt;18 -->
<g id="edge14" class="edge">
<title>7&#45;&gt;18</title>
<path fill="none" stroke="black" d="M2256.55,-610.21C2178.86,-598.41 2031,-569.76 2031,-522.61 2031,-522.61 2031,-522.61 2031,-317.74 2031,-289.37 2043.03,-259.53 2054.51,-237.52"/>
<polygon fill="black" stroke="black" points="2057.67,-239.05 2059.36,-228.59 2051.51,-235.71 2057.67,-239.05"/>
<text text-anchor="middle" x="2071.5" y="-422.04" font-family="Times,serif" font-size="14.00">72. waitpid</text>
</g>
<!-- 7&#45;&gt;37 -->
<g id="edge18" class="edge">
<title>7&#45;&gt;37</title>
<path fill="none" stroke="black" d="M2252.44,-615.64C2008.06,-611.26 961,-588.63 961,-522.61 961,-522.61 961,-522.61 961,-254.24 961,-210.27 981.81,-162.81 996.84,-134.25"/>
<polygon fill="black" stroke="black" points="999.99,-135.79 1001.68,-125.33 993.84,-132.45 999.99,-135.79"/>
<text text-anchor="middle" x="1012.5" y="-378.54" font-family="Times,serif" font-size="14.00">99. exit_group</text>
</g>
<!-- 10&#45;&gt;2 -->
<g id="edge67" class="edge">
<title>10&#45;&gt;2</title>
<path fill="none" stroke="#26c485" d="M2562.24,-514.9C2513.15,-509.37 2435.96,-500.93 2369,-494.74 2182.11,-477.47 2135.43,-471.49 1948,-461.74 1423.64,-434.47 784.48,-428.17 624.6,-426.98"/>
<polygon fill="#26c485" stroke="#26c485" points="624.37,-423.48 614.34,-426.91 624.32,-430.48 624.37,-423.48"/>
<text text-anchor="middle" x="2202" y="-465.54" font-family="Times,serif" font-size="14.00">61. exec</text>
</g>
<!-- 10&#45;&gt;19 -->
<g id="edge61" class="edge">
<title>10&#45;&gt;19</title>
<path fill="none" stroke="black" d="M2661.48,-514.63C2691.36,-508.95 2728.8,-497.95 2756,-476.74 2836.18,-414.21 2817.66,-365.38 2874,-280.74 2883.37,-266.66 2958.74,-174.07 2964,-158 2966.07,-151.66 2968.42,-147.99 2964,-143 2943.81,-120.18 2862.11,-132.02 2818,-124.21"/>
<polygon fill="black" stroke="black" points="2818.7,-120.78 2808.16,-121.93 2817.11,-127.6 2818.7,-120.78"/>
<text text-anchor="middle" x="2910.5" y="-315.04" font-family="Times,serif" font-size="14.00">55. getuid</text>
</g>
<!-- 10&#45;&gt;19 -->
<g id="edge62" class="edge">
<title>10&#45;&gt;19</title>
<path fill="none" stroke="black" d="M2662.77,-517.83C2761.33,-511.04 2969,-489.3 2969,-426.74 2969,-426.74 2969,-426.74 2969,-254.24 2969,-204.6 3012.11,-179.99 2979,-143 2956.54,-117.91 2865.94,-132.44 2818.2,-124.24"/>
<polygon fill="black" stroke="black" points="2818.68,-120.76 2808.15,-121.96 2817.13,-127.59 2818.68,-120.76"/>
<text text-anchor="middle" x="3005.5" y="-315.04" font-family="Times,serif" font-size="14.00">56. getgid</text>
</g>
<!-- 10&#45;&gt;19 -->
<g id="edge63" class="edge">
<title>10&#45;&gt;19</title>
<path fill="none" stroke="black" d="M2662.29,-517.3C2741.68,-511.5 2892.07,-498.07 2941,-476.74 3005.96,-448.41 3023.65,-423.99 3046,-356.74 3061.37,-310.5 3035.37,-173.04 2997,-143 2967.39,-119.81 2869.54,-133.66 2818.08,-124.28"/>
<polygon fill="black" stroke="black" points="2818.68,-120.83 2808.15,-121.99 2817.11,-127.65 2818.68,-120.83"/>
<text text-anchor="middle" x="3086.5" y="-315.04" font-family="Times,serif" font-size="14.00">57. getpid</text>
</g>
<!-- 10&#45;&gt;19 -->
<g id="edge64" class="edge">
<title>10&#45;&gt;19</title>
<path fill="none" stroke="black" d="M2589.65,-497.39C2549.61,-452.86 2473.91,-353.44 2520,-280.74 2578.41,-188.6 2637.43,-207.11 2742,-176 2769.95,-167.68 2852.84,-179.99 2872,-158 2876.38,-152.97 2875.91,-148.4 2872,-143 2858.5,-124.37 2844.26,-132.28 2818.12,-124.73"/>
<polygon fill="black" stroke="black" points="2818.96,-121.32 2808.36,-121.35 2816.67,-127.93 2818.96,-121.32"/>
<text text-anchor="middle" x="2561" y="-315.04" font-family="Times,serif" font-size="14.00">58. geteuid</text>
</g>
<!-- 10&#45;&gt;19 -->
<g id="edge65" class="edge">
<title>10&#45;&gt;19</title>
<path fill="none" stroke="black" d="M2607.8,-494.74C2601.62,-447.98 2595.04,-347.99 2638,-280.74 2686.59,-204.67 2728.47,-210.21 2812,-176 2843.72,-163.01 2865.78,-184.92 2887,-158 2918.75,-117.73 2881.54,-144.16 2817.87,-124.75"/>
<polygon fill="black" stroke="black" points="2818.88,-121.4 2808.29,-121.54 2816.66,-128.04 2818.88,-121.4"/>
<text text-anchor="middle" x="2679" y="-315.04" font-family="Times,serif" font-size="14.00">59. getppid</text>
</g>
<!-- 10&#45;&gt;19 -->
<g id="edge66" class="edge">
<title>10&#45;&gt;19</title>
<path fill="none" stroke="black" d="M2630.32,-496.33C2653.28,-465.16 2692.89,-408.89 2720,-356.74 2736.75,-324.52 2728.31,-309.87 2750,-280.74 2802.69,-209.98 2867.46,-237.36 2906,-158 2930.46,-107.63 2862.53,-132.14 2818.13,-124.19"/>
<polygon fill="black" stroke="black" points="2818.79,-120.75 2808.24,-121.7 2817.08,-127.54 2818.79,-120.75"/>
<text text-anchor="middle" x="2791" y="-315.04" font-family="Times,serif" font-size="14.00">60. getegid</text>
</g>
<!-- 10&#45;&gt;37 -->
<g id="edge68" class="edge">
<title>10&#45;&gt;37</title>
<path fill="none" stroke="black" d="M2564.04,-512.35C2512.45,-501.98 2429.29,-480.88 2366,-443.74 2345.93,-431.97 2349.38,-416.9 2328,-407.74 2125.11,-320.79 1544.11,-430.33 1336,-356.74 1297.15,-343 1224.18,-263.24 1186,-247.74 1134,-226.62 1105.15,-264.4 1061,-229.74 1053.16,-223.59 1033.16,-169.01 1021.28,-135.06"/>
<polygon fill="black" stroke="black" points="1024.46,-133.55 1017.87,-125.26 1017.85,-135.85 1024.46,-133.55"/>
<text text-anchor="middle" x="1387.5" y="-315.04" font-family="Times,serif" font-size="14.00">70. exit_group</text>
</g>
<!-- 11 -->
<g id="node12" class="node">
<title>11</title>
<polygon fill="#fde74c" stroke="#fde74c" points="2339,-724.48 2267,-724.48 2267,-686.48 2339,-686.48 2339,-724.48"/>
<text text-anchor="middle" x="2303" y="-709.28" font-family="Times,serif" font-size="14.00">uname</text>
<text text-anchor="middle" x="2303" y="-694.28" font-family="Times,serif" font-size="14.00">(T1082)</text>
</g>
<!-- 11&#45;&gt;7 -->
<g id="edge1" class="edge">
<title>11&#45;&gt;7</title>
<path fill="none" stroke="#fde74c" d="M2303,-686.24C2303,-674.41 2303,-658.8 2303,-645.53"/>
<polygon fill="#fde74c" stroke="#fde74c" points="2306.5,-645.52 2303,-635.52 2299.5,-645.52 2306.5,-645.52"/>
<text text-anchor="middle" x="2328.5" y="-657.28" font-family="Times,serif" font-size="14.00">1. read</text>
</g>
<!-- 12 -->
<g id="node13" class="node">
<title>12</title>
<polygon fill="#fde74c" stroke="#fde74c" points="3566,-540.61 3408,-540.61 3408,-502.61 3566,-502.61 3566,-540.61"/>
<text text-anchor="middle" x="3487" y="-525.41" font-family="Times,serif" font-size="14.00">/sys/devices/system</text>
<text text-anchor="middle" x="3487" y="-510.41" font-family="Times,serif" font-size="14.00">(T1082)</text>
</g>
<!-- 12&#45;&gt;36 -->
<g id="edge112" class="edge">
<title>12&#45;&gt;36</title>
<path fill="none" stroke="#fde74c" d="M3487,-502.51C3487,-488.75 3487,-469.58 3487,-453.97"/>
<polygon fill="#fde74c" stroke="#fde74c" points="3490.5,-453.83 3487,-443.83 3483.5,-453.83 3490.5,-453.83"/>
<text text-anchor="middle" x="3521.5" y="-465.54" font-family="Times,serif" font-size="14.00">105. read</text>
</g>
<!-- 13&#45;&gt;19 -->
<g id="edge19" class="edge">
<title>13&#45;&gt;19</title>
<path fill="none" stroke="black" d="M3186.34,-298.58C3141.62,-273.09 3068.07,-231.06 3067,-229.74 3041.51,-198.25 3070.76,-168.15 3039,-143 3002.32,-113.95 2879.34,-135.15 2818.11,-124.28"/>
<polygon fill="black" stroke="black" points="2818.65,-120.81 2808.13,-122.05 2817.13,-127.64 2818.65,-120.81"/>
<text text-anchor="middle" x="3099" y="-199.17" font-family="Times,serif" font-size="14.00">7. getuid</text>
</g>
<!-- 13&#45;&gt;19 -->
<g id="edge20" class="edge">
<title>13&#45;&gt;19</title>
<path fill="none" stroke="black" d="M3205.01,-293.06C3181,-253.65 3136.09,-180.47 3131,-176 3027.09,-84.87 2956.92,-157.61 2817.82,-124.52"/>
<polygon fill="black" stroke="black" points="2818.68,-121.13 2808.12,-122.07 2816.96,-127.92 2818.68,-121.13"/>
<text text-anchor="middle" x="3197" y="-199.17" font-family="Times,serif" font-size="14.00">8. getgid</text>
</g>
<!-- 13&#45;&gt;19 -->
<g id="edge21" class="edge">
<title>13&#45;&gt;19</title>
<path fill="none" stroke="black" d="M3231.32,-292.32C3243.13,-261.5 3256.65,-209.51 3231,-176 3196.86,-131.4 3164.43,-152.11 3109,-143 2983.83,-122.43 2944.84,-155.65 2817.82,-124.57"/>
<polygon fill="black" stroke="black" points="2818.67,-121.17 2808.11,-122.11 2816.95,-127.96 2818.67,-121.17"/>
<text text-anchor="middle" x="3277" y="-199.17" font-family="Times,serif" font-size="14.00">9. getpid</text>
</g>
<!-- 13&#45;&gt;19 -->
<g id="edge22" class="edge">
<title>13&#45;&gt;19</title>
<path fill="none" stroke="black" d="M3250.66,-297.01C3288.8,-268.69 3345.21,-216.75 3313,-176 3273.63,-126.19 3236.86,-151.97 3174,-143 3019.95,-121.02 2973.01,-161.91 2817.99,-124.59"/>
<polygon fill="black" stroke="black" points="2818.65,-121.15 2808.11,-122.14 2816.97,-127.95 2818.65,-121.15"/>
<text text-anchor="middle" x="3363" y="-199.17" font-family="Times,serif" font-size="14.00">10. geteuid</text>
</g>
<!-- 13&#45;&gt;19 -->
<g id="edge23" class="edge">
<title>13&#45;&gt;19</title>
<path fill="none" stroke="black" d="M3250.86,-297.29C3260.05,-291.6 3270.27,-285.63 3280,-280.74 3334.71,-253.23 3373.63,-280.43 3408,-229.74 3421.4,-209.97 3423.09,-194.52 3408,-176 3362.14,-119.71 3320.06,-151.88 3248,-143 3155.83,-131.65 2925.11,-146.91 2818.06,-124.46"/>
<polygon fill="black" stroke="black" points="2818.63,-121 2808.1,-122.17 2817.06,-127.82 2818.63,-121"/>
<text text-anchor="middle" x="3459" y="-199.17" font-family="Times,serif" font-size="14.00">11. getppid</text>
</g>
<!-- 13&#45;&gt;19 -->
<g id="edge24" class="edge">
<title>13&#45;&gt;19</title>
<path fill="none" stroke="black" d="M3249.34,-296.5C3258.74,-290.58 3269.46,-284.69 3280,-280.74 3375.63,-244.95 3442.56,-311.29 3504,-229.74 3518.37,-210.66 3519.21,-194.41 3504,-176 3500.9,-172.25 3336.83,-143.54 3332,-143 3221.21,-130.51 2943.45,-150.88 2817.95,-124.44"/>
<polygon fill="black" stroke="black" points="2818.62,-121.01 2808.09,-122.19 2817.06,-127.83 2818.62,-121.01"/>
<text text-anchor="middle" x="3556" y="-199.17" font-family="Times,serif" font-size="14.00">12. getegid</text>
</g>
<!-- 24 -->
<g id="node24" class="node">
<title>24</title>
<ellipse fill="lightgrey" stroke="black" cx="836" cy="-202.87" rx="27" ry="18"/>
<text text-anchor="middle" x="836" y="-199.17" font-family="Times,serif" font-size="14.00">sed</text>
</g>
<!-- 13&#45;&gt;24 -->
<g id="edge25" class="edge">
<title>13&#45;&gt;24</title>
<path fill="none" stroke="#26c485" d="M3190.31,-296.7C3179.67,-290.32 3167.27,-284.1 3155,-280.74 3100.29,-265.74 2190.71,-264.11 2134,-262.74 1657.03,-251.2 1536.86,-264.35 1061,-229.74 994.2,-224.88 916.67,-215.03 872.28,-208.99"/>
<polygon fill="#26c485" stroke="#26c485" points="872.64,-205.51 862.26,-207.61 871.69,-212.44 872.64,-205.51"/>
<text text-anchor="middle" x="2164" y="-251.54" font-family="Times,serif" font-size="14.00">13. exec</text>
</g>
<!-- 13&#45;&gt;37 -->
<g id="edge26" class="edge">
<title>13&#45;&gt;37</title>
<path fill="none" stroke="black" d="M3190.27,-296.84C3179.63,-290.47 3167.24,-284.23 3155,-280.74 2970.66,-228.16 2484.59,-254.2 2293,-247.74 2258.73,-246.58 1707.17,-244.05 1676,-229.74 1646.62,-216.26 1656.34,-189.56 1627,-176 1574.63,-151.78 1163.8,-172.69 1108,-158 1086.18,-152.26 1063.71,-140.9 1046,-130.46"/>
<polygon fill="black" stroke="black" points="1047.57,-127.32 1037.2,-125.12 1043.93,-133.3 1047.57,-127.32"/>
<text text-anchor="middle" x="1727.5" y="-199.17" font-family="Times,serif" font-size="14.00">22. exit_group</text>
</g>
<!-- 14&#45;&gt;19 -->
<g id="edge88" class="edge">
<title>14&#45;&gt;19</title>
<path fill="none" stroke="black" d="M3825.42,-194.81C3785.18,-189.15 3726.47,-181.29 3675,-176 3569.48,-165.16 3537.47,-192.04 3437,-158 3425.44,-154.08 3425.64,-146.65 3414,-143 3290.33,-104.2 2961.94,-153.57 2818.12,-124.44"/>
<polygon fill="black" stroke="black" points="2818.61,-120.96 2808.09,-122.21 2817.09,-127.8 2818.61,-120.96"/>
<text text-anchor="middle" x="3473.5" y="-146.8" font-family="Times,serif" font-size="14.00">86. getuid</text>
</g>
<!-- 14&#45;&gt;19 -->
<g id="edge89" class="edge">
<title>14&#45;&gt;19</title>
<path fill="none" stroke="black" d="M3824.94,-195.45C3784.66,-190.19 3726.14,-182.57 3675,-176 3611.9,-167.9 3592.72,-179.93 3533,-158 3521.54,-153.79 3521.65,-146.63 3510,-143 3365.93,-98.13 2983.01,-158.1 2818.15,-124.46"/>
<polygon fill="black" stroke="black" points="2818.61,-120.97 2808.09,-122.22 2817.09,-127.81 2818.61,-120.97"/>
<text text-anchor="middle" x="3569.5" y="-146.8" font-family="Times,serif" font-size="14.00">87. getgid</text>
</g>
<!-- 14&#45;&gt;19 -->
<g id="edge90" class="edge">
<title>14&#45;&gt;19</title>
<path fill="none" stroke="black" d="M3823.59,-198.74C3772.9,-194.25 3693.27,-183.49 3629,-158 3617.66,-153.5 3617.66,-146.61 3606,-143 3524.77,-117.84 2939.38,-143.51 2818.06,-124.17"/>
<polygon fill="black" stroke="black" points="2818.57,-120.71 2808.09,-122.23 2817.23,-127.58 2818.57,-120.71"/>
<text text-anchor="middle" x="3665.5" y="-146.8" font-family="Times,serif" font-size="14.00">88. getpid</text>
</g>
<!-- 14&#45;&gt;19 -->
<g id="edge91" class="edge">
<title>14&#45;&gt;19</title>
<path fill="none" stroke="black" d="M3827.43,-191.87C3797.39,-184.53 3757.94,-173.19 3725,-158 3713.92,-152.89 3713.66,-146.6 3702,-143 3610.58,-114.81 2950.32,-145.71 2817.97,-124.18"/>
<polygon fill="black" stroke="black" points="2818.57,-120.73 2808.08,-122.23 2817.22,-127.6 2818.57,-120.73"/>
<text text-anchor="middle" x="3766" y="-146.8" font-family="Times,serif" font-size="14.00">89. geteuid</text>
</g>
<!-- 14&#45;&gt;19 -->
<g id="edge92" class="edge">
<title>14&#45;&gt;19</title>
<path fill="none" stroke="black" d="M3851.1,-178.66C3835.93,-163.91 3817.04,-146.89 3807,-143 3707.01,-104.27 2963.32,-147.73 2818.18,-124.22"/>
<polygon fill="black" stroke="black" points="2818.57,-120.73 2808.08,-122.24 2817.22,-127.6 2818.57,-120.73"/>
<text text-anchor="middle" x="3868" y="-146.8" font-family="Times,serif" font-size="14.00">90. getppid</text>
</g>
<!-- 14&#45;&gt;19 -->
<g id="edge93" class="edge">
<title>14&#45;&gt;19</title>
<path fill="none" stroke="black" d="M3901.76,-180.2C3913.71,-168.36 3922.75,-153.93 3912,-143 3891.56,-122.22 2932.51,-131.07 2818.11,-123.36"/>
<polygon fill="black" stroke="black" points="2818.41,-119.87 2808.08,-122.25 2817.63,-126.83 2818.41,-119.87"/>
<text text-anchor="middle" x="3957" y="-146.8" font-family="Times,serif" font-size="14.00">91. getegid</text>
</g>
<!-- 28 -->
<g id="node27" class="node">
<title>28</title>
<ellipse fill="lightgrey" stroke="black" cx="2853" cy="-107" rx="27" ry="18"/>
<text text-anchor="middle" x="2853" y="-103.3" font-family="Times,serif" font-size="14.00">sed</text>
</g>
<!-- 14&#45;&gt;28 -->
<g id="edge94" class="edge">
<title>14&#45;&gt;28</title>
<path fill="none" stroke="#26c485" d="M3924.27,-197.58C3978.24,-191.18 4052.17,-176.15 4020,-143 3999.86,-122.24 3087.53,-110.67 2890.33,-108.41"/>
<polygon fill="#26c485" stroke="#26c485" points="2890.22,-104.91 2880.18,-108.3 2890.14,-111.91 2890.22,-104.91"/>
<text text-anchor="middle" x="4057" y="-146.8" font-family="Times,serif" font-size="14.00">92. exec</text>
</g>
<!-- 33 -->
<g id="node32" class="node">
<title>33</title>
<polygon fill="lightgrey" stroke="black" points="2515,-37 2453,-37 2453,-41 2441,-41 2441,-1 2515,-1 2515,-37"/>
<polyline fill="none" stroke="black" points="2441,-37 2453,-37 "/>
<text text-anchor="middle" x="2478" y="-15.3" font-family="Times,serif" font-size="14.00">status:2</text>
</g>
<!-- 14&#45;&gt;33 -->
<g id="edge95" class="edge">
<title>14&#45;&gt;33</title>
<path fill="none" stroke="black" d="M3924.52,-198.86C3981.93,-194.27 4070.37,-183.21 4091,-158 4095.22,-152.84 4095.53,-147.89 4091,-143 4077.3,-128.21 2789.79,-40.95 2525.2,-23.16"/>
<polygon fill="black" stroke="black" points="2525.37,-19.67 2515.15,-22.49 2524.9,-26.65 2525.37,-19.67"/>
<text text-anchor="middle" x="3968.5" y="-103.3" font-family="Times,serif" font-size="14.00">96. exit_group</text>
</g>
<!-- 15&#45;&gt;2 -->
<g id="edge74" class="edge">
<title>15&#45;&gt;2</title>
<path fill="none" stroke="black" d="M623.26,-337.77C644.48,-350.92 664.97,-369.85 653,-389.74 645.98,-401.4 633.63,-409.39 621.49,-414.75"/>
<polygon fill="black" stroke="black" points="619.94,-411.59 611.91,-418.5 622.5,-418.11 619.94,-411.59"/>
<text text-anchor="middle" x="687" y="-378.54" font-family="Times,serif" font-size="14.00">67. read</text>
</g>
<!-- 15&#45;&gt;3 -->
<g id="edge58" class="edge">
<title>15&#45;&gt;3</title>
<path fill="none" stroke="black" d="M537.46,-310.72C485.41,-302.21 408.67,-286.05 391,-262.74 376.84,-244.06 402.66,-227.05 426.44,-216.17"/>
<polygon fill="black" stroke="black" points="427.91,-219.35 435.7,-212.18 425.14,-212.92 427.91,-219.35"/>
<text text-anchor="middle" x="421" y="-251.54" font-family="Times,serif" font-size="14.00">49. read</text>
</g>
<!-- 15&#45;&gt;24 -->
<g id="edge32" class="edge">
<title>15&#45;&gt;24</title>
<path fill="none" stroke="black" d="M593.89,-299.6C600.98,-283.46 613.59,-260.49 632,-247.74 682.35,-212.87 755.17,-204.93 798.82,-203.55"/>
<polygon fill="black" stroke="black" points="799.07,-207.04 808.99,-203.33 798.92,-200.05 799.07,-207.04"/>
<text text-anchor="middle" x="662" y="-251.54" font-family="Times,serif" font-size="14.00">19. read</text>
</g>
<!-- 17&#45;&gt;3 -->
<g id="edge51" class="edge">
<title>17&#45;&gt;3</title>
<path fill="none" stroke="#26c485" d="M1455.17,-304.97C1423.7,-296.41 1380.11,-285.83 1341,-280.74 1271.56,-271.71 776.82,-286.65 711,-262.74 700.89,-259.07 701.79,-252.2 692,-247.74 627.22,-218.25 543.64,-208.58 496.22,-205.41"/>
<polygon fill="#26c485" stroke="#26c485" points="496.3,-201.91 486.11,-204.8 495.88,-208.9 496.3,-201.91"/>
<text text-anchor="middle" x="741" y="-251.54" font-family="Times,serif" font-size="14.00">43. exec</text>
</g>
<!-- 17&#45;&gt;19 -->
<g id="edge45" class="edge">
<title>17&#45;&gt;19</title>
<path fill="none" stroke="black" d="M1549.81,-315.14C1649.28,-308.79 1863.33,-288.44 1901,-229.74 1913.9,-209.64 1917.43,-193.33 1901,-176 1875.28,-148.87 1590.72,-185.13 1565,-158 1560.41,-153.16 1560.35,-147.78 1565,-143 1578.34,-129.31 2233.89,-125.56 2253,-125 2437.15,-119.63 2657.39,-112.22 2743.71,-109.28"/>
<polygon fill="black" stroke="black" points="2743.92,-112.77 2753.8,-108.93 2743.68,-105.78 2743.92,-112.77"/>
<text text-anchor="middle" x="1948.5" y="-199.17" font-family="Times,serif" font-size="14.00">37. getuid</text>
</g>
<!-- 17&#45;&gt;19 -->
<g id="edge46" class="edge">
<title>17&#45;&gt;19</title>
<path fill="none" stroke="black" d="M1454.14,-305.92C1382.38,-286.56 1248.53,-248.37 1236,-229.74 1222.67,-209.92 1220.24,-193.95 1236,-176 1256.41,-152.76 1344.55,-167.46 1374,-158 1387.44,-153.68 1388.34,-146.58 1402,-143 1493.48,-119.01 2158.46,-127.52 2253,-125 2437.16,-120.09 2657.4,-112.42 2743.71,-109.34"/>
<polygon fill="black" stroke="black" points="2743.93,-112.84 2753.8,-108.98 2743.68,-105.84 2743.93,-112.84"/>
<text text-anchor="middle" x="1272.5" y="-199.17" font-family="Times,serif" font-size="14.00">38. getgid</text>
</g>
<!-- 17&#45;&gt;19 -->
<g id="edge47" class="edge">
<title>17&#45;&gt;19</title>
<path fill="none" stroke="black" d="M1454.31,-305.77C1417.72,-293.35 1368.34,-269.96 1345,-229.74 1333.01,-209.08 1331.03,-195.38 1345,-176 1359.79,-155.48 1375.77,-168.01 1399,-158 1411.97,-152.41 1413.35,-146.59 1427,-143 1515.79,-119.68 2161.23,-127.48 2253,-125 2437.16,-120.03 2657.4,-112.39 2743.71,-109.33"/>
<polygon fill="black" stroke="black" points="2743.93,-112.83 2753.8,-108.98 2743.68,-105.83 2743.93,-112.83"/>
<text text-anchor="middle" x="1381.5" y="-199.17" font-family="Times,serif" font-size="14.00">39. getpid</text>
</g>
<!-- 17&#45;&gt;19 -->
<g id="edge48" class="edge">
<title>17&#45;&gt;19</title>
<path fill="none" stroke="black" d="M1480.34,-293.54C1453.84,-256.09 1412.76,-184.16 1453,-143 1468.54,-127.11 2230.78,-125.61 2253,-125 2437.16,-119.96 2657.4,-112.36 2743.71,-109.32"/>
<polygon fill="black" stroke="black" points="2743.93,-112.82 2753.8,-108.97 2743.68,-105.82 2743.93,-112.82"/>
<text text-anchor="middle" x="1485" y="-199.17" font-family="Times,serif" font-size="14.00">40. geteuid</text>
</g>
<!-- 17&#45;&gt;19 -->
<g id="edge49" class="edge">
<title>17&#45;&gt;19</title>
<path fill="none" stroke="black" d="M1515.09,-293.11C1532.63,-262.84 1555.06,-211.19 1530,-176 1515.81,-156.08 1492.19,-177.92 1478,-158 1474.13,-152.57 1473.34,-147.77 1478,-143 1493.05,-127.6 2231.47,-125.6 2253,-125 2437.16,-119.9 2657.4,-112.34 2743.71,-109.32"/>
<polygon fill="black" stroke="black" points="2743.93,-112.81 2753.8,-108.96 2743.68,-105.81 2743.93,-112.81"/>
<text text-anchor="middle" x="1582" y="-199.17" font-family="Times,serif" font-size="14.00">41. getppid</text>
</g>
<!-- 17&#45;&gt;19 -->
<g id="edge50" class="edge">
<title>17&#45;&gt;19</title>
<path fill="none" stroke="black" d="M1547.07,-309.84C1620.44,-296.7 1754.82,-267.97 1783,-229.74 1797.17,-210.51 1799.2,-193.55 1783,-176 1748.82,-138.99 1591.18,-195.01 1557,-158 1552.48,-153.1 1552.35,-147.77 1557,-143 1570.5,-129.15 2233.67,-125.56 2253,-125 2437.15,-119.65 2657.39,-112.23 2743.71,-109.28"/>
<polygon fill="black" stroke="black" points="2743.92,-112.78 2753.8,-108.94 2743.68,-105.78 2743.92,-112.78"/>
<text text-anchor="middle" x="1835" y="-199.17" font-family="Times,serif" font-size="14.00">42. getegid</text>
</g>
<!-- 17&#45;&gt;37 -->
<g id="edge52" class="edge">
<title>17&#45;&gt;37</title>
<path fill="none" stroke="black" d="M1453.51,-306.38C1422.02,-298.69 1379.09,-288.55 1341,-280.74 1295.91,-271.49 1282.5,-277.8 1239,-262.74 1225.66,-258.12 1224.38,-252.24 1211,-247.74 1162.38,-231.4 1139.01,-259.17 1097,-229.74 1060.91,-204.46 1075.99,-177.83 1049,-143 1046.18,-139.36 1042.98,-135.76 1039.67,-132.32"/>
<polygon fill="black" stroke="black" points="1041.93,-129.64 1032.35,-125.13 1037.03,-134.64 1041.93,-129.64"/>
<text text-anchor="middle" x="1148.5" y="-199.17" font-family="Times,serif" font-size="14.00">52. exit_group</text>
</g>
<!-- 18&#45;&gt;19 -->
<g id="edge77" class="edge">
<title>18&#45;&gt;19</title>
<path fill="none" stroke="black" d="M2037.52,-184.47C2028.67,-181.07 2019.15,-177.95 2010,-176 1986.24,-170.94 1589.82,-175.53 1573,-158 1568.38,-153.19 1568.35,-147.78 1573,-143 1586.16,-129.48 2233.14,-125.55 2252,-125 2436.5,-119.59 2657.16,-112.2 2743.64,-109.27"/>
<polygon fill="black" stroke="black" points="2743.87,-112.77 2753.75,-108.93 2743.63,-105.77 2743.87,-112.77"/>
<text text-anchor="middle" x="1609.5" y="-146.8" font-family="Times,serif" font-size="14.00">73. getuid</text>
</g>
<!-- 18&#45;&gt;19 -->
<g id="edge78" class="edge">
<title>18&#45;&gt;19</title>
<path fill="none" stroke="black" d="M2037.5,-184.55C2028.66,-181.14 2019.14,-178 2010,-176 1935.63,-159.7 1616,-197.66 1669,-143 1680.28,-131.37 2235.81,-125.51 2252,-125 2436.48,-119.19 2657.15,-112.03 2743.64,-109.22"/>
<polygon fill="black" stroke="black" points="2743.86,-112.71 2753.75,-108.89 2743.64,-105.72 2743.86,-112.71"/>
<text text-anchor="middle" x="1705.5" y="-146.8" font-family="Times,serif" font-size="14.00">74. getgid</text>
</g>
<!-- 18&#45;&gt;19 -->
<g id="edge79" class="edge">
<title>18&#45;&gt;19</title>
<path fill="none" stroke="black" d="M2037.47,-184.69C2028.63,-181.27 2019.11,-178.1 2010,-176 1983.4,-169.88 1783.58,-178 1765,-158 1760.46,-153.12 1760.37,-147.79 1765,-143 1767.17,-140.75 2560.75,-115.09 2743.69,-109.2"/>
<polygon fill="black" stroke="black" points="2744.01,-112.69 2753.89,-108.87 2743.78,-105.69 2744.01,-112.69"/>
<text text-anchor="middle" x="1801.5" y="-146.8" font-family="Times,serif" font-size="14.00">75. getpid</text>
</g>
<!-- 18&#45;&gt;19 -->
<g id="edge80" class="edge">
<title>18&#45;&gt;19</title>
<path fill="none" stroke="black" d="M2037.05,-184.87C2028.31,-181.49 2018.94,-178.28 2010,-176 1944.27,-159.25 1813.96,-191.86 1861,-143 1864.89,-138.96 2571.32,-115.03 2743.49,-109.25"/>
<polygon fill="black" stroke="black" points="2743.72,-112.75 2753.59,-108.91 2743.48,-105.75 2743.72,-112.75"/>
<text text-anchor="middle" x="1902" y="-146.8" font-family="Times,serif" font-size="14.00">76. geteuid</text>
</g>
<!-- 18&#45;&gt;19 -->
<g id="edge81" class="edge">
<title>18&#45;&gt;19</title>
<path fill="none" stroke="black" d="M2035.17,-185.98C2004.14,-173.59 1966.27,-158.4 1966,-158 1962.27,-152.48 1961.39,-147.81 1966,-143 1972.82,-135.88 2584.18,-114.67 2743.42,-109.27"/>
<polygon fill="black" stroke="black" points="2743.8,-112.76 2753.67,-108.92 2743.56,-105.76 2743.8,-112.76"/>
<text text-anchor="middle" x="2007" y="-146.8" font-family="Times,serif" font-size="14.00">77. getppid</text>
</g>
<!-- 18&#45;&gt;19 -->
<g id="edge82" class="edge">
<title>18&#45;&gt;19</title>
<path fill="none" stroke="black" d="M2108.23,-182.42C2133.36,-168.76 2169.19,-151.48 2203,-143 2306.08,-117.14 2633.15,-110.12 2743.91,-108.46"/>
<polygon fill="black" stroke="black" points="2743.99,-111.96 2753.94,-108.32 2743.89,-104.96 2743.99,-111.96"/>
<text text-anchor="middle" x="2244" y="-146.8" font-family="Times,serif" font-size="14.00">78. getegid</text>
</g>
<!-- 18&#45;&gt;33 -->
<g id="edge84" class="edge">
<title>18&#45;&gt;33</title>
<path fill="none" stroke="black" d="M2037.52,-184.47C2028.67,-181.06 2019.15,-177.95 2010,-176 1985.8,-170.85 1582.14,-175.85 1565,-158 1560.38,-153.19 1560.61,-148.02 1565,-143 1622.74,-76.96 2252,-33.78 2430.84,-22.78"/>
<polygon fill="black" stroke="black" points="2431.22,-26.26 2440.99,-22.16 2430.79,-19.27 2431.22,-26.26"/>
<text text-anchor="middle" x="1793.5" y="-103.3" font-family="Times,serif" font-size="14.00">83. exit_group</text>
</g>
<!-- 34 -->
<g id="node33" class="node">
<title>34</title>
<ellipse fill="lightgrey" stroke="black" cx="1111" cy="-107" rx="27" ry="18"/>
<text text-anchor="middle" x="1111" y="-103.3" font-family="Times,serif" font-size="14.00">sed</text>
</g>
<!-- 18&#45;&gt;34 -->
<g id="edge83" class="edge">
<title>18&#45;&gt;34</title>
<path fill="none" stroke="#26c485" d="M2037.89,-184.46C2028.95,-181.01 2019.29,-177.88 2010,-176 1961.64,-166.22 1160.14,-189.3 1122,-158 1115.26,-152.47 1112.07,-143.83 1110.7,-135.28"/>
<polygon fill="#26c485" stroke="#26c485" points="1114.17,-134.77 1109.81,-125.12 1107.19,-135.38 1114.17,-134.77"/>
<text text-anchor="middle" x="1152" y="-146.8" font-family="Times,serif" font-size="14.00">79. exec</text>
</g>
<!-- 21&#45;&gt;5 -->
<g id="edge105" class="edge">
<title>21&#45;&gt;5</title>
<path fill="none" stroke="black" d="M4289.97,-350.57C4302.19,-377.33 4313.54,-416.03 4295,-443.74 4257.1,-500.37 4173.57,-515.7 4121.61,-519.6"/>
<polygon fill="black" stroke="black" points="4121.11,-516.12 4111.35,-520.25 4121.55,-523.11 4121.11,-516.12"/>
<text text-anchor="middle" x="4361.5" y="-422.04" font-family="Times,serif" font-size="14.00">116. getsockopt</text>
</g>
<!-- 22 -->
<g id="node22" class="node">
<title>22</title>
<polygon fill="#9bc53d" stroke="#9bc53d" points="1168.5,-38 1037.5,-38 1037.5,0 1168.5,0 1168.5,-38"/>
<text text-anchor="middle" x="1103" y="-22.8" font-family="Times,serif" font-size="14.00">/etc/rc.d/rc.local</text>
<text text-anchor="middle" x="1103" y="-7.8" font-family="Times,serif" font-size="14.00">(T1168)</text>
</g>
<!-- 23 -->
<g id="node23" class="node">
<title>23</title>
<polygon fill="lightgrey" stroke="black" points="4082.5,-635.48 3967.5,-635.48 3967.5,-599.48 4082.5,-599.48 4082.5,-635.48"/>
<text text-anchor="middle" x="4025" y="-613.78" font-family="Times,serif" font-size="14.00">/dev/urandom</text>
</g>
<!-- 23&#45;&gt;5 -->
<g id="edge101" class="edge">
<title>23&#45;&gt;5</title>
<path fill="none" stroke="black" d="M4022.44,-599.47C4021.7,-589.41 4022.14,-576.67 4027,-566.48 4031.55,-556.94 4039.24,-548.62 4047.23,-541.86"/>
<polygon fill="black" stroke="black" points="4049.49,-544.54 4055.23,-535.64 4045.19,-539.02 4049.49,-544.54"/>
<text text-anchor="middle" x="4061.5" y="-570.28" font-family="Times,serif" font-size="14.00">103. read</text>
</g>
<!-- 24&#45;&gt;4 -->
<g id="edge29" class="edge">
<title>24&#45;&gt;4</title>
<path fill="none" stroke="black" d="M808.89,-202.53C755.06,-202.86 631.87,-198.66 539,-158 524.93,-151.84 511.4,-141.62 500.59,-132.01"/>
<polygon fill="black" stroke="black" points="502.95,-129.42 493.23,-125.2 498.19,-134.56 502.95,-129.42"/>
<text text-anchor="middle" x="576" y="-146.8" font-family="Times,serif" font-size="14.00">16. umask</text>
</g>
<!-- 24&#45;&gt;9 -->
<g id="edge27" class="edge">
<title>24&#45;&gt;9</title>
<path fill="none" stroke="black" d="M836,-184.76C836,-153.21 836,-85.63 836,-47.55"/>
<polygon fill="black" stroke="black" points="839.5,-47.2 836,-37.2 832.5,-47.2 839.5,-47.2"/>
<text text-anchor="middle" x="883" y="-103.3" font-family="Times,serif" font-size="14.00">14. prlimit64</text>
</g>
<!-- 24&#45;&gt;15 -->
<g id="edge28" class="edge">
<title>24&#45;&gt;15</title>
<path fill="none" stroke="black" d="M824,-219.04C812.69,-232.37 794.6,-251.36 775,-262.74 735.32,-285.79 685.23,-299.82 646.74,-307.93"/>
<polygon fill="black" stroke="black" points="645.82,-304.55 636.71,-309.97 647.21,-311.41 645.82,-304.55"/>
<text text-anchor="middle" x="825.5" y="-251.54" font-family="Times,serif" font-size="14.00">15. fstat</text>
</g>
<!-- 24&#45;&gt;15 -->
<g id="edge33" class="edge">
<title>24&#45;&gt;15</title>
<path fill="none" stroke="#9bc53d" d="M849.53,-218.73C859.47,-231.5 869.56,-249.83 859,-262.74 832.72,-294.86 718.63,-308.66 646.82,-314.25"/>
<polygon fill="#9bc53d" stroke="#9bc53d" points="646.25,-310.78 636.54,-315.01 646.78,-317.76 646.25,-310.78"/>
<text text-anchor="middle" x="895.5" y="-251.54" font-family="Times,serif" font-size="14.00">20. write</text>
</g>
<!-- 24&#45;&gt;19 -->
<g id="edge30" class="edge">
<title>24&#45;&gt;19</title>
<path fill="none" stroke="black" d="M862.3,-198.57C904.27,-193.37 989,-183.12 1061,-176 1157.31,-166.47 1186.46,-189.39 1278,-158 1289.54,-154.04 1289.34,-146.59 1301,-143 1351.51,-127.46 2199.17,-126.35 2252,-125 2436.52,-120.29 2657.17,-112.5 2743.64,-109.37"/>
<polygon fill="black" stroke="black" points="2743.88,-112.86 2753.75,-109 2743.63,-105.87 2743.88,-112.86"/>
<text text-anchor="middle" x="1337.5" y="-146.8" font-family="Times,serif" font-size="14.00">17. getpid</text>
</g>
<!-- 24&#45;&gt;31 -->
<g id="edge31" class="edge">
<title>24&#45;&gt;31</title>
<path fill="none" stroke="black" d="M808.92,-200.44C756.73,-197.05 645.31,-186.58 622,-158 616.8,-151.63 616.11,-143.18 617.31,-135.04"/>
<polygon fill="black" stroke="black" points="620.77,-135.61 619.64,-125.07 613.95,-134.01 620.77,-135.61"/>
<text text-anchor="middle" x="659" y="-146.8" font-family="Times,serif" font-size="14.00">18. umask</text>
</g>
<!-- 24&#45;&gt;37 -->
<g id="edge34" class="edge">
<title>24&#45;&gt;37</title>
<path fill="none" stroke="black" d="M841.49,-185.15C846.73,-171.77 855.94,-153.56 870,-143 873.93,-140.05 925.08,-127.86 964.87,-118.69"/>
<polygon fill="black" stroke="black" points="965.75,-122.08 974.71,-116.43 964.18,-115.26 965.75,-122.08"/>
<text text-anchor="middle" x="921.5" y="-146.8" font-family="Times,serif" font-size="14.00">21. exit_group</text>
</g>
<!-- 26 -->
<g id="node25" class="node">
<title>26</title>
<polygon fill="lightgrey" stroke="black" points="3625,-336.74 3541,-336.74 3541,-340.74 3529,-340.74 3529,-300.74 3625,-300.74 3625,-336.74"/>
<polyline fill="none" stroke="black" points="3529,-336.74 3541,-336.74 "/>
<text text-anchor="middle" x="3577" y="-315.04" font-family="Times,serif" font-size="14.00">Timestamp</text>
</g>
<!-- 27&#45;&gt;1 -->
<g id="edge44" class="edge">
<title>27&#45;&gt;1</title>
<path fill="none" stroke="black" d="M1309.14,-89.03C1307.16,-78.2 1306.93,-64.62 1315,-56 1339.63,-29.67 1578.19,-22.51 1681.6,-20.64"/>
<polygon fill="black" stroke="black" points="1681.82,-24.13 1691.76,-20.46 1681.7,-17.13 1681.82,-24.13"/>
<text text-anchor="middle" x="1366.5" y="-59.8" font-family="Times,serif" font-size="14.00">33. exit_group</text>
</g>
<!-- 27&#45;&gt;9 -->
<g id="edge43" class="edge">
<title>27&#45;&gt;9</title>
<path fill="none" stroke="black" d="M1287.53,-103.39C1217.57,-96.43 1031.29,-77.55 1004,-71 985.54,-66.57 982.04,-61.91 964,-56 946.79,-50.36 928.1,-44.8 910.46,-39.79"/>
<polygon fill="black" stroke="black" points="911.36,-36.41 900.78,-37.07 909.46,-43.15 911.36,-36.41"/>
<text text-anchor="middle" x="1051" y="-59.8" font-family="Times,serif" font-size="14.00">32. prlimit64</text>
</g>
<!-- 28&#45;&gt;9 -->
<g id="edge96" class="edge">
<title>28&#45;&gt;9</title>
<path fill="none" stroke="black" d="M2832.97,-94.77C2827.91,-92.43 2822.38,-90.29 2817,-89 2720.35,-65.88 1128.19,-44.03 1029,-38 991.7,-35.73 950.45,-32.04 915.69,-28.6"/>
<polygon fill="black" stroke="black" points="915.9,-25.1 905.6,-27.58 915.2,-32.06 915.9,-25.1"/>
<text text-anchor="middle" x="2496" y="-59.8" font-family="Times,serif" font-size="14.00">93. prlimit64</text>
</g>
<!-- 29 -->
<g id="node28" class="node">
<title>29</title>
<polygon fill="#9bc53d" stroke="#9bc53d" points="2932,-38 2774,-38 2774,0 2932,0 2932,-38"/>
<text text-anchor="middle" x="2853" y="-22.8" font-family="Times,serif" font-size="14.00">/etc/init.d/boot.local</text>
<text text-anchor="middle" x="2853" y="-7.8" font-family="Times,serif" font-size="14.00">(T1168)</text>
</g>
<!-- 28&#45;&gt;29 -->
<g id="edge97" class="edge">
<title>28&#45;&gt;29</title>
<path fill="none" stroke="#9bc53d" d="M2853,-88.6C2853,-77.06 2853,-61.65 2853,-48.36"/>
<polygon fill="#9bc53d" stroke="#9bc53d" points="2856.5,-48.27 2853,-38.27 2849.5,-48.27 2856.5,-48.27"/>
<text text-anchor="middle" x="2884" y="-59.8" font-family="Times,serif" font-size="14.00">94. open</text>
</g>
<!-- 28&#45;&gt;33 -->
<g id="edge98" class="edge">
<title>28&#45;&gt;33</title>
<path fill="none" stroke="black" d="M2832.41,-95.24C2827.46,-92.94 2822.12,-90.7 2817,-89 2789.55,-79.87 2611.48,-45.42 2525,-28.92"/>
<polygon fill="black" stroke="black" points="2525.65,-25.48 2515.17,-27.04 2524.34,-32.35 2525.65,-25.48"/>
<text text-anchor="middle" x="2787.5" y="-59.8" font-family="Times,serif" font-size="14.00">95. exit_group</text>
</g>
<!-- 30 -->
<g id="node29" class="node">
<title>30</title>
<polygon fill="lightgrey" stroke="black" points="4155,-635.48 4101,-635.48 4101,-599.48 4155,-599.48 4155,-635.48"/>
<text text-anchor="middle" x="4128" y="-613.78" font-family="Times,serif" font-size="14.00">NIC</text>
</g>
<!-- 30&#45;&gt;5 -->
<g id="edge102" class="edge">
<title>30&#45;&gt;5</title>
<path fill="none" stroke="black" d="M4118.65,-599.26C4110.86,-584.93 4099.66,-564.31 4090.83,-548.07"/>
<polygon fill="black" stroke="black" points="4093.8,-546.2 4085.95,-539.09 4087.65,-549.55 4093.8,-546.2"/>
<text text-anchor="middle" x="4142.5" y="-570.28" font-family="Times,serif" font-size="14.00">107. read</text>
</g>
<!-- 32 -->
<g id="node31" class="node">
<title>32</title>
<polygon fill="#fde74c" stroke="#fde74c" points="3507,-337.74 3397,-337.74 3397,-299.74 3507,-299.74 3507,-337.74"/>
<text text-anchor="middle" x="3452" y="-322.54" font-family="Times,serif" font-size="14.00">/proc/net/dev</text>
<text text-anchor="middle" x="3452" y="-307.54" font-family="Times,serif" font-size="14.00">(T1049)</text>
</g>
<!-- 32&#45;&gt;36 -->
<g id="edge110" class="edge">
<title>32&#45;&gt;36</title>
<path fill="none" stroke="#fde74c" d="M3458.08,-337.98C3463.64,-354.66 3471.93,-379.53 3478.21,-398.38"/>
<polygon fill="#fde74c" stroke="#fde74c" points="3474.89,-399.49 3481.38,-407.87 3481.53,-397.28 3474.89,-399.49"/>
<text text-anchor="middle" x="3508.5" y="-378.54" font-family="Times,serif" font-size="14.00">102. read</text>
</g>
<!-- 34&#45;&gt;9 -->
<g id="edge85" class="edge">
<title>34&#45;&gt;9</title>
<path fill="none" stroke="black" d="M1088.07,-97.46C1078.84,-94.33 1068.03,-91.06 1058,-89 1016.89,-80.54 906.02,-92.55 870,-71 860.41,-65.26 852.97,-55.65 847.52,-46.31"/>
<polygon fill="black" stroke="black" points="850.49,-44.44 842.74,-37.21 844.3,-47.69 850.49,-44.44"/>
<text text-anchor="middle" x="917" y="-59.8" font-family="Times,serif" font-size="14.00">80. prlimit64</text>
</g>
<!-- 34&#45;&gt;22 -->
<g id="edge86" class="edge">
<title>34&#45;&gt;22</title>
<path fill="none" stroke="#9bc53d" d="M1106.97,-89C1105.79,-83.31 1104.64,-76.91 1104,-71 1103.21,-63.78 1102.83,-55.96 1102.67,-48.66"/>
<polygon fill="#9bc53d" stroke="#9bc53d" points="1106.17,-48.43 1102.57,-38.46 1099.17,-48.5 1106.17,-48.43"/>
<text text-anchor="middle" x="1135" y="-59.8" font-family="Times,serif" font-size="14.00">81. open</text>
</g>
<!-- 34&#45;&gt;33 -->
<g id="edge87" class="edge">
<title>34&#45;&gt;33</title>
<path fill="none" stroke="black" d="M1130.07,-93.98C1151.88,-80.51 1186.43,-59.99 1201,-56 1216.12,-51.85 2202.15,-26.91 2430.95,-21.18"/>
<polygon fill="black" stroke="black" points="2431.05,-24.67 2440.96,-20.93 2430.87,-17.68 2431.05,-24.67"/>
<text text-anchor="middle" x="1252.5" y="-59.8" font-family="Times,serif" font-size="14.00">82. exit_group</text>
</g>
<!-- 36&#45;&gt;6 -->
<g id="edge115" class="edge">
<title>36&#45;&gt;6</title>
<path fill="none" stroke="black" d="M3452.72,-423.26C3377.73,-419.67 3204.43,-409.32 3187,-389.74 3182.57,-384.76 3182.76,-379.88 3187,-374.74 3213.79,-342.27 3241.38,-373.5 3280,-356.74 3287.62,-353.43 3295.21,-348.83 3302.11,-344"/>
<polygon fill="black" stroke="black" points="3304.49,-346.59 3310.44,-337.83 3300.32,-340.97 3304.49,-346.59"/>
<text text-anchor="middle" x="3231" y="-378.54" font-family="Times,serif" font-size="14.00">111. fstat64</text>
</g>
<!-- 36&#45;&gt;21 -->
<g id="edge114" class="edge">
<title>36&#45;&gt;21</title>
<path fill="none" stroke="black" d="M3520.38,-421.28C3640.55,-408.79 4047.02,-366.29 4105,-356.74 4137.7,-351.36 4173.61,-343.69 4203.81,-336.73"/>
<polygon fill="black" stroke="black" points="4204.87,-340.07 4213.82,-334.4 4203.29,-333.26 4204.87,-340.07"/>
<text text-anchor="middle" x="3986" y="-378.54" font-family="Times,serif" font-size="14.00">110. mmap2</text>
</g>
<!-- 36&#45;&gt;26 -->
<g id="edge111" class="edge">
<title>36&#45;&gt;26</title>
<path fill="none" stroke="black" d="M3513.2,-414.04C3524.78,-408.25 3537.82,-400.13 3547,-389.74 3557.85,-377.46 3565.23,-360.67 3569.95,-346.61"/>
<polygon fill="black" stroke="black" points="3573.32,-347.54 3572.93,-336.96 3566.63,-345.48 3573.32,-347.54"/>
<text text-anchor="middle" x="3590.5" y="-378.54" font-family="Times,serif" font-size="14.00">104. time</text>
</g>
<!-- 36&#45;&gt;32 -->
<g id="edge109" class="edge">
<title>36&#45;&gt;32</title>
<path fill="none" stroke="black" d="M3453.22,-422.17C3431.28,-418.55 3404.2,-409.96 3390,-389.74 3378.51,-373.38 3392.42,-356.56 3409.95,-343.51"/>
<polygon fill="black" stroke="black" points="3411.97,-346.38 3418.18,-337.8 3407.97,-340.63 3411.97,-346.38"/>
<text text-anchor="middle" x="3426.5" y="-378.54" font-family="Times,serif" font-size="14.00">101. lseek</text>
</g>
<!-- 36&#45;&gt;35 -->
<g id="edge113" class="edge">
<title>36&#45;&gt;35</title>
<path fill="none" stroke="black" d="M3519.4,-419.49C3548.73,-414.1 3592.76,-404.42 3629,-389.74 3659.92,-377.21 3692.46,-357.79 3715.85,-342.57"/>
<polygon fill="black" stroke="black" points="3717.92,-345.4 3724.34,-336.97 3714.06,-339.56 3717.92,-345.4"/>
<text text-anchor="middle" x="3714.5" y="-378.54" font-family="Times,serif" font-size="14.00">106. nanosleep</text>
</g>
</g>
</svg>
