<?xml version="1.0" encoding="UTF-8" standalone="no"?><!DOCTYPE svg PUBLIC "-//W3C//DTD SVG 1.1//EN" "http://www.w3.org/Graphics/SVG/1.1/DTD/svg11.dtd"><!-- Generated by graphviz version 2.40.1 (20161225.0304)
 --><!-- Title: G Pages: 1 --><svg xmlns="http://www.w3.org/2000/svg" xmlns:xlink="http://www.w3.org/1999/xlink" width="888pt" height="588pt" viewBox="0.00 0.00 887.83 587.86">
<g id="graph0" class="graph" transform="scale(1 1) rotate(0) translate(4 583.8626)">
<title>G</title>
<polygon fill="#ffffff" stroke="transparent" points="-4,4 -4,-583.8626 883.831,-583.8626 883.831,4 -4,4"/>
<g id="clust1" class="cluster">
<title>cluster_1</title>
<polygon fill="none" stroke="#000000" points="8,-8 8,-571.8626 581,-571.8626 581,-8 8,-8"/>
<text text-anchor="middle" x="294.5" y="-549.8626" font-family="Times,serif" font-size="20.00" fill="#000000">(B) AttackG on report #1</text>
</g>
<g id="clust2" class="cluster">
<title>cluster_2</title>
<polygon fill="none" stroke="#000000" points="589,-8 589,-571.8626 865,-571.8626 865,-8 589,-8"/>
<text text-anchor="middle" x="727" y="-549.8626" font-family="Times,serif" font-size="20.00" fill="#000000">(D) AttackG on report #2</text>
</g>
<!-- priority -->
<g id="node1" class="node">
<title>priority</title>
<ellipse fill="#d3d3d3" stroke="#000000" cx="493" cy="-513.8626" rx="40.005" ry="18"/>
<text text-anchor="middle" x="493" y="-509.6626" font-family="Times,serif" font-size="14.00" fill="#000000">priority</text>
</g>
<!-- Service -->
<g id="node2" class="node">
<title>Service</title>
<polygon fill="#d3d3d3" stroke="#000000" points="493,-337.2329 413.0324,-300.3305 572.9676,-300.3305 493,-337.2329"/>
<text text-anchor="middle" x="493" y="-308.4313" font-family="Times,serif" font-size="14.00" fill="#000000">Service</text>
</g>
<!-- priority&#45;&gt;Service -->
<g id="edge1" class="edge">
<title>priority-&gt;Service</title>
<path fill="none" stroke="#000000" d="M493,-495.6497C493,-462.2222 493,-390.5651 493,-347.4978"/>
<polygon fill="#000000" stroke="#000000" points="496.5001,-347.4654 493,-337.4654 489.5001,-347.4654 496.5001,-347.4654"/>
</g>
<!-- last -->
<g id="node3" class="node">
<title>last</title>
<polygon fill="#d3d3d3" stroke="#000000" points="531.8256,-163 454.1744,-163 454.1744,-127 531.8256,-127 531.8256,-163"/>
<text text-anchor="middle" x="493" y="-140.8" font-family="Times,serif" font-size="14.00" fill="#000000">last system</text>
</g>
<!-- Service&#45;&gt;last -->
<g id="edge2" class="edge">
<title>Service-&gt;last</title>
<path fill="none" stroke="#000000" d="M493,-300.305C493,-273.6728 493,-210.1818 493,-173.1504"/>
<polygon fill="#000000" stroke="#000000" points="496.5001,-173.0184 493,-163.0184 489.5001,-173.0185 496.5001,-173.0184"/>
</g>
<!-- rookit -->
<g id="node4" class="node">
<title>rookit</title>
<polygon fill="#d3d3d3" stroke="#000000" points="347,-330.6313 298.5381,-312.6313 347,-294.6313 395.4619,-312.6313 347,-330.6313"/>
<text text-anchor="middle" x="347" y="-308.4313" font-family="Times,serif" font-size="14.00" fill="#000000">rookit</text>
</g>
<!-- malware -->
<g id="node5" class="node">
<title>malware</title>
<ellipse fill="#d3d3d3" stroke="#000000" cx="347" cy="-513.8626" rx="44.0583" ry="18"/>
<text text-anchor="middle" x="347" y="-509.6626" font-family="Times,serif" font-size="14.00" fill="#000000">malware</text>
</g>
<!-- malware&#45;&gt;rookit -->
<g id="edge3" class="edge">
<title>malware-&gt;rookit</title>
<path fill="none" stroke="#000000" d="M347,-495.6497C347,-460.4055 347,-382.6636 347,-340.7402"/>
<polygon fill="#000000" stroke="#000000" points="350.5001,-340.658 347,-330.658 343.5001,-340.658 350.5001,-340.658"/>
<text text-anchor="middle" x="364.1052" y="-429.4626" font-family="Times,serif" font-size="14.00" fill="#000000">match</text>
</g>
<!-- rookits -->
<g id="node6" class="node">
<title>rookits</title>
<polygon fill="#d3d3d3" stroke="#000000" points="263.3865,-531.8626 208.6135,-531.8626 208.6135,-495.8626 263.3865,-495.8626 263.3865,-531.8626"/>
<text text-anchor="middle" x="236" y="-509.6626" font-family="Times,serif" font-size="14.00" fill="#000000">rookits</text>
</g>
<!-- malware2 -->
<g id="node7" class="node">
<title>malware2</title>
<ellipse fill="#d3d3d3" stroke="#000000" cx="236" cy="-312.6313" rx="44.0583" ry="18"/>
<text text-anchor="middle" x="236" y="-308.4313" font-family="Times,serif" font-size="14.00" fill="#000000">malware</text>
</g>
<!-- rookits&#45;&gt;malware2 -->
<g id="edge4" class="edge">
<title>rookits-&gt;malware2</title>
<path fill="none" stroke="#000000" d="M236,-495.6497C236,-460.4055 236,-382.6636 236,-340.7402"/>
<polygon fill="#000000" stroke="#000000" points="239.5001,-340.658 236,-330.658 232.5001,-340.658 239.5001,-340.658"/>
</g>
<!-- rookit2 -->
<g id="node8" class="node">
<title>rookit2</title>
<polygon fill="#d3d3d3" stroke="#000000" points="236,-163 187.5381,-145 236,-127 284.4619,-145 236,-163"/>
<text text-anchor="middle" x="236" y="-140.8" font-family="Times,serif" font-size="14.00" fill="#000000">rookit</text>
</g>
<!-- malware2&#45;&gt;rookit2 -->
<g id="edge5" class="edge">
<title>malware2-&gt;rookit2</title>
<path fill="none" stroke="#000000" d="M236,-294.3727C236,-265.2763 236,-208.1571 236,-173.5993"/>
<polygon fill="#000000" stroke="#000000" points="239.5001,-173.236 236,-163.2361 232.5001,-173.2361 239.5001,-173.236"/>
</g>
<!-- File -->
<g id="node9" class="node">
<title>File</title>
<polygon fill="#d3d3d3" stroke="#000000" points="263,-52 209,-52 209,-16 263,-16 263,-52"/>
<text text-anchor="middle" x="236" y="-29.8" font-family="Times,serif" font-size="14.00" fill="#000000">File</text>
</g>
<!-- rookit2&#45;&gt;File -->
<g id="edge6" class="edge">
<title>rookit2-&gt;File</title>
<path fill="none" stroke="#000000" d="M236,-126.6706C236,-109.2373 236,-82.7482 236,-62.5489"/>
<polygon fill="#000000" stroke="#000000" points="239.5001,-62.3566 236,-52.3566 232.5001,-62.3567 239.5001,-62.3566"/>
</g>
<!-- File2 -->
<g id="node10" class="node">
<title>File2</title>
<polygon fill="#d3d3d3" stroke="#000000" points="122,-531.8626 68,-531.8626 68,-495.8626 122,-495.8626 122,-531.8626"/>
<text text-anchor="middle" x="95" y="-509.6626" font-family="Times,serif" font-size="14.00" fill="#000000">File</text>
</g>
<!-- Service2 -->
<g id="node11" class="node">
<title>Service2</title>
<polygon fill="#d3d3d3" stroke="#000000" points="95,-371.2943 16.127,-283.2998 173.873,-283.2998 95,-371.2943"/>
<text text-anchor="middle" x="95" y="-316.8313" font-family="Times,serif" font-size="14.00" fill="#000000">system</text>
<text text-anchor="middle" x="95" y="-300.0313" font-family="Times,serif" font-size="14.00" fill="#000000">service</text>
</g>
<!-- File2&#45;&gt;Service2 -->
<g id="edge7" class="edge">
<title>File2-&gt;Service2</title>
<path fill="none" stroke="#000000" d="M95,-495.6497C95,-470.0524 95,-422.0378 95,-381.6098"/>
<polygon fill="#000000" stroke="#000000" points="98.5001,-381.5131 95,-371.5132 91.5001,-381.5132 98.5001,-381.5131"/>
</g>
<!-- kernel -->
<g id="node12" class="node">
<title>kernel</title>
<ellipse fill="#d3d3d3" stroke="#000000" cx="791" cy="-513.8626" rx="35.3315" ry="18"/>
<text text-anchor="middle" x="791" y="-509.6626" font-family="Times,serif" font-size="14.00" fill="#000000">kernel</text>
</g>
<!-- gcc -->
<g id="node13" class="node">
<title>gcc</title>
<ellipse fill="#d3d3d3" stroke="#000000" cx="689" cy="-513.8626" rx="35.3735" ry="18"/>
<text text-anchor="middle" x="689" y="-509.6626" font-family="Times,serif" font-size="14.00" fill="#000000">gcc.sh</text>
</g>
<!-- File9 -->
<g id="node14" class="node">
<title>File9</title>
<polygon fill="#d3d3d3" stroke="#000000" points="651,-330.6313 597,-330.6313 597,-294.6313 651,-294.6313 651,-330.6313"/>
<text text-anchor="middle" x="624" y="-308.4313" font-family="Times,serif" font-size="14.00" fill="#000000">File</text>
</g>
<!-- gcc&#45;&gt;File9 -->
<g id="edge8" class="edge">
<title>gcc-&gt;File9</title>
<path fill="none" stroke="#000000" d="M676.0057,-496.9843C672.0144,-491.1716 667.9115,-484.4598 665,-477.8626 644.7564,-431.9921 633.3382,-374.3588 627.9383,-340.6946"/>
<polygon fill="#000000" stroke="#000000" points="631.3732,-340.0035 626.3929,-330.6522 624.4546,-341.0682 631.3732,-340.0035"/>
</g>
<!-- rs -->
<g id="node18" class="node">
<title>rs</title>
<polygon fill="#d3d3d3" stroke="#000000" points="773,-330.6313 689.2605,-312.6313 773,-294.6313 856.7395,-312.6313 773,-330.6313"/>
<text text-anchor="middle" x="773" y="-308.4313" font-family="Times,serif" font-size="14.00" fill="#000000">/proc/rs_dev</text>
</g>
<!-- gcc&#45;&gt;rs -->
<g id="edge13" class="edge">
<title>gcc-&gt;rs</title>
<path fill="none" stroke="#000000" d="M693.232,-495.9461C698.53,-474.6585 708.4422,-438.2733 720.9032,-408.4626 731.3846,-383.3876 746.4872,-356.3091 757.7354,-337.3541"/>
<polygon fill="#000000" stroke="#000000" points="760.7578,-339.1196 762.9105,-328.7458 754.7584,-335.5129 760.7578,-339.1196"/>
<text text-anchor="middle" x="763.5484" y="-446.2626" font-family="Times,serif" font-size="14.00" fill="#000000">provision</text>
<text text-anchor="middle" x="763.5484" y="-429.4626" font-family="Times,serif" font-size="14.00" fill="#000000">for</text>
<text text-anchor="middle" x="763.5484" y="-412.6626" font-family="Times,serif" font-size="14.00" fill="#000000">communicating</text>
</g>
<!-- cron -->
<g id="node15" class="node">
<title>cron</title>
<polygon fill="#d3d3d3" stroke="#000000" points="676,-163 597.1128,-145 676,-127 754.8872,-145 676,-163"/>
<text text-anchor="middle" x="676" y="-140.8" font-family="Times,serif" font-size="14.00" fill="#000000">cron.hourly</text>
</g>
<!-- File9&#45;&gt;cron -->
<g id="edge9" class="edge">
<title>File9-&gt;cron</title>
<path fill="none" stroke="#000000" d="M627.2578,-294.381C631.5334,-271.8486 639.8268,-232.5188 651,-200 654.354,-190.2385 658.8235,-179.8547 663.0553,-170.7694"/>
<polygon fill="#000000" stroke="#000000" points="666.3264,-172.0421 667.49,-161.5114 660.0133,-169.0181 666.3264,-172.0421"/>
</g>
<!-- File8 -->
<g id="node16" class="node">
<title>File8</title>
<polygon fill="#d3d3d3" stroke="#000000" points="847,-163 793,-163 793,-127 847,-127 847,-163"/>
<text text-anchor="middle" x="820" y="-140.8" font-family="Times,serif" font-size="14.00" fill="#000000">File</text>
</g>
<!-- control -->
<g id="node17" class="node">
<title>control</title>
<polygon fill="#d3d3d3" stroke="#000000" points="786,-52 731.9137,-34 786,-16 840.0863,-34 786,-52"/>
<text text-anchor="middle" x="786" y="-29.8" font-family="Times,serif" font-size="14.00" fill="#000000">control</text>
</g>
<!-- File8&#45;&gt;control -->
<g id="edge10" class="edge">
<title>File8-&gt;control</title>
<path fill="none" stroke="#000000" d="M814.3856,-126.6706C808.8351,-108.5498 800.2877,-80.645 794.0221,-60.1897"/>
<polygon fill="#000000" stroke="#000000" points="797.3425,-59.0793 791.0672,-50.5429 790.6495,-61.1295 797.3425,-59.0793"/>
</g>
<!-- control&#45;&gt;gcc -->
<g id="edge12" class="edge">
<title>control-&gt;gcc</title>
<path fill="none" stroke="#000000" d="M786.3346,-52.2069C786.0782,-78.2448 782.8214,-126.9502 764,-163 753.1495,-183.7827 742.4264,-182.8867 726.4018,-200 704.8193,-223.0488 691.0007,-224.2021 680,-253.8 650.3073,-333.6897 669.2659,-437.067 681.2951,-485.9271"/>
<polygon fill="#000000" stroke="#000000" points="677.9435,-486.9482 683.8092,-495.7711 684.7258,-485.216 677.9435,-486.9482"/>
<text text-anchor="middle" x="760.7991" y="-204.2" font-family="Times,serif" font-size="14.00" fill="#000000"> information</text>
</g>
<!-- rs&#45;&gt;gcc -->
<g id="edge14" class="edge">
<title>rs-&gt;gcc</title>
<path fill="none" stroke="#000000" d="M784.1076,-328.4463C802.4981,-356.7665 834.7201,-417.0769 808,-458.8626 798.817,-473.2232 759.6396,-489.6083 728.7119,-500.7323"/>
<polygon fill="#000000" stroke="#000000" points="727.2781,-497.5265 719.0089,-504.1499 729.6037,-504.129 727.2781,-497.5265"/>
</g>
<!-- rs&#45;&gt;File8 -->
<g id="edge11" class="edge">
<title>rs-&gt;File8</title>
<path fill="none" stroke="#000000" d="M777.7653,-295.6354C785.8444,-266.8202 802.3068,-208.1049 812.1223,-173.0968"/>
<polygon fill="#000000" stroke="#000000" points="815.6088,-173.6263 814.9384,-163.0527 808.8687,-171.7364 815.6088,-173.6263"/>
<text text-anchor="middle" x="841.9155" y="-204.2" font-family="Times,serif" font-size="14.00" fill="#000000">sending input</text>
</g>
</g>
</svg>