<?xml version="1.0" encoding="UTF-8" standalone="no"?><!DOCTYPE svg PUBLIC "-//W3C//DTD SVG 1.1//EN" "http://www.w3.org/Graphics/SVG/1.1/DTD/svg11.dtd"><!-- Generated by graphviz version 2.40.1 (20161225.0304)
 --><!-- Title: G Pages: 1 --><svg xmlns="http://www.w3.org/2000/svg" xmlns:xlink="http://www.w3.org/1999/xlink" width="648pt" height="388pt" viewBox="0.00 0.00 648.00 388.02">
<g id="graph0" class="graph" transform="scale(.7122 .7122) rotate(0) translate(4 540.8069)">
<title>G</title>
<polygon fill="#ffffff" stroke="transparent" points="-4,4 -4,-540.8069 905.831,-540.8069 905.831,4 -4,4"/>
<g id="clust1" class="cluster">
<title>cluster_1</title>
<polygon fill="none" stroke="#000000" points="8,-9.3386 8,-527.4683 593,-527.4683 593,-9.3386 8,-9.3386"/>
<text text-anchor="middle" x="300.5" y="-505.4683" font-family="Times,serif" font-size="20.00" fill="#000000">(B) AttackG on report #1</text>
</g>
<g id="clust2" class="cluster">
<title>cluster_2</title>
<polygon fill="none" stroke="#000000" points="601,-9.3386 601,-527.4683 885,-527.4683 885,-9.3386 601,-9.3386"/>
<text text-anchor="middle" x="743" y="-505.4683" font-family="Times,serif" font-size="20.00" fill="#000000">(D) AttackG on report #2</text>
</g>
<!-- priority -->
<g id="node1" class="node">
<title>priority</title>
<ellipse fill="#d3d3d3" stroke="#000000" cx="505" cy="-459.3386" rx="40.005" ry="18"/>
<text text-anchor="middle" x="505" y="-455.1386" font-family="Times,serif" font-size="14.00" fill="#000000">priority</text>
</g>
<!-- Service -->
<g id="node2" class="node">
<title>Service</title>
<polygon fill="#d3d3d3" stroke="#000000" points="505,-295.9402 425.0324,-259.0378 584.9676,-259.0378 505,-295.9402"/>
<text text-anchor="middle" x="505" y="-267.1386" font-family="Times,serif" font-size="14.00" fill="#000000">Service</text>
</g>
<!-- priority&#45;&gt;Service -->
<g id="edge1" class="edge">
<title>priority-&gt;Service</title>
<path fill="none" stroke="#000000" d="M505,-441.3123C505,-410.266 505,-346.1943 505,-306.1921"/>
<polygon fill="#000000" stroke="#000000" points="508.5001,-306.0854 505,-296.0854 501.5001,-306.0854 508.5001,-306.0854"/>
</g>
<!-- last -->
<g id="node3" class="node">
<title>last</title>
<polygon fill="#d3d3d3" stroke="#000000" points="543.8256,-140.3386 466.1744,-140.3386 466.1744,-104.3386 543.8256,-104.3386 543.8256,-140.3386"/>
<text text-anchor="middle" x="505" y="-118.1386" font-family="Times,serif" font-size="14.00" fill="#000000">last system</text>
</g>
<!-- Service&#45;&gt;last -->
<g id="edge2" class="edge">
<title>Service-&gt;last</title>
<path fill="none" stroke="#000000" d="M505,-258.8912C505,-235.2637 505,-183.3701 505,-150.7954"/>
<polygon fill="#000000" stroke="#000000" points="508.5001,-150.5576 505,-140.5576 501.5001,-150.5577 508.5001,-150.5576"/>
</g>
<!-- rookit -->
<g id="node4" class="node">
<title>rookit</title>
<polygon fill="#d3d3d3" stroke="#000000" points="355,-289.3386 306.5381,-271.3386 355,-253.3386 403.4619,-271.3386 355,-289.3386"/>
<text text-anchor="middle" x="355" y="-267.1386" font-family="Times,serif" font-size="14.00" fill="#000000">rookit</text>
</g>
<!-- malware -->
<g id="node5" class="node">
<title>malware</title>
<ellipse fill="#d3d3d3" stroke="#000000" cx="355" cy="-459.3386" rx="44.0583" ry="18"/>
<text text-anchor="middle" x="355" y="-455.1386" font-family="Times,serif" font-size="14.00" fill="#000000">malware</text>
</g>
<!-- malware&#45;&gt;rookit -->
<g id="edge3" class="edge">
<title>malware-&gt;rookit</title>
<path fill="none" stroke="#000000" d="M355,-441.3123C355,-408.55 355,-339.0106 355,-299.7892"/>
<polygon fill="#000000" stroke="#000000" points="358.5001,-299.5864 355,-289.5865 351.5001,-299.5865 358.5001,-299.5864"/>
<text text-anchor="middle" x="372.1052" y="-385.1386" font-family="Times,serif" font-size="14.00" fill="#000000">match</text>
</g>
<!-- rookits -->
<g id="node6" class="node">
<title>rookits</title>
<polygon fill="#d3d3d3" stroke="#000000" points="267.3865,-477.3386 212.6135,-477.3386 212.6135,-441.3386 267.3865,-441.3386 267.3865,-477.3386"/>
<text text-anchor="middle" x="240" y="-455.1386" font-family="Times,serif" font-size="14.00" fill="#000000">rookits</text>
</g>
<!-- malware2 -->
<g id="node7" class="node">
<title>malware2</title>
<ellipse fill="#d3d3d3" stroke="#000000" cx="240" cy="-271.3386" rx="44.0583" ry="18"/>
<text text-anchor="middle" x="240" y="-267.1386" font-family="Times,serif" font-size="14.00" fill="#000000">malware</text>
</g>
<!-- rookits&#45;&gt;malware2 -->
<g id="edge4" class="edge">
<title>rookits-&gt;malware2</title>
<path fill="none" stroke="#000000" d="M240,-441.3123C240,-408.55 240,-339.0106 240,-299.7892"/>
<polygon fill="#000000" stroke="#000000" points="243.5001,-299.5864 240,-289.5865 236.5001,-299.5865 243.5001,-299.5864"/>
</g>
<!-- rookit2 -->
<g id="node8" class="node">
<title>rookit2</title>
<polygon fill="#d3d3d3" stroke="#000000" points="240,-140.3386 191.5381,-122.3386 240,-104.3386 288.4619,-122.3386 240,-140.3386"/>
<text text-anchor="middle" x="240" y="-118.1386" font-family="Times,serif" font-size="14.00" fill="#000000">rookit</text>
</g>
<!-- malware2&#45;&gt;rookit2 -->
<g id="edge5" class="edge">
<title>malware2-&gt;rookit2</title>
<path fill="none" stroke="#000000" d="M240,-253.0682C240,-227.5989 240,-181.1675 240,-151.048"/>
<polygon fill="#000000" stroke="#000000" points="243.5001,-150.7583 240,-140.7583 236.5001,-150.7584 243.5001,-150.7583"/>
</g>
<!-- File -->
<g id="node9" class="node">
<title>File</title>
<polygon fill="#d3d3d3" stroke="#000000" points="267,-57.3386 213,-57.3386 213,-21.3386 267,-21.3386 267,-57.3386"/>
<text text-anchor="middle" x="240" y="-35.1386" font-family="Times,serif" font-size="14.00" fill="#000000">File</text>
</g>
<!-- rookit2&#45;&gt;File -->
<g id="edge6" class="edge">
<title>rookit2-&gt;File</title>
<path fill="none" stroke="#000000" d="M240,-104.3288C240,-93.6348 240,-79.838 240,-67.7091"/>
<polygon fill="#000000" stroke="#000000" points="243.5001,-67.5998 240,-57.5998 236.5001,-67.5998 243.5001,-67.5998"/>
</g>
<!-- File2 -->
<g id="node10" class="node">
<title>File2</title>
<polygon fill="#d3d3d3" stroke="#000000" points="122,-477.3386 68,-477.3386 68,-441.3386 122,-441.3386 122,-477.3386"/>
<text text-anchor="middle" x="95" y="-455.1386" font-family="Times,serif" font-size="14.00" fill="#000000">File</text>
</g>
<!-- Service2 -->
<g id="node11" class="node">
<title>Service2</title>
<polygon fill="#d3d3d3" stroke="#000000" points="95,-330.0016 16.127,-242.007 173.873,-242.007 95,-330.0016"/>
<text text-anchor="middle" x="95" y="-275.5386" font-family="Times,serif" font-size="14.00" fill="#000000">system</text>
<text text-anchor="middle" x="95" y="-258.7386" font-family="Times,serif" font-size="14.00" fill="#000000">service</text>
</g>
<!-- File2&#45;&gt;Service2 -->
<g id="edge7" class="edge">
<title>File2-&gt;Service2</title>
<path fill="none" stroke="#000000" d="M95,-441.3123C95,-418.1267 95,-376.522 95,-340.279"/>
<polygon fill="#000000" stroke="#000000" points="98.5001,-340.2185 95,-330.2186 91.5001,-340.2186 98.5001,-340.2185"/>
</g>
<!-- kernel -->
<g id="node12" class="node">
<title>kernel</title>
<ellipse fill="#d3d3d3" stroke="#000000" cx="811" cy="-459.3386" rx="35.3315" ry="18"/>
<text text-anchor="middle" x="811" y="-455.1386" font-family="Times,serif" font-size="14.00" fill="#000000">kernel</text>
</g>
<!-- gcc -->
<g id="node13" class="node">
<title>gcc</title>
<ellipse fill="#d3d3d3" stroke="#000000" cx="709" cy="-459.3386" rx="35.3735" ry="18"/>
<text text-anchor="middle" x="709" y="-455.1386" font-family="Times,serif" font-size="14.00" fill="#000000">gcc.sh</text>
</g>
<!-- File9 -->
<g id="node14" class="node">
<title>File9</title>
<polygon fill="#d3d3d3" stroke="#000000" points="663,-289.3386 609,-289.3386 609,-253.3386 663,-253.3386 663,-289.3386"/>
<text text-anchor="middle" x="636" y="-267.1386" font-family="Times,serif" font-size="14.00" fill="#000000">File</text>
</g>
<!-- gcc&#45;&gt;File9 -->
<g id="edge8" class="edge">
<title>gcc-&gt;File9</title>
<path fill="none" stroke="#000000" d="M691.1194,-443.4431C686.9962,-439.0508 682.9578,-434.049 680,-428.8386 656.4525,-387.3575 644.8616,-332.487 639.6755,-299.6675"/>
<polygon fill="#000000" stroke="#000000" points="643.0866,-298.8107 638.1542,-289.434 636.1627,-299.84 643.0866,-298.8107"/>
</g>
<!-- rs -->
<g id="node18" class="node">
<title>rs</title>
<polygon fill="#d3d3d3" stroke="#000000" points="793,-289.3386 709.2605,-271.3386 793,-253.3386 876.7395,-271.3386 793,-289.3386"/>
<text text-anchor="middle" x="793" y="-267.1386" font-family="Times,serif" font-size="14.00" fill="#000000">/proc/rs_dev</text>
</g>
<!-- gcc&#45;&gt;rs -->
<g id="edge13" class="edge">
<title>gcc-&gt;rs</title>
<path fill="none" stroke="#000000" d="M715.8342,-441.6488C723.3528,-422.4243 735.9595,-390.8734 747.9032,-364.1386 758.2316,-341.0194 770.904,-315.1369 780.1826,-296.592"/>
<polygon fill="#000000" stroke="#000000" points="783.3302,-298.1231 784.6949,-287.6165 777.076,-294.9789 783.3302,-298.1231"/>
<text text-anchor="middle" x="790.5484" y="-401.9386" font-family="Times,serif" font-size="14.00" fill="#000000">provision</text>
<text text-anchor="middle" x="790.5484" y="-385.1386" font-family="Times,serif" font-size="14.00" fill="#000000">for</text>
<text text-anchor="middle" x="790.5484" y="-368.3386" font-family="Times,serif" font-size="14.00" fill="#000000">communicating</text>
</g>
<!-- cron -->
<g id="node15" class="node">
<title>cron</title>
<polygon fill="#d3d3d3" stroke="#000000" points="688,-140.3386 609.1128,-122.3386 688,-104.3386 766.8872,-122.3386 688,-140.3386"/>
<text text-anchor="middle" x="688" y="-118.1386" font-family="Times,serif" font-size="14.00" fill="#000000">cron.hourly</text>
</g>
<!-- File9&#45;&gt;cron -->
<g id="edge9" class="edge">
<title>File9-&gt;cron</title>
<path fill="none" stroke="#000000" d="M637.8003,-252.9951C640.4171,-231.2583 646.4069,-194.2902 659,-164.9386 661.7967,-158.42 665.6426,-151.8532 669.6195,-145.8932"/>
<polygon fill="#000000" stroke="#000000" points="672.5172,-147.8574 675.433,-137.6717 666.8018,-143.8159 672.5172,-147.8574"/>
</g>
<!-- File8 -->
<g id="node16" class="node">
<title>File8</title>
<polygon fill="#d3d3d3" stroke="#000000" points="867,-140.3386 813,-140.3386 813,-104.3386 867,-104.3386 867,-140.3386"/>
<text text-anchor="middle" x="840" y="-118.1386" font-family="Times,serif" font-size="14.00" fill="#000000">File</text>
</g>
<!-- control -->
<g id="node17" class="node">
<title>control</title>
<polygon fill="#d3d3d3" stroke="#000000" points="804,-57.3386 749.9137,-39.3386 804,-21.3386 858.0863,-39.3386 804,-57.3386"/>
<text text-anchor="middle" x="804" y="-35.1386" font-family="Times,serif" font-size="14.00" fill="#000000">control</text>
</g>
<!-- File8&#45;&gt;control -->
<g id="edge10" class="edge">
<title>File8-&gt;control</title>
<path fill="none" stroke="#000000" d="M832.1885,-104.3288C827.113,-92.6269 820.426,-77.2096 814.8388,-64.3281"/>
<polygon fill="#000000" stroke="#000000" points="818.0158,-62.8568 810.8256,-55.0753 811.5938,-65.6422 818.0158,-62.8568"/>
</g>
<!-- control&#45;&gt;gcc -->
<g id="edge12" class="edge">
<title>control-&gt;gcc</title>
<path fill="none" stroke="#000000" d="M803.502,-57.1968C802.0446,-78.9068 796.739,-115.6912 778,-140.3386 749.4402,-177.9032 686,-146.1499 686,-193.3386 686,-389.3386 686,-389.3386 686,-389.3386 686,-403.9744 690.5942,-419.5101 695.676,-432.2178"/>
<polygon fill="#000000" stroke="#000000" points="692.6045,-433.9344 699.7775,-441.7317 699.0326,-431.1631 692.6045,-433.9344"/>
<text text-anchor="middle" x="744.7991" y="-169.1386" font-family="Times,serif" font-size="14.00" fill="#000000"> information</text>
</g>
<!-- rs&#45;&gt;gcc -->
<g id="edge14" class="edge">
<title>rs-&gt;gcc</title>
<path fill="none" stroke="#000000" d="M805.7813,-286.9574C827.0034,-314.8992 864.489,-374.2793 836,-414.5386 833.3227,-418.3219 785.2238,-434.6107 749.0073,-446.4589"/>
<polygon fill="#000000" stroke="#000000" points="747.5789,-443.2431 739.1551,-449.6688 749.7475,-449.8988 747.5789,-443.2431"/>
</g>
<!-- rs&#45;&gt;File8 -->
<g id="edge11" class="edge">
<title>rs-&gt;File8</title>
<path fill="none" stroke="#000000" d="M798.3915,-254.2464C806.4069,-228.8359 821.5538,-180.817 831.1929,-150.2588"/>
<polygon fill="#000000" stroke="#000000" points="834.562,-151.2126 834.2325,-140.6229 827.8863,-149.1068 834.562,-151.2126"/>
<text text-anchor="middle" x="863.9155" y="-169.1386" font-family="Times,serif" font-size="14.00" fill="#000000">sending input</text>
</g>
</g>
</svg>