<?xml version="1.0" encoding="UTF-8" standalone="no"?><!DOCTYPE svg PUBLIC "-//W3C//DTD SVG 1.1//EN" "http://www.w3.org/Graphics/SVG/1.1/DTD/svg11.dtd"><!-- Generated by graphviz version 2.40.1 (20161225.0304)
 --><!-- Title: G Pages: 1 --><svg xmlns="http://www.w3.org/2000/svg" xmlns:xlink="http://www.w3.org/1999/xlink" width="239pt" height="648pt" viewBox="0.00 0.00 239.24 648.00">
<g id="graph0" class="graph" transform="scale(.8549 .8549) rotate(0) translate(4 754)">
<title>G</title>
<polygon fill="#ffffff" stroke="transparent" points="-4,4 -4,-754 275.85,-754 275.85,4 -4,4"/>
<g id="clust1" class="cluster">
<title>cluster_A</title>
<polygon fill="none" stroke="#000000" points="0,-8 0,-388 270.5018,-388 270.5018,-8 0,-8"/>
<text text-anchor="middle" x="135.2509" y="-366" font-family="Times,serif" font-size="20.00" fill="#000000">(A) EXTRACTOR on report #1</text>
</g>
<g id="clust2" class="cluster">
<title>cluster_B</title>
<polygon fill="none" stroke="#000000" points="2,-396 2,-742 271.85,-742 271.85,-396 2,-396"/>
<text text-anchor="middle" x="136.925" y="-720" font-family="Times,serif" font-size="20.00" fill="#000000">(B) EXTRACTOR on report #2</text>
</g>
<!-- &#39;*&#39; -->
<g id="node1" class="node">
<title>'*'</title>
<polygon fill="none" stroke="#000000" points="91,-246 37,-246 37,-210 91,-210 91,-246"/>
<text text-anchor="middle" x="64" y="-223.8" font-family="Times,serif" font-size="14.00" fill="#000000">'*'</text>
</g>
<!-- &#39;*&#39;&#45;&gt;&#39;*&#39; -->
<g id="edge6" class="edge">
<title>'*'-&gt;'*'</title>
<path fill="none" stroke="#000000" d="M62.0249,-246.1003C61.5487,-257.3213 62.207,-268 64,-268 65.2327,-268 65.9291,-262.9526 66.0892,-256.1518"/>
<polygon fill="#000000" stroke="#000000" points="69.5884,-256.0599 65.9751,-246.1003 62.5889,-256.1394 69.5884,-256.0599"/>
<text text-anchor="middle" x="64" y="-272.2" font-family="Times,serif" font-size="14.00" fill="#000000">1: fork</text>
</g>
<!-- &#39;*&#39;&#45;&gt;&#39;*&#39; -->
<g id="edge7" class="edge">
<title>'*'-&gt;'*'</title>
<path fill="none" stroke="#000000" d="M60.846,-246.0886C58.6765,-266.5072 59.7279,-290 64,-290 67.5712,-290 68.8918,-273.5834 67.9617,-256.2693"/>
<polygon fill="#000000" stroke="#000000" points="71.434,-255.7805 67.154,-246.0886 64.456,-256.3341 71.434,-255.7805"/>
<text text-anchor="middle" x="64" y="-294.2" font-family="Times,serif" font-size="14.00" fill="#000000">2: unlink</text>
</g>
<!-- &#39;*&#39;&#45;&gt;&#39;*&#39; -->
<g id="edge8" class="edge">
<title>'*'-&gt;'*'</title>
<path fill="none" stroke="#000000" d="M60.1152,-246.1494C55.7988,-275.0313 57.0938,-312 64,-312 70.1239,-312 71.8358,-282.9326 69.1356,-256.2106"/>
<polygon fill="#000000" stroke="#000000" points="72.5919,-255.6412 67.8848,-246.1494 65.6454,-256.5049 72.5919,-255.6412"/>
<text text-anchor="middle" x="64" y="-316.2" font-family="Times,serif" font-size="14.00" fill="#000000">3: write</text>
</g>
<!-- .*\* -->
<g id="node2" class="node">
<title>.*\*</title>
<ellipse fill="none" stroke="#000000" cx="205.5018" cy="-228" rx="27" ry="18"/>
<text text-anchor="middle" x="205.5018" y="-223.8" font-family="Times,serif" font-size="14.00" fill="#000000">.**</text>
</g>
<!-- &#39;*&#39;&#45;&gt;.*\* -->
<g id="edge1" class="edge">
<title>'*'-&gt;.*\*</title>
<path fill="none" stroke="#000000" d="M91.283,-228C113.1098,-228 143.948,-228 168.0805,-228"/>
<polygon fill="#000000" stroke="#000000" points="168.3026,-231.5001 178.3026,-228 168.3026,-224.5001 168.3026,-231.5001"/>
<text text-anchor="middle" x="133.0768" y="-232.2" font-family="Times,serif" font-size="14.00" fill="#000000">1: exec</text>
</g>
<!-- * -->
<g id="node3" class="node">
<title>*</title>
<ellipse fill="none" stroke="#000000" cx="64" cy="-34" rx="27" ry="18"/>
<text text-anchor="middle" x="64" y="-29.8" font-family="Times,serif" font-size="14.00" fill="#000000">*</text>
</g>
<!-- *&#45;&gt;* -->
<g id="edge2" class="edge">
<title>*-&gt;*</title>
<path fill="none" stroke="#000000" d="M62.5187,-52.1003C62.1615,-63.3213 62.6553,-74 64,-74 64.9245,-74 65.4468,-68.9526 65.5669,-62.1518"/>
<polygon fill="#000000" stroke="#000000" points="69.0664,-62.0701 65.4813,-52.1003 62.0666,-62.1298 69.0664,-62.0701"/>
<text text-anchor="middle" x="64" y="-78.2" font-family="Times,serif" font-size="14.00" fill="#000000">1: hide</text>
</g>
<!-- *&#45;&gt;* -->
<g id="edge3" class="edge">
<title>*-&gt;*</title>
<path fill="none" stroke="#000000" d="M61.6345,-52.0886C60.0074,-72.5072 60.7959,-96 64,-96 66.6784,-96 67.6689,-79.5834 66.9713,-62.2693"/>
<polygon fill="#000000" stroke="#000000" points="70.4534,-61.863 66.3655,-52.0886 63.4658,-62.2789 70.4534,-61.863"/>
<text text-anchor="middle" x="64" y="-100.2" font-family="Times,serif" font-size="14.00" fill="#000000">2: be</text>
</g>
<!-- *&#45;&gt;* -->
<g id="edge4" class="edge">
<title>*-&gt;*</title>
<path fill="none" stroke="#000000" d="M61.0864,-52.1494C57.8491,-81.0313 58.8203,-118 64,-118 68.5929,-118 69.8768,-88.9326 67.8517,-62.2106"/>
<polygon fill="#000000" stroke="#000000" points="71.327,-61.7812 66.9136,-52.1494 64.3572,-62.4312 71.327,-61.7812"/>
<text text-anchor="middle" x="64" y="-122.2" font-family="Times,serif" font-size="14.00" fill="#000000">3: compare</text>
</g>
<!-- *&#45;&gt;* -->
<g id="edge5" class="edge">
<title>*-&gt;*</title>
<path fill="none" stroke="#000000" d="M60.7418,-51.9783C55.6922,-88.9902 56.7783,-140 64,-140 70.5729,-140 72.0631,-97.7443 68.4706,-62.246"/>
<polygon fill="#000000" stroke="#000000" points="71.9068,-61.4988 67.2582,-51.9783 64.9551,-62.3198 71.9068,-61.4988"/>
<text text-anchor="middle" x="64" y="-144.2" font-family="Times,serif" font-size="14.00" fill="#000000">4: donâx80x99t</text>
</g>
<!-- star_q -->
<g id="node4" class="node">
<title>star_q</title>
<ellipse fill="none" stroke="#000000" cx="64" cy="-582" rx="27" ry="18"/>
<text text-anchor="middle" x="64" y="-577.8" font-family="Times,serif" font-size="14.00" fill="#000000">'*'</text>
</g>
<!-- star_q&#45;&gt;star_q -->
<g id="edge9" class="edge">
<title>star_q-&gt;star_q</title>
<path fill="none" stroke="#000000" d="M62.0249,-600.1003C61.5487,-611.3213 62.207,-622 64,-622 65.2327,-622 65.9291,-616.9526 66.0892,-610.1518"/>
<polygon fill="#000000" stroke="#000000" points="69.5884,-610.0599 65.9751,-600.1003 62.5889,-610.1394 69.5884,-610.0599"/>
<text text-anchor="middle" x="64" y="-626.2" font-family="Times,serif" font-size="14.00" fill="#000000">1: write</text>
</g>
<!-- star_q&#45;&gt;star_q -->
<g id="edge10" class="edge">
<title>star_q-&gt;star_q</title>
<path fill="none" stroke="#000000" d="M60.846,-600.0886C58.6765,-620.5072 59.7279,-644 64,-644 67.5712,-644 68.8918,-627.5834 67.9617,-610.2693"/>
<polygon fill="#000000" stroke="#000000" points="71.434,-609.7805 67.154,-600.0886 64.456,-610.3341 71.434,-609.7805"/>
<text text-anchor="middle" x="64" y="-648.2" font-family="Times,serif" font-size="14.00" fill="#000000">4: fork</text>
</g>
<!-- star_q&#45;&gt;star_q -->
<g id="edge11" class="edge">
<title>star_q-&gt;star_q</title>
<path fill="none" stroke="#000000" d="M60.1152,-600.1494C55.7988,-629.0313 57.0938,-666 64,-666 70.1239,-666 71.8358,-636.9326 69.1356,-610.2106"/>
<polygon fill="#000000" stroke="#000000" points="72.5919,-609.6412 67.8848,-600.1494 65.6454,-610.5049 72.5919,-609.6412"/>
<text text-anchor="middle" x="64" y="-670.2" font-family="Times,serif" font-size="14.00" fill="#000000">7: write</text>
</g>
<!-- dotstar -->
<g id="node6" class="node">
<title>dotstar</title>
<polygon fill="none" stroke="#000000" points="232.5018,-539 178.5018,-539 178.5018,-503 232.5018,-503 232.5018,-539"/>
<text text-anchor="middle" x="205.5018" y="-516.8" font-family="Times,serif" font-size="14.00" fill="#000000">.**</text>
</g>
<!-- star_q&#45;&gt;dotstar -->
<g id="edge15" class="edge">
<title>star_q-&gt;dotstar</title>
<path fill="none" stroke="#000000" d="M85.7735,-570.7947C92.8116,-567.2853 100.6866,-563.4759 108,-560.2 127.9002,-551.286 150.4712,-542.151 168.8814,-534.9443"/>
<polygon fill="#000000" stroke="#000000" points="170.3123,-538.1433 178.3649,-531.258 167.7762,-531.6188 170.3123,-538.1433"/>
<text text-anchor="middle" x="133.0768" y="-564.2" font-family="Times,serif" font-size="14.00" fill="#000000">5: exec</text>
</g>
<!-- &#39;gcc.sh&#39; -->
<g id="node7" class="node">
<title>'gcc.sh'</title>
<polygon fill="none" stroke="#000000" points="235.6976,-600 175.306,-600 175.306,-564 235.6976,-564 235.6976,-600"/>
<text text-anchor="middle" x="205.5018" y="-577.8" font-family="Times,serif" font-size="14.00" fill="#000000">'gcc.sh'</text>
</g>
<!-- star_q&#45;&gt;&#39;gcc.sh&#39; -->
<g id="edge16" class="edge">
<title>star_q-&gt;'gcc.sh'</title>
<path fill="none" stroke="#000000" d="M91.283,-582C112.1303,-582 141.1986,-582 164.7928,-582"/>
<polygon fill="#000000" stroke="#000000" points="164.8634,-585.5001 174.8634,-582 164.8633,-578.5001 164.8634,-585.5001"/>
<text text-anchor="middle" x="133.0768" y="-586.2" font-family="Times,serif" font-size="14.00" fill="#000000">11: write</text>
</g>
<!-- &#39;cron.h&#39; -->
<g id="node8" class="node">
<title>'cron.h'</title>
<polygon fill="none" stroke="#000000" points="235.699,-661 175.3046,-661 175.3046,-625 235.699,-625 235.699,-661"/>
<text text-anchor="middle" x="205.5018" y="-638.8" font-family="Times,serif" font-size="14.00" fill="#000000">'cron.h'</text>
</g>
<!-- star_q&#45;&gt;&#39;cron.h&#39; -->
<g id="edge17" class="edge">
<title>star_q-&gt;'cron.h'</title>
<path fill="none" stroke="#000000" d="M85.3132,-593.1031C92.4633,-596.7079 100.5206,-600.6413 108,-604 126.6635,-612.3811 147.7,-620.9084 165.4427,-627.8433"/>
<polygon fill="#000000" stroke="#000000" points="164.336,-631.1681 174.925,-631.5212 166.8674,-624.6418 164.336,-631.1681"/>
<text text-anchor="middle" x="133.0768" y="-628.2" font-family="Times,serif" font-size="14.00" fill="#000000">12: write</text>
</g>
<!-- star -->
<g id="node5" class="node">
<title>star</title>
<polygon fill="none" stroke="#000000" points="91,-440 37,-440 37,-404 91,-404 91,-440"/>
<text text-anchor="middle" x="64" y="-417.8" font-family="Times,serif" font-size="14.00" fill="#000000">*</text>
</g>
<!-- star&#45;&gt;star -->
<g id="edge12" class="edge">
<title>star-&gt;star</title>
<path fill="none" stroke="#000000" d="M62.0249,-440.1003C61.5487,-451.3213 62.207,-462 64,-462 65.2327,-462 65.9291,-456.9526 66.0892,-450.1518"/>
<polygon fill="#000000" stroke="#000000" points="69.5884,-450.0599 65.9751,-440.1003 62.5889,-450.1394 69.5884,-450.0599"/>
<text text-anchor="middle" x="64" y="-466.2" font-family="Times,serif" font-size="14.00" fill="#000000">2: embed</text>
</g>
<!-- star&#45;&gt;star -->
<g id="edge13" class="edge">
<title>star-&gt;star</title>
<path fill="none" stroke="#000000" d="M60.846,-440.0886C58.6765,-460.5072 59.7279,-484 64,-484 67.5712,-484 68.8918,-467.5834 67.9617,-450.2693"/>
<polygon fill="#000000" stroke="#000000" points="71.434,-449.7805 67.154,-440.0886 64.456,-450.3341 71.434,-449.7805"/>
<text text-anchor="middle" x="64" y="-488.2" font-family="Times,serif" font-size="14.00" fill="#000000">3: have</text>
</g>
<!-- star&#45;&gt;star -->
<g id="edge14" class="edge">
<title>star-&gt;star</title>
<path fill="none" stroke="#000000" d="M60.1152,-440.1494C55.7988,-469.0313 57.0938,-506 64,-506 70.1239,-506 71.8358,-476.9326 69.1356,-450.2106"/>
<polygon fill="#000000" stroke="#000000" points="72.5919,-449.6412 67.8848,-440.1494 65.6454,-450.5049 72.5919,-449.6412"/>
<text text-anchor="middle" x="64" y="-510.2" font-family="Times,serif" font-size="14.00" fill="#000000">6: support</text>
</g>
</g>
</svg>