<?xml version="1.0" encoding="UTF-8" standalone="no"?><!DOCTYPE svg PUBLIC "-//W3C//DTD SVG 1.1//EN" "http://www.w3.org/Graphics/SVG/1.1/DTD/svg11.dtd"><!-- Generated by graphviz version 2.40.1 (20161225.0304)
 --><!-- Title: G Pages: 1 --><svg xmlns="http://www.w3.org/2000/svg" xmlns:xlink="http://www.w3.org/1999/xlink" width="648pt" height="116pt" viewBox="0.00 0.00 648.00 115.62">
<g id="graph0" class="graph" transform="scale(.5506 .5506) rotate(0) translate(4 206)">
<title>G</title>
<polygon fill="#ffffff" stroke="transparent" points="-4,4 -4,-206 1173,-206 1173,4 -4,4"/>
<g id="clust1" class="cluster">
<title>cluster_A</title>
<polygon fill="none" stroke="#000000" points="8,-8 8,-194 629,-194 629,-8 8,-8"/>
<text text-anchor="middle" x="318.5" y="-170.2" font-family="Times,serif" font-size="22.00" fill="#000000">(A) EXTRACTOR on report #1</text>
</g>
<g id="clust2" class="cluster">
<title>cluster_B</title>
<polygon fill="none" stroke="#000000" points="637,-8 637,-194 1161,-194 1161,-8 637,-8"/>
<text text-anchor="middle" x="899" y="-170.2" font-family="Times,serif" font-size="22.00" fill="#000000">(C) EXTRACTOR on report #2</text>
</g>
<!-- &#39;*&#39; -->
<g id="node1" class="node">
<title>'*'</title>
<polygon fill="#d3d3d3" stroke="#000000" points="437,-145.2 383,-145.2 383,-109.2 437,-109.2 437,-145.2"/>
<text text-anchor="middle" x="410" y="-123" font-family="Times,serif" font-size="14.00" fill="#000000">'*'</text>
</g>
<!-- &#39;*&#39;&#45;&gt;&#39;*&#39; -->
<g id="edge6" class="edge">
<title>'*'-&gt;'*'</title>
<path fill="none" stroke="#000000" d="M437.2101,-129.1761C448.9492,-129.3379 459,-128.6792 459,-127.2 459,-126.1831 454.2494,-125.5539 447.4657,-125.3126"/>
<polygon fill="#000000" stroke="#000000" points="447.2401,-121.8106 437.2101,-125.2239 447.1795,-128.8104 447.2401,-121.8106"/>
<text text-anchor="middle" x="477.8559" y="-107" font-family="Times,serif" font-size="14.00" fill="#000000">1: fork</text>
</g>
<!-- &#39;*&#39;&#45;&gt;&#39;*&#39; -->
<g id="edge7" class="edge">
<title>'*'-&gt;'*'</title>
<path fill="none" stroke="#000000" d="M437.0348,-130.4344C464.1426,-132.1115 496.7118,-131.0333 496.7118,-127.2 496.7118,-123.8309 471.5529,-122.5901 447.0553,-123.4776"/>
<polygon fill="#000000" stroke="#000000" points="446.8527,-119.9832 437.0348,-123.9656 447.1933,-126.9749 446.8527,-119.9832"/>
<text text-anchor="middle" x="521.7977" y="-139" font-family="Times,serif" font-size="14.00" fill="#000000">2: unlink</text>
</g>
<!-- &#39;*&#39;&#45;&gt;&#39;*&#39; -->
<g id="edge8" class="edge">
<title>'*'-&gt;'*'</title>
<path fill="none" stroke="#000000" d="M437.2788,-131.1401C480.3041,-134.8571 546.8836,-133.5438 546.8836,-127.2 546.8836,-121.3395 490.0607,-119.7722 447.4809,-122.4981"/>
<polygon fill="#000000" stroke="#000000" points="446.9904,-119.0249 437.2788,-123.2599 447.5117,-126.0055 446.9904,-119.0249"/>
<text text-anchor="middle" x="568.4604" y="-123" font-family="Times,serif" font-size="14.00" fill="#000000">3: write</text>
</g>
<!-- .*\* -->
<g id="node2" class="node">
<title>.*\*</title>
<ellipse fill="#d3d3d3" stroke="#000000" cx="410" cy="-34" rx="27" ry="18"/>
<text text-anchor="middle" x="410" y="-29.8" font-family="Times,serif" font-size="14.00" fill="#000000">.**</text>
</g>
<!-- &#39;*&#39;&#45;&gt;.*\* -->
<g id="edge1" class="edge">
<title>'*'-&gt;.*\*</title>
<path fill="none" stroke="#000000" d="M410,-108.7867C410,-95.5533 410,-77.4623 410,-62.3883"/>
<polygon fill="#000000" stroke="#000000" points="413.5001,-62.0579 410,-52.0579 406.5001,-62.058 413.5001,-62.0579"/>
<text text-anchor="middle" x="430.0172" y="-73.2" font-family="Times,serif" font-size="14.00" fill="#000000">1: exec</text>
</g>
<!-- * -->
<g id="node3" class="node">
<title>*</title>
<ellipse fill="#d3d3d3" stroke="#000000" cx="43" cy="-127.2" rx="27" ry="18"/>
<text text-anchor="middle" x="43" y="-123" font-family="Times,serif" font-size="14.00" fill="#000000">*</text>
</g>
<!-- *&#45;&gt;* -->
<g id="edge2" class="edge">
<title>*-&gt;*</title>
<path fill="none" stroke="#000000" d="M70.2101,-128.6821C81.9492,-128.8034 92,-128.3094 92,-127.2 92,-126.4373 87.2494,-125.9655 80.4657,-125.7845"/>
<polygon fill="#000000" stroke="#000000" points="80.2327,-122.283 70.2101,-125.7179 80.1872,-129.2828 80.2327,-122.283"/>
<text text-anchor="middle" x="111.2479" y="-107" font-family="Times,serif" font-size="14.00" fill="#000000">1: hide</text>
</g>
<!-- *&#45;&gt;* -->
<g id="edge3" class="edge">
<title>*-&gt;*</title>
<path fill="none" stroke="#000000" d="M70.186,-129.6258C97.5216,-130.8836 130.4958,-130.075 130.4958,-127.2 130.4958,-124.6731 105.024,-123.7425 80.296,-124.4082"/>
<polygon fill="#000000" stroke="#000000" points="80.0527,-120.9146 70.186,-124.7742 80.3061,-127.91 80.0527,-120.9146"/>
<text text-anchor="middle" x="144.2984" y="-139" font-family="Times,serif" font-size="14.00" fill="#000000">2: be</text>
</g>
<!-- *&#45;&gt;* -->
<g id="edge4" class="edge">
<title>*-&gt;*</title>
<path fill="none" stroke="#000000" d="M69.81,-130.2959C107.0262,-132.9077 158.101,-131.8758 158.101,-127.2 158.101,-122.9443 115.7914,-121.7071 80.1295,-123.4884"/>
<polygon fill="#000000" stroke="#000000" points="79.5838,-120.0146 69.81,-124.1041 80.0008,-127.0022 79.5838,-120.0146"/>
<text text-anchor="middle" x="189.3938" y="-107" font-family="Times,serif" font-size="14.00" fill="#000000">3: compare</text>
</g>
<!-- *&#45;&gt;* -->
<g id="edge5" class="edge">
<title>*-&gt;*</title>
<path fill="none" stroke="#000000" d="M69.7277,-130.5541C124.2157,-134.9743 220.6866,-133.8563 220.6866,-127.2 220.6866,-120.9338 135.1897,-119.5757 79.7102,-123.1259"/>
<polygon fill="#000000" stroke="#000000" points="79.45,-119.6355 69.7277,-123.8459 79.9536,-126.6174 79.45,-119.6355"/>
<text text-anchor="middle" x="267.1575" y="-123" font-family="Times,serif" font-size="14.00" fill="#000000">4: donâx80x99t</text>
</g>
<!-- star_q -->
<g id="node4" class="node">
<title>star_q</title>
<ellipse fill="#d3d3d3" stroke="#000000" cx="949" cy="-127.2" rx="27" ry="18"/>
<text text-anchor="middle" x="949" y="-123" font-family="Times,serif" font-size="14.00" fill="#000000">'*'</text>
</g>
<!-- star_q&#45;&gt;star_q -->
<g id="edge9" class="edge">
<title>star_q-&gt;star_q</title>
<path fill="none" stroke="#000000" d="M976.2101,-129.1761C987.9492,-129.3379 998,-128.6792 998,-127.2 998,-126.1831 993.2494,-125.5539 986.4657,-125.3126"/>
<polygon fill="#000000" stroke="#000000" points="986.2401,-121.8106 976.2101,-125.2239 986.1795,-128.8104 986.2401,-121.8106"/>
<text text-anchor="middle" x="1019.5768" y="-107" font-family="Times,serif" font-size="14.00" fill="#000000">1: write</text>
</g>
<!-- star_q&#45;&gt;star_q -->
<g id="edge10" class="edge">
<title>star_q-&gt;star_q</title>
<path fill="none" stroke="#000000" d="M975.6863,-130.3501C1004.61,-132.1459 1041.1536,-131.0958 1041.1536,-127.2 1041.1536,-123.7455 1012.4205,-122.5285 985.745,-123.5491"/>
<polygon fill="#000000" stroke="#000000" points="985.4999,-120.0569 975.6863,-124.0499 985.848,-127.0483 985.4999,-120.0569"/>
<text text-anchor="middle" x="1060.0095" y="-139" font-family="Times,serif" font-size="14.00" fill="#000000">4: fork</text>
</g>
<!-- star_q&#45;&gt;star_q -->
<g id="edge11" class="edge">
<title>star_q-&gt;star_q</title>
<path fill="none" stroke="#000000" d="M975.5009,-131.1401C1016.6989,-134.8571 1078.8654,-133.5438 1078.8654,-127.2 1078.8654,-121.3519 1026.033,-119.7788 985.501,-122.4809"/>
<polygon fill="#000000" stroke="#000000" points="985.1988,-118.9937 975.5009,-123.2599 985.7426,-125.9726 985.1988,-118.9937"/>
<text text-anchor="middle" x="1100.4422" y="-123" font-family="Times,serif" font-size="14.00" fill="#000000">7: write</text>
</g>
<!-- dotstar -->
<g id="node6" class="node">
<title>dotstar</title>
<polygon fill="#d3d3d3" stroke="#000000" points="892,-52 838,-52 838,-16 892,-16 892,-52"/>
<text text-anchor="middle" x="865" y="-29.8" font-family="Times,serif" font-size="14.00" fill="#000000">.**</text>
</g>
<!-- star_q&#45;&gt;dotstar -->
<g id="edge15" class="edge">
<title>star_q-&gt;dotstar</title>
<path fill="none" stroke="#000000" d="M932.0516,-112.9376C923.3011,-105.2539 912.6654,-95.4014 903.9656,-85.8 896.8994,-78.0015 889.7961,-68.9883 883.6257,-60.6885"/>
<polygon fill="#000000" stroke="#000000" points="886.2901,-58.4015 877.5739,-52.3782 880.6315,-62.5223 886.2901,-58.4015"/>
<text text-anchor="middle" x="923.0172" y="-73.2" font-family="Times,serif" font-size="14.00" fill="#000000">5: exec</text>
</g>
<!-- &#39;gcc.sh&#39; -->
<g id="node7" class="node">
<title>'gcc.sh'</title>
<polygon fill="#d3d3d3" stroke="#000000" points="979.1958,-52 918.8042,-52 918.8042,-16 979.1958,-16 979.1958,-52"/>
<text text-anchor="middle" x="949" y="-29.8" font-family="Times,serif" font-size="14.00" fill="#000000">'gcc.sh'</text>
</g>
<!-- star_q&#45;&gt;&#39;gcc.sh&#39; -->
<g id="edge16" class="edge">
<title>star_q-&gt;'gcc.sh'</title>
<path fill="none" stroke="#000000" d="M949,-108.7867C949,-95.5533 949,-77.4623 949,-62.3883"/>
<polygon fill="#000000" stroke="#000000" points="952.5001,-62.0579 949,-52.0579 945.5001,-62.058 952.5001,-62.0579"/>
<text text-anchor="middle" x="970.5768" y="-73.2" font-family="Times,serif" font-size="14.00" fill="#000000">8: write</text>
</g>
<!-- &#39;cron.h&#39; -->
<g id="node8" class="node">
<title>'cron.h'</title>
<polygon fill="#d3d3d3" stroke="#000000" points="1066.1972,-52 1005.8028,-52 1005.8028,-16 1066.1972,-16 1066.1972,-52"/>
<text text-anchor="middle" x="1036" y="-29.8" font-family="Times,serif" font-size="14.00" fill="#000000">'cron.h'</text>
</g>
<!-- star_q&#45;&gt;&#39;cron.h&#39; -->
<g id="edge17" class="edge">
<title>star_q-&gt;'cron.h'</title>
<path fill="none" stroke="#000000" d="M966.688,-113.4773C976.1232,-105.7885 987.6763,-95.7639 997,-85.8 1004.3838,-77.9092 1011.7141,-68.6522 1017.9927,-60.1632"/>
<polygon fill="#000000" stroke="#000000" points="1020.8645,-62.1648 1023.8838,-52.0092 1015.1904,-58.0653 1020.8645,-62.1648"/>
<text text-anchor="middle" x="1032.5768" y="-73.2" font-family="Times,serif" font-size="14.00" fill="#000000">9: write</text>
</g>
<!-- star -->
<g id="node5" class="node">
<title>star</title>
<polygon fill="#d3d3d3" stroke="#000000" points="699,-145.2 645,-145.2 645,-109.2 699,-109.2 699,-145.2"/>
<text text-anchor="middle" x="672" y="-123" font-family="Times,serif" font-size="14.00" fill="#000000">*</text>
</g>
<!-- star&#45;&gt;star -->
<g id="edge12" class="edge">
<title>star-&gt;star</title>
<path fill="none" stroke="#000000" d="M699.2101,-129.1761C710.9492,-129.3379 721,-128.6792 721,-127.2 721,-126.1831 716.2494,-125.5539 709.4657,-125.3126"/>
<polygon fill="#000000" stroke="#000000" points="709.2401,-121.8106 699.2101,-125.2239 709.1795,-128.8104 709.2401,-121.8106"/>
<text text-anchor="middle" x="746.8552" y="-107" font-family="Times,serif" font-size="14.00" fill="#000000">2: embed</text>
</g>
<!-- star&#45;&gt;star -->
<g id="edge13" class="edge">
<title>star-&gt;star</title>
<path fill="none" stroke="#000000" d="M699.2125,-130.2916C730.717,-132.168 772.7104,-131.1375 772.7104,-127.2 772.7104,-123.6778 739.1079,-122.4817 709.4691,-123.6117"/>
<polygon fill="#000000" stroke="#000000" points="709.0314,-120.1287 699.2125,-124.1084 709.3701,-127.1205 709.0314,-120.1287"/>
<text text-anchor="middle" x="793.1203" y="-139" font-family="Times,serif" font-size="14.00" fill="#000000">3: have</text>
</g>
<!-- star&#45;&gt;star -->
<g id="edge14" class="edge">
<title>star-&gt;star</title>
<path fill="none" stroke="#000000" d="M699.1419,-131.0848C743.3424,-134.8699 813.5302,-133.575 813.5302,-127.2 813.5302,-121.2981 753.3743,-119.7503 709.3736,-122.5564"/>
<polygon fill="#000000" stroke="#000000" points="708.8557,-119.0851 699.1419,-123.3152 709.3735,-126.0659 708.8557,-119.0851"/>
<text text-anchor="middle" x="841.7234" y="-123" font-family="Times,serif" font-size="14.00" fill="#000000">6: support</text>
</g>
</g>
</svg>