<?xml version="1.0" encoding="UTF-8" standalone="no"?>
<!DOCTYPE svg PUBLIC "-//W3C//DTD SVG 1.1//EN"
 "http://www.w3.org/Graphics/SVG/1.1/DTD/svg11.dtd">
<!-- Generated by graphviz version 6.0.1 (20220911.1526)
 -->
<!-- Pages: 1 -->
<svg width="1202pt" height="378pt"
 viewBox="0.00 0.00 1202.45 378.00" xmlns="http://www.w3.org/2000/svg" xmlns:xlink="http://www.w3.org/1999/xlink">
<g id="graph0" class="graph" transform="scale(1 1) rotate(0) translate(4 374)">
<polygon fill="white" stroke="none" points="-4,4 -4,-374 1198.45,-374 1198.45,4 -4,4"/>
<!-- 0 -->
<g id="node1" class="node">
<title>0</title>
<ellipse fill="lightgrey" stroke="black" cx="252.45" cy="-352" rx="40.09" ry="18"/>
<text text-anchor="middle" x="252.45" y="-348.3" font-family="Times New Roman,serif" font-size="14.00">malware</text>
</g>
<!-- 1 -->
<g id="node2" class="node">
<title>1</title>
<ellipse fill="lightgrey" stroke="black" cx="34.45" cy="-265" rx="34.39" ry="18"/>
<text text-anchor="middle" x="34.45" y="-261.3" font-family="Times New Roman,serif" font-size="14.00">uname</text>
</g>
<!-- 0&#45;&gt;1 -->
<g id="edge1" class="edge">
<title>0&#45;&gt;1</title>
<path fill="none" stroke="black" d="M213.49,-347.32C166.22,-342.23 89.94,-331.86 66.45,-316 57.7,-310.09 50.83,-300.91 45.73,-292.02"/>
<polygon fill="black" stroke="black" points="48.77,-290.27 41.06,-283 42.56,-293.49 48.77,-290.27"/>
<text text-anchor="middle" x="90.95" y="-304.8" font-family="Times New Roman,serif" font-size="14.00">1. exec()</text>
</g>
<!-- 2 -->
<g id="node3" class="node">
<title>2</title>
<ellipse fill="lightgrey" stroke="black" cx="113.45" cy="-265" rx="27" ry="18"/>
<text text-anchor="middle" x="113.45" y="-261.3" font-family="Times New Roman,serif" font-size="14.00">sh</text>
</g>
<!-- 0&#45;&gt;2 -->
<g id="edge2" class="edge">
<title>0&#45;&gt;2</title>
<path fill="none" stroke="black" d="M212.45,-349.7C185.05,-346.69 149.76,-338.31 127.45,-316 121.44,-309.99 117.96,-301.64 115.96,-293.47"/>
<polygon fill="black" stroke="black" points="119.36,-292.64 114.14,-283.42 112.48,-293.89 119.36,-292.64"/>
<text text-anchor="middle" x="154.45" y="-304.8" font-family="Times New Roman,serif" font-size="14.00">2. clone()</text>
</g>
<!-- 5 -->
<g id="node4" class="node">
<title>5</title>
<polygon fill="lightgrey" stroke="black" points="339.69,-270.56 251.45,-283 163.2,-270.56 196.91,-250.44 305.98,-250.44 339.69,-270.56"/>
<text text-anchor="middle" x="251.45" y="-261.3" font-family="Times New Roman,serif" font-size="14.00">memory address</text>
</g>
<!-- 0&#45;&gt;5 -->
<g id="edge3" class="edge">
<title>0&#45;&gt;5</title>
<path fill="none" stroke="black" d="M219.51,-341.35C207.22,-335.97 194.54,-327.88 187.45,-316 179.29,-302.34 190.76,-291.01 206.14,-282.6"/>
<polygon fill="black" stroke="black" points="208.09,-285.54 215.53,-278 205.01,-279.26 208.09,-285.54"/>
<text text-anchor="middle" x="208.95" y="-304.8" font-family="Times New Roman,serif" font-size="14.00">6. brk()</text>
</g>
<!-- 0&#45;&gt;5 -->
<g id="edge4" class="edge">
<title>0&#45;&gt;5</title>
<path fill="none" stroke="black" d="M252.24,-333.8C252.11,-322.16 251.92,-306.55 251.77,-293.24"/>
<polygon fill="black" stroke="black" points="255.27,-293.13 251.65,-283.18 248.27,-293.22 255.27,-293.13"/>
<text text-anchor="middle" x="308.45" y="-304.8" font-family="Times New Roman,serif" font-size="14.00">7. set_thread_area()</text>
</g>
<!-- 6 -->
<g id="node5" class="node">
<title>6</title>
<ellipse fill="lightgrey" stroke="black" cx="386.45" cy="-265" rx="27" ry="18"/>
<text text-anchor="middle" x="386.45" y="-261.3" font-family="Times New Roman,serif" font-size="14.00">sh</text>
</g>
<!-- 0&#45;&gt;6 -->
<g id="edge5" class="edge">
<title>0&#45;&gt;6</title>
<path fill="none" stroke="black" d="M291.36,-347.28C315.28,-343.15 345.14,-334.42 365.45,-316 372.26,-309.82 376.94,-301.07 380.11,-292.61"/>
<polygon fill="black" stroke="black" points="383.47,-293.58 383.18,-282.99 376.8,-291.45 383.47,-293.58"/>
<text text-anchor="middle" x="403.45" y="-304.8" font-family="Times New Roman,serif" font-size="14.00">8. clone()</text>
</g>
<!-- 8 -->
<g id="node6" class="node">
<title>8</title>
<ellipse fill="lightgrey" stroke="black" cx="464.45" cy="-265" rx="27" ry="18"/>
<text text-anchor="middle" x="464.45" y="-261.3" font-family="Times New Roman,serif" font-size="14.00">sh</text>
</g>
<!-- 0&#45;&gt;8 -->
<g id="edge6" class="edge">
<title>0&#45;&gt;8</title>
<path fill="none" stroke="black" d="M291.45,-347.25C337.84,-342.15 411.83,-331.81 434.45,-316 442.85,-310.12 449.31,-301.06 454.03,-292.26"/>
<polygon fill="black" stroke="black" points="457.32,-293.5 458.5,-282.97 451.01,-290.47 457.32,-293.5"/>
<text text-anchor="middle" x="479.95" y="-304.8" font-family="Times New Roman,serif" font-size="14.00">12. clone()</text>
</g>
<!-- 14 -->
<g id="node7" class="node">
<title>14</title>
<polygon fill="lightgrey" stroke="black" points="899.95,-283 842.95,-283 842.95,-287 830.95,-287 830.95,-247 899.95,-247 899.95,-283"/>
<polyline fill="none" stroke="black" points="830.95,-283 842.95,-283"/>
<text text-anchor="middle" x="865.45" y="-261.3" font-family="Times New Roman,serif" font-size="14.00">PID:1524</text>
</g>
<!-- 0&#45;&gt;14 -->
<g id="edge7" class="edge">
<title>0&#45;&gt;14</title>
<path fill="none" stroke="black" d="M290.64,-346C341.67,-339.3 434.89,-326.98 514.45,-316 624.42,-300.82 753.65,-282.21 820.42,-272.54"/>
<polygon fill="black" stroke="black" points="821.19,-275.97 830.59,-271.07 820.19,-269.04 821.19,-275.97"/>
<text text-anchor="middle" x="651.95" y="-304.8" font-family="Times New Roman,serif" font-size="14.00">16. clone()</text>
</g>
<!-- 3 -->
<g id="node8" class="node">
<title>3</title>
<ellipse fill="lightgrey" stroke="black" cx="113.45" cy="-178" rx="27" ry="18"/>
<text text-anchor="middle" x="113.45" y="-174.3" font-family="Times New Roman,serif" font-size="14.00">sed</text>
</g>
<!-- 2&#45;&gt;3 -->
<g id="edge8" class="edge">
<title>2&#45;&gt;3</title>
<path fill="none" stroke="black" d="M113.45,-246.8C113.45,-235.16 113.45,-219.55 113.45,-206.24"/>
<polygon fill="black" stroke="black" points="116.95,-206.18 113.45,-196.18 109.95,-206.18 116.95,-206.18"/>
<text text-anchor="middle" x="137.95" y="-217.8" font-family="Times New Roman,serif" font-size="14.00">3. exec()</text>
</g>
<!-- 7 -->
<g id="node9" class="node">
<title>7</title>
<ellipse fill="lightgrey" stroke="black" cx="316.45" cy="-178" rx="27" ry="18"/>
<text text-anchor="middle" x="316.45" y="-174.3" font-family="Times New Roman,serif" font-size="14.00">sed</text>
</g>
<!-- 6&#45;&gt;7 -->
<g id="edge9" class="edge">
<title>6&#45;&gt;7</title>
<path fill="none" stroke="black" d="M373.93,-248.8C363.18,-235.75 347.52,-216.74 335.26,-201.85"/>
<polygon fill="black" stroke="black" points="337.91,-199.56 328.85,-194.06 332.51,-204.01 337.91,-199.56"/>
<text text-anchor="middle" x="380.95" y="-217.8" font-family="Times New Roman,serif" font-size="14.00">9. exec()</text>
</g>
<!-- 9 -->
<g id="node10" class="node">
<title>9</title>
<ellipse fill="lightgrey" stroke="black" cx="464.45" cy="-178" rx="27" ry="18"/>
<text text-anchor="middle" x="464.45" y="-174.3" font-family="Times New Roman,serif" font-size="14.00">sed</text>
</g>
<!-- 8&#45;&gt;9 -->
<g id="edge10" class="edge">
<title>8&#45;&gt;9</title>
<path fill="none" stroke="black" d="M464.45,-246.8C464.45,-235.16 464.45,-219.55 464.45,-206.24"/>
<polygon fill="black" stroke="black" points="467.95,-206.18 464.45,-196.18 460.95,-206.18 467.95,-206.18"/>
<text text-anchor="middle" x="492.45" y="-217.8" font-family="Times New Roman,serif" font-size="14.00">13. exec()</text>
</g>
<!-- 15 -->
<g id="node11" class="node">
<title>15</title>
<polygon fill="lightgrey" stroke="black" points="735.95,-196 678.95,-196 678.95,-200 666.95,-200 666.95,-160 735.95,-160 735.95,-196"/>
<polyline fill="none" stroke="black" points="666.95,-196 678.95,-196"/>
<text text-anchor="middle" x="701.45" y="-174.3" font-family="Times New Roman,serif" font-size="14.00">PID:1525</text>
</g>
<!-- 14&#45;&gt;15 -->
<g id="edge11" class="edge">
<title>14&#45;&gt;15</title>
<path fill="none" stroke="black" d="M830.76,-263.17C800.27,-260.74 756.22,-252.93 726.45,-229 718.97,-222.99 713.54,-214.17 709.69,-205.61"/>
<polygon fill="black" stroke="black" points="712.91,-204.23 705.99,-196.21 706.4,-206.8 712.91,-204.23"/>
<text text-anchor="middle" x="756.95" y="-217.8" font-family="Times New Roman,serif" font-size="14.00">17. clone()</text>
</g>
<!-- 18 -->
<g id="node12" class="node">
<title>18</title>
<polygon fill="lightgrey" stroke="black" points="791.45,-196 753.58,-178 791.45,-160 829.32,-178 791.45,-196"/>
<text text-anchor="middle" x="791.45" y="-174.3" font-family="Times New Roman,serif" font-size="14.00">NIC</text>
</g>
<!-- 14&#45;&gt;18 -->
<g id="edge12" class="edge">
<title>14&#45;&gt;18</title>
<path fill="none" stroke="black" d="M830.79,-254.28C817.95,-248.92 804.57,-240.86 796.45,-229 791.79,-222.19 789.89,-213.59 789.34,-205.45"/>
<polygon fill="black" stroke="black" points="792.84,-205.19 789.29,-195.21 785.84,-205.22 792.84,-205.19"/>
<text text-anchor="middle" x="823.95" y="-217.8" font-family="Times New Roman,serif" font-size="14.00">27. read()</text>
</g>
<!-- 20 -->
<g id="node13" class="node">
<title>20</title>
<polygon fill="lightgrey" stroke="black" points="976.45,-109 855.29,-91 976.45,-73 1097.6,-91 976.45,-109"/>
<text text-anchor="middle" x="976.45" y="-87.3" font-family="Times New Roman,serif" font-size="14.00">222.186.57.87:48080</text>
</g>
<!-- 14&#45;&gt;20 -->
<g id="edge13" class="edge">
<title>14&#45;&gt;20</title>
<path fill="none" stroke="black" d="M863.74,-246.78C862.43,-224.95 863.06,-186.93 879.45,-160 893.04,-137.65 917.07,-120.73 937.81,-109.35"/>
<polygon fill="black" stroke="black" points="939.52,-112.41 946.75,-104.67 936.27,-106.21 939.52,-112.41"/>
<text text-anchor="middle" x="916.95" y="-174.3" font-family="Times New Roman,serif" font-size="14.00">18. connect()</text>
</g>
<!-- 14&#45;&gt;20 -->
<g id="edge14" class="edge">
<title>14&#45;&gt;20</title>
<path fill="none" stroke="black" d="M898.21,-246.87C917.5,-235.1 940.74,-217.7 954.45,-196 969.1,-172.8 974.15,-141.47 975.82,-119.28"/>
<polygon fill="black" stroke="black" points="979.32,-119.38 976.39,-109.2 972.33,-118.98 979.32,-119.38"/>
<text text-anchor="middle" x="1015.95" y="-174.3" font-family="Times New Roman,serif" font-size="14.00">19. getsockopt()</text>
</g>
<!-- 14&#45;&gt;20 -->
<g id="edge15" class="edge">
<title>14&#45;&gt;20</title>
<path fill="none" stroke="black" d="M900.2,-263.71C946.9,-261.21 1028.44,-248.98 1066.45,-196 1089.32,-164.12 1045.75,-130.32 1011.61,-110.2"/>
<polygon fill="black" stroke="black" points="1013.16,-107.05 1002.74,-105.14 1009.69,-113.13 1013.16,-107.05"/>
<text text-anchor="middle" x="1100.95" y="-174.3" font-family="Times New Roman,serif" font-size="14.00">20. send()</text>
</g>
<!-- 14&#45;&gt;20 -->
<g id="edge16" class="edge">
<title>14&#45;&gt;20</title>
<path fill="none" stroke="black" d="M900.19,-260.81C966.68,-253.87 1107.6,-234.8 1133.45,-196 1163.45,-150.95 1088.98,-120.67 1032.62,-104.9"/>
<polygon fill="black" stroke="black" points="1033.26,-101.45 1022.69,-102.22 1031.43,-108.2 1033.26,-101.45"/>
<text text-anchor="middle" x="1166.95" y="-174.3" font-family="Times New Roman,serif" font-size="14.00">21. recv()</text>
</g>
<!-- 4 -->
<g id="node14" class="node">
<title>4</title>
<polygon fill="lightgrey" stroke="black" points="242.45,-109 160.45,-109 160.45,-73 242.45,-73 242.45,-109"/>
<text text-anchor="middle" x="201.45" y="-87.3" font-family="Times New Roman,serif" font-size="14.00">/etc/rc.local</text>
</g>
<!-- 3&#45;&gt;4 -->
<g id="edge17" class="edge">
<title>3&#45;&gt;4</title>
<path fill="none" stroke="black" d="M100.58,-161.99C93.21,-151.49 86.82,-137.53 94.45,-127 107.31,-109.25 129.44,-100.34 150.25,-95.92"/>
<polygon fill="black" stroke="black" points="151.09,-99.33 160.31,-94.1 149.84,-92.44 151.09,-99.33"/>
<text text-anchor="middle" x="118.45" y="-130.8" font-family="Times New Roman,serif" font-size="14.00">4. read()</text>
</g>
<!-- 3&#45;&gt;4 -->
<g id="edge18" class="edge">
<title>3&#45;&gt;4</title>
<path fill="none" stroke="black" d="M128.37,-162.58C141.52,-149.88 160.94,-131.13 176.45,-116.14"/>
<polygon fill="black" stroke="black" points="178.95,-118.6 183.71,-109.13 174.09,-113.56 178.95,-118.6"/>
<text text-anchor="middle" x="188.95" y="-130.8" font-family="Times New Roman,serif" font-size="14.00">5. write()</text>
</g>
<!-- 7&#45;&gt;4 -->
<g id="edge19" class="edge">
<title>7&#45;&gt;4</title>
<path fill="none" stroke="black" d="M292.54,-169.61C276.42,-163.83 255.28,-154.64 239.45,-142 230.88,-135.16 223.19,-125.99 217,-117.37"/>
<polygon fill="black" stroke="black" points="219.85,-115.33 211.33,-109.03 214.06,-119.27 219.85,-115.33"/>
<text text-anchor="middle" x="266.95" y="-130.8" font-family="Times New Roman,serif" font-size="14.00">10. read()</text>
</g>
<!-- 7&#45;&gt;4 -->
<g id="edge20" class="edge">
<title>7&#45;&gt;4</title>
<path fill="none" stroke="black" d="M312.51,-159.71C309.27,-149.03 303.67,-135.74 294.45,-127 282.84,-116.01 267.44,-108.38 252.52,-103.13"/>
<polygon fill="black" stroke="black" points="253.42,-99.75 242.83,-100.02 251.28,-106.41 253.42,-99.75"/>
<text text-anchor="middle" x="334.45" y="-130.8" font-family="Times New Roman,serif" font-size="14.00">11. write()</text>
</g>
<!-- 10 -->
<g id="node15" class="node">
<title>10</title>
<polygon fill="lightgrey" stroke="black" points="442.45,-109 334.45,-109 334.45,-73 442.45,-73 442.45,-109"/>
<text text-anchor="middle" x="388.45" y="-87.3" font-family="Times New Roman,serif" font-size="14.00">/etc/rc.d/rc.local</text>
</g>
<!-- 9&#45;&gt;10 -->
<g id="edge21" class="edge">
<title>9&#45;&gt;10</title>
<path fill="none" stroke="black" d="M442.04,-167.96C430.04,-162.12 415.84,-153.46 406.45,-142 401.02,-135.38 397.16,-126.99 394.45,-118.98"/>
<polygon fill="black" stroke="black" points="397.75,-117.82 391.59,-109.2 391.04,-119.78 397.75,-117.82"/>
<text text-anchor="middle" x="435.45" y="-130.8" font-family="Times New Roman,serif" font-size="14.00">14. open()</text>
</g>
<!-- 13 -->
<g id="node16" class="node">
<title>13</title>
<polygon fill="lightgrey" stroke="black" points="542.45,-36 414.45,-36 414.45,0 542.45,0 542.45,-36"/>
<text text-anchor="middle" x="478.45" y="-14.3" font-family="Times New Roman,serif" font-size="14.00">/etc/init.d/boot.local</text>
</g>
<!-- 9&#45;&gt;13 -->
<g id="edge22" class="edge">
<title>9&#45;&gt;13</title>
<path fill="none" stroke="black" d="M465.97,-159.79C468.39,-132.48 473.13,-78.99 476.02,-46.38"/>
<polygon fill="black" stroke="black" points="479.53,-46.46 476.92,-36.19 472.55,-45.84 479.53,-46.46"/>
<text text-anchor="middle" x="503.45" y="-87.3" font-family="Times New Roman,serif" font-size="14.00">15. write()</text>
</g>
<!-- 15&#45;&gt;20 -->
<g id="edge23" class="edge">
<title>15&#45;&gt;20</title>
<path fill="none" stroke="black" d="M736.04,-160.68C747.46,-155.03 760.13,-148.49 771.45,-142 782.03,-135.93 783.13,-131.57 794.45,-127 827.03,-113.84 864.93,-105.54 897.68,-100.34"/>
<polygon fill="black" stroke="black" points="898.31,-103.79 907.67,-98.83 897.26,-96.87 898.31,-103.79"/>
<text text-anchor="middle" x="822.95" y="-130.8" font-family="Times New Roman,serif" font-size="14.00">25. send()</text>
</g>
<!-- 16 -->
<g id="node17" class="node">
<title>16</title>
<polygon fill="lightgrey" stroke="black" points="645.95,-109 554.95,-109 554.95,-73 645.95,-73 645.95,-109"/>
<text text-anchor="middle" x="600.45" y="-87.3" font-family="Times New Roman,serif" font-size="14.00">/proc/net/dev</text>
</g>
<!-- 15&#45;&gt;16 -->
<g id="edge24" class="edge">
<title>15&#45;&gt;16</title>
<path fill="none" stroke="black" d="M666.59,-170.99C648.35,-166.11 627.05,-157.41 613.45,-142 607.85,-135.67 604.62,-127.22 602.76,-119.08"/>
<polygon fill="black" stroke="black" points="606.19,-118.38 601.07,-109.11 599.29,-119.55 606.19,-118.38"/>
<text text-anchor="middle" x="640.95" y="-130.8" font-family="Times New Roman,serif" font-size="14.00">22. read()</text>
</g>
<!-- 17 -->
<g id="node18" class="node">
<title>17</title>
<polygon fill="lightgrey" stroke="black" points="746.45,-36 618.45,-36 618.45,0 746.45,0 746.45,-36"/>
<text text-anchor="middle" x="682.45" y="-14.3" font-family="Times New Roman,serif" font-size="14.00">/sys/devices/system</text>
</g>
<!-- 15&#45;&gt;17 -->
<g id="edge25" class="edge">
<title>15&#45;&gt;17</title>
<path fill="none" stroke="black" d="M698.72,-159.98C696.57,-146.25 693.6,-126.41 691.45,-109 688.85,-87.99 686.5,-64.16 684.85,-46.3"/>
<polygon fill="black" stroke="black" points="688.33,-45.92 683.94,-36.28 681.35,-46.56 688.33,-45.92"/>
<text text-anchor="middle" x="718.95" y="-87.3" font-family="Times New Roman,serif" font-size="14.00">23. read()</text>
</g>
<!-- 19 -->
<g id="node19" class="node">
<title>19</title>
<polygon fill="lightgrey" stroke="black" points="825.45,-109 755.45,-109 755.45,-73 825.45,-73 825.45,-109"/>
<text text-anchor="middle" x="790.45" y="-87.3" font-family="Times New Roman,serif" font-size="14.00">/proc/stat</text>
</g>
<!-- 15&#45;&gt;19 -->
<g id="edge26" class="edge">
<title>15&#45;&gt;19</title>
<path fill="none" stroke="black" d="M703.11,-159.56C704.9,-149.08 708.65,-136.07 716.45,-127 720.96,-121.75 732.74,-115.44 745.61,-109.62"/>
<polygon fill="black" stroke="black" points="747.32,-112.69 755.09,-105.5 744.53,-106.28 747.32,-112.69"/>
<text text-anchor="middle" x="743.95" y="-130.8" font-family="Times New Roman,serif" font-size="14.00">24. read()</text>
</g>
</g>
</svg>
