<?xml version="1.0" encoding="UTF-8" standalone="no"?>
<!DOCTYPE svg PUBLIC "-//W3C//DTD SVG 1.1//EN"
 "http://www.w3.org/Graphics/SVG/1.1/DTD/svg11.dtd">
<!-- Generated by graphviz version 6.0.1 (20220911.1526)
 -->
<!-- Pages: 1 -->
<svg width="1193pt" height="378pt"
 viewBox="0.00 0.00 1193.00 378.00" xmlns="http://www.w3.org/2000/svg" xmlns:xlink="http://www.w3.org/1999/xlink">
<g id="graph0" class="graph" transform="scale(1 1) rotate(0) translate(4 374)">
<polygon fill="white" stroke="none" points="-4,4 -4,-374 1189,-374 1189,4 -4,4"/>
<!-- 0 -->
<g id="node1" class="node">
<title>0</title>
<ellipse fill="lightgrey" stroke="black" cx="242" cy="-352" rx="40.09" ry="18"/>
<text text-anchor="middle" x="242" y="-348.3" font-family="Times New Roman,serif" font-size="14.00">malware</text>
</g>
<!-- 1 -->
<g id="node2" class="node">
<title>1</title>
<polygon fill="lightgrey" stroke="black" points="54,-283 0,-283 0,-247 54,-247 54,-283"/>
<text text-anchor="middle" x="27" y="-261.3" font-family="Times New Roman,serif" font-size="14.00">uname</text>
</g>
<!-- 0&#45;&gt;1 -->
<g id="edge1" class="edge">
<title>0&#45;&gt;1</title>
<path fill="none" stroke="black" d="M202.68,-347.56C155,-342.73 78.14,-332.61 55,-316 46.93,-310.2 40.89,-301.32 36.53,-292.64"/>
<polygon fill="black" stroke="black" points="39.71,-291.17 32.44,-283.46 33.31,-294.02 39.71,-291.17"/>
<text text-anchor="middle" x="79.5" y="-304.8" font-family="Times New Roman,serif" font-size="14.00">1. exec()</text>
</g>
<!-- 2 -->
<g id="node3" class="node">
<title>2</title>
<ellipse fill="lightgrey" stroke="black" cx="99" cy="-265" rx="27" ry="18"/>
<text text-anchor="middle" x="99" y="-261.3" font-family="Times New Roman,serif" font-size="14.00">sh</text>
</g>
<!-- 0&#45;&gt;2 -->
<g id="edge2" class="edge">
<title>0&#45;&gt;2</title>
<path fill="none" stroke="black" d="M202.2,-349.15C175.07,-345.88 140.02,-337.41 117,-316 110.47,-309.93 106.3,-301.31 103.65,-292.93"/>
<polygon fill="black" stroke="black" points="106.98,-291.84 101.1,-283.03 100.2,-293.58 106.98,-291.84"/>
<text text-anchor="middle" x="144" y="-304.8" font-family="Times New Roman,serif" font-size="14.00">2. clone()</text>
</g>
<!-- 5 -->
<g id="node4" class="node">
<title>5</title>
<polygon fill="lightgrey" stroke="black" points="325.24,-270.56 237,-283 148.76,-270.56 182.46,-250.44 291.54,-250.44 325.24,-270.56"/>
<text text-anchor="middle" x="237" y="-261.3" font-family="Times New Roman,serif" font-size="14.00">memory address</text>
</g>
<!-- 0&#45;&gt;5 -->
<g id="edge3" class="edge">
<title>0&#45;&gt;5</title>
<path fill="none" stroke="black" d="M209.06,-341.35C196.78,-335.97 184.1,-327.88 177,-316 169.23,-302.99 179.69,-291.8 193.93,-283.33"/>
<polygon fill="black" stroke="black" points="195.98,-286.21 203.17,-278.42 192.7,-280.03 195.98,-286.21"/>
<text text-anchor="middle" x="198.5" y="-304.8" font-family="Times New Roman,serif" font-size="14.00">6. brk()</text>
</g>
<!-- 0&#45;&gt;5 -->
<g id="edge4" class="edge">
<title>0&#45;&gt;5</title>
<path fill="none" stroke="black" d="M240.99,-333.8C240.3,-322.09 239.37,-306.34 238.59,-292.97"/>
<polygon fill="black" stroke="black" points="242.07,-292.66 237.99,-282.89 235.09,-293.07 242.07,-292.66"/>
<text text-anchor="middle" x="296" y="-304.8" font-family="Times New Roman,serif" font-size="14.00">7. set_thread_area()</text>
</g>
<!-- 6 -->
<g id="node5" class="node">
<title>6</title>
<ellipse fill="lightgrey" stroke="black" cx="374" cy="-265" rx="27" ry="18"/>
<text text-anchor="middle" x="374" y="-261.3" font-family="Times New Roman,serif" font-size="14.00">sh</text>
</g>
<!-- 0&#45;&gt;6 -->
<g id="edge5" class="edge">
<title>0&#45;&gt;6</title>
<path fill="none" stroke="black" d="M281.13,-347.52C305.14,-343.48 335.01,-334.77 355,-316 361.54,-309.85 365.86,-301.22 368.69,-292.85"/>
<polygon fill="black" stroke="black" points="372.13,-293.53 371.46,-282.96 365.39,-291.65 372.13,-293.53"/>
<text text-anchor="middle" x="392" y="-304.8" font-family="Times New Roman,serif" font-size="14.00">8. clone()</text>
</g>
<!-- 8 -->
<g id="node6" class="node">
<title>8</title>
<ellipse fill="lightgrey" stroke="black" cx="454" cy="-265" rx="27" ry="18"/>
<text text-anchor="middle" x="454" y="-261.3" font-family="Times New Roman,serif" font-size="14.00">sh</text>
</g>
<!-- 0&#45;&gt;8 -->
<g id="edge6" class="edge">
<title>0&#45;&gt;8</title>
<path fill="none" stroke="black" d="M281.16,-347.12C327.28,-341.93 400.47,-331.53 423,-316 431.61,-310.06 438.3,-300.87 443.22,-291.98"/>
<polygon fill="black" stroke="black" points="446.38,-293.49 447.71,-282.98 440.11,-290.36 446.38,-293.49"/>
<text text-anchor="middle" x="468.5" y="-304.8" font-family="Times New Roman,serif" font-size="14.00">12. clone()</text>
</g>
<!-- 14 -->
<g id="node7" class="node">
<title>14</title>
<polygon fill="lightgrey" stroke="black" points="890.5,-283 833.5,-283 833.5,-287 821.5,-287 821.5,-247 890.5,-247 890.5,-283"/>
<polyline fill="none" stroke="black" points="821.5,-283 833.5,-283"/>
<text text-anchor="middle" x="856" y="-261.3" font-family="Times New Roman,serif" font-size="14.00">PID:1524</text>
</g>
<!-- 0&#45;&gt;14 -->
<g id="edge7" class="edge">
<title>0&#45;&gt;14</title>
<path fill="none" stroke="black" d="M280.05,-345.99C330.88,-339.27 423.74,-326.93 503,-316 613.88,-300.71 744.24,-282.08 811.24,-272.45"/>
<polygon fill="black" stroke="black" points="812.04,-275.87 821.44,-270.98 811.04,-268.94 812.04,-275.87"/>
<text text-anchor="middle" x="640.5" y="-304.8" font-family="Times New Roman,serif" font-size="14.00">16. clone()</text>
</g>
<!-- 3 -->
<g id="node8" class="node">
<title>3</title>
<ellipse fill="lightgrey" stroke="black" cx="99" cy="-178" rx="27" ry="18"/>
<text text-anchor="middle" x="99" y="-174.3" font-family="Times New Roman,serif" font-size="14.00">sed</text>
</g>
<!-- 2&#45;&gt;3 -->
<g id="edge8" class="edge">
<title>2&#45;&gt;3</title>
<path fill="none" stroke="black" d="M99,-246.8C99,-235.16 99,-219.55 99,-206.24"/>
<polygon fill="black" stroke="black" points="102.5,-206.18 99,-196.18 95.5,-206.18 102.5,-206.18"/>
<text text-anchor="middle" x="123.5" y="-217.8" font-family="Times New Roman,serif" font-size="14.00">3. exec()</text>
</g>
<!-- 7 -->
<g id="node9" class="node">
<title>7</title>
<ellipse fill="lightgrey" stroke="black" cx="306" cy="-178" rx="27" ry="18"/>
<text text-anchor="middle" x="306" y="-174.3" font-family="Times New Roman,serif" font-size="14.00">sed</text>
</g>
<!-- 6&#45;&gt;7 -->
<g id="edge9" class="edge">
<title>6&#45;&gt;7</title>
<path fill="none" stroke="black" d="M361.84,-248.8C351.56,-235.95 336.65,-217.32 324.83,-202.54"/>
<polygon fill="black" stroke="black" points="327.26,-199.97 318.28,-194.35 321.79,-204.35 327.26,-199.97"/>
<text text-anchor="middle" x="369.5" y="-217.8" font-family="Times New Roman,serif" font-size="14.00">9. exec()</text>
</g>
<!-- 9 -->
<g id="node10" class="node">
<title>9</title>
<ellipse fill="lightgrey" stroke="black" cx="454" cy="-178" rx="27" ry="18"/>
<text text-anchor="middle" x="454" y="-174.3" font-family="Times New Roman,serif" font-size="14.00">sed</text>
</g>
<!-- 8&#45;&gt;9 -->
<g id="edge10" class="edge">
<title>8&#45;&gt;9</title>
<path fill="none" stroke="black" d="M454,-246.8C454,-235.16 454,-219.55 454,-206.24"/>
<polygon fill="black" stroke="black" points="457.5,-206.18 454,-196.18 450.5,-206.18 457.5,-206.18"/>
<text text-anchor="middle" x="482" y="-217.8" font-family="Times New Roman,serif" font-size="14.00">13. exec()</text>
</g>
<!-- 15 -->
<g id="node11" class="node">
<title>15</title>
<polygon fill="lightgrey" stroke="black" points="726.5,-196 669.5,-196 669.5,-200 657.5,-200 657.5,-160 726.5,-160 726.5,-196"/>
<polyline fill="none" stroke="black" points="657.5,-196 669.5,-196"/>
<text text-anchor="middle" x="692" y="-174.3" font-family="Times New Roman,serif" font-size="14.00">PID:1525</text>
</g>
<!-- 14&#45;&gt;15 -->
<g id="edge11" class="edge">
<title>14&#45;&gt;15</title>
<path fill="none" stroke="black" d="M821.31,-263.17C790.82,-260.74 746.78,-252.93 717,-229 709.52,-222.99 704.1,-214.17 700.25,-205.61"/>
<polygon fill="black" stroke="black" points="703.47,-204.23 696.55,-196.21 696.95,-206.8 703.47,-204.23"/>
<text text-anchor="middle" x="747.5" y="-217.8" font-family="Times New Roman,serif" font-size="14.00">17. clone()</text>
</g>
<!-- 18 -->
<g id="node12" class="node">
<title>18</title>
<polygon fill="lightgrey" stroke="black" points="782,-196 744.13,-178 782,-160 819.87,-178 782,-196"/>
<text text-anchor="middle" x="782" y="-174.3" font-family="Times New Roman,serif" font-size="14.00">NIC</text>
</g>
<!-- 14&#45;&gt;18 -->
<g id="edge12" class="edge">
<title>14&#45;&gt;18</title>
<path fill="none" stroke="black" d="M821.34,-254.28C808.51,-248.92 795.12,-240.86 787,-229 782.34,-222.19 780.44,-213.59 779.9,-205.45"/>
<polygon fill="black" stroke="black" points="783.39,-205.19 779.85,-195.21 776.39,-205.22 783.39,-205.19"/>
<text text-anchor="middle" x="814.5" y="-217.8" font-family="Times New Roman,serif" font-size="14.00">27. read()</text>
</g>
<!-- 20 -->
<g id="node13" class="node">
<title>20</title>
<polygon fill="lightgrey" stroke="black" points="967,-109 845.84,-91 967,-73 1088.16,-91 967,-109"/>
<text text-anchor="middle" x="967" y="-87.3" font-family="Times New Roman,serif" font-size="14.00">222.186.57.87:48080</text>
</g>
<!-- 14&#45;&gt;20 -->
<g id="edge13" class="edge">
<title>14&#45;&gt;20</title>
<path fill="none" stroke="black" d="M854.29,-246.78C852.98,-224.95 853.62,-186.93 870,-160 883.6,-137.65 907.62,-120.73 928.36,-109.35"/>
<polygon fill="black" stroke="black" points="930.07,-112.41 937.31,-104.67 926.83,-106.21 930.07,-112.41"/>
<text text-anchor="middle" x="907.5" y="-174.3" font-family="Times New Roman,serif" font-size="14.00">18. connect()</text>
</g>
<!-- 14&#45;&gt;20 -->
<g id="edge14" class="edge">
<title>14&#45;&gt;20</title>
<path fill="none" stroke="black" d="M888.77,-246.87C908.06,-235.1 931.29,-217.7 945,-196 959.65,-172.8 964.71,-141.47 966.37,-119.28"/>
<polygon fill="black" stroke="black" points="969.87,-119.38 966.94,-109.2 962.88,-118.98 969.87,-119.38"/>
<text text-anchor="middle" x="1006.5" y="-174.3" font-family="Times New Roman,serif" font-size="14.00">19. getsockopt()</text>
</g>
<!-- 14&#45;&gt;20 -->
<g id="edge15" class="edge">
<title>14&#45;&gt;20</title>
<path fill="none" stroke="black" d="M890.75,-263.71C937.46,-261.21 1018.99,-248.98 1057,-196 1079.87,-164.12 1036.3,-130.32 1002.16,-110.2"/>
<polygon fill="black" stroke="black" points="1003.71,-107.05 993.29,-105.14 1000.25,-113.13 1003.71,-107.05"/>
<text text-anchor="middle" x="1091.5" y="-174.3" font-family="Times New Roman,serif" font-size="14.00">20. send()</text>
</g>
<!-- 14&#45;&gt;20 -->
<g id="edge16" class="edge">
<title>14&#45;&gt;20</title>
<path fill="none" stroke="black" d="M890.75,-260.81C957.23,-253.87 1098.16,-234.8 1124,-196 1154.01,-150.95 1079.54,-120.67 1023.17,-104.9"/>
<polygon fill="black" stroke="black" points="1023.81,-101.45 1013.24,-102.22 1021.99,-108.2 1023.81,-101.45"/>
<text text-anchor="middle" x="1157.5" y="-174.3" font-family="Times New Roman,serif" font-size="14.00">21. recv()</text>
</g>
<!-- 4 -->
<g id="node14" class="node">
<title>4</title>
<polygon fill="lightgrey" stroke="black" points="232,-109 150,-109 150,-73 232,-73 232,-109"/>
<text text-anchor="middle" x="191" y="-87.3" font-family="Times New Roman,serif" font-size="14.00">/etc/rc.local</text>
</g>
<!-- 3&#45;&gt;4 -->
<g id="edge17" class="edge">
<title>3&#45;&gt;4</title>
<path fill="none" stroke="black" d="M87.7,-161.38C81.59,-150.86 76.66,-137.13 84,-127 96.87,-109.25 118.99,-100.34 139.8,-95.92"/>
<polygon fill="black" stroke="black" points="140.65,-99.33 149.86,-94.1 139.4,-92.44 140.65,-99.33"/>
<text text-anchor="middle" x="108" y="-130.8" font-family="Times New Roman,serif" font-size="14.00">4. read()</text>
</g>
<!-- 3&#45;&gt;4 -->
<g id="edge18" class="edge">
<title>3&#45;&gt;4</title>
<path fill="none" stroke="black" d="M114.19,-162.96C127.88,-150.32 148.29,-131.46 164.64,-116.36"/>
<polygon fill="black" stroke="black" points="167.32,-118.65 172.29,-109.29 162.57,-113.51 167.32,-118.65"/>
<text text-anchor="middle" x="176.5" y="-130.8" font-family="Times New Roman,serif" font-size="14.00">5. write()</text>
</g>
<!-- 7&#45;&gt;4 -->
<g id="edge19" class="edge">
<title>7&#45;&gt;4</title>
<path fill="none" stroke="black" d="M282.1,-169.61C265.97,-163.83 244.84,-154.64 229,-142 220.44,-135.16 212.74,-125.99 206.55,-117.37"/>
<polygon fill="black" stroke="black" points="209.4,-115.33 200.89,-109.03 203.61,-119.27 209.4,-115.33"/>
<text text-anchor="middle" x="256.5" y="-130.8" font-family="Times New Roman,serif" font-size="14.00">10. read()</text>
</g>
<!-- 7&#45;&gt;4 -->
<g id="edge20" class="edge">
<title>7&#45;&gt;4</title>
<path fill="none" stroke="black" d="M302.06,-159.71C298.82,-149.03 293.23,-135.74 284,-127 272.39,-116.01 256.99,-108.38 242.08,-103.13"/>
<polygon fill="black" stroke="black" points="242.98,-99.75 232.39,-100.02 240.83,-106.41 242.98,-99.75"/>
<text text-anchor="middle" x="324" y="-130.8" font-family="Times New Roman,serif" font-size="14.00">11. write()</text>
</g>
<!-- 10 -->
<g id="node15" class="node">
<title>10</title>
<polygon fill="lightgrey" stroke="black" points="433,-109 325,-109 325,-73 433,-73 433,-109"/>
<text text-anchor="middle" x="379" y="-87.3" font-family="Times New Roman,serif" font-size="14.00">/etc/rc.d/rc.local</text>
</g>
<!-- 9&#45;&gt;10 -->
<g id="edge21" class="edge">
<title>9&#45;&gt;10</title>
<path fill="none" stroke="black" d="M431.69,-167.73C419.96,-161.87 406.16,-153.26 397,-142 391.6,-135.36 387.75,-126.96 385.03,-118.95"/>
<polygon fill="black" stroke="black" points="388.34,-117.79 382.17,-109.18 381.62,-119.76 388.34,-117.79"/>
<text text-anchor="middle" x="426" y="-130.8" font-family="Times New Roman,serif" font-size="14.00">14. open()</text>
</g>
<!-- 13 -->
<g id="node16" class="node">
<title>13</title>
<polygon fill="lightgrey" stroke="black" points="533,-36 405,-36 405,0 533,0 533,-36"/>
<text text-anchor="middle" x="469" y="-14.3" font-family="Times New Roman,serif" font-size="14.00">/etc/init.d/boot.local</text>
</g>
<!-- 9&#45;&gt;13 -->
<g id="edge22" class="edge">
<title>9&#45;&gt;13</title>
<path fill="none" stroke="black" d="M455.63,-159.79C458.23,-132.48 463.3,-78.99 466.4,-46.38"/>
<polygon fill="black" stroke="black" points="469.91,-46.47 467.37,-36.19 462.94,-45.81 469.91,-46.47"/>
<text text-anchor="middle" x="493" y="-87.3" font-family="Times New Roman,serif" font-size="14.00">15. write()</text>
</g>
<!-- 15&#45;&gt;20 -->
<g id="edge23" class="edge">
<title>15&#45;&gt;20</title>
<path fill="none" stroke="black" d="M726.59,-160.68C738.01,-155.03 750.69,-148.49 762,-142 772.59,-135.93 773.68,-131.57 785,-127 817.58,-113.84 855.48,-105.54 888.24,-100.34"/>
<polygon fill="black" stroke="black" points="888.86,-103.79 898.23,-98.83 887.81,-96.87 888.86,-103.79"/>
<text text-anchor="middle" x="813.5" y="-130.8" font-family="Times New Roman,serif" font-size="14.00">25. send()</text>
</g>
<!-- 16 -->
<g id="node17" class="node">
<title>16</title>
<polygon fill="lightgrey" stroke="black" points="636.5,-109 545.5,-109 545.5,-73 636.5,-73 636.5,-109"/>
<text text-anchor="middle" x="591" y="-87.3" font-family="Times New Roman,serif" font-size="14.00">/proc/net/dev</text>
</g>
<!-- 15&#45;&gt;16 -->
<g id="edge24" class="edge">
<title>15&#45;&gt;16</title>
<path fill="none" stroke="black" d="M657.14,-170.99C638.9,-166.11 617.6,-157.41 604,-142 598.41,-135.67 595.17,-127.22 593.31,-119.08"/>
<polygon fill="black" stroke="black" points="596.74,-118.38 591.62,-109.11 589.84,-119.55 596.74,-118.38"/>
<text text-anchor="middle" x="631.5" y="-130.8" font-family="Times New Roman,serif" font-size="14.00">22. read()</text>
</g>
<!-- 17 -->
<g id="node18" class="node">
<title>17</title>
<polygon fill="lightgrey" stroke="black" points="737,-36 609,-36 609,0 737,0 737,-36"/>
<text text-anchor="middle" x="673" y="-14.3" font-family="Times New Roman,serif" font-size="14.00">/sys/devices/system</text>
</g>
<!-- 15&#45;&gt;17 -->
<g id="edge25" class="edge">
<title>15&#45;&gt;17</title>
<path fill="none" stroke="black" d="M689.27,-159.98C687.13,-146.25 684.15,-126.41 682,-109 679.41,-87.99 677.05,-64.16 675.4,-46.3"/>
<polygon fill="black" stroke="black" points="678.88,-45.92 674.49,-36.28 671.91,-46.56 678.88,-45.92"/>
<text text-anchor="middle" x="709.5" y="-87.3" font-family="Times New Roman,serif" font-size="14.00">23. read()</text>
</g>
<!-- 19 -->
<g id="node19" class="node">
<title>19</title>
<polygon fill="lightgrey" stroke="black" points="816,-109 746,-109 746,-73 816,-73 816,-109"/>
<text text-anchor="middle" x="781" y="-87.3" font-family="Times New Roman,serif" font-size="14.00">/proc/stat</text>
</g>
<!-- 15&#45;&gt;19 -->
<g id="edge26" class="edge">
<title>15&#45;&gt;19</title>
<path fill="none" stroke="black" d="M693.66,-159.56C695.46,-149.08 699.2,-136.07 707,-127 711.51,-121.75 723.3,-115.44 736.17,-109.62"/>
<polygon fill="black" stroke="black" points="737.87,-112.69 745.64,-105.5 735.08,-106.28 737.87,-112.69"/>
<text text-anchor="middle" x="734.5" y="-130.8" font-family="Times New Roman,serif" font-size="14.00">24. read()</text>
</g>
</g>
</svg>
