<?xml version="1.0" encoding="UTF-8" standalone="no"?>
<!DOCTYPE svg PUBLIC "-//W3C//DTD SVG 1.1//EN"
 "http://www.w3.org/Graphics/SVG/1.1/DTD/svg11.dtd">
<!-- Generated by graphviz version 6.0.1 (20220911.1526)
 -->
<!-- Title: Dofloo_asg_OPset Pages: 1 -->
<svg width="4320pt" height="291pt"
 viewBox="0.00 0.00 4319.59 291.00" xmlns="http://www.w3.org/2000/svg" xmlns:xlink="http://www.w3.org/1999/xlink">
<g id="graph0" class="graph" transform="scale(1 1) rotate(0) translate(4 287)">
<title>Dofloo_asg_OPset</title>
<polygon fill="white" stroke="none" points="-4,4 -4,-287 4315.59,-287 4315.59,4 -4,4"/>
<!-- Start -->
<g id="node1" class="node">
<title>Start</title>
<ellipse fill="none" stroke="black" cx="2315.34" cy="-265" rx="77.19" ry="18"/>
<text text-anchor="middle" x="2315.34" y="-261.3" font-family="Times New Roman,serif" font-size="14.00">Malware (Subject)</text>
</g>
<!-- 1 -->
<g id="node2" class="node">
<title>1</title>
<ellipse fill="none" stroke="black" cx="352.34" cy="-178" rx="74.99" ry="18"/>
<text text-anchor="middle" x="352.34" y="-174.3" font-family="Times New Roman,serif" font-size="14.00">Memory Address</text>
</g>
<!-- Start&#45;&gt;1 -->
<g id="edge1" class="edge">
<title>Start&#45;&gt;1</title>
<path fill="none" stroke="black" d="M2238.22,-263.56C1839.07,-261.2 25.38,-249.34 5.34,-229 -32.95,-190.12 152.7,-181.17 267.32,-179.31"/>
<polygon fill="black" stroke="black" points="267.55,-182.8 277.5,-179.15 267.45,-175.8 267.55,-182.8"/>
<text text-anchor="middle" x="24.84" y="-217.8" font-family="Times New Roman,serif" font-size="14.00">2.brk()</text>
</g>
<!-- Start&#45;&gt;1 -->
<g id="edge2" class="edge">
<title>Start&#45;&gt;1</title>
<path fill="none" stroke="black" d="M2237.8,-264.27C1846.55,-265.45 106.23,-268.49 67.34,-229 37.25,-198.43 174.14,-186.4 268.61,-181.77"/>
<polygon fill="black" stroke="black" points="268.94,-185.26 278.76,-181.3 268.61,-178.27 268.94,-185.26"/>
<text text-anchor="middle" x="121.84" y="-217.8" font-family="Times New Roman,serif" font-size="14.00">4.set_tid_address()</text>
</g>
<!-- Start&#45;&gt;1 -->
<g id="edge3" class="edge">
<title>Start&#45;&gt;1</title>
<path fill="none" stroke="black" d="M2238.05,-264.19C1861.48,-264.95 235.79,-266.05 199.34,-229 171.94,-201.14 220.15,-188.79 269.53,-183.33"/>
<polygon fill="black" stroke="black" points="270.13,-186.79 279.73,-182.3 269.43,-179.82 270.13,-186.79"/>
<text text-anchor="middle" x="237.84" y="-217.8" font-family="Times New Roman,serif" font-size="14.00">10.mprotect()</text>
</g>
<!-- Start&#45;&gt;1 -->
<g id="edge4" class="edge">
<title>Start&#45;&gt;1</title>
<path fill="none" stroke="black" d="M2238.09,-264.13C1872.68,-264.54 333.94,-264.2 299.34,-229 289.67,-219.16 297.87,-208.62 310.46,-199.77"/>
<polygon fill="black" stroke="black" points="312.65,-202.53 319.23,-194.23 308.91,-196.62 312.65,-202.53"/>
<text text-anchor="middle" x="341.34" y="-217.8" font-family="Times New Roman,serif" font-size="14.00">11.arch_prctl()</text>
</g>
<!-- Start&#45;&gt;1 -->
<g id="edge5" class="edge">
<title>Start&#45;&gt;1</title>
<path fill="none" stroke="black" d="M2237.93,-264.12C1891.01,-264.46 492.49,-263.67 406.34,-229 399.05,-226.07 386.29,-214.4 375.01,-203.08"/>
<polygon fill="black" stroke="black" points="377.37,-200.48 367.88,-195.78 372.37,-205.38 377.37,-200.48"/>
<text text-anchor="middle" x="457.84" y="-217.8" font-family="Times New Roman,serif" font-size="14.00">5.set_robust_list()</text>
</g>
<!-- Start&#45;&gt;1 -->
<g id="edge6" class="edge">
<title>Start&#45;&gt;1</title>
<path fill="none" stroke="black" d="M2238.21,-263.67C1906.56,-262.11 614.82,-254.4 532.34,-229 520.68,-225.41 520.59,-218.74 509.34,-214 482.99,-202.9 452.59,-195.08 425.61,-189.69"/>
<polygon fill="black" stroke="black" points="425.93,-186.19 415.45,-187.74 424.61,-193.06 425.93,-186.19"/>
<text text-anchor="middle" x="556.34" y="-217.8" font-family="Times New Roman,serif" font-size="14.00">6.futex()</text>
</g>
<!-- Start&#45;&gt;1 -->
<g id="edge7" class="edge">
<title>Start&#45;&gt;1</title>
<path fill="none" stroke="black" d="M2238.04,-263.6C1914.5,-261.8 682.27,-253.34 603.34,-229 591.68,-225.4 591.74,-218.36 580.34,-214 534.1,-196.32 479.35,-187.56 435.1,-183.22"/>
<polygon fill="black" stroke="black" points="435.23,-179.72 424.95,-182.28 434.59,-186.69 435.23,-179.72"/>
<text text-anchor="middle" x="657.34" y="-217.8" font-family="Times New Roman,serif" font-size="14.00">3.set_thread_area()</text>
</g>
<!-- Start&#45;&gt;1 -->
<g id="edge8" class="edge">
<title>Start&#45;&gt;1</title>
<path fill="none" stroke="black" d="M2238.09,-263.87C1942.93,-263.15 895.67,-258.53 749.34,-229 731.55,-225.41 729,-218.26 711.34,-214 619.04,-191.75 510.15,-183.58 436.69,-180.61"/>
<polygon fill="black" stroke="black" points="436.69,-177.11 426.57,-180.23 436.43,-184.11 436.69,-177.11"/>
<text text-anchor="middle" x="786.84" y="-217.8" font-family="Times New Roman,serif" font-size="14.00">12.munmap()</text>
</g>
<!-- 2 -->
<g id="node3" class="node">
<title>2</title>
<ellipse fill="none" stroke="black" cx="909.34" cy="-178" rx="59.29" ry="18"/>
<text text-anchor="middle" x="909.34" y="-174.3" font-family="Times New Roman,serif" font-size="14.00">/proc/net/dev</text>
</g>
<!-- Start&#45;&gt;2 -->
<g id="edge9" class="edge">
<title>Start&#45;&gt;2</title>
<path fill="none" stroke="black" d="M2238.11,-263.63C1936.99,-261.99 857.12,-254.36 832.34,-229 818.65,-214.98 835.87,-202.9 857.46,-194.12"/>
<polygon fill="black" stroke="black" points="858.78,-197.36 866.91,-190.57 856.32,-190.81 858.78,-197.36"/>
<text text-anchor="middle" x="859.84" y="-217.8" font-family="Times New Roman,serif" font-size="14.00">45.open()</text>
</g>
<!-- Start&#45;&gt;2 -->
<g id="edge10" class="edge">
<title>Start&#45;&gt;2</title>
<path fill="none" stroke="black" d="M2238.25,-263.51C1947.68,-261.48 933.93,-252.7 910.34,-229 904.42,-223.05 902.83,-214.46 903.14,-206.08"/>
<polygon fill="black" stroke="black" points="906.62,-206.48 904.31,-196.14 899.67,-205.67 906.62,-206.48"/>
<text text-anchor="middle" x="935.84" y="-217.8" font-family="Times New Roman,serif" font-size="14.00">47.read()</text>
</g>
<!-- Start&#45;&gt;2 -->
<g id="edge11" class="edge">
<title>Start&#45;&gt;2</title>
<path fill="none" stroke="black" d="M2237.92,-264.18C1973.28,-264.48 1114.5,-262.82 995.34,-229 984.25,-225.85 961.33,-212.38 941.94,-200.21"/>
<polygon fill="black" stroke="black" points="943.65,-197.16 933.33,-194.76 939.9,-203.07 943.65,-197.16"/>
<text text-anchor="middle" x="1022.84" y="-217.8" font-family="Times New Roman,serif" font-size="14.00">46.lseek()</text>
</g>
<!-- 3 -->
<g id="node4" class="node">
<title>3</title>
<ellipse fill="none" stroke="black" cx="1053.34" cy="-178" rx="64.19" ry="18"/>
<text text-anchor="middle" x="1053.34" y="-174.3" font-family="Times New Roman,serif" font-size="14.00">/sys/devices/.*</text>
</g>
<!-- Start&#45;&gt;3 -->
<g id="edge12" class="edge">
<title>Start&#45;&gt;3</title>
<path fill="none" stroke="black" d="M2238.06,-263.15C1968.45,-260 1084.71,-248.23 1062.34,-229 1055.78,-223.36 1052.93,-214.7 1051.91,-206.16"/>
<polygon fill="black" stroke="black" points="1055.39,-205.85 1051.44,-196.02 1048.4,-206.17 1055.39,-205.85"/>
<text text-anchor="middle" x="1087.84" y="-217.8" font-family="Times New Roman,serif" font-size="14.00">49.read()</text>
</g>
<!-- Start&#45;&gt;3 -->
<g id="edge13" class="edge">
<title>Start&#45;&gt;3</title>
<path fill="none" stroke="black" d="M2237.97,-263.64C1994.78,-262.23 1255.81,-255.78 1151.34,-229 1138.74,-225.77 1111.8,-211.82 1089.35,-199.47"/>
<polygon fill="black" stroke="black" points="1090.82,-196.28 1080.37,-194.49 1087.42,-202.4 1090.82,-196.28"/>
<text text-anchor="middle" x="1178.84" y="-217.8" font-family="Times New Roman,serif" font-size="14.00">48.open()</text>
</g>
<!-- 4 -->
<g id="node5" class="node">
<title>4</title>
<ellipse fill="none" stroke="black" cx="1261.34" cy="-178" rx="126.18" ry="18"/>
<text text-anchor="middle" x="1261.34" y="-174.3" font-family="Times New Roman,serif" font-size="14.00">Permission/Permission:[0&#45;9]{3}</text>
</g>
<!-- Start&#45;&gt;4 -->
<g id="edge14" class="edge">
<title>Start&#45;&gt;4</title>
<path fill="none" stroke="black" d="M2237.75,-264.46C1992.78,-265.51 1249.88,-265.68 1214.34,-229 1205.74,-220.12 1211.84,-210.22 1222.14,-201.59"/>
<polygon fill="black" stroke="black" points="1224.3,-204.34 1230.22,-195.56 1220.12,-198.73 1224.3,-204.34"/>
<text text-anchor="middle" x="1245.84" y="-217.8" font-family="Times New Roman,serif" font-size="14.00">24.umask()</text>
</g>
<!-- Start&#45;&gt;4 -->
<g id="edge15" class="edge">
<title>Start&#45;&gt;4</title>
<path fill="none" stroke="black" d="M2238.13,-263.81C2021.13,-262.91 1416.1,-257.83 1331.34,-229 1314.88,-223.4 1298.9,-212.54 1286.38,-202.37"/>
<polygon fill="black" stroke="black" points="1288.57,-199.64 1278.68,-195.85 1284.05,-204.99 1288.57,-199.64"/>
<text text-anchor="middle" x="1362.84" y="-217.8" font-family="Times New Roman,serif" font-size="14.00">25.umask()</text>
</g>
<!-- 5 -->
<g id="node6" class="node">
<title>5</title>
<ellipse fill="none" stroke="black" cx="1437.34" cy="-178" rx="31.7" ry="18"/>
<text text-anchor="middle" x="1437.34" y="-174.3" font-family="Times New Roman,serif" font-size="14.00">^sed$</text>
</g>
<!-- Start&#45;&gt;5 -->
<g id="edge16" class="edge">
<title>Start&#45;&gt;5</title>
<path fill="none" stroke="black" d="M2237.92,-263.92C2022.52,-263.31 1430.15,-258.93 1401.34,-229 1392.57,-219.88 1399.59,-208.52 1409.68,-198.93"/>
<polygon fill="black" stroke="black" points="1412.08,-201.48 1417.39,-192.31 1407.52,-196.17 1412.08,-201.48"/>
<text text-anchor="middle" x="1427.34" y="-217.8" font-family="Times New Roman,serif" font-size="14.00">20.exec()</text>
</g>
<!-- 6 -->
<g id="node7" class="node">
<title>6</title>
<ellipse fill="none" stroke="black" cx="1534.34" cy="-178" rx="45.49" ry="18"/>
<text text-anchor="middle" x="1534.34" y="-174.3" font-family="Times New Roman,serif" font-size="14.00">/proc/stat</text>
</g>
<!-- Start&#45;&gt;6 -->
<g id="edge17" class="edge">
<title>Start&#45;&gt;6</title>
<path fill="none" stroke="black" d="M2237.87,-263.7C2032.51,-262.52 1488,-256.77 1461.34,-229 1447.48,-214.55 1466.67,-201.85 1488.84,-192.87"/>
<polygon fill="black" stroke="black" points="1490.32,-196.05 1498.44,-189.25 1487.85,-189.5 1490.32,-196.05"/>
<text text-anchor="middle" x="1486.84" y="-217.8" font-family="Times New Roman,serif" font-size="14.00">52.read()</text>
</g>
<!-- Start&#45;&gt;6 -->
<g id="edge18" class="edge">
<title>Start&#45;&gt;6</title>
<path fill="none" stroke="black" d="M2238.05,-263.35C2045.78,-261.36 1559.61,-253.88 1535.34,-229 1529.55,-223.06 1527.94,-214.58 1528.2,-206.29"/>
<polygon fill="black" stroke="black" points="1531.71,-206.42 1529.36,-196.09 1524.76,-205.63 1531.71,-206.42"/>
<text text-anchor="middle" x="1562.84" y="-217.8" font-family="Times New Roman,serif" font-size="14.00">50.open()</text>
</g>
<!-- Start&#45;&gt;6 -->
<g id="edge19" class="edge">
<title>Start&#45;&gt;6</title>
<path fill="none" stroke="black" d="M2237.82,-264.28C2083.05,-264.13 1741,-260.16 1628.34,-229 1605.74,-222.75 1582.45,-210.41 1564.71,-199.56"/>
<polygon fill="black" stroke="black" points="1566.3,-196.42 1555.97,-194.05 1562.57,-202.34 1566.3,-196.42"/>
<text text-anchor="middle" x="1660.34" y="-217.8" font-family="Times New Roman,serif" font-size="14.00">51.fstat64()</text>
</g>
<!-- 7 -->
<g id="node8" class="node">
<title>7</title>
<ellipse fill="none" stroke="black" cx="2026.34" cy="-178" rx="104.78" ry="18"/>
<text text-anchor="middle" x="2026.34" y="-174.3" font-family="Times New Roman,serif" font-size="14.00">ip_addr/ip_addr:port/port</text>
</g>
<!-- Start&#45;&gt;7 -->
<g id="edge20" class="edge">
<title>Start&#45;&gt;7</title>
<path fill="none" stroke="black" d="M2238.66,-262.41C2077.83,-258.69 1718.56,-248.28 1700.34,-229 1668.68,-195.48 1805.89,-184.35 1912.01,-180.7"/>
<polygon fill="black" stroke="black" points="1912.3,-184.19 1922.18,-180.37 1912.07,-177.2 1912.3,-184.19"/>
<text text-anchor="middle" x="1732.34" y="-217.8" font-family="Times New Roman,serif" font-size="14.00">42.fstat64()</text>
</g>
<!-- Start&#45;&gt;7 -->
<g id="edge21" class="edge">
<title>Start&#45;&gt;7</title>
<path fill="none" stroke="black" d="M2237.95,-264.57C2098.68,-264.78 1817.44,-261.15 1787.34,-229 1782.79,-224.13 1782.99,-219.04 1787.34,-214 1804.12,-194.59 1859.46,-185.74 1912.67,-181.79"/>
<polygon fill="black" stroke="black" points="1913.19,-185.26 1922.92,-181.08 1912.71,-178.28 1913.19,-185.26"/>
<text text-anchor="middle" x="1821.34" y="-217.8" font-family="Times New Roman,serif" font-size="14.00">43.mmap2()</text>
</g>
<!-- Start&#45;&gt;7 -->
<g id="edge22" class="edge">
<title>Start&#45;&gt;7</title>
<path fill="none" stroke="black" d="M2238.18,-263.38C2119.22,-261.61 1902.19,-254.83 1878.34,-229 1857.4,-206.32 1884.35,-193.92 1920.73,-187.15"/>
<polygon fill="black" stroke="black" points="1921.41,-190.58 1930.68,-185.46 1920.24,-183.68 1921.41,-190.58"/>
<text text-anchor="middle" x="1913.84" y="-217.8" font-family="Times New Roman,serif" font-size="14.00">37.connect()</text>
</g>
<!-- Start&#45;&gt;7 -->
<g id="edge23" class="edge">
<title>Start&#45;&gt;7</title>
<path fill="none" stroke="black" d="M2239.33,-261.54C2143.74,-257.65 1989.9,-248.43 1972.34,-229 1963.51,-219.22 1970.57,-209.2 1982.15,-200.72"/>
<polygon fill="black" stroke="black" points="1984.27,-203.51 1990.74,-195.12 1980.45,-197.64 1984.27,-203.51"/>
<text text-anchor="middle" x="2016.34" y="-217.8" font-family="Times New Roman,serif" font-size="14.00">39._newselect()</text>
</g>
<!-- Start&#45;&gt;7 -->
<g id="edge24" class="edge">
<title>Start&#45;&gt;7</title>
<path fill="none" stroke="black" d="M2238.3,-263.21C2191.58,-260.15 2131.83,-251.53 2083.34,-229 2076.1,-225.63 2062.9,-214.21 2051.04,-203.14"/>
<polygon fill="black" stroke="black" points="2053.17,-200.34 2043.5,-196 2048.35,-205.42 2053.17,-200.34"/>
<text text-anchor="middle" x="2115.34" y="-217.8" font-family="Times New Roman,serif" font-size="14.00">41.fstat64()</text>
</g>
<!-- Start&#45;&gt;7 -->
<g id="edge25" class="edge">
<title>Start&#45;&gt;7</title>
<path fill="none" stroke="black" d="M2253.89,-254C2227.5,-248.48 2196.74,-240.39 2170.34,-229 2159.14,-224.16 2158.44,-219.08 2147.34,-214 2131.47,-206.73 2113.74,-200.59 2096.84,-195.58"/>
<polygon fill="black" stroke="black" points="2097.58,-192.15 2087,-192.76 2095.65,-198.88 2097.58,-192.15"/>
<text text-anchor="middle" x="2204.34" y="-217.8" font-family="Times New Roman,serif" font-size="14.00">44.mmap2()</text>
</g>
<!-- Start&#45;&gt;7 -->
<g id="edge26" class="edge">
<title>Start&#45;&gt;7</title>
<path fill="none" stroke="black" d="M2290.33,-247.81C2281.21,-241.9 2270.8,-235.15 2261.34,-229 2251.11,-222.35 2249.72,-218.42 2238.34,-214 2204.41,-200.81 2165.52,-192.59 2130.41,-187.46"/>
<polygon fill="black" stroke="black" points="2130.51,-183.94 2120.12,-186.04 2129.55,-190.88 2130.51,-183.94"/>
<text text-anchor="middle" x="2305.34" y="-217.8" font-family="Times New Roman,serif" font-size="14.00">40._newselect()</text>
</g>
<!-- Start&#45;&gt;7 -->
<g id="edge27" class="edge">
<title>Start&#45;&gt;7</title>
<path fill="none" stroke="black" d="M2337.81,-247.66C2349.13,-237.48 2358.67,-224.39 2349.34,-214 2335.08,-198.11 2224.7,-188.77 2136.88,-183.8"/>
<polygon fill="black" stroke="black" points="2137.02,-180.3 2126.84,-183.24 2136.63,-187.29 2137.02,-180.3"/>
<text text-anchor="middle" x="2388.84" y="-217.8" font-family="Times New Roman,serif" font-size="14.00">38.connect()</text>
</g>
<!-- 8 -->
<g id="node9" class="node">
<title>8</title>
<ellipse fill="none" stroke="black" cx="2506.34" cy="-178" rx="37.89" ry="18"/>
<text text-anchor="middle" x="2506.34" y="-174.3" font-family="Times New Roman,serif" font-size="14.00">^GID.*</text>
</g>
<!-- Start&#45;&gt;8 -->
<g id="edge28" class="edge">
<title>Start&#45;&gt;8</title>
<path fill="none" stroke="black" d="M2374.21,-253.17C2396.6,-247.71 2421.87,-239.88 2443.34,-229 2451.36,-224.94 2467.25,-212.32 2481.06,-200.77"/>
<polygon fill="black" stroke="black" points="2483.49,-203.3 2488.88,-194.17 2478.98,-197.95 2483.49,-203.3"/>
<text text-anchor="middle" x="2497.84" y="-217.8" font-family="Times New Roman,serif" font-size="14.00">18.getegid()</text>
</g>
<!-- Start&#45;&gt;8 -->
<g id="edge29" class="edge">
<title>Start&#45;&gt;8</title>
<path fill="none" stroke="black" d="M2391.74,-261.95C2447.07,-258.66 2515.23,-250.26 2533.34,-229 2540.11,-221.07 2536.69,-211.17 2530.34,-202.27"/>
<polygon fill="black" stroke="black" points="2532.96,-199.95 2523.89,-194.47 2527.57,-204.41 2532.96,-199.95"/>
<text text-anchor="middle" x="2567.84" y="-217.8" font-family="Times New Roman,serif" font-size="14.00">14.getgid()</text>
</g>
<!-- 9 -->
<g id="node10" class="node">
<title>9</title>
<ellipse fill="none" stroke="black" cx="2673.34" cy="-178" rx="36.29" ry="18"/>
<text text-anchor="middle" x="2673.34" y="-174.3" font-family="Times New Roman,serif" font-size="14.00">^PID.*</text>
</g>
<!-- Start&#45;&gt;9 -->
<g id="edge30" class="edge">
<title>Start&#45;&gt;9</title>
<path fill="none" stroke="black" d="M2388.67,-259.14C2460.52,-253.65 2564.58,-243.54 2602.34,-229 2619.31,-222.47 2636.05,-211 2649.01,-200.69"/>
<polygon fill="black" stroke="black" points="2651.45,-203.21 2656.94,-194.14 2647,-197.81 2651.45,-203.21"/>
<text text-anchor="middle" x="2664.84" y="-217.8" font-family="Times New Roman,serif" font-size="14.00">17.getppid()</text>
</g>
<!-- Start&#45;&gt;9 -->
<g id="edge31" class="edge">
<title>Start&#45;&gt;9</title>
<path fill="none" stroke="black" d="M2392.2,-262.52C2499.33,-259.64 2682.81,-251.47 2703.34,-229 2710.92,-220.71 2706.3,-210.22 2698.62,-200.98"/>
<polygon fill="black" stroke="black" points="2701.07,-198.48 2691.66,-193.6 2695.98,-203.28 2701.07,-198.48"/>
<text text-anchor="middle" x="2737.84" y="-217.8" font-family="Times New Roman,serif" font-size="14.00">15.getpid()</text>
</g>
<!-- 10 -->
<g id="node11" class="node">
<title>10</title>
<ellipse fill="none" stroke="black" cx="2860.34" cy="-178" rx="53.09" ry="18"/>
<text text-anchor="middle" x="2860.34" y="-174.3" font-family="Times New Roman,serif" font-size="14.00">/etc/rc.local</text>
</g>
<!-- Start&#45;&gt;10 -->
<g id="edge32" class="edge">
<title>Start&#45;&gt;10</title>
<path fill="none" stroke="black" d="M2391.84,-262.18C2502.99,-258.85 2703.38,-250.07 2772.34,-229 2793.05,-222.67 2814.2,-210.86 2830.58,-200.3"/>
<polygon fill="black" stroke="black" points="2832.76,-203.06 2839.15,-194.61 2828.89,-197.22 2832.76,-203.06"/>
<text text-anchor="middle" x="2839.84" y="-217.8" font-family="Times New Roman,serif" font-size="14.00">31.rename()</text>
</g>
<!-- Start&#45;&gt;10 -->
<g id="edge33" class="edge">
<title>Start&#45;&gt;10</title>
<path fill="none" stroke="black" d="M2391.65,-261.98C2541.45,-257.65 2860.97,-246.42 2877.34,-229 2883.62,-222.33 2882.41,-213.25 2878.6,-204.66"/>
<polygon fill="black" stroke="black" points="2881.55,-202.76 2873.68,-195.67 2875.41,-206.12 2881.55,-202.76"/>
<text text-anchor="middle" x="2909.84" y="-217.8" font-family="Times New Roman,serif" font-size="14.00">23.open()</text>
</g>
<!-- 11 -->
<g id="node12" class="node">
<title>11</title>
<ellipse fill="none" stroke="black" cx="3151.34" cy="-178" rx="94.78" ry="18"/>
<text text-anchor="middle" x="3151.34" y="-174.3" font-family="Times New Roman,serif" font-size="14.00">/etc/sed[0&#45;9a&#45;zA&#45;Z]{6}</text>
</g>
<!-- Start&#45;&gt;11 -->
<g id="edge34" class="edge">
<title>Start&#45;&gt;11</title>
<path fill="none" stroke="black" d="M2391.98,-262.39C2535.22,-258.94 2838.38,-249.42 2941.34,-229 2961.2,-225.06 2964.84,-219.42 2984.34,-214 3013.58,-205.87 3046.15,-198.65 3074.71,-192.9"/>
<polygon fill="black" stroke="black" points="3075.51,-196.31 3084.64,-190.93 3074.15,-189.45 3075.51,-196.31"/>
<text text-anchor="middle" x="3019.34" y="-217.8" font-family="Times New Roman,serif" font-size="14.00">30.fchmod()</text>
</g>
<!-- Start&#45;&gt;11 -->
<g id="edge35" class="edge">
<title>Start&#45;&gt;11</title>
<path fill="none" stroke="black" d="M2392.21,-262.64C2568.72,-259.19 2992.66,-248.94 3054.34,-229 3065.96,-225.25 3066.69,-219.96 3077.34,-214 3086.56,-208.85 3096.65,-203.74 3106.34,-199.08"/>
<polygon fill="black" stroke="black" points="3107.92,-202.21 3115.47,-194.77 3104.93,-195.88 3107.92,-202.21"/>
<text text-anchor="middle" x="3103.34" y="-217.8" font-family="Times New Roman,serif" font-size="14.00">26.fcntl()</text>
</g>
<!-- Start&#45;&gt;11 -->
<g id="edge36" class="edge">
<title>Start&#45;&gt;11</title>
<path fill="none" stroke="black" d="M2392.21,-262.88C2589.28,-259.72 3099.24,-249.58 3129.34,-229 3137.19,-223.63 3142.27,-214.8 3145.54,-206.04"/>
<polygon fill="black" stroke="black" points="3148.92,-206.96 3148.52,-196.37 3142.23,-204.9 3148.92,-206.96"/>
<text text-anchor="middle" x="3169.34" y="-217.8" font-family="Times New Roman,serif" font-size="14.00">28.write()</text>
</g>
<!-- Start&#45;&gt;11 -->
<g id="edge37" class="edge">
<title>Start&#45;&gt;11</title>
<path fill="none" stroke="black" d="M2392.57,-263.82C2602.99,-262.94 3172.57,-257.89 3200.34,-229 3209.24,-219.74 3202.45,-209.62 3191.41,-200.91"/>
<polygon fill="black" stroke="black" points="3193.42,-198.04 3183.23,-195.14 3189.38,-203.76 3193.42,-198.04"/>
<text text-anchor="middle" x="3230.84" y="-217.8" font-family="Times New Roman,serif" font-size="14.00">27.fstat()</text>
</g>
<!-- Start&#45;&gt;11 -->
<g id="edge38" class="edge">
<title>Start&#45;&gt;11</title>
<path fill="none" stroke="black" d="M2392.62,-264.02C2612.96,-263.71 3230.42,-260.05 3260.34,-229 3276.43,-212.31 3257.91,-200.68 3231.84,-192.87"/>
<polygon fill="black" stroke="black" points="3232.52,-189.42 3221.95,-190.16 3230.67,-196.17 3232.52,-189.42"/>
<text text-anchor="middle" x="3300.84" y="-217.8" font-family="Times New Roman,serif" font-size="14.00">29.fchown()</text>
</g>
<!-- 12 -->
<g id="node13" class="node">
<title>12</title>
<ellipse fill="none" stroke="black" cx="3386.34" cy="-91" rx="27" ry="18"/>
<text text-anchor="middle" x="3386.34" y="-87.3" font-family="Times New Roman,serif" font-size="14.00">NIC</text>
</g>
<!-- Start&#45;&gt;12 -->
<g id="edge39" class="edge">
<title>Start&#45;&gt;12</title>
<path fill="none" stroke="black" d="M2392.75,-263.74C2624.87,-262.64 3301.48,-257.03 3339.34,-229 3373.66,-203.6 3383.13,-151.62 3385.62,-119.5"/>
<polygon fill="black" stroke="black" points="3389.12,-119.62 3386.22,-109.43 3382.13,-119.2 3389.12,-119.62"/>
<text text-anchor="middle" x="3404.84" y="-174.3" font-family="Times New Roman,serif" font-size="14.00">36.read()</text>
</g>
<!-- 13 -->
<g id="node14" class="node">
<title>13</title>
<ellipse fill="none" stroke="black" cx="3498.34" cy="-178" rx="37.09" ry="18"/>
<text text-anchor="middle" x="3498.34" y="-174.3" font-family="Times New Roman,serif" font-size="14.00">^UID.*</text>
</g>
<!-- Start&#45;&gt;13 -->
<g id="edge40" class="edge">
<title>Start&#45;&gt;13</title>
<path fill="none" stroke="black" d="M2392.65,-263.9C2624.26,-263.28 3302.45,-258.89 3397.34,-229 3408.98,-225.33 3409.63,-219.85 3420.34,-214 3433.45,-206.84 3448.3,-199.91 3461.49,-194.12"/>
<polygon fill="black" stroke="black" points="3462.97,-197.3 3470.77,-190.13 3460.2,-190.87 3462.97,-197.3"/>
<text text-anchor="middle" x="3450.84" y="-217.8" font-family="Times New Roman,serif" font-size="14.00">13.getuid()</text>
</g>
<!-- Start&#45;&gt;13 -->
<g id="edge41" class="edge">
<title>Start&#45;&gt;13</title>
<path fill="none" stroke="black" d="M2393,-264.08C2646.74,-264.04 3437.63,-261.31 3481.34,-229 3488.66,-223.59 3492.86,-214.87 3495.26,-206.21"/>
<polygon fill="black" stroke="black" points="3498.71,-206.79 3497.32,-196.28 3491.86,-205.36 3498.71,-206.79"/>
<text text-anchor="middle" x="3525.84" y="-217.8" font-family="Times New Roman,serif" font-size="14.00">16.geteuid()</text>
</g>
<!-- 14 -->
<g id="node15" class="node">
<title>14</title>
<ellipse fill="none" stroke="black" cx="3618.34" cy="-178" rx="27.1" ry="18"/>
<text text-anchor="middle" x="3618.34" y="-174.3" font-family="Times New Roman,serif" font-size="14.00">^sh$</text>
</g>
<!-- Start&#45;&gt;14 -->
<g id="edge42" class="edge">
<title>Start&#45;&gt;14</title>
<path fill="none" stroke="black" d="M2392.79,-263.31C2656.93,-260.76 3509.03,-250.88 3563.34,-229 3577.46,-223.31 3590.24,-212.25 3599.93,-201.98"/>
<polygon fill="black" stroke="black" points="3602.66,-204.17 3606.7,-194.38 3597.43,-199.52 3602.66,-204.17"/>
<text text-anchor="middle" x="3616.84" y="-217.8" font-family="Times New Roman,serif" font-size="14.00">9.waitpid()</text>
</g>
<!-- Start&#45;&gt;14 -->
<g id="edge43" class="edge">
<title>Start&#45;&gt;14</title>
<path fill="none" stroke="black" d="M2392.49,-263.42C2673.8,-261.12 3629.26,-251.67 3651.34,-229 3660.02,-220.09 3653.4,-208.6 3643.88,-198.89"/>
<polygon fill="black" stroke="black" points="3645.97,-196.05 3636.23,-191.87 3641.23,-201.21 3645.97,-196.05"/>
<text text-anchor="middle" x="3680.34" y="-217.8" font-family="Times New Roman,serif" font-size="14.00">8.clone()</text>
</g>
<!-- 15 -->
<g id="node16" class="node">
<title>15</title>
<ellipse fill="none" stroke="black" cx="3753.34" cy="-178" rx="61.19" ry="18"/>
<text text-anchor="middle" x="3753.34" y="-174.3" font-family="Times New Roman,serif" font-size="14.00">/dev/urandom</text>
</g>
<!-- Start&#45;&gt;15 -->
<g id="edge44" class="edge">
<title>Start&#45;&gt;15</title>
<path fill="none" stroke="black" d="M2392.95,-263.77C2677.39,-262.69 3649.48,-256.98 3709.34,-229 3720.85,-223.62 3730.58,-213.66 3737.94,-204.03"/>
<polygon fill="black" stroke="black" points="3740.86,-205.96 3743.79,-195.78 3735.15,-201.92 3740.86,-205.96"/>
<text text-anchor="middle" x="3752.84" y="-217.8" font-family="Times New Roman,serif" font-size="14.00">35.read()</text>
</g>
<!-- Start&#45;&gt;15 -->
<g id="edge45" class="edge">
<title>Start&#45;&gt;15</title>
<path fill="none" stroke="black" d="M2392.51,-263.61C2691.44,-261.9 3757.87,-254.07 3782.34,-229 3789.72,-221.45 3786.14,-211.66 3779.36,-202.75"/>
<polygon fill="black" stroke="black" points="3781.99,-200.44 3772.77,-195.22 3776.72,-205.05 3781.99,-200.44"/>
<text text-anchor="middle" x="3813.84" y="-217.8" font-family="Times New Roman,serif" font-size="14.00">34.open()</text>
</g>
<!-- 16 -->
<g id="node17" class="node">
<title>16</title>
<ellipse fill="none" stroke="black" cx="3845.34" cy="-18" rx="57.39" ry="18"/>
<text text-anchor="middle" x="3845.34" y="-14.3" font-family="Times New Roman,serif" font-size="14.00">/etc/rc.*.d/.*</text>
</g>
<!-- Start&#45;&gt;16 -->
<g id="edge46" class="edge">
<title>Start&#45;&gt;16</title>
<path fill="none" stroke="black" d="M2392.66,-263.68C2699.99,-262.25 3819.71,-255.22 3845.34,-229 3869.97,-203.81 3857.42,-96.98 3849.78,-46.12"/>
<polygon fill="black" stroke="black" points="3853.23,-45.52 3848.24,-36.17 3846.31,-46.59 3853.23,-45.52"/>
<text text-anchor="middle" x="3886.84" y="-130.8" font-family="Times New Roman,serif" font-size="14.00">32.open()</text>
</g>
<!-- 17 -->
<g id="node18" class="node">
<title>17</title>
<ellipse fill="none" stroke="black" cx="3927.34" cy="-178" rx="53.89" ry="18"/>
<text text-anchor="middle" x="3927.34" y="-174.3" font-family="Times New Roman,serif" font-size="14.00">/etc/init.d/.*</text>
</g>
<!-- Start&#45;&gt;17 -->
<g id="edge47" class="edge">
<title>Start&#45;&gt;17</title>
<path fill="none" stroke="black" d="M2392.46,-263.42C2706.46,-260.93 3873.56,-250.24 3905.34,-229 3913.25,-223.72 3918.34,-214.9 3921.6,-206.13"/>
<polygon fill="black" stroke="black" points="3924.99,-207.03 3924.57,-196.44 3918.29,-204.98 3924.99,-207.03"/>
<text text-anchor="middle" x="3944.84" y="-217.8" font-family="Times New Roman,serif" font-size="14.00">33.open()</text>
</g>
<!-- 18 -->
<g id="node19" class="node">
<title>18</title>
<ellipse fill="none" stroke="black" cx="4017.34" cy="-91" rx="46.29" ry="18"/>
<text text-anchor="middle" x="4017.34" y="-87.3" font-family="Times New Roman,serif" font-size="14.00">/.*bin/sed</text>
</g>
<!-- Start&#45;&gt;18 -->
<g id="edge48" class="edge">
<title>Start&#45;&gt;18</title>
<path fill="none" stroke="black" d="M2392.61,-263.51C2715.69,-261.3 3943.17,-251.47 3976.34,-229 4011.43,-205.23 4017.96,-152.25 4018.41,-119.58"/>
<polygon fill="black" stroke="black" points="4021.91,-119.33 4018.36,-109.35 4014.91,-119.36 4021.91,-119.33"/>
<text text-anchor="middle" x="4037.34" y="-174.3" font-family="Times New Roman,serif" font-size="14.00">19.stat()</text>
</g>
<!-- 19 -->
<g id="node20" class="node">
<title>19</title>
<ellipse fill="none" stroke="black" cx="4126.34" cy="-178" rx="44.69" ry="18"/>
<text text-anchor="middle" x="4126.34" y="-174.3" font-family="Times New Roman,serif" font-size="14.00">.*/selinux</text>
</g>
<!-- Start&#45;&gt;19 -->
<g id="edge49" class="edge">
<title>Start&#45;&gt;19</title>
<path fill="none" stroke="black" d="M2392.52,-263.6C2714.77,-261.76 3939.86,-253.21 4018.34,-229 4030.01,-225.4 4030.54,-219.68 4041.34,-214 4055.12,-206.76 4070.73,-199.95 4084.78,-194.31"/>
<polygon fill="black" stroke="black" points="4086.19,-197.51 4094.22,-190.59 4083.63,-191 4086.19,-197.51"/>
<text text-anchor="middle" x="4073.34" y="-217.8" font-family="Times New Roman,serif" font-size="14.00">22.access()</text>
</g>
<!-- Start&#45;&gt;19 -->
<g id="edge50" class="edge">
<title>Start&#45;&gt;19</title>
<path fill="none" stroke="black" d="M2392.55,-263.63C2731.12,-261.87 4069.41,-253.39 4105.34,-229 4113.16,-223.7 4118.07,-214.88 4121.16,-206.11"/>
<polygon fill="black" stroke="black" points="4124.54,-207 4123.92,-196.43 4117.81,-205.08 4124.54,-207"/>
<text text-anchor="middle" x="4145.84" y="-217.8" font-family="Times New Roman,serif" font-size="14.00">21.statfs()</text>
</g>
<!-- 20 -->
<g id="node21" class="node">
<title>20</title>
<ellipse fill="none" stroke="black" cx="4199.34" cy="-18" rx="45.49" ry="18"/>
<text text-anchor="middle" x="4199.34" y="-14.3" font-family="Times New Roman,serif" font-size="14.00">/proc/self</text>
</g>
<!-- Start&#45;&gt;20 -->
<g id="edge51" class="edge">
<title>Start&#45;&gt;20</title>
<path fill="none" stroke="black" d="M2392.67,-263.94C2740.53,-263.48 4145.01,-259.74 4178.34,-229 4228.84,-182.43 4216.64,-91.45 4206.49,-46.08"/>
<polygon fill="black" stroke="black" points="4209.84,-45.01 4204.12,-36.09 4203.02,-46.63 4209.84,-45.01"/>
<text text-anchor="middle" x="4247.34" y="-130.8" font-family="Times New Roman,serif" font-size="14.00">7.readlink()</text>
</g>
<!-- 21 -->
<g id="node22" class="node">
<title>21</title>
<ellipse fill="none" stroke="black" cx="4269.34" cy="-178" rx="42.49" ry="18"/>
<text text-anchor="middle" x="4269.34" y="-174.3" font-family="Times New Roman,serif" font-size="14.00">^uname$</text>
</g>
<!-- Start&#45;&gt;21 -->
<g id="edge52" class="edge">
<title>Start&#45;&gt;21</title>
<path fill="none" stroke="black" d="M2392.87,-264.07C2738.71,-264.22 4127.43,-262.68 4213.34,-229 4227.27,-223.54 4239.96,-212.93 4249.73,-202.88"/>
<polygon fill="black" stroke="black" points="4252.41,-205.14 4256.6,-195.4 4247.26,-200.4 4252.41,-205.14"/>
<text text-anchor="middle" x="4260.34" y="-217.8" font-family="Times New Roman,serif" font-size="14.00">1.exec()</text>
</g>
</g>
</svg>
