<?xml version="1.0" encoding="UTF-8" standalone="no"?>
<!DOCTYPE svg PUBLIC "-//W3C//DTD SVG 1.1//EN"
 "http://www.w3.org/Graphics/SVG/1.1/DTD/svg11.dtd">
<!-- Generated by graphviz version 6.0.1 (20220911.1526)
 -->
<!-- Pages: 1 -->
<svg width="1043pt" height="131pt"
 viewBox="0.00 0.00 1043.14 131.00" xmlns="http://www.w3.org/2000/svg" xmlns:xlink="http://www.w3.org/1999/xlink">
<g id="graph0" class="graph" transform="scale(1 1) rotate(0) translate(4 127)">
<polygon fill="white" stroke="none" points="-4,4 -4,-127 1039.14,-127 1039.14,4 -4,4"/>
<!-- Start -->
<g id="node1" class="node">
<title>Start</title>
<ellipse fill="none" stroke="black" cx="521.84" cy="-105" rx="77.19" ry="18"/>
<text text-anchor="middle" x="521.84" y="-101.3" font-family="Times New Roman,serif" font-size="14.00">Malware (Subject)</text>
</g>
<!-- 1 -->
<g id="node2" class="node">
<title>1</title>
<ellipse fill="none" stroke="black" cx="57.84" cy="-18" rx="57.69" ry="18"/>
<text text-anchor="middle" x="57.84" y="-14.3" font-family="Times New Roman,serif" font-size="14.00">/proc/rs_dev</text>
</g>
<!-- Start&#45;&gt;1 -->
<g id="edge1" class="edge">
<title>Start&#45;&gt;1</title>
<path fill="none" stroke="black" d="M446,-101.37C330.73,-96.84 121.62,-86.34 91.84,-69 82.32,-63.45 74.89,-54.04 69.44,-44.88"/>
<polygon fill="black" stroke="black" points="72.45,-43.09 64.64,-35.94 66.29,-46.4 72.45,-43.09"/>
<text text-anchor="middle" x="114.84" y="-57.8" font-family="Times New Roman,serif" font-size="14.00">20.open</text>
</g>
<!-- 2 -->
<g id="node3" class="node">
<title>2</title>
<ellipse fill="none" stroke="black" cx="174.84" cy="-18" rx="40.89" ry="18"/>
<text text-anchor="middle" x="174.84" y="-14.3" font-family="Times New Roman,serif" font-size="14.00">/var/run/</text>
</g>
<!-- Start&#45;&gt;2 -->
<g id="edge2" class="edge">
<title>Start&#45;&gt;2</title>
<path fill="none" stroke="black" d="M444.98,-102.29C340.59,-99.17 164.63,-90.71 144.84,-69 137.39,-60.82 141.78,-50.5 149.25,-41.36"/>
<polygon fill="black" stroke="black" points="151.82,-43.75 156.07,-34.04 146.69,-38.98 151.82,-43.75"/>
<text text-anchor="middle" x="167.84" y="-57.8" font-family="Times New Roman,serif" font-size="14.00">52.open</text>
</g>
<!-- Start&#45;&gt;2 -->
<g id="edge4" class="edge">
<title>Start&#45;&gt;2</title>
<path fill="none" stroke="black" d="M448.07,-99.35C377.15,-94.08 275.49,-84.2 238.84,-69 223.61,-62.68 208.93,-51.69 197.48,-41.63"/>
<polygon fill="black" stroke="black" points="199.85,-39.04 190.11,-34.87 195.12,-44.21 199.85,-39.04"/>
<text text-anchor="middle" x="261.34" y="-57.8" font-family="Times New Roman,serif" font-size="14.00">60.write</text>
</g>
<!-- 3 -->
<g id="node4" class="node">
<title>3</title>
<ellipse fill="none" stroke="black" cx="280.84" cy="-18" rx="46.59" ry="18"/>
<text text-anchor="middle" x="280.84" y="-14.3" font-family="Times New Roman,serif" font-size="14.00">/etc/init.d/</text>
</g>
<!-- Start&#45;&gt;3 -->
<g id="edge3" class="edge">
<title>Start&#45;&gt;3</title>
<path fill="none" stroke="black" d="M446.93,-100.51C390.8,-96.42 320.03,-87.65 297.84,-69 291.06,-63.3 286.97,-54.77 284.52,-46.36"/>
<polygon fill="black" stroke="black" points="287.88,-45.35 282.26,-36.37 281.05,-46.9 287.88,-45.35"/>
<text text-anchor="middle" x="320.84" y="-57.8" font-family="Times New Roman,serif" font-size="14.00">13.open</text>
</g>
<!-- 4 -->
<g id="node5" class="node">
<title>4</title>
<ellipse fill="none" stroke="black" cx="379.84" cy="-18" rx="27.1" ry="18"/>
<text text-anchor="middle" x="379.84" y="-14.3" font-family="Times New Roman,serif" font-size="14.00">/run/</text>
</g>
<!-- Start&#45;&gt;4 -->
<g id="edge5" class="edge">
<title>Start&#45;&gt;4</title>
<path fill="none" stroke="black" d="M449.71,-98.28C408.9,-93.38 363.54,-84.55 350.84,-69 343.61,-60.13 348.58,-49.24 356.31,-39.89"/>
<polygon fill="black" stroke="black" points="358.97,-42.17 363.25,-32.47 353.86,-37.38 358.97,-42.17"/>
<text text-anchor="middle" x="373.84" y="-57.8" font-family="Times New Roman,serif" font-size="14.00">51.open</text>
</g>
<!-- Start&#45;&gt;4 -->
<g id="edge8" class="edge">
<title>Start&#45;&gt;4</title>
<path fill="none" stroke="black" d="M478.88,-89.84C464.67,-84.3 449.11,-77.27 435.84,-69 423.28,-61.16 410.84,-50.43 400.88,-40.92"/>
<polygon fill="black" stroke="black" points="403.06,-38.15 393.48,-33.63 398.15,-43.14 403.06,-38.15"/>
<text text-anchor="middle" x="458.34" y="-57.8" font-family="Times New Roman,serif" font-size="14.00">59.write</text>
</g>
<!-- 5 -->
<g id="node6" class="node">
<title>5</title>
<ellipse fill="none" stroke="black" cx="486.84" cy="-18" rx="55.49" ry="18"/>
<text text-anchor="middle" x="486.84" y="-14.3" font-family="Times New Roman,serif" font-size="14.00">^chkconfig$</text>
</g>
<!-- Start&#45;&gt;5 -->
<g id="edge6" class="edge">
<title>Start&#45;&gt;5</title>
<path fill="none" stroke="black" d="M500.85,-87.45C495.63,-82.17 490.72,-75.88 487.84,-69 484.94,-62.03 483.89,-54.02 483.77,-46.49"/>
<polygon fill="black" stroke="black" points="487.28,-46.43 484.13,-36.31 480.28,-46.18 487.28,-46.43"/>
<text text-anchor="middle" x="511.84" y="-57.8" font-family="Times New Roman,serif" font-size="14.00">27.clone</text>
</g>
<!-- 6 -->
<g id="node7" class="node">
<title>6</title>
<ellipse fill="none" stroke="black" cx="606.84" cy="-18" rx="27" ry="18"/>
<text text-anchor="middle" x="606.84" y="-14.3" font-family="Times New Roman,serif" font-size="14.00">/var/</text>
</g>
<!-- Start&#45;&gt;6 -->
<g id="edge7" class="edge">
<title>Start&#45;&gt;6</title>
<path fill="none" stroke="black" d="M532.67,-86.77C539.5,-76.63 548.88,-63.89 558.84,-54 564.92,-47.97 572.09,-42.17 579.02,-37.09"/>
<polygon fill="black" stroke="black" points="581.41,-39.69 587.57,-31.07 577.38,-33.97 581.41,-39.69"/>
<text text-anchor="middle" x="581.84" y="-57.8" font-family="Times New Roman,serif" font-size="14.00">53.open</text>
</g>
<!-- Start&#45;&gt;6 -->
<g id="edge9" class="edge">
<title>Start&#45;&gt;6</title>
<path fill="none" stroke="black" d="M575.06,-91.89C586.67,-86.74 597.63,-79.41 604.84,-69 609.39,-62.45 610.93,-54.16 611.04,-46.24"/>
<polygon fill="black" stroke="black" points="614.53,-45.99 610.49,-36.19 607.54,-46.37 614.53,-45.99"/>
<text text-anchor="middle" x="633.34" y="-57.8" font-family="Times New Roman,serif" font-size="14.00">61.write</text>
</g>
<!-- 7 -->
<g id="node8" class="node">
<title>7</title>
<ellipse fill="none" stroke="black" cx="763.84" cy="-18" rx="32.49" ry="18"/>
<text text-anchor="middle" x="763.84" y="-14.3" font-family="Times New Roman,serif" font-size="14.00">/proc/</text>
</g>
<!-- Start&#45;&gt;7 -->
<g id="edge10" class="edge">
<title>Start&#45;&gt;7</title>
<path fill="none" stroke="black" d="M577.67,-92.52C603.1,-86.61 633.36,-78.62 659.84,-69 673.79,-63.94 706.4,-48 731.42,-35.47"/>
<polygon fill="black" stroke="black" points="733.22,-38.48 740.58,-30.86 730.07,-32.22 733.22,-38.48"/>
<text text-anchor="middle" x="716.84" y="-57.8" font-family="Times New Roman,serif" font-size="14.00">19.open</text>
</g>
<!-- Start&#45;&gt;7 -->
<g id="edge12" class="edge">
<title>Start&#45;&gt;7</title>
<path fill="none" stroke="black" d="M595.85,-99.76C650.61,-95.26 719.41,-86.3 741.84,-69 749.37,-63.19 754.38,-54.26 757.68,-45.55"/>
<polygon fill="black" stroke="black" points="761.03,-46.57 760.74,-35.98 754.36,-44.45 761.03,-46.57"/>
<text text-anchor="middle" x="781.34" y="-57.8" font-family="Times New Roman,serif" font-size="14.00">68.access</text>
</g>
<!-- Start&#45;&gt;7 -->
<g id="edge14" class="edge">
<title>Start&#45;&gt;7</title>
<path fill="none" stroke="black" d="M596.33,-100.1C677.77,-95.07 798.66,-84.99 812.84,-69 823.02,-57.52 811.25,-45.21 796.7,-35.67"/>
<polygon fill="black" stroke="black" points="798.33,-32.57 787.96,-30.4 794.72,-38.56 798.33,-32.57"/>
<text text-anchor="middle" x="844.34" y="-57.8" font-family="Times New Roman,serif" font-size="14.00">1.readlink</text>
</g>
<!-- 8 -->
<g id="node9" class="node">
<title>8</title>
<ellipse fill="none" stroke="black" cx="919.84" cy="-18" rx="42.79" ry="18"/>
<text text-anchor="middle" x="919.84" y="-14.3" font-family="Times New Roman,serif" font-size="14.00">/etc/cron</text>
</g>
<!-- Start&#45;&gt;8 -->
<g id="edge11" class="edge">
<title>Start&#45;&gt;8</title>
<path fill="none" stroke="black" d="M599.04,-102.91C688.35,-100.53 829.13,-92.95 875.84,-69 886.87,-63.34 896.38,-53.66 903.71,-44.31"/>
<polygon fill="black" stroke="black" points="906.74,-46.09 909.8,-35.94 901.08,-41.97 906.74,-46.09"/>
<text text-anchor="middle" x="917.84" y="-57.8" font-family="Times New Roman,serif" font-size="14.00">16.open</text>
</g>
<!-- 9 -->
<g id="node10" class="node">
<title>9</title>
<ellipse fill="none" stroke="black" cx="1007.84" cy="-18" rx="27.1" ry="18"/>
<text text-anchor="middle" x="1007.84" y="-14.3" font-family="Times New Roman,serif" font-size="14.00">^sh$</text>
</g>
<!-- Start&#45;&gt;9 -->
<g id="edge13" class="edge">
<title>Start&#45;&gt;9</title>
<path fill="none" stroke="black" d="M598.74,-102.95C703.18,-100.62 883.86,-93.13 944.84,-69 960.46,-62.82 975.3,-51.42 986.66,-41.06"/>
<polygon fill="black" stroke="black" points="989.1,-43.56 993.93,-34.13 984.27,-38.49 989.1,-43.56"/>
<text text-anchor="middle" x="992.84" y="-57.8" font-family="Times New Roman,serif" font-size="14.00">23.clone</text>
</g>
</g>
</svg>
