<?xml version="1.0" encoding="UTF-8" standalone="no"?>
<!DOCTYPE svg PUBLIC "-//W3C//DTD SVG 1.1//EN"
 "http://www.w3.org/Graphics/SVG/1.1/DTD/svg11.dtd">
<!-- Generated by graphviz version 6.0.1 (20220911.1526)
 -->
<!-- Pages: 1 -->
<svg width="1076pt" height="131pt"
 viewBox="0.00 0.00 1076.37 131.00" xmlns="http://www.w3.org/2000/svg" xmlns:xlink="http://www.w3.org/1999/xlink">
<g id="graph0" class="graph" transform="scale(1 1) rotate(0) translate(4 127)">
<polygon fill="white" stroke="none" points="-4,4 -4,-127 1072.37,-127 1072.37,4 -4,4"/>
<!-- Start -->
<g id="node1" class="node">
<title>Start</title>
<ellipse fill="none" stroke="black" cx="489.12" cy="-105" rx="77.19" ry="18"/>
<text text-anchor="middle" x="489.12" y="-101.3" font-family="Times New Roman,serif" font-size="14.00">Malware (Subject)</text>
</g>
<!-- 1 -->
<g id="node2" class="node">
<title>1</title>
<ellipse fill="none" stroke="black" cx="40.12" cy="-18" rx="27.1" ry="18"/>
<text text-anchor="middle" x="40.12" y="-14.3" font-family="Times New Roman,serif" font-size="14.00">/run/</text>
</g>
<!-- Start&#45;&gt;1 -->
<g id="edge1" class="edge">
<title>Start&#45;&gt;1</title>
<path fill="none" stroke="black" d="M411.66,-104.06C281.7,-103.34 31.24,-98.15 4.12,-69 -4.73,-59.48 2.93,-47.74 13.42,-38.02"/>
<polygon fill="black" stroke="black" points="15.95,-40.47 21.37,-31.37 11.45,-35.1 15.95,-40.47"/>
<text text-anchor="middle" x="41.12" y="-57.8" font-family="Times New Roman,serif" font-size="14.00">7.resolv.conf</text>
</g>
<!-- Start&#45;&gt;1 -->
<g id="edge2" class="edge">
<title>Start&#45;&gt;1</title>
<path fill="none" stroke="black" d="M414.04,-100.61C323.52,-95.86 177.05,-85.85 125.12,-69 103.69,-62.04 81.82,-49.02 65.64,-38.01"/>
<polygon fill="black" stroke="black" points="67.47,-35.02 57.27,-32.15 63.45,-40.76 67.47,-35.02"/>
<text text-anchor="middle" x="150.62" y="-57.8" font-family="Times New Roman,serif" font-size="14.00">29.create</text>
</g>
<!-- 2 -->
<g id="node3" class="node">
<title>2</title>
<ellipse fill="none" stroke="black" cx="149.12" cy="-18" rx="27.1" ry="18"/>
<text text-anchor="middle" x="149.12" y="-14.3" font-family="Times New Roman,serif" font-size="14.00">^sh$</text>
</g>
<!-- Start&#45;&gt;2 -->
<g id="edge3" class="edge">
<title>Start&#45;&gt;2</title>
<path fill="none" stroke="black" d="M414.07,-100.38C341.32,-95.89 236.73,-86.6 200.12,-69 187.42,-62.9 175.95,-52.36 167.11,-42.53"/>
<polygon fill="black" stroke="black" points="169.77,-40.25 160.62,-34.9 164.43,-44.78 169.77,-40.25"/>
<text text-anchor="middle" x="220.12" y="-57.8" font-family="Times New Roman,serif" font-size="14.00">34.find</text>
</g>
<!-- 3 -->
<g id="node4" class="node">
<title>3</title>
<ellipse fill="none" stroke="black" cx="237.12" cy="-18" rx="42.79" ry="18"/>
<text text-anchor="middle" x="237.12" y="-14.3" font-family="Times New Roman,serif" font-size="14.00">/etc/cron</text>
</g>
<!-- Start&#45;&gt;3 -->
<g id="edge4" class="edge">
<title>Start&#45;&gt;3</title>
<path fill="none" stroke="black" d="M413.53,-101.14C354.22,-97.4 277.83,-88.79 254.12,-69 247.31,-63.32 243.22,-54.8 240.77,-46.39"/>
<polygon fill="black" stroke="black" points="244.13,-45.38 238.51,-36.39 237.3,-46.92 244.13,-45.38"/>
<text text-anchor="middle" x="275.62" y="-57.8" font-family="Times New Roman,serif" font-size="14.00">21.pass</text>
</g>
<!-- 4 -->
<g id="node5" class="node">
<title>4</title>
<ellipse fill="none" stroke="black" cx="339.12" cy="-18" rx="40.89" ry="18"/>
<text text-anchor="middle" x="339.12" y="-14.3" font-family="Times New Roman,serif" font-size="14.00">/var/run/</text>
</g>
<!-- Start&#45;&gt;4 -->
<g id="edge5" class="edge">
<title>Start&#45;&gt;4</title>
<path fill="none" stroke="black" d="M415.12,-99.47C370.01,-94.99 318.35,-86.18 304.12,-69 296.71,-60.05 302.07,-49.59 310.62,-40.56"/>
<polygon fill="black" stroke="black" points="313.07,-43.06 317.98,-33.68 308.29,-37.95 313.07,-43.06"/>
<text text-anchor="middle" x="329.62" y="-57.8" font-family="Times New Roman,serif" font-size="14.00">31.create</text>
</g>
<!-- Start&#45;&gt;4 -->
<g id="edge10" class="edge">
<title>Start&#45;&gt;4</title>
<path fill="none" stroke="black" d="M442.06,-90.67C426.22,-85.16 408.85,-77.94 394.12,-69 382.11,-61.71 370.36,-51.58 360.83,-42.34"/>
<polygon fill="black" stroke="black" points="363.24,-39.79 353.7,-35.19 358.29,-44.74 363.24,-39.79"/>
<text text-anchor="middle" x="422.12" y="-57.8" font-family="Times New Roman,serif" font-size="14.00">6.m6_6n3</text>
</g>
<!-- 5 -->
<g id="node6" class="node">
<title>5</title>
<ellipse fill="none" stroke="black" cx="456.12" cy="-18" rx="57.69" ry="18"/>
<text text-anchor="middle" x="456.12" y="-14.3" font-family="Times New Roman,serif" font-size="14.00">/proc/rs_dev</text>
</g>
<!-- Start&#45;&gt;5 -->
<g id="edge6" class="edge">
<title>Start&#45;&gt;5</title>
<path fill="none" stroke="black" d="M469.34,-87.26C464.43,-81.97 459.81,-75.73 457.12,-69 454.32,-61.99 453.3,-53.96 453.19,-46.43"/>
<polygon fill="black" stroke="black" points="456.69,-46.37 453.53,-36.26 449.69,-46.14 456.69,-46.37"/>
<text text-anchor="middle" x="478.62" y="-57.8" font-family="Times New Roman,serif" font-size="14.00">16.have</text>
</g>
<!-- 6 -->
<g id="node7" class="node">
<title>6</title>
<ellipse fill="none" stroke="black" cx="596.12" cy="-18" rx="32.49" ry="18"/>
<text text-anchor="middle" x="596.12" y="-14.3" font-family="Times New Roman,serif" font-size="14.00">/proc/</text>
</g>
<!-- Start&#45;&gt;6 -->
<g id="edge7" class="edge">
<title>Start&#45;&gt;6</title>
<path fill="none" stroke="black" d="M497.66,-87.01C503.64,-76.44 512.46,-63.17 523.12,-54 533.73,-44.87 547.14,-37.55 559.56,-32.01"/>
<polygon fill="black" stroke="black" points="560.94,-35.22 568.8,-28.12 558.23,-28.77 560.94,-35.22"/>
<text text-anchor="middle" x="548.62" y="-57.8" font-family="Times New Roman,serif" font-size="14.00">14.check</text>
</g>
<!-- Start&#45;&gt;6 -->
<g id="edge11" class="edge">
<title>Start&#45;&gt;6</title>
<path fill="none" stroke="black" d="M538.35,-91.06C551.19,-85.85 564.19,-78.7 574.12,-69 580.66,-62.62 585.39,-53.96 588.75,-45.65"/>
<polygon fill="black" stroke="black" points="592.06,-46.79 592.09,-36.19 585.46,-44.46 592.06,-46.79"/>
<text text-anchor="middle" x="603.62" y="-57.8" font-family="Times New Roman,serif" font-size="14.00">28.call</text>
</g>
<!-- Start&#45;&gt;6 -->
<g id="edge12" class="edge">
<title>Start&#45;&gt;6</title>
<path fill="none" stroke="black" d="M554.13,-95.13C584.87,-89.47 616.86,-80.92 626.12,-69 632.94,-60.22 628.39,-49.77 620.96,-40.7"/>
<polygon fill="black" stroke="black" points="623.3,-38.08 613.91,-33.16 618.19,-42.86 623.3,-38.08"/>
<text text-anchor="middle" x="651.62" y="-57.8" font-family="Times New Roman,serif" font-size="14.00">17.have</text>
</g>
<!-- 7 -->
<g id="node8" class="node">
<title>7</title>
<ellipse fill="none" stroke="black" cx="761.12" cy="-18" rx="27" ry="18"/>
<text text-anchor="middle" x="761.12" y="-14.3" font-family="Times New Roman,serif" font-size="14.00">/var/</text>
</g>
<!-- Start&#45;&gt;7 -->
<g id="edge8" class="edge">
<title>Start&#45;&gt;7</title>
<path fill="none" stroke="black" d="M558.57,-97.01C594.75,-91.91 639.22,-83.29 677.12,-69 697.89,-61.17 719.36,-48.29 735.4,-37.57"/>
<polygon fill="black" stroke="black" points="737.43,-40.41 743.71,-31.87 733.48,-34.64 737.43,-40.41"/>
<text text-anchor="middle" x="746.12" y="-57.8" font-family="Times New Roman,serif" font-size="14.00">8.resolv.conf</text>
</g>
<!-- Start&#45;&gt;7 -->
<g id="edge9" class="edge">
<title>Start&#45;&gt;7</title>
<path fill="none" stroke="black" d="M563.91,-100.32C647.31,-95.43 772.49,-85.45 787.12,-69 794.46,-60.74 790.27,-50.04 783.29,-40.66"/>
<polygon fill="black" stroke="black" points="785.79,-38.21 776.65,-32.85 780.46,-42.74 785.79,-38.21"/>
<text text-anchor="middle" x="816.62" y="-57.8" font-family="Times New Roman,serif" font-size="14.00">30.create</text>
</g>
<!-- 8 -->
<g id="node9" class="node">
<title>8</title>
<ellipse fill="none" stroke="black" cx="893.12" cy="-18" rx="46.59" ry="18"/>
<text text-anchor="middle" x="893.12" y="-14.3" font-family="Times New Roman,serif" font-size="14.00">/etc/init.d/</text>
</g>
<!-- Start&#45;&gt;8 -->
<g id="edge13" class="edge">
<title>Start&#45;&gt;8</title>
<path fill="none" stroke="black" d="M566.04,-102.74C655.94,-100.17 798.48,-92.43 846.12,-69 857.7,-63.31 867.89,-53.49 875.8,-44.05"/>
<polygon fill="black" stroke="black" points="878.72,-45.99 882.13,-35.96 873.21,-41.67 878.72,-45.99"/>
<text text-anchor="middle" x="888.62" y="-57.8" font-family="Times New Roman,serif" font-size="14.00">20.drop</text>
</g>
<!-- 9 -->
<g id="node10" class="node">
<title>9</title>
<ellipse fill="none" stroke="black" cx="1013.12" cy="-18" rx="55.49" ry="18"/>
<text text-anchor="middle" x="1013.12" y="-14.3" font-family="Times New Roman,serif" font-size="14.00">^chkconfig$</text>
</g>
<!-- Start&#45;&gt;9 -->
<g id="edge14" class="edge">
<title>Start&#45;&gt;9</title>
<path fill="none" stroke="black" d="M565.09,-101.3C669.43,-96.98 851.41,-87.1 915.12,-69 938.33,-62.4 962.5,-50.14 981.03,-39.41"/>
<polygon fill="black" stroke="black" points="982.83,-42.41 989.64,-34.3 979.25,-36.39 982.83,-42.41"/>
<text text-anchor="middle" x="975.62" y="-57.8" font-family="Times New Roman,serif" font-size="14.00">27.install</text>
</g>
</g>
</svg>
