<?xml version="1.0" encoding="UTF-8" standalone="no"?>
<!DOCTYPE svg PUBLIC "-//W3C//DTD SVG 1.1//EN"
 "http://www.w3.org/Graphics/SVG/1.1/DTD/svg11.dtd">
<!-- Generated by graphviz version 6.0.1 (20220911.1526)
 -->
<!-- Pages: 1 -->
<svg width="4745pt" height="392pt"
 viewBox="0.00 0.00 4744.50 392.00" xmlns="http://www.w3.org/2000/svg" xmlns:xlink="http://www.w3.org/1999/xlink">
<g id="graph0" class="graph" transform="scale(1 1) rotate(0) translate(4 388)">
<polygon fill="white" stroke="none" points="-4,4 -4,-388 4740.5,-388 4740.5,4 -4,4"/>
<!-- 0 -->
<g id="node1" class="node">
<title>0</title>
<ellipse fill="lightgrey" stroke="black" cx="4301.5" cy="-366" rx="40.09" ry="18"/>
<text text-anchor="middle" x="4301.5" y="-362.3" font-family="Times New Roman,serif" font-size="14.00">malware</text>
</g>
<!-- 1 -->
<g id="node2" class="node">
<title>1</title>
<polygon fill="lightgrey" stroke="black" points="2457.78,-110.56 2365.5,-123 2273.22,-110.56 2308.47,-90.44 2422.53,-90.44 2457.78,-110.56"/>
<text text-anchor="middle" x="2365.5" y="-101.3" font-family="Times New Roman,serif" font-size="14.00">Memory Address</text>
</g>
<!-- 0&#45;&gt;1 -->
<g id="edge1" class="edge">
<title>0&#45;&gt;1</title>
<path fill="none" stroke="black" d="M4292.29,-348.08C4279.36,-322.16 4258.58,-271.09 4269.5,-228 4279.91,-186.92 4338.25,-171.17 4308.5,-141 4295.88,-128.2 3032.47,-123.36 3014.5,-123 2819.75,-119.09 2592.17,-112.71 2464.85,-108.98"/>
<polygon fill="black" stroke="black" points="2464.82,-105.48 2454.72,-108.68 2464.62,-112.48 2464.82,-105.48"/>
<text text-anchor="middle" x="4291" y="-231.8" font-family="Times New Roman,serif" font-size="14.00">1. brk()</text>
</g>
<!-- 0&#45;&gt;1 -->
<g id="edge2" class="edge">
<title>0&#45;&gt;1</title>
<path fill="none" stroke="black" d="M4304.89,-348.03C4314.61,-298.34 4341,-155.7 4326.5,-141 4313.7,-128.03 3032.72,-123.36 3014.5,-123 2819.75,-119.11 2592.17,-112.73 2464.85,-108.99"/>
<polygon fill="black" stroke="black" points="2464.82,-105.48 2454.72,-108.69 2464.62,-112.48 2464.82,-105.48"/>
<text text-anchor="middle" x="4361.5" y="-231.8" font-family="Times New Roman,serif" font-size="14.00">2. mprotect()</text>
</g>
<!-- 0&#45;&gt;1 -->
<g id="edge3" class="edge">
<title>0&#45;&gt;1</title>
<path fill="none" stroke="black" d="M4261.19,-364.06C4113.06,-360.56 3584.85,-347.53 3149.5,-330 2871.83,-318.82 798.32,-393.79 654.5,-156 651.05,-150.3 649.83,-145.75 654.5,-141 675.17,-119.98 1686.03,-123.64 1715.5,-123 1910.82,-118.79 2139.11,-112.5 2266.54,-108.87"/>
<polygon fill="black" stroke="black" points="2266.77,-112.37 2276.67,-108.58 2266.57,-105.37 2266.77,-112.37"/>
<text text-anchor="middle" x="871" y="-231.8" font-family="Times New Roman,serif" font-size="14.00">3. arch_prctl()</text>
</g>
<!-- 0&#45;&gt;1 -->
<g id="edge4" class="edge">
<title>0&#45;&gt;1</title>
<path fill="none" stroke="black" d="M4266.11,-357.36C4130.72,-328.43 3632.29,-224.68 3216.5,-174 3100.2,-159.82 3066.1,-188.39 2953.5,-156 2939.93,-152.1 2939.08,-144.86 2925.5,-141 2841.06,-116.98 2597.93,-109.44 2461.42,-107.07"/>
<polygon fill="black" stroke="black" points="2461.43,-103.57 2451.38,-106.9 2461.32,-110.57 2461.43,-103.57"/>
<text text-anchor="middle" x="3701.5" y="-231.8" font-family="Times New Roman,serif" font-size="14.00">4. munmap()</text>
</g>
<!-- 2 -->
<g id="node3" class="node">
<title>2</title>
<polygon fill="lightgrey" stroke="black" points="4141.5,-36 4007.5,-36 4007.5,0 4141.5,0 4141.5,-36"/>
<text text-anchor="middle" x="4074.5" y="-14.3" font-family="Times New Roman,serif" font-size="14.00">/var/run/haldrund.pid</text>
</g>
<!-- 0&#45;&gt;2 -->
<g id="edge5" class="edge">
<title>0&#45;&gt;2</title>
<path fill="none" stroke="black" d="M4330.76,-353.61C4337.48,-351.4 4344.66,-349.35 4351.5,-348 4414.85,-335.5 4585.4,-361.96 4641.5,-330 4664.85,-316.7 4675.5,-306.87 4675.5,-280 4675.5,-280 4675.5,-280 4675.5,-104 4675.5,-47.59 4245.96,-46.22 4151.76,-35.75"/>
<polygon fill="black" stroke="black" points="4151.95,-32.24 4141.57,-34.35 4151,-39.18 4151.95,-32.24"/>
<text text-anchor="middle" x="4706" y="-188.3" font-family="Times New Roman,serif" font-size="14.00">5. access()</text>
</g>
<!-- 3 -->
<g id="node4" class="node">
<title>3</title>
<polygon fill="lightgrey" stroke="black" points="4445.5,-123 4403.5,-123 4403.5,-127 4391.5,-127 4391.5,-87 4445.5,-87 4445.5,-123"/>
<polyline fill="none" stroke="black" points="4391.5,-123 4403.5,-123"/>
<text text-anchor="middle" x="4418.5" y="-101.3" font-family="Times New Roman,serif" font-size="14.00">UID:0</text>
</g>
<!-- 0&#45;&gt;3 -->
<g id="edge6" class="edge">
<title>0&#45;&gt;3</title>
<path fill="none" stroke="black" d="M4331.7,-353.98C4338.18,-351.83 4345.03,-349.71 4351.5,-348 4392.62,-337.13 4406.99,-348.06 4445.5,-330 4464.51,-321.08 4582.53,-228.99 4591.5,-210 4619.46,-150.82 4514.52,-122.63 4455.73,-111.72"/>
<polygon fill="black" stroke="black" points="4456.14,-108.23 4445.68,-109.94 4454.92,-115.13 4456.14,-108.23"/>
<text text-anchor="middle" x="4603.5" y="-231.8" font-family="Times New Roman,serif" font-size="14.00">6. getuid()</text>
</g>
<!-- 4 -->
<g id="node5" class="node">
<title>4</title>
<ellipse fill="lightgrey" stroke="black" cx="2727.5" cy="-279" rx="27" ry="18"/>
<text text-anchor="middle" x="2727.5" y="-275.3" font-family="Times New Roman,serif" font-size="14.00">sh</text>
</g>
<!-- 0&#45;&gt;4 -->
<g id="edge7" class="edge">
<title>0&#45;&gt;4</title>
<path fill="none" stroke="black" d="M4261.8,-362.86C4042.02,-350.99 2976.53,-293.45 2764.31,-281.99"/>
<polygon fill="black" stroke="black" points="2764.47,-278.49 2754.3,-281.45 2764.09,-285.48 2764.47,-278.49"/>
<text text-anchor="middle" x="3636.5" y="-318.8" font-family="Times New Roman,serif" font-size="14.00">7. clone()</text>
</g>
<!-- 0&#45;&gt;4 -->
<g id="edge8" class="edge">
<title>0&#45;&gt;4</title>
<path fill="none" stroke="black" d="M4261.25,-364.09C4131.23,-361.03 3710.84,-350.12 3363.5,-330 3135.43,-316.79 2861.99,-292.41 2764.36,-283.43"/>
<polygon fill="black" stroke="black" points="2764.41,-279.92 2754.13,-282.49 2763.77,-286.89 2764.41,-279.92"/>
<text text-anchor="middle" x="3390" y="-318.8" font-family="Times New Roman,serif" font-size="14.00">8. wait4()</text>
</g>
<!-- 5 -->
<g id="node6" class="node">
<title>5</title>
<polygon fill="lightgrey" stroke="black" points="4647,-297 4560,-297 4560,-301 4548,-301 4548,-261 4647,-261 4647,-297"/>
<polyline fill="none" stroke="black" points="4548,-297 4560,-297"/>
<text text-anchor="middle" x="4597.5" y="-275.3" font-family="Times New Roman,serif" font-size="14.00">Sleep Duration</text>
</g>
<!-- 0&#45;&gt;5 -->
<g id="edge9" class="edge">
<title>0&#45;&gt;5</title>
<path fill="none" stroke="black" d="M4331.06,-353.7C4337.7,-351.52 4344.78,-349.45 4351.5,-348 4430.94,-330.8 4458.04,-360.22 4533.5,-330 4548.14,-324.14 4562.21,-313.85 4573.4,-304.13"/>
<polygon fill="black" stroke="black" points="4575.96,-306.53 4581.02,-297.22 4571.26,-301.35 4575.96,-306.53"/>
<text text-anchor="middle" x="4598" y="-318.8" font-family="Times New Roman,serif" font-size="14.00">9. nanosleep()</text>
</g>
<!-- 6 -->
<g id="node7" class="node">
<title>6</title>
<polygon fill="lightgrey" stroke="black" points="3536,-123 3489,-123 3489,-127 3477,-127 3477,-87 3536,-87 3536,-123"/>
<polyline fill="none" stroke="black" points="3477,-123 3489,-123"/>
<text text-anchor="middle" x="3506.5" y="-101.3" font-family="Times New Roman,serif" font-size="14.00">status:0</text>
</g>
<!-- 0&#45;&gt;6 -->
<g id="edge10" class="edge">
<title>0&#45;&gt;6</title>
<path fill="none" stroke="black" d="M4323.73,-350.66C4331.99,-344.79 4341.13,-337.59 4348.5,-330 4381.41,-296.13 4395.29,-288.03 4409.5,-243 4411.51,-236.64 4412.42,-233.99 4409.5,-228 4403.81,-216.33 4394.32,-220.36 4386.5,-210 4366.57,-183.58 4385.57,-160.05 4358.5,-141 4350.09,-135.08 3714.22,-113.06 3546.62,-107.36"/>
<polygon fill="black" stroke="black" points="3546.61,-103.85 3536.49,-107.01 3546.37,-110.85 3546.61,-103.85"/>
<text text-anchor="middle" x="4456" y="-231.8" font-family="Times New Roman,serif" font-size="14.00">10. exit_group()</text>
</g>
<!-- 4&#45;&gt;1 -->
<g id="edge11" class="edge">
<title>4&#45;&gt;1</title>
<path fill="none" stroke="black" d="M2700.52,-277.84C2611.69,-277.01 2329.14,-272.12 2243.5,-243 2218.29,-234.43 2206.12,-233.45 2193.5,-210 2185.92,-195.91 2182.61,-185.72 2193.5,-174 2230.35,-134.32 2399.65,-195.68 2436.5,-156 2449.04,-142.49 2433.41,-130.48 2413.65,-121.62"/>
<polygon fill="black" stroke="black" points="2414.95,-118.37 2404.37,-117.77 2412.27,-124.83 2414.95,-118.37"/>
<text text-anchor="middle" x="2218" y="-188.3" font-family="Times New Roman,serif" font-size="14.00">11. brk()</text>
</g>
<!-- 4&#45;&gt;1 -->
<g id="edge12" class="edge">
<title>4&#45;&gt;1</title>
<path fill="none" stroke="black" d="M2700.38,-277.38C2621.53,-275.32 2393.48,-267.35 2323.5,-243 2298.35,-234.25 2286.12,-233.45 2273.5,-210 2212.89,-97.39 2404.88,-209.72 2453.5,-156 2467.92,-140.07 2448.49,-127.95 2424.25,-119.64"/>
<polygon fill="black" stroke="black" points="2425.01,-116.2 2414.42,-116.53 2422.9,-122.88 2425.01,-116.2"/>
<text text-anchor="middle" x="2314" y="-188.3" font-family="Times New Roman,serif" font-size="14.00">12. mprotect()</text>
</g>
<!-- 4&#45;&gt;1 -->
<g id="edge13" class="edge">
<title>4&#45;&gt;1</title>
<path fill="none" stroke="black" d="M2749.25,-268.06C2759.17,-262.27 2769.94,-253.94 2775.5,-243 2788.16,-218.11 2762.51,-182.88 2749.5,-174 2706.25,-144.46 2565.81,-166.53 2514.5,-156 2494.26,-151.84 2490.08,-147.6 2470.5,-141 2451.21,-134.5 2429.9,-127.38 2411.54,-121.27"/>
<polygon fill="black" stroke="black" points="2412.56,-117.92 2401.97,-118.09 2410.35,-124.56 2412.56,-117.92"/>
<text text-anchor="middle" x="2819.5" y="-188.3" font-family="Times New Roman,serif" font-size="14.00">13. arch_prctl()</text>
</g>
<!-- 4&#45;&gt;1 -->
<g id="edge14" class="edge">
<title>4&#45;&gt;1</title>
<path fill="none" stroke="black" d="M2754.26,-276.19C2832.11,-270.04 3048.74,-246.13 2979.5,-174 2962.56,-156.35 2563.3,-161.67 2539.5,-156 2523.83,-152.27 2521.72,-146.3 2506.5,-141 2480.53,-131.96 2451.11,-124.27 2425.88,-118.42"/>
<polygon fill="black" stroke="black" points="2426.6,-115 2416.07,-116.19 2425.05,-121.82 2426.6,-115"/>
<text text-anchor="middle" x="3033" y="-188.3" font-family="Times New Roman,serif" font-size="14.00">14. munmap()</text>
</g>
<!-- 4&#45;&gt;3 -->
<g id="edge15" class="edge">
<title>4&#45;&gt;3</title>
<path fill="none" stroke="black" d="M2754.63,-277.71C2947.68,-275.52 4109.87,-260.29 4257.5,-210 4309.04,-192.44 4360.46,-154.85 4390.87,-130"/>
<polygon fill="black" stroke="black" points="4393.41,-132.43 4398.87,-123.35 4388.94,-127.05 4393.41,-132.43"/>
<text text-anchor="middle" x="4359.5" y="-188.3" font-family="Times New Roman,serif" font-size="14.00">15. getuid()</text>
</g>
<!-- 4&#45;&gt;3 -->
<g id="edge18" class="edge">
<title>4&#45;&gt;3</title>
<path fill="none" stroke="black" d="M2754.47,-278C2976.21,-277.9 4491.12,-276.02 4523.5,-243 4542.4,-223.72 4482.68,-163.71 4445.65,-129.86"/>
<polygon fill="black" stroke="black" points="4447.89,-127.17 4438.13,-123.06 4443.19,-132.36 4447.89,-127.17"/>
<text text-anchor="middle" x="4552.5" y="-188.3" font-family="Times New Roman,serif" font-size="14.00">18. geteuid()</text>
</g>
<!-- 4&#45;&gt;6 -->
<g id="edge29" class="edge">
<title>4&#45;&gt;6</title>
<path fill="none" stroke="black" d="M2754.7,-277.99C2946.87,-277.67 4094.97,-270.89 4190.5,-156 4194.76,-150.87 4195.09,-145.83 4190.5,-141 4179.34,-129.25 3690.98,-112.13 3546.41,-107.31"/>
<polygon fill="black" stroke="black" points="3546.33,-103.8 3536.22,-106.97 3546.1,-110.8 3546.33,-103.8"/>
<text text-anchor="middle" x="4208" y="-188.3" font-family="Times New Roman,serif" font-size="14.00">29. exit_group()</text>
</g>
<!-- 7 -->
<g id="node8" class="node">
<title>7</title>
<polygon fill="lightgrey" stroke="black" points="2417.5,-210 2375.5,-210 2375.5,-214 2363.5,-214 2363.5,-174 2417.5,-174 2417.5,-210"/>
<polyline fill="none" stroke="black" points="2363.5,-210 2375.5,-210"/>
<text text-anchor="middle" x="2390.5" y="-188.3" font-family="Times New Roman,serif" font-size="14.00">GID:0</text>
</g>
<!-- 4&#45;&gt;7 -->
<g id="edge16" class="edge">
<title>4&#45;&gt;7</title>
<path fill="none" stroke="black" d="M2700.11,-278.03C2633.35,-277.61 2464.36,-273.48 2418.5,-243 2410.1,-237.42 2403.97,-228.42 2399.62,-219.59"/>
<polygon fill="black" stroke="black" points="2402.75,-218.02 2395.57,-210.23 2396.33,-220.8 2402.75,-218.02"/>
<text text-anchor="middle" x="2450.5" y="-231.8" font-family="Times New Roman,serif" font-size="14.00">16. getgid()</text>
</g>
<!-- 4&#45;&gt;7 -->
<g id="edge22" class="edge">
<title>4&#45;&gt;7</title>
<path fill="none" stroke="black" d="M2700.44,-277.67C2615.19,-276.37 2356.38,-270.17 2331.5,-243 2319.5,-229.89 2335.68,-216.98 2354.1,-207.55"/>
<polygon fill="black" stroke="black" points="2355.68,-210.68 2363.22,-203.22 2352.68,-204.35 2355.68,-210.68"/>
<text text-anchor="middle" x="2366.5" y="-231.8" font-family="Times New Roman,serif" font-size="14.00">22. getegid()</text>
</g>
<!-- 8 -->
<g id="node9" class="node">
<title>8</title>
<polygon fill="lightgrey" stroke="black" points="2505,-210 2448,-210 2448,-214 2436,-214 2436,-174 2505,-174 2505,-210"/>
<polyline fill="none" stroke="black" points="2436,-210 2448,-210"/>
<text text-anchor="middle" x="2470.5" y="-188.3" font-family="Times New Roman,serif" font-size="14.00">PID:1518</text>
</g>
<!-- 4&#45;&gt;8 -->
<g id="edge17" class="edge">
<title>4&#45;&gt;8</title>
<path fill="none" stroke="black" d="M2700.33,-276.73C2647.16,-273.8 2531.75,-265.01 2499.5,-243 2491.1,-237.27 2484.81,-228.24 2480.27,-219.42"/>
<polygon fill="black" stroke="black" points="2483.35,-217.75 2476.01,-210.1 2476.98,-220.65 2483.35,-217.75"/>
<text text-anchor="middle" x="2532" y="-231.8" font-family="Times New Roman,serif" font-size="14.00">17. getpid()</text>
</g>
<!-- 9 -->
<g id="node10" class="node">
<title>9</title>
<polygon fill="lightgrey" stroke="black" points="2592,-210 2535,-210 2535,-214 2523,-214 2523,-174 2592,-174 2592,-210"/>
<polyline fill="none" stroke="black" points="2523,-210 2535,-210"/>
<text text-anchor="middle" x="2557.5" y="-188.3" font-family="Times New Roman,serif" font-size="14.00">PID:1517</text>
</g>
<!-- 4&#45;&gt;9 -->
<g id="edge19" class="edge">
<title>4&#45;&gt;9</title>
<path fill="none" stroke="black" d="M2700.32,-278.68C2667.7,-278.07 2613.09,-272.25 2578.5,-243 2571.47,-237.06 2566.75,-228.36 2563.6,-219.88"/>
<polygon fill="black" stroke="black" points="2566.9,-218.71 2560.57,-210.21 2560.22,-220.8 2566.9,-218.71"/>
<text text-anchor="middle" x="2615" y="-231.8" font-family="Times New Roman,serif" font-size="14.00">19. getppid()</text>
</g>
<!-- 10 -->
<g id="node11" class="node">
<title>10</title>
<polygon fill="lightgrey" stroke="black" points="2668.5,-210 2610.5,-210 2610.5,-174 2668.5,-174 2668.5,-210"/>
<text text-anchor="middle" x="2639.5" y="-188.3" font-family="Times New Roman,serif" font-size="14.00">/prober</text>
</g>
<!-- 4&#45;&gt;10 -->
<g id="edge20" class="edge">
<title>4&#45;&gt;10</title>
<path fill="none" stroke="black" d="M2704.89,-268.75C2692.42,-262.81 2677.32,-254.11 2666.5,-243 2659.97,-236.3 2654.57,-227.69 2650.36,-219.52"/>
<polygon fill="black" stroke="black" points="2653.42,-217.8 2645.97,-210.26 2647.09,-220.8 2653.42,-217.8"/>
<text text-anchor="middle" x="2691.5" y="-231.8" font-family="Times New Roman,serif" font-size="14.00">20. stat()</text>
</g>
<!-- 11 -->
<g id="node12" class="node">
<title>11</title>
<polygon fill="lightgrey" stroke="black" points="2740.5,-210 2686.5,-210 2686.5,-174 2740.5,-174 2740.5,-210"/>
<text text-anchor="middle" x="2713.5" y="-188.3" font-family="Times New Roman,serif" font-size="14.00">.</text>
</g>
<!-- 4&#45;&gt;11 -->
<g id="edge21" class="edge">
<title>4&#45;&gt;11</title>
<path fill="none" stroke="black" d="M2724.67,-260.8C2722.75,-249.16 2720.18,-233.55 2717.99,-220.24"/>
<polygon fill="black" stroke="black" points="2721.41,-219.47 2716.33,-210.18 2714.5,-220.61 2721.41,-219.47"/>
<text text-anchor="middle" x="2746.5" y="-231.8" font-family="Times New Roman,serif" font-size="14.00">21. stat()</text>
</g>
<!-- 12 -->
<g id="node13" class="node">
<title>12</title>
<ellipse fill="lightgrey" stroke="black" cx="1781.5" cy="-192" rx="36.29" ry="18"/>
<text text-anchor="middle" x="1781.5" y="-188.3" font-family="Times New Roman,serif" font-size="14.00">/bin/rm</text>
</g>
<!-- 4&#45;&gt;12 -->
<g id="edge23" class="edge">
<title>4&#45;&gt;12</title>
<path fill="none" stroke="black" d="M2700.34,-277.95C2607.97,-277.49 2297.61,-273.6 2043.5,-243 1965.06,-233.55 1874.79,-214.49 1823.31,-202.82"/>
<polygon fill="black" stroke="black" points="1824.07,-199.41 1813.54,-200.59 1822.51,-206.23 1824.07,-199.41"/>
<text text-anchor="middle" x="2071.5" y="-231.8" font-family="Times New Roman,serif" font-size="14.00">23. exec()</text>
</g>
<!-- 13 -->
<g id="node14" class="node">
<title>13</title>
<ellipse fill="lightgrey" stroke="black" cx="2926.5" cy="-192" rx="43.59" ry="18"/>
<text text-anchor="middle" x="2926.5" y="-188.3" font-family="Times New Roman,serif" font-size="14.00">NO_PID</text>
</g>
<!-- 4&#45;&gt;13 -->
<g id="edge24" class="edge">
<title>4&#45;&gt;13</title>
<path fill="none" stroke="black" d="M2749.56,-268.58C2782.91,-254.33 2846.64,-227.11 2887.82,-209.52"/>
<polygon fill="black" stroke="black" points="2889.44,-212.63 2897.26,-205.49 2886.69,-206.2 2889.44,-212.63"/>
<text text-anchor="middle" x="2869.5" y="-231.8" font-family="Times New Roman,serif" font-size="14.00">24. wait4()</text>
</g>
<!-- 14 -->
<g id="node15" class="node">
<title>14</title>
<ellipse fill="lightgrey" stroke="black" cx="802.5" cy="-192" rx="36.29" ry="18"/>
<text text-anchor="middle" x="802.5" y="-188.3" font-family="Times New Roman,serif" font-size="14.00">/bin/cp</text>
</g>
<!-- 4&#45;&gt;14 -->
<g id="edge25" class="edge">
<title>4&#45;&gt;14</title>
<path fill="none" stroke="black" d="M2700.37,-276.91C2595.75,-272.69 2208.45,-257 1889.5,-243 1486.32,-225.31 999.11,-202.33 848.85,-195.2"/>
<polygon fill="black" stroke="black" points="848.78,-191.69 838.62,-194.72 848.45,-198.69 848.78,-191.69"/>
<text text-anchor="middle" x="1917.5" y="-231.8" font-family="Times New Roman,serif" font-size="14.00">25. exec()</text>
</g>
<!-- 15 -->
<g id="node16" class="node">
<title>15</title>
<ellipse fill="lightgrey" stroke="black" cx="3155.5" cy="-192" rx="51.99" ry="18"/>
<text text-anchor="middle" x="3155.5" y="-188.3" font-family="Times New Roman,serif" font-size="14.00">/bin/chmod</text>
</g>
<!-- 4&#45;&gt;15 -->
<g id="edge26" class="edge">
<title>4&#45;&gt;15</title>
<path fill="none" stroke="black" d="M2754.54,-276.9C2806.66,-274.31 2924.39,-266.19 3020.5,-243 3053.39,-235.06 3089.25,-221.54 3115.73,-210.55"/>
<polygon fill="black" stroke="black" points="3117.19,-213.74 3125.05,-206.64 3114.47,-207.29 3117.19,-213.74"/>
<text text-anchor="middle" x="3098.5" y="-231.8" font-family="Times New Roman,serif" font-size="14.00">26. exec()</text>
</g>
<!-- 16 -->
<g id="node17" class="node">
<title>16</title>
<ellipse fill="lightgrey" stroke="black" cx="3796.5" cy="-192" rx="94.48" ry="18"/>
<text text-anchor="middle" x="3796.5" y="-188.3" font-family="Times New Roman,serif" font-size="14.00">/dev/shm/kdmtmpflush</text>
</g>
<!-- 4&#45;&gt;16 -->
<g id="edge27" class="edge">
<title>4&#45;&gt;16</title>
<path fill="none" stroke="black" d="M2754.19,-275.88C2885.89,-265.41 3469.39,-219.01 3701.15,-200.58"/>
<polygon fill="black" stroke="black" points="3701.56,-204.06 3711.25,-199.78 3701,-197.08 3701.56,-204.06"/>
<text text-anchor="middle" x="3354.5" y="-231.8" font-family="Times New Roman,serif" font-size="14.00">27. exec()</text>
</g>
<!-- 17 -->
<g id="node18" class="node">
<title>17</title>
<ellipse fill="lightgrey" stroke="black" cx="2107.5" cy="-192" rx="36.29" ry="18"/>
<text text-anchor="middle" x="2107.5" y="-188.3" font-family="Times New Roman,serif" font-size="14.00">/bin/rm</text>
</g>
<!-- 4&#45;&gt;17 -->
<g id="edge28" class="edge">
<title>4&#45;&gt;17</title>
<path fill="none" stroke="black" d="M2700.39,-277.47C2583.86,-275.06 2130.51,-264.36 2109.5,-243 2103.67,-237.08 2101.92,-228.6 2102.01,-220.31"/>
<polygon fill="black" stroke="black" points="2105.52,-220.38 2102.95,-210.11 2098.55,-219.75 2105.52,-220.38"/>
<text text-anchor="middle" x="2137.5" y="-231.8" font-family="Times New Roman,serif" font-size="14.00">28. exec()</text>
</g>
<!-- 12&#45;&gt;1 -->
<g id="edge30" class="edge">
<title>12&#45;&gt;1</title>
<path fill="none" stroke="black" d="M1750.55,-182.06C1724.61,-173.09 1694.22,-158.18 1710.5,-141 1729.35,-121.11 2090.26,-111.34 2268.11,-107.72"/>
<polygon fill="black" stroke="black" points="2268.33,-111.22 2278.25,-107.52 2268.19,-104.22 2268.33,-111.22"/>
<text text-anchor="middle" x="1735" y="-144.8" font-family="Times New Roman,serif" font-size="14.00">30. brk()</text>
</g>
<!-- 12&#45;&gt;1 -->
<g id="edge31" class="edge">
<title>12&#45;&gt;1</title>
<path fill="none" stroke="black" d="M1776.56,-173.95C1774.55,-163.09 1774.32,-149.51 1782.5,-141 1798.99,-123.84 2104.88,-113.02 2266.8,-108.48"/>
<polygon fill="black" stroke="black" points="2267.36,-111.96 2277.26,-108.19 2267.16,-104.97 2267.36,-111.96"/>
<text text-anchor="middle" x="1823" y="-144.8" font-family="Times New Roman,serif" font-size="14.00">31. mprotect()</text>
</g>
<!-- 12&#45;&gt;1 -->
<g id="edge32" class="edge">
<title>12&#45;&gt;1</title>
<path fill="none" stroke="black" d="M1807.98,-179.62C1841.57,-165.22 1895.72,-142.15 1900.5,-141 1967.16,-124.94 2149.19,-114.81 2264.73,-109.79"/>
<polygon fill="black" stroke="black" points="2265.16,-113.28 2275,-109.35 2264.86,-106.28 2265.16,-113.28"/>
<text text-anchor="middle" x="1944.5" y="-144.8" font-family="Times New Roman,serif" font-size="14.00">32. arch_prctl()</text>
</g>
<!-- 12&#45;&gt;1 -->
<g id="edge33" class="edge">
<title>12&#45;&gt;1</title>
<path fill="none" stroke="black" d="M1744.96,-190.95C1686.71,-189.99 1576.87,-184.38 1552.5,-156 1548.16,-150.94 1547.89,-145.81 1552.5,-141 1564.7,-128.26 2052.73,-114.1 2266.69,-108.48"/>
<polygon fill="black" stroke="black" points="2267.08,-111.98 2276.98,-108.21 2266.89,-104.98 2267.08,-111.98"/>
<text text-anchor="middle" x="1592" y="-144.8" font-family="Times New Roman,serif" font-size="14.00">33. munmap()</text>
</g>
<!-- 12&#45;&gt;6 -->
<g id="edge35" class="edge">
<title>12&#45;&gt;6</title>
<path fill="none" stroke="black" d="M1817.4,-188.3C1870.81,-184.42 1974.35,-177.33 2062.5,-174 2128.79,-171.5 3193.99,-178.23 3256.5,-156 3266.64,-152.4 3265.63,-145.28 3275.5,-141 3338.46,-113.68 3419.11,-107.19 3466.56,-105.92"/>
<polygon fill="black" stroke="black" points="3466.8,-109.42 3476.73,-105.72 3466.66,-102.42 3466.8,-109.42"/>
<text text-anchor="middle" x="3321" y="-144.8" font-family="Times New Roman,serif" font-size="14.00">35. exit_group()</text>
</g>
<!-- 18 -->
<g id="node19" class="node">
<title>18</title>
<polygon fill="lightgrey" stroke="black" points="1224,-123 1079,-123 1079,-87 1224,-87 1224,-123"/>
<text text-anchor="middle" x="1151.5" y="-101.3" font-family="Times New Roman,serif" font-size="14.00">/dev/shm/kdmtmpflush</text>
</g>
<!-- 12&#45;&gt;18 -->
<g id="edge34" class="edge">
<title>12&#45;&gt;18</title>
<path fill="none" stroke="black" d="M1744.86,-190.92C1641.98,-190.33 1352.11,-185.96 1262.5,-156 1250.93,-152.13 1250.33,-146.62 1239.5,-141 1229.78,-135.96 1219.16,-131.17 1208.76,-126.85"/>
<polygon fill="black" stroke="black" points="1209.9,-123.53 1199.31,-123.01 1207.26,-130.02 1209.9,-123.53"/>
<text text-anchor="middle" x="1285.5" y="-144.8" font-family="Times New Roman,serif" font-size="14.00">34. rm()</text>
</g>
<!-- 14&#45;&gt;1 -->
<g id="edge36" class="edge">
<title>14&#45;&gt;1</title>
<path fill="none" stroke="black" d="M838.75,-190.1C956.37,-187.02 1326.6,-175.95 1444.5,-156 1468.22,-151.99 1472.76,-144.85 1496.5,-141 1570.69,-128.99 2055.18,-114.49 2266.83,-108.64"/>
<polygon fill="black" stroke="black" points="2267.11,-112.13 2277.01,-108.36 2266.92,-105.13 2267.11,-112.13"/>
<text text-anchor="middle" x="1521" y="-144.8" font-family="Times New Roman,serif" font-size="14.00">36. brk()</text>
</g>
<!-- 14&#45;&gt;1 -->
<g id="edge37" class="edge">
<title>14&#45;&gt;1</title>
<path fill="none" stroke="black" d="M797.45,-173.84C795.39,-162.94 795.15,-149.35 803.5,-141 821.42,-123.09 1690.17,-123.58 1715.5,-123 1910.81,-118.52 2139.11,-112.33 2266.54,-108.79"/>
<polygon fill="black" stroke="black" points="2266.76,-112.28 2276.66,-108.5 2266.57,-105.28 2266.76,-112.28"/>
<text text-anchor="middle" x="844" y="-144.8" font-family="Times New Roman,serif" font-size="14.00">37. mprotect()</text>
</g>
<!-- 14&#45;&gt;1 -->
<g id="edge38" class="edge">
<title>14&#45;&gt;1</title>
<path fill="none" stroke="black" d="M830.77,-180.35C846.84,-173.95 867.16,-165.26 884.5,-156 895.26,-150.25 895.84,-144.61 907.5,-141 950.39,-127.73 1670.61,-124.09 1715.5,-123 1910.94,-118.27 2139.43,-112.16 2266.8,-108.7"/>
<polygon fill="black" stroke="black" points="2267.02,-112.2 2276.93,-108.43 2266.83,-105.2 2267.02,-112.2"/>
<text text-anchor="middle" x="951.5" y="-144.8" font-family="Times New Roman,serif" font-size="14.00">38. arch_prctl()</text>
</g>
<!-- 14&#45;&gt;1 -->
<g id="edge39" class="edge">
<title>14&#45;&gt;1</title>
<path fill="none" stroke="black" d="M838.53,-188.75C878.21,-185.31 943.29,-176.77 995.5,-156 1006.84,-151.49 1006.85,-144.63 1018.5,-141 1092.47,-117.97 1638.06,-125.01 1715.5,-123 1910.94,-117.92 2139.42,-111.93 2266.8,-108.59"/>
<polygon fill="black" stroke="black" points="2267.02,-112.09 2276.92,-108.33 2266.83,-105.09 2267.02,-112.09"/>
<text text-anchor="middle" x="1058" y="-144.8" font-family="Times New Roman,serif" font-size="14.00">39. munmap()</text>
</g>
<!-- 14&#45;&gt;1 -->
<g id="edge40" class="edge">
<title>14&#45;&gt;1</title>
<path fill="none" stroke="black" d="M838.69,-189.16C906.83,-185.3 1051.47,-175.09 1097.5,-156 1107.44,-151.88 1106.39,-144.67 1116.5,-141 1123.24,-138.55 1972.29,-116.24 2266.49,-108.57"/>
<polygon fill="black" stroke="black" points="2266.82,-112.06 2276.72,-108.3 2266.64,-105.07 2266.82,-112.06"/>
<text text-anchor="middle" x="1176" y="-144.8" font-family="Times New Roman,serif" font-size="14.00">40. set_tid_address()</text>
</g>
<!-- 14&#45;&gt;1 -->
<g id="edge41" class="edge">
<title>14&#45;&gt;1</title>
<path fill="none" stroke="black" d="M839.09,-191.25C940.4,-191.5 1222.77,-189.12 1308.5,-156 1318.54,-152.12 1317.4,-144.7 1327.5,-141 1349.35,-133 2011.43,-115.13 2266.58,-108.52"/>
<polygon fill="black" stroke="black" points="2267.05,-112.01 2276.95,-108.25 2266.87,-105.01 2267.05,-112.01"/>
<text text-anchor="middle" x="1384" y="-144.8" font-family="Times New Roman,serif" font-size="14.00">41. set_robust_list()</text>
</g>
<!-- 14&#45;&gt;3 -->
<g id="edge46" class="edge">
<title>14&#45;&gt;3</title>
<path fill="none" stroke="black" d="M838.99,-190.2C964.07,-187.5 1387.03,-178.58 1736.5,-174 1861.44,-172.36 3861.61,-172.26 3985.5,-156 4011.9,-152.53 4017.27,-145.59 4043.5,-141 4107.76,-129.77 4299.68,-114.78 4381.2,-108.72"/>
<polygon fill="black" stroke="black" points="4381.78,-112.18 4391.5,-107.96 4381.26,-105.2 4381.78,-112.18"/>
<text text-anchor="middle" x="4078.5" y="-144.8" font-family="Times New Roman,serif" font-size="14.00">46. geteuid()</text>
</g>
<!-- 14&#45;&gt;6 -->
<g id="edge51" class="edge">
<title>14&#45;&gt;6</title>
<path fill="none" stroke="black" d="M838.99,-190.26C964.08,-187.76 1387.04,-179.42 1736.5,-174 1775.55,-173.39 3105.68,-169.05 3142.5,-156 3152.64,-152.41 3151.53,-145.04 3161.5,-141 3215.93,-118.96 3387.73,-110.19 3466.43,-107.26"/>
<polygon fill="black" stroke="black" points="3467.02,-110.74 3476.89,-106.88 3466.77,-103.74 3467.02,-110.74"/>
<text text-anchor="middle" x="3207" y="-144.8" font-family="Times New Roman,serif" font-size="14.00">51. exit_group()</text>
</g>
<!-- 14&#45;&gt;18 -->
<g id="edge47" class="edge">
<title>14&#45;&gt;18</title>
<path fill="none" stroke="black" d="M771.5,-182.31C745.23,-173.47 714.23,-158.6 730.5,-141 747.9,-122.18 934.96,-125.14 960.5,-123 995.98,-120.03 1035.14,-116.58 1068.73,-113.56"/>
<polygon fill="black" stroke="black" points="1069.31,-117.02 1078.96,-112.64 1068.68,-110.05 1069.31,-117.02"/>
<text text-anchor="middle" x="755.5" y="-144.8" font-family="Times New Roman,serif" font-size="14.00">47. stat()</text>
</g>
<!-- 14&#45;&gt;18 -->
<g id="edge50" class="edge">
<title>14&#45;&gt;18</title>
<path fill="none" stroke="black" d="M766.19,-189.32C715.42,-185.74 632.8,-174.68 664.5,-141 687.08,-117 927.64,-125.46 960.5,-123 996,-120.34 1035.17,-116.94 1068.75,-113.87"/>
<polygon fill="black" stroke="black" points="1069.34,-117.34 1078.98,-112.94 1068.7,-110.36 1069.34,-117.34"/>
<text text-anchor="middle" x="693.5" y="-144.8" font-family="Times New Roman,serif" font-size="14.00">50. open()</text>
</g>
<!-- 19 -->
<g id="node20" class="node">
<title>19</title>
<polygon fill="lightgrey" stroke="black" points="111,-123 12,-123 12,-127 0,-127 0,-87 111,-87 111,-123"/>
<polyline fill="none" stroke="black" points="0,-123 12,-123"/>
<text text-anchor="middle" x="55.5" y="-101.3" font-family="Times New Roman,serif" font-size="14.00">8192*1024 bytes</text>
</g>
<!-- 14&#45;&gt;19 -->
<g id="edge42" class="edge">
<title>14&#45;&gt;19</title>
<path fill="none" stroke="black" d="M765.96,-190.24C634.46,-187.37 189.9,-176.22 129.5,-156 112.49,-150.31 95.75,-139.55 82.5,-129.47"/>
<polygon fill="black" stroke="black" points="84.35,-126.47 74.33,-123 80,-131.95 84.35,-126.47"/>
<text text-anchor="middle" x="169" y="-144.8" font-family="Times New Roman,serif" font-size="14.00">42. prlimit64()</text>
</g>
<!-- 20 -->
<g id="node21" class="node">
<title>20</title>
<polygon fill="lightgrey" stroke="black" points="224,-123 129,-123 129,-87 224,-87 224,-123"/>
<text text-anchor="middle" x="176.5" y="-101.3" font-family="Times New Roman,serif" font-size="14.00">/sys/fs/selinux</text>
</g>
<!-- 14&#45;&gt;20 -->
<g id="edge43" class="edge">
<title>14&#45;&gt;20</title>
<path fill="none" stroke="black" d="M766.09,-190.08C648.63,-186.94 284.51,-175.71 235.5,-156 221.6,-150.41 208.61,-140.2 198.38,-130.45"/>
<polygon fill="black" stroke="black" points="200.66,-127.78 191.12,-123.17 195.7,-132.73 200.66,-127.78"/>
<text text-anchor="middle" x="266" y="-144.8" font-family="Times New Roman,serif" font-size="14.00">43. statfs()</text>
</g>
<!-- 21 -->
<g id="node22" class="node">
<title>21</title>
<polygon fill="lightgrey" stroke="black" points="301,-123 242,-123 242,-87 301,-87 301,-123"/>
<text text-anchor="middle" x="271.5" y="-101.3" font-family="Times New Roman,serif" font-size="14.00">/selinux</text>
</g>
<!-- 14&#45;&gt;21 -->
<g id="edge44" class="edge">
<title>14&#45;&gt;21</title>
<path fill="none" stroke="black" d="M766.01,-191.64C667.74,-192.86 399.57,-192.65 320.5,-156 308.44,-150.41 297.74,-140.47 289.44,-130.92"/>
<polygon fill="black" stroke="black" points="292.09,-128.63 283.06,-123.09 286.66,-133.05 292.09,-128.63"/>
<text text-anchor="middle" x="351" y="-144.8" font-family="Times New Roman,serif" font-size="14.00">44. statfs()</text>
</g>
<!-- 22 -->
<g id="node23" class="node">
<title>22</title>
<polygon fill="lightgrey" stroke="black" points="437.5,-123 319.5,-123 319.5,-87 437.5,-87 437.5,-123"/>
<text text-anchor="middle" x="378.5" y="-101.3" font-family="Times New Roman,serif" font-size="14.00">/etc/selinux/config</text>
</g>
<!-- 14&#45;&gt;22 -->
<g id="edge45" class="edge">
<title>14&#45;&gt;22</title>
<path fill="none" stroke="black" d="M765.97,-190.11C671.47,-187.5 424.32,-178.58 395.5,-156 388.34,-150.39 384.18,-141.62 381.76,-132.99"/>
<polygon fill="black" stroke="black" points="385.16,-132.15 379.66,-123.1 378.32,-133.61 385.16,-132.15"/>
<text text-anchor="middle" x="429.5" y="-144.8" font-family="Times New Roman,serif" font-size="14.00">45. access()</text>
</g>
<!-- 23 -->
<g id="node24" class="node">
<title>23</title>
<polygon fill="lightgrey" stroke="black" points="951.5,-123 455.5,-123 455.5,-87 951.5,-87 951.5,-123"/>
<text text-anchor="middle" x="703.5" y="-101.3" font-family="Times New Roman,serif" font-size="14.00">./malware/5faab159397964e630c4156f8852bcc6ee46df1cdd8be2a8d3f3d8e5980f3bb3</text>
</g>
<!-- 14&#45;&gt;23 -->
<g id="edge48" class="edge">
<title>14&#45;&gt;23</title>
<path fill="none" stroke="black" d="M766.12,-189.86C684.02,-186.9 490.01,-177.67 470.5,-156 466.04,-151.05 466.15,-146.05 470.5,-141 475.5,-135.19 484.04,-130.33 494.97,-126.26"/>
<polygon fill="black" stroke="black" points="496.3,-129.51 504.69,-123.04 494.09,-122.87 496.3,-129.51"/>
<text text-anchor="middle" x="495.5" y="-144.8" font-family="Times New Roman,serif" font-size="14.00">48. stat()</text>
</g>
<!-- 14&#45;&gt;23 -->
<g id="edge49" class="edge">
<title>14&#45;&gt;23</title>
<path fill="none" stroke="black" d="M766.13,-191.08C706.87,-190.36 593.57,-185.1 568.5,-156 558.06,-143.89 561.27,-134.71 571.96,-127.75"/>
<polygon fill="black" stroke="black" points="573.72,-130.78 580.98,-123.06 570.49,-124.57 573.72,-130.78"/>
<text text-anchor="middle" x="597.5" y="-144.8" font-family="Times New Roman,serif" font-size="14.00">49. open()</text>
</g>
<!-- 15&#45;&gt;1 -->
<g id="edge52" class="edge">
<title>15&#45;&gt;1</title>
<path fill="none" stroke="black" d="M3116.65,-179.84C3107.78,-177.62 3098.37,-175.51 3089.5,-174 2995.84,-158.1 2966.34,-186.88 2876.5,-156 2864.96,-152.03 2865.07,-144.89 2853.5,-141 2783.37,-117.39 2582.67,-109.71 2461.6,-107.21"/>
<polygon fill="black" stroke="black" points="2461.65,-103.71 2451.58,-107.01 2461.51,-110.7 2461.65,-103.71"/>
<text text-anchor="middle" x="2901" y="-144.8" font-family="Times New Roman,serif" font-size="14.00">52. brk()</text>
</g>
<!-- 15&#45;&gt;1 -->
<g id="edge53" class="edge">
<title>15&#45;&gt;1</title>
<path fill="none" stroke="black" d="M3117.4,-179.68C3108.33,-177.41 3098.63,-175.32 3089.5,-174 2972.86,-157.2 2671.87,-191.49 2559.5,-156 2547.86,-152.32 2547.79,-145.64 2536.5,-141 2507.16,-128.94 2473.23,-120.9 2443.36,-115.59"/>
<polygon fill="black" stroke="black" points="2443.85,-112.13 2433.4,-113.9 2442.67,-119.03 2443.85,-112.13"/>
<text text-anchor="middle" x="2600" y="-144.8" font-family="Times New Roman,serif" font-size="14.00">53. mprotect()</text>
</g>
<!-- 15&#45;&gt;1 -->
<g id="edge54" class="edge">
<title>15&#45;&gt;1</title>
<path fill="none" stroke="black" d="M3117.39,-179.74C3108.32,-177.46 3098.63,-175.35 3089.5,-174 2995.77,-160.11 2753.73,-184.91 2663.5,-156 2651.88,-152.28 2651.95,-145.21 2640.5,-141 2583.53,-120.06 2515.94,-111.26 2462.03,-107.71"/>
<polygon fill="black" stroke="black" points="2461.98,-104.2 2451.79,-107.09 2461.56,-111.19 2461.98,-104.2"/>
<text text-anchor="middle" x="2707.5" y="-144.8" font-family="Times New Roman,serif" font-size="14.00">54. arch_prctl()</text>
</g>
<!-- 15&#45;&gt;1 -->
<g id="edge55" class="edge">
<title>15&#45;&gt;1</title>
<path fill="none" stroke="black" d="M3117.03,-179.74C3108.06,-177.5 3098.5,-175.4 3089.5,-174 3019.34,-163.09 2836.89,-181.17 2770.5,-156 2760.44,-152.19 2761.49,-144.98 2751.5,-141 2701.02,-120.87 2560.56,-112.21 2463.77,-108.56"/>
<polygon fill="black" stroke="black" points="2463.78,-105.06 2453.66,-108.19 2463.53,-112.05 2463.78,-105.06"/>
<text text-anchor="middle" x="2810" y="-144.8" font-family="Times New Roman,serif" font-size="14.00">55. munmap()</text>
</g>
<!-- 15&#45;&gt;6 -->
<g id="edge58" class="edge">
<title>15&#45;&gt;6</title>
<path fill="none" stroke="black" d="M3207.81,-191.65C3289.3,-191.66 3441.66,-187.31 3484.5,-156 3492.18,-150.39 3497.22,-141.5 3500.5,-132.77"/>
<polygon fill="black" stroke="black" points="3503.87,-133.74 3503.52,-123.15 3497.19,-131.65 3503.87,-133.74"/>
<text text-anchor="middle" x="3543" y="-144.8" font-family="Times New Roman,serif" font-size="14.00">58. exit_group()</text>
</g>
<!-- 15&#45;&gt;18 -->
<g id="edge57" class="edge">
<title>15&#45;&gt;18</title>
<path fill="none" stroke="black" d="M3117.4,-179.65C3108.33,-177.38 3098.64,-175.3 3089.5,-174 2822.28,-136.11 2751.59,-176.9 2482.5,-156 2429.35,-151.87 2416.66,-144.94 2363.5,-141 2009.71,-114.78 1920.08,-134.28 1565.5,-123 1450.58,-119.34 1317.78,-113.63 1234.22,-109.85"/>
<polygon fill="black" stroke="black" points="1234.18,-106.34 1224.03,-109.38 1233.86,-113.33 1234.18,-106.34"/>
<text text-anchor="middle" x="2507.5" y="-144.8" font-family="Times New Roman,serif" font-size="14.00">57. stat()</text>
</g>
<!-- 24 -->
<g id="node25" class="node">
<title>24</title>
<polygon fill="lightgrey" stroke="black" points="3125,-123 3036,-123 3036,-127 3024,-127 3024,-87 3125,-87 3125,-123"/>
<polyline fill="none" stroke="black" points="3024,-123 3036,-123"/>
<text text-anchor="middle" x="3074.5" y="-101.3" font-family="Times New Roman,serif" font-size="14.00">Permission:000</text>
</g>
<!-- 15&#45;&gt;24 -->
<g id="edge56" class="edge">
<title>15&#45;&gt;24</title>
<path fill="none" stroke="black" d="M3111.97,-181.89C3097.97,-176.7 3083.92,-168.6 3075.5,-156 3071.07,-149.37 3069.69,-141.07 3069.74,-133.15"/>
<polygon fill="black" stroke="black" points="3073.23,-133.36 3070.49,-123.12 3066.25,-132.83 3073.23,-133.36"/>
<text text-anchor="middle" x="3109" y="-144.8" font-family="Times New Roman,serif" font-size="14.00">56. umask()</text>
</g>
<!-- 16&#45;&gt;1 -->
<g id="edge59" class="edge">
<title>16&#45;&gt;1</title>
<path fill="none" stroke="black" d="M3722.05,-180.84C3690.49,-175.33 3653.66,-167.28 3621.5,-156 3607.81,-151.2 3606.55,-144.63 3592.5,-141 3578.89,-137.48 2753.22,-115.96 2464.15,-108.53"/>
<polygon fill="black" stroke="black" points="2464.18,-105.03 2454.09,-108.27 2464,-112.02 2464.18,-105.03"/>
<text text-anchor="middle" x="3646" y="-144.8" font-family="Times New Roman,serif" font-size="14.00">59. brk()</text>
</g>
<!-- 16&#45;&gt;1 -->
<g id="edge60" class="edge">
<title>16&#45;&gt;1</title>
<path fill="none" stroke="black" d="M3746.25,-176.71C3729.14,-171.12 3710.14,-164.1 3693.5,-156 3682.53,-150.66 3682.15,-144.63 3670.5,-141 3668.7,-140.44 2767.89,-116.62 2464.15,-108.6"/>
<polygon fill="black" stroke="black" points="2464.12,-105.1 2454.03,-108.34 2463.94,-112.1 2464.12,-105.1"/>
<text text-anchor="middle" x="3734" y="-144.8" font-family="Times New Roman,serif" font-size="14.00">60. mprotect()</text>
</g>
<!-- 16&#45;&gt;1 -->
<g id="edge61" class="edge">
<title>16&#45;&gt;1</title>
<path fill="none" stroke="black" d="M3793.72,-173.56C3790.92,-162.24 3785.38,-148.28 3774.5,-141 3756.95,-129.25 3035.61,-123.53 3014.5,-123 2819.5,-118.14 2591.55,-112.08 2464.32,-108.67"/>
<polygon fill="black" stroke="black" points="2464.29,-105.16 2454.2,-108.39 2464.11,-112.16 2464.29,-105.16"/>
<text text-anchor="middle" x="3831.5" y="-144.8" font-family="Times New Roman,serif" font-size="14.00">61. arch_prctl()</text>
</g>
<!-- 16&#45;&gt;1 -->
<g id="edge62" class="edge">
<title>16&#45;&gt;1</title>
<path fill="none" stroke="black" d="M3707.35,-186.01C3641.61,-182.42 3550,-177.6 3469.5,-174 3362.42,-169.22 3092.3,-178.47 2987.5,-156 2970.15,-152.28 2967.81,-144.91 2950.5,-141 2860.55,-120.65 2604.67,-111.57 2462.94,-108"/>
<polygon fill="black" stroke="black" points="2463.02,-104.51 2452.94,-107.76 2462.85,-111.5 2463.02,-104.51"/>
<text text-anchor="middle" x="3027" y="-144.8" font-family="Times New Roman,serif" font-size="14.00">62. munmap()</text>
</g>
<!-- 16&#45;&gt;2 -->
<g id="edge63" class="edge">
<title>16&#45;&gt;2</title>
<path fill="none" stroke="black" d="M3876.68,-182.53C3919.75,-176.75 3967.6,-167.96 3985.5,-156 3990.92,-152.38 4034.42,-83.36 4058.54,-44.7"/>
<polygon fill="black" stroke="black" points="4061.62,-46.38 4063.93,-36.04 4055.67,-42.68 4061.62,-46.38"/>
<text text-anchor="middle" x="4065.5" y="-101.3" font-family="Times New Roman,serif" font-size="14.00">63. access()</text>
</g>
<!-- 16&#45;&gt;3 -->
<g id="edge64" class="edge">
<title>16&#45;&gt;3</title>
<path fill="none" stroke="black" d="M3886.08,-186.3C3966.2,-181.32 4086.65,-171.93 4190.5,-156 4258.5,-145.57 4336.59,-126.98 4381.47,-115.64"/>
<polygon fill="black" stroke="black" points="4382.51,-118.99 4391.34,-113.13 4380.78,-112.21 4382.51,-118.99"/>
<text text-anchor="middle" x="4298.5" y="-144.8" font-family="Times New Roman,serif" font-size="14.00">64. getuid()</text>
</g>
<!-- 16&#45;&gt;6 -->
<g id="edge66" class="edge">
<title>16&#45;&gt;6</title>
<path fill="none" stroke="black" d="M3854.9,-177.78C3879.89,-169.48 3900.31,-157.24 3885.5,-141 3862.97,-116.29 3639.05,-108.77 3546.36,-106.71"/>
<polygon fill="black" stroke="black" points="3546.32,-103.21 3536.24,-106.49 3546.17,-110.21 3546.32,-103.21"/>
<text text-anchor="middle" x="3936" y="-144.8" font-family="Times New Roman,serif" font-size="14.00">66. exit_group()</text>
</g>
<!-- 25 -->
<g id="node26" class="node">
<title>25</title>
<ellipse fill="lightgrey" stroke="black" cx="4139.5" cy="-105" rx="28.7" ry="18"/>
<text text-anchor="middle" x="4139.5" y="-101.3" font-family="Times New Roman,serif" font-size="14.00">1523</text>
</g>
<!-- 16&#45;&gt;25 -->
<g id="edge65" class="edge">
<title>16&#45;&gt;25</title>
<path fill="none" stroke="black" d="M3890.61,-190.95C3972.17,-189.1 4082.46,-181.68 4117.5,-156 4125.17,-150.38 4130.21,-141.49 4133.5,-132.76"/>
<polygon fill="black" stroke="black" points="4136.86,-133.73 4136.51,-123.15 4130.18,-131.64 4136.86,-133.73"/>
<text text-anchor="middle" x="4158.5" y="-144.8" font-family="Times New Roman,serif" font-size="14.00">65. exec()</text>
</g>
<!-- 17&#45;&gt;1 -->
<g id="edge69" class="edge">
<title>17&#45;&gt;1</title>
<path fill="none" stroke="black" d="M2135.43,-180.11C2151.05,-173.7 2170.69,-165.08 2187.5,-156 2198.24,-150.2 2199.26,-145.75 2210.5,-141 2236.64,-129.95 2266.79,-122.13 2293.52,-116.73"/>
<polygon fill="black" stroke="black" points="2294.43,-120.12 2303.58,-114.77 2293.1,-113.24 2294.43,-120.12"/>
<text text-anchor="middle" x="2235" y="-144.8" font-family="Times New Roman,serif" font-size="14.00">69. brk()</text>
</g>
<!-- 17&#45;&gt;1 -->
<g id="edge70" class="edge">
<title>17&#45;&gt;1</title>
<path fill="none" stroke="black" d="M2135.83,-180.53C2142.85,-178.17 2150.4,-175.82 2157.5,-174 2202.09,-162.56 2216.69,-172.92 2259.5,-156 2270.85,-151.52 2271.72,-146.73 2282.5,-141 2295.17,-134.27 2309.41,-127.87 2322.48,-122.42"/>
<polygon fill="black" stroke="black" points="2323.82,-125.66 2331.75,-118.64 2321.17,-119.18 2323.82,-125.66"/>
<text text-anchor="middle" x="2323" y="-144.8" font-family="Times New Roman,serif" font-size="14.00">70. mprotect()</text>
</g>
<!-- 17&#45;&gt;1 -->
<g id="edge71" class="edge">
<title>17&#45;&gt;1</title>
<path fill="none" stroke="black" d="M2072.26,-187.06C2031.56,-181.17 1973.15,-167.77 1997.5,-141 2015.36,-121.36 2163.91,-112.48 2266.72,-108.67"/>
<polygon fill="black" stroke="black" points="2266.97,-112.16 2276.84,-108.3 2266.72,-105.16 2266.97,-112.16"/>
<text text-anchor="middle" x="2041.5" y="-144.8" font-family="Times New Roman,serif" font-size="14.00">71. arch_prctl()</text>
</g>
<!-- 17&#45;&gt;1 -->
<g id="edge72" class="edge">
<title>17&#45;&gt;1</title>
<path fill="none" stroke="black" d="M2101.01,-174.21C2098.05,-163.46 2096.71,-149.9 2104.5,-141 2126.15,-116.25 2205.9,-108.26 2271.6,-106.02"/>
<polygon fill="black" stroke="black" points="2271.71,-109.51 2281.6,-105.71 2271.5,-102.52 2271.71,-109.51"/>
<text text-anchor="middle" x="2144" y="-144.8" font-family="Times New Roman,serif" font-size="14.00">72. munmap()</text>
</g>
<!-- 17&#45;&gt;6 -->
<g id="edge74" class="edge">
<title>17&#45;&gt;6</title>
<path fill="none" stroke="black" d="M2134.87,-179.98C2142.11,-177.54 2150,-175.3 2157.5,-174 2223.91,-162.51 3307,-178.58 3370.5,-156 3380.64,-152.4 3379.95,-145.96 3389.5,-141 3413.92,-128.31 3443.65,-119.49 3467.03,-113.88"/>
<polygon fill="black" stroke="black" points="3468,-117.25 3476.96,-111.59 3466.43,-110.42 3468,-117.25"/>
<text text-anchor="middle" x="3435" y="-144.8" font-family="Times New Roman,serif" font-size="14.00">74. exit_group()</text>
</g>
<!-- 28 -->
<g id="node29" class="node">
<title>28</title>
<polygon fill="lightgrey" stroke="black" points="1706.5,-123 1574.5,-123 1574.5,-87 1706.5,-87 1706.5,-123"/>
<text text-anchor="middle" x="1640.5" y="-101.3" font-family="Times New Roman,serif" font-size="14.00">/dev/shm/kdmtmpflu</text>
</g>
<!-- 17&#45;&gt;28 -->
<g id="edge73" class="edge">
<title>17&#45;&gt;28</title>
<path fill="none" stroke="black" d="M2071.59,-188.95C1963.62,-182.69 1648.89,-163.81 1641.5,-156 1635.79,-149.97 1634.21,-141.47 1634.47,-133.18"/>
<polygon fill="black" stroke="black" points="1637.97,-133.33 1635.6,-123.01 1631.01,-132.56 1637.97,-133.33"/>
<text text-anchor="middle" x="1664.5" y="-144.8" font-family="Times New Roman,serif" font-size="14.00">73. rm()</text>
</g>
<!-- 25&#45;&gt;2 -->
<g id="edge68" class="edge">
<title>25&#45;&gt;2</title>
<path fill="none" stroke="black" d="M4122.58,-89.99C4115.87,-83.94 4108.37,-76.53 4102.5,-69 4096.87,-61.78 4091.68,-53.29 4087.32,-45.38"/>
<polygon fill="black" stroke="black" points="4090.39,-43.68 4082.63,-36.47 4084.19,-46.94 4090.39,-43.68"/>
<text text-anchor="middle" x="4131.5" y="-57.8" font-family="Times New Roman,serif" font-size="14.00">68. open()</text>
</g>
<!-- 26 -->
<g id="node27" class="node">
<title>26</title>
<polygon fill="lightgrey" stroke="black" points="4229,-36 4172,-36 4172,-40 4160,-40 4160,0 4229,0 4229,-36"/>
<polyline fill="none" stroke="black" points="4160,-36 4172,-36"/>
<text text-anchor="middle" x="4194.5" y="-14.3" font-family="Times New Roman,serif" font-size="14.00">PID:1523</text>
</g>
<!-- 25&#45;&gt;26 -->
<g id="edge67" class="edge">
<title>25&#45;&gt;26</title>
<path fill="none" stroke="black" d="M4149.85,-88.01C4157.71,-75.86 4168.68,-58.9 4177.79,-44.83"/>
<polygon fill="black" stroke="black" points="4180.95,-46.38 4183.45,-36.08 4175.08,-42.58 4180.95,-46.38"/>
<text text-anchor="middle" x="4203" y="-57.8" font-family="Times New Roman,serif" font-size="14.00">67. getpid()</text>
</g>
<!-- 27 -->
<g id="node28" class="node">
<title>27</title>
<polygon fill="lightgrey" stroke="black" points="4425.5,-384 4360.48,-366 4425.5,-348 4490.52,-366 4425.5,-384"/>
<text text-anchor="middle" x="4425.5" y="-362.3" font-family="Times New Roman,serif" font-size="14.00">Unknown</text>
</g>
</g>
</svg>
