<?xml version="1.0" encoding="UTF-8" standalone="no"?>
<!DOCTYPE svg PUBLIC "-//W3C//DTD SVG 1.1//EN"
 "http://www.w3.org/Graphics/SVG/1.1/DTD/svg11.dtd">
<!-- Generated by graphviz version 6.0.1 (20220911.1526)
 -->
<!-- Title: Dofloo_asg_OPset Pages: 1 -->
<svg width="2137pt" height="291pt"
 viewBox="0.00 0.00 2136.88 291.00" xmlns="http://www.w3.org/2000/svg" xmlns:xlink="http://www.w3.org/1999/xlink">
<g id="graph0" class="graph" transform="scale(1 1) rotate(0) translate(4 287)">
<title>Dofloo_asg_OPset</title>
<polygon fill="white" stroke="none" points="-4,4 -4,-287 2132.88,-287 2132.88,4 -4,4"/>
<!-- Start -->
<g id="node1" class="node">
<title>Start</title>
<ellipse fill="none" stroke="black" cx="1111.84" cy="-265" rx="77.19" ry="18"/>
<text text-anchor="middle" x="1111.84" y="-261.3" font-family="Times New Roman,serif" font-size="14.00">Malware (Subject)</text>
</g>
<!-- 1 -->
<g id="node2" class="node">
<title>1</title>
<ellipse fill="none" stroke="black" cx="149.84" cy="-178" rx="38.99" ry="18"/>
<text text-anchor="middle" x="149.84" y="-174.3" font-family="Times New Roman,serif" font-size="14.00">ip_addr</text>
</g>
<!-- Start&#45;&gt;1 -->
<g id="edge1" class="edge">
<title>Start&#45;&gt;1</title>
<path fill="none" stroke="black" d="M1034.46,-264.46C789.27,-265.55 43.49,-265.8 7.84,-229 -22.85,-197.32 48.62,-185.68 100.9,-181.43"/>
<polygon fill="black" stroke="black" points="101.35,-184.9 111.07,-180.67 100.84,-177.92 101.35,-184.9"/>
<text text-anchor="middle" x="47.34" y="-217.8" font-family="Times New Roman,serif" font-size="14.00">22._newselect</text>
</g>
<!-- Start&#45;&gt;1 -->
<g id="edge2" class="edge">
<title>Start&#45;&gt;1</title>
<path fill="none" stroke="black" d="M1034.43,-264.2C804.88,-264.4 141.8,-262.1 109.84,-229 100.8,-219.64 108.38,-208.4 119.27,-198.94"/>
<polygon fill="black" stroke="black" points="121.48,-201.66 127.18,-192.72 117.16,-196.15 121.48,-201.66"/>
<text text-anchor="middle" x="139.34" y="-217.8" font-family="Times New Roman,serif" font-size="14.00">26.mmap2</text>
</g>
<!-- Start&#45;&gt;1 -->
<g id="edge3" class="edge">
<title>Start&#45;&gt;1</title>
<path fill="none" stroke="black" d="M1034.43,-264.63C826.5,-265.8 266.45,-265.51 191.84,-229 180.77,-223.58 171.52,-213.75 164.55,-204.23"/>
<polygon fill="black" stroke="black" points="167.3,-202.04 158.8,-195.71 161.5,-205.95 167.3,-202.04"/>
<text text-anchor="middle" x="219.34" y="-217.8" font-family="Times New Roman,serif" font-size="14.00">24.fstat64</text>
</g>
<!-- Start&#45;&gt;1 -->
<g id="edge4" class="edge">
<title>Start&#45;&gt;1</title>
<path fill="none" stroke="black" d="M1034.45,-263.58C858.61,-262.16 433.39,-255.96 292.84,-229 287.51,-227.98 229.71,-207.53 189.25,-193.1"/>
<polygon fill="black" stroke="black" points="190.23,-189.73 179.63,-189.67 187.88,-196.33 190.23,-189.73"/>
<text text-anchor="middle" x="323.84" y="-217.8" font-family="Times New Roman,serif" font-size="14.00">20.connect</text>
</g>
<!-- 2 -->
<g id="node3" class="node">
<title>2</title>
<ellipse fill="none" stroke="black" cx="353.84" cy="-178" rx="31.7" ry="18"/>
<text text-anchor="middle" x="353.84" y="-174.3" font-family="Times New Roman,serif" font-size="14.00">^sed$</text>
</g>
<!-- Start&#45;&gt;2 -->
<g id="edge5" class="edge">
<title>Start&#45;&gt;2</title>
<path fill="none" stroke="black" d="M1034.86,-262.75C850.07,-259.44 394.75,-249.25 368.84,-229 361.75,-223.47 357.91,-214.71 355.85,-206.07"/>
<polygon fill="black" stroke="black" points="359.3,-205.44 354.18,-196.17 352.4,-206.61 359.3,-205.44"/>
<text text-anchor="middle" x="387.34" y="-217.8" font-family="Times New Roman,serif" font-size="14.00">6.exec</text>
</g>
<!-- 3 -->
<g id="node4" class="node">
<title>3</title>
<ellipse fill="none" stroke="black" cx="516.84" cy="-178" rx="32.49" ry="18"/>
<text text-anchor="middle" x="516.84" y="-174.3" font-family="Times New Roman,serif" font-size="14.00">/proc/</text>
</g>
<!-- Start&#45;&gt;3 -->
<g id="edge6" class="edge">
<title>Start&#45;&gt;3</title>
<path fill="none" stroke="black" d="M1034.7,-262.94C857.7,-260.14 435.92,-251.17 414.84,-229 393.1,-206.14 438.35,-192.33 475.36,-185.18"/>
<polygon fill="black" stroke="black" points="476.31,-188.57 485.52,-183.34 475.06,-181.68 476.31,-188.57"/>
<text text-anchor="middle" x="437.84" y="-217.8" font-family="Times New Roman,serif" font-size="14.00">28.lseek</text>
</g>
<!-- Start&#45;&gt;3 -->
<g id="edge7" class="edge">
<title>Start&#45;&gt;3</title>
<path fill="none" stroke="black" d="M1035.08,-262.5C871.63,-258.94 502.5,-248.73 483.84,-229 475.58,-220.27 481.5,-209.23 490.48,-199.75"/>
<polygon fill="black" stroke="black" points="492.9,-202.28 497.76,-192.87 488.09,-197.2 492.9,-202.28"/>
<text text-anchor="middle" x="506.84" y="-217.8" font-family="Times New Roman,serif" font-size="14.00">27.open</text>
</g>
<!-- Start&#45;&gt;3 -->
<g id="edge8" class="edge">
<title>Start&#45;&gt;3</title>
<path fill="none" stroke="black" d="M1034.96,-262.82C891.54,-260.08 593.96,-251.71 552.84,-229 543.01,-223.57 535.18,-214.18 529.38,-205"/>
<polygon fill="black" stroke="black" points="532.25,-202.97 524.24,-196.03 526.17,-206.45 532.25,-202.97"/>
<text text-anchor="middle" x="580.34" y="-217.8" font-family="Times New Roman,serif" font-size="14.00">30.fstat64</text>
</g>
<!-- Start&#45;&gt;3 -->
<g id="edge9" class="edge">
<title>Start&#45;&gt;3</title>
<path fill="none" stroke="black" d="M1034.52,-263.06C918.03,-260.85 703.43,-253.48 630.84,-229 619.27,-225.1 618.7,-219.55 607.84,-214 590.58,-205.18 570.55,-197.24 553.68,-191.17"/>
<polygon fill="black" stroke="black" points="554.76,-187.84 544.16,-187.82 552.43,-194.44 554.76,-187.84"/>
<text text-anchor="middle" x="658.34" y="-217.8" font-family="Times New Roman,serif" font-size="14.00">1.readlink</text>
</g>
<!-- 4 -->
<g id="node5" class="node">
<title>4</title>
<ellipse fill="none" stroke="black" cx="699.84" cy="-91" rx="61.99" ry="18"/>
<text text-anchor="middle" x="699.84" y="-87.3" font-family="Times New Roman,serif" font-size="14.00">permission_id</text>
</g>
<!-- Start&#45;&gt;4 -->
<g id="edge10" class="edge">
<title>Start&#45;&gt;4</title>
<path fill="none" stroke="black" d="M1035.24,-261.89C929.49,-258.26 749.21,-249.16 726.84,-229 696.55,-201.71 694.4,-151.15 696.5,-119.67"/>
<polygon fill="black" stroke="black" points="700.01,-119.67 697.37,-109.41 693.03,-119.07 700.01,-119.67"/>
<text text-anchor="middle" x="731.84" y="-174.3" font-family="Times New Roman,serif" font-size="14.00">11.umask</text>
</g>
<!-- 5 -->
<g id="node6" class="node">
<title>5</title>
<ellipse fill="none" stroke="black" cx="862.84" cy="-178" rx="59.59" ry="18"/>
<text text-anchor="middle" x="862.84" y="-174.3" font-family="Times New Roman,serif" font-size="14.00">ip_addr+port</text>
</g>
<!-- Start&#45;&gt;5 -->
<g id="edge11" class="edge">
<title>Start&#45;&gt;5</title>
<path fill="none" stroke="black" d="M1035.21,-262.32C930.6,-259.22 753.71,-250.79 733.84,-229 729.35,-224.07 729.79,-219.3 733.84,-214 742.38,-202.83 771.75,-194.39 800.31,-188.6"/>
<polygon fill="black" stroke="black" points="801.19,-192 810.35,-186.66 799.87,-185.12 801.19,-192"/>
<text text-anchor="middle" x="763.34" y="-217.8" font-family="Times New Roman,serif" font-size="14.00">25.mmap2</text>
</g>
<!-- Start&#45;&gt;5 -->
<g id="edge12" class="edge">
<title>Start&#45;&gt;5</title>
<path fill="none" stroke="black" d="M1037.18,-260.26C954.34,-255.33 830.34,-245.32 815.84,-229 807.16,-219.23 814.54,-208.66 825.82,-199.76"/>
<polygon fill="black" stroke="black" points="827.96,-202.53 834.1,-193.89 823.92,-196.82 827.96,-202.53"/>
<text text-anchor="middle" x="843.34" y="-217.8" font-family="Times New Roman,serif" font-size="14.00">23.fstat64</text>
</g>
<!-- Start&#45;&gt;5 -->
<g id="edge13" class="edge">
<title>Start&#45;&gt;5</title>
<path fill="none" stroke="black" d="M1039.13,-258.81C985.22,-253.78 917.21,-244.56 893.84,-229 885.13,-223.2 878.43,-214.04 873.52,-205.13"/>
<polygon fill="black" stroke="black" points="876.62,-203.51 869.05,-196.1 870.35,-206.61 876.62,-203.51"/>
<text text-anchor="middle" x="924.84" y="-217.8" font-family="Times New Roman,serif" font-size="14.00">19.connect</text>
</g>
<!-- Start&#45;&gt;5 -->
<g id="edge14" class="edge">
<title>Start&#45;&gt;5</title>
<path fill="none" stroke="black" d="M1065.19,-250.51C1044.2,-244.26 1019.18,-236.56 996.84,-229 988.02,-226.02 943.58,-209.38 908.26,-196.11"/>
<polygon fill="black" stroke="black" points="909.17,-192.71 898.58,-192.47 906.71,-199.26 909.17,-192.71"/>
<text text-anchor="middle" x="1036.34" y="-217.8" font-family="Times New Roman,serif" font-size="14.00">21._newselect</text>
</g>
<!-- 6 -->
<g id="node7" class="node">
<title>6</title>
<ellipse fill="none" stroke="black" cx="1111.84" cy="-178" rx="27.9" ry="18"/>
<text text-anchor="middle" x="1111.84" y="-174.3" font-family="Times New Roman,serif" font-size="14.00">/sys/</text>
</g>
<!-- Start&#45;&gt;6 -->
<g id="edge15" class="edge">
<title>Start&#45;&gt;6</title>
<path fill="none" stroke="black" d="M1092.03,-247.27C1083.48,-237.94 1076.35,-225.84 1080.84,-214 1082.7,-209.1 1085.59,-204.44 1088.88,-200.22"/>
<polygon fill="black" stroke="black" points="1091.54,-202.5 1095.52,-192.68 1086.28,-197.87 1091.54,-202.5"/>
<text text-anchor="middle" x="1101.34" y="-217.8" font-family="Times New Roman,serif" font-size="14.00">8.statfs</text>
</g>
<!-- Start&#45;&gt;6 -->
<g id="edge16" class="edge">
<title>Start&#45;&gt;6</title>
<path fill="none" stroke="black" d="M1118.15,-246.96C1120.99,-237.33 1123.38,-225.05 1121.84,-214 1121.46,-211.28 1120.92,-208.47 1120.28,-205.68"/>
<polygon fill="black" stroke="black" points="1123.63,-204.66 1117.69,-195.89 1116.86,-206.45 1123.63,-204.66"/>
<text text-anchor="middle" x="1145.84" y="-217.8" font-family="Times New Roman,serif" font-size="14.00">29.open</text>
</g>
<!-- 7 -->
<g id="node8" class="node">
<title>7</title>
<ellipse fill="none" stroke="black" cx="1204.84" cy="-18" rx="46.59" ry="18"/>
<text text-anchor="middle" x="1204.84" y="-14.3" font-family="Times New Roman,serif" font-size="14.00">/etc/init.d/</text>
</g>
<!-- Start&#45;&gt;7 -->
<g id="edge17" class="edge">
<title>Start&#45;&gt;7</title>
<path fill="none" stroke="black" d="M1149.91,-249.11C1158.68,-243.98 1167.11,-237.36 1172.84,-229 1211.18,-173.02 1210.94,-89.04 1207.77,-46.22"/>
<polygon fill="black" stroke="black" points="1211.23,-45.68 1206.9,-36.01 1204.26,-46.28 1211.23,-45.68"/>
<text text-anchor="middle" x="1229.84" y="-130.8" font-family="Times New Roman,serif" font-size="14.00">18.open</text>
</g>
<!-- 8 -->
<g id="node9" class="node">
<title>8</title>
<ellipse fill="none" stroke="black" cx="1292.84" cy="-178" rx="33.6" ry="18"/>
<text text-anchor="middle" x="1292.84" y="-174.3" font-family="Times New Roman,serif" font-size="14.00">/etc/rc</text>
</g>
<!-- Start&#45;&gt;8 -->
<g id="edge18" class="edge">
<title>Start&#45;&gt;8</title>
<path fill="none" stroke="black" d="M1159.43,-250.77C1177.5,-245.04 1198.01,-237.64 1215.84,-229 1226.82,-223.68 1228.61,-220.65 1238.84,-214 1246.88,-208.77 1255.61,-203.1 1263.66,-197.89"/>
<polygon fill="black" stroke="black" points="1265.57,-200.82 1272.06,-192.45 1261.76,-194.95 1265.57,-200.82"/>
<text text-anchor="middle" x="1267.84" y="-217.8" font-family="Times New Roman,serif" font-size="14.00">17.rename</text>
</g>
<!-- Start&#45;&gt;8 -->
<g id="edge19" class="edge">
<title>Start&#45;&gt;8</title>
<path fill="none" stroke="black" d="M1185.83,-259.47C1230.95,-254.99 1282.6,-246.18 1296.84,-229 1302.21,-222.52 1302.95,-213.8 1301.8,-205.46"/>
<polygon fill="black" stroke="black" points="1305.21,-204.66 1299.63,-195.65 1298.37,-206.17 1305.21,-204.66"/>
<text text-anchor="middle" x="1325.84" y="-217.8" font-family="Times New Roman,serif" font-size="14.00">10.open</text>
</g>
<!-- 9 -->
<g id="node10" class="node">
<title>9</title>
<ellipse fill="none" stroke="black" cx="1520.84" cy="-178" rx="38.99" ry="18"/>
<text text-anchor="middle" x="1520.84" y="-174.3" font-family="Times New Roman,serif" font-size="14.00">/etc/sed</text>
</g>
<!-- Start&#45;&gt;9 -->
<g id="edge20" class="edge">
<title>Start&#45;&gt;9</title>
<path fill="none" stroke="black" d="M1183.72,-258.31C1232.15,-253.33 1297.11,-244.39 1352.84,-229 1369.54,-224.38 1372.42,-219.57 1388.84,-214 1417.68,-204.22 1450.81,-195.44 1476.66,-189.12"/>
<polygon fill="black" stroke="black" points="1477.65,-192.49 1486.55,-186.74 1476.01,-185.68 1477.65,-192.49"/>
<text text-anchor="middle" x="1409.84" y="-217.8" font-family="Times New Roman,serif" font-size="14.00">13.fstat</text>
</g>
<!-- Start&#45;&gt;9 -->
<g id="edge21" class="edge">
<title>Start&#45;&gt;9</title>
<path fill="none" stroke="black" d="M1186.25,-259.84C1266.09,-254.67 1387.3,-244.58 1430.84,-229 1442.33,-224.89 1443.31,-220.17 1453.84,-214 1464.17,-207.95 1475.66,-201.76 1486.15,-196.31"/>
<polygon fill="black" stroke="black" points="1487.78,-199.41 1495.07,-191.73 1484.58,-193.18 1487.78,-199.41"/>
<text text-anchor="middle" x="1476.34" y="-217.8" font-family="Times New Roman,serif" font-size="14.00">14.write</text>
</g>
<!-- Start&#45;&gt;9 -->
<g id="edge22" class="edge">
<title>Start&#45;&gt;9</title>
<path fill="none" stroke="black" d="M1187.83,-261.24C1293.38,-256.8 1474.22,-246.69 1498.84,-229 1506.56,-223.45 1511.61,-214.58 1514.89,-205.84"/>
<polygon fill="black" stroke="black" points="1518.26,-206.8 1517.9,-196.21 1511.58,-204.71 1518.26,-206.8"/>
<text text-anchor="middle" x="1541.84" y="-217.8" font-family="Times New Roman,serif" font-size="14.00">15.fchown</text>
</g>
<!-- Start&#45;&gt;9 -->
<g id="edge23" class="edge">
<title>Start&#45;&gt;9</title>
<path fill="none" stroke="black" d="M1189.19,-263.78C1314.41,-262.6 1550.16,-256.69 1575.84,-229 1586.8,-217.18 1573.98,-205 1557.97,-195.62"/>
<polygon fill="black" stroke="black" points="1559.34,-192.38 1548.88,-190.71 1556.02,-198.54 1559.34,-192.38"/>
<text text-anchor="middle" x="1611.34" y="-217.8" font-family="Times New Roman,serif" font-size="14.00">16.fchmod</text>
</g>
<!-- Start&#45;&gt;9 -->
<g id="edge24" class="edge">
<title>Start&#45;&gt;9</title>
<path fill="none" stroke="black" d="M1189.28,-264.63C1329.85,-264.97 1615.33,-261.57 1645.84,-229 1671.76,-201.32 1614.63,-188.65 1569.3,-183.07"/>
<polygon fill="black" stroke="black" points="1569.59,-179.58 1559.26,-181.92 1568.79,-186.54 1569.59,-179.58"/>
<text text-anchor="middle" x="1674.34" y="-217.8" font-family="Times New Roman,serif" font-size="14.00">12.fcntl</text>
</g>
<!-- 10 -->
<g id="node11" class="node">
<title>10</title>
<ellipse fill="none" stroke="black" cx="1780.84" cy="-178" rx="27.1" ry="18"/>
<text text-anchor="middle" x="1780.84" y="-174.3" font-family="Times New Roman,serif" font-size="14.00">^sh$</text>
</g>
<!-- Start&#45;&gt;10 -->
<g id="edge25" class="edge">
<title>Start&#45;&gt;10</title>
<path fill="none" stroke="black" d="M1189.11,-264.07C1326.34,-263.41 1606.9,-258.39 1699.84,-229 1720.25,-222.54 1740.75,-209.82 1756.02,-198.82"/>
<polygon fill="black" stroke="black" points="1758.44,-201.38 1764.37,-192.6 1754.26,-195.77 1758.44,-201.38"/>
<text text-anchor="middle" x="1751.34" y="-217.8" font-family="Times New Roman,serif" font-size="14.00">2.clone</text>
</g>
<!-- Start&#45;&gt;10 -->
<g id="edge26" class="edge">
<title>Start&#45;&gt;10</title>
<path fill="none" stroke="black" d="M1188.66,-262.6C1358.97,-259.14 1754.89,-248.98 1775.84,-229 1781.87,-223.24 1784.1,-214.81 1784.52,-206.5"/>
<polygon fill="black" stroke="black" points="1788.01,-206.16 1784.23,-196.26 1781.01,-206.35 1788.01,-206.16"/>
<text text-anchor="middle" x="1809.84" y="-217.8" font-family="Times New Roman,serif" font-size="14.00">3.waitpid</text>
</g>
<!-- 11 -->
<g id="node12" class="node">
<title>11</title>
<ellipse fill="none" stroke="black" cx="1918.84" cy="-178" rx="38.19" ry="18"/>
<text text-anchor="middle" x="1918.84" y="-174.3" font-family="Times New Roman,serif" font-size="14.00">/selinux</text>
</g>
<!-- Start&#45;&gt;11 -->
<g id="edge27" class="edge">
<title>Start&#45;&gt;11</title>
<path fill="none" stroke="black" d="M1188.51,-262.53C1362.93,-258.86 1779.06,-248.21 1839.84,-229 1859.11,-222.91 1878.33,-210.91 1892.99,-200.19"/>
<polygon fill="black" stroke="black" points="1895.2,-202.91 1901.06,-194.08 1890.97,-197.33 1895.2,-202.91"/>
<text text-anchor="middle" x="1891.34" y="-217.8" font-family="Times New Roman,serif" font-size="14.00">7.statfs</text>
</g>
<!-- Start&#45;&gt;11 -->
<g id="edge28" class="edge">
<title>Start&#45;&gt;11</title>
<path fill="none" stroke="black" d="M1188.93,-263.4C1385.21,-261.52 1890.19,-254.23 1915.84,-229 1921.77,-223.17 1923.68,-214.72 1923.76,-206.42"/>
<polygon fill="black" stroke="black" points="1927.23,-205.92 1923.04,-196.19 1920.25,-206.41 1927.23,-205.92"/>
<text text-anchor="middle" x="1948.34" y="-217.8" font-family="Times New Roman,serif" font-size="14.00">9.access</text>
</g>
<!-- 12 -->
<g id="node13" class="node">
<title>12</title>
<ellipse fill="none" stroke="black" cx="2028.84" cy="-178" rx="27" ry="18"/>
<text text-anchor="middle" x="2028.84" y="-174.3" font-family="Times New Roman,serif" font-size="14.00">bin/</text>
</g>
<!-- Start&#45;&gt;12 -->
<g id="edge29" class="edge">
<title>Start&#45;&gt;12</title>
<path fill="none" stroke="black" d="M1189.07,-263.99C1387.66,-263.53 1905.55,-259.4 1976.84,-229 1990.11,-223.34 2001.97,-212.65 2010.99,-202.6"/>
<polygon fill="black" stroke="black" points="2013.82,-204.68 2017.6,-194.79 2008.47,-200.16 2013.82,-204.68"/>
<text text-anchor="middle" x="2014.34" y="-217.8" font-family="Times New Roman,serif" font-size="14.00">5.stat</text>
</g>
<!-- 13 -->
<g id="node14" class="node">
<title>13</title>
<ellipse fill="none" stroke="black" cx="2091.84" cy="-91" rx="37.09" ry="18"/>
<text text-anchor="middle" x="2091.84" y="-87.3" font-family="Times New Roman,serif" font-size="14.00">bin/sed</text>
</g>
<!-- Start&#45;&gt;13 -->
<g id="edge30" class="edge">
<title>Start&#45;&gt;13</title>
<path fill="none" stroke="black" d="M1189.3,-264.41C1397.42,-265.05 1958.08,-263.5 2033.84,-229 2074.77,-210.36 2086.86,-153.68 2090.4,-119.34"/>
<polygon fill="black" stroke="black" points="2093.91,-119.31 2091.27,-109.05 2086.94,-118.72 2093.91,-119.31"/>
<text text-anchor="middle" x="2098.34" y="-174.3" font-family="Times New Roman,serif" font-size="14.00">4.stat</text>
</g>
</g>
</svg>
