<?xml version="1.0" encoding="UTF-8" standalone="no"?>
<!DOCTYPE svg PUBLIC "-//W3C//DTD SVG 1.1//EN"
 "http://www.w3.org/Graphics/SVG/1.1/DTD/svg11.dtd">
<!-- Generated by graphviz version 6.0.1 (20220911.1526)
 -->
<!-- Title: Dofloo_asg_OPset Pages: 1 -->
<svg width="5292pt" height="291pt"
 viewBox="0.00 0.00 5292.50 291.00" xmlns="http://www.w3.org/2000/svg" xmlns:xlink="http://www.w3.org/1999/xlink">
<g id="graph0" class="graph" transform="scale(1 1) rotate(0) translate(4 287)">
<title>Dofloo_asg_OPset</title>
<polygon fill="white" stroke="none" points="-4,4 -4,-287 5288.5,-287 5288.5,4 -4,4"/>
<!-- Start -->
<g id="node1" class="node">
<title>Start</title>
<ellipse fill="none" stroke="black" cx="2835.5" cy="-265" rx="77.19" ry="18"/>
<text text-anchor="middle" x="2835.5" y="-261.3" font-family="Times New Roman,serif" font-size="14.00">Malware (Subject)</text>
</g>
<!-- 1 -->
<g id="node2" class="node">
<title>1</title>
<ellipse fill="none" stroke="black" cx="45.5" cy="-178" rx="45.49" ry="18"/>
<text text-anchor="middle" x="45.5" y="-174.3" font-family="Times New Roman,serif" font-size="14.00">/proc/self</text>
</g>
<!-- Start&#45;&gt;1 -->
<g id="edge1" class="edge">
<title>Start&#45;&gt;1</title>
<path fill="none" stroke="black" d="M2757.97,-264.09C2315.93,-264.5 131.51,-264.71 72.5,-229 63.82,-223.75 57.76,-214.65 53.61,-205.64"/>
<polygon fill="black" stroke="black" points="56.76,-204.1 49.82,-196.09 50.25,-206.68 56.76,-204.1"/>
<text text-anchor="middle" x="104.5" y="-217.8" font-family="Times New Roman,serif" font-size="14.00">1.readlink()</text>
</g>
<!-- 2 -->
<g id="node3" class="node">
<title>2</title>
<ellipse fill="none" stroke="black" cx="173.5" cy="-178" rx="64.19" ry="18"/>
<text text-anchor="middle" x="173.5" y="-174.3" font-family="Times New Roman,serif" font-size="14.00">/sys/devices/.*</text>
</g>
<!-- Start&#45;&gt;2 -->
<g id="edge2" class="edge">
<title>Start&#45;&gt;2</title>
<path fill="none" stroke="black" d="M2758.23,-263.73C2320.27,-262.1 168.08,-252.89 144.5,-229 137.08,-221.49 140.66,-211.71 147.44,-202.79"/>
<polygon fill="black" stroke="black" points="150.08,-205.09 154.03,-195.26 144.81,-200.48 150.08,-205.09"/>
<text text-anchor="middle" x="170" y="-217.8" font-family="Times New Roman,serif" font-size="14.00">52.read()</text>
</g>
<!-- Start&#45;&gt;2 -->
<g id="edge3" class="edge">
<title>Start&#45;&gt;2</title>
<path fill="none" stroke="black" d="M2758.16,-263.68C2332.6,-261.81 293.14,-251.7 232.5,-229 218.27,-223.67 205.09,-213.29 194.81,-203.35"/>
<polygon fill="black" stroke="black" points="197.05,-200.63 187.55,-195.94 192.05,-205.53 197.05,-200.63"/>
<text text-anchor="middle" x="260" y="-217.8" font-family="Times New Roman,serif" font-size="14.00">51.open()</text>
</g>
<!-- 3 -->
<g id="node4" class="node">
<title>3</title>
<ellipse fill="none" stroke="black" cx="381.5" cy="-178" rx="126.18" ry="18"/>
<text text-anchor="middle" x="381.5" y="-174.3" font-family="Times New Roman,serif" font-size="14.00">Permission/Permission:[0&#45;9]{3}</text>
</g>
<!-- Start&#45;&gt;3 -->
<g id="edge4" class="edge">
<title>Start&#45;&gt;3</title>
<path fill="none" stroke="black" d="M2758.16,-263.67C2335.04,-261.76 318.66,-251.47 296.5,-229 284.1,-216.43 295.48,-205.87 313.5,-197.75"/>
<polygon fill="black" stroke="black" points="314.86,-200.97 322.8,-193.96 312.22,-194.49 314.86,-200.97"/>
<text text-anchor="middle" x="328" y="-217.8" font-family="Times New Roman,serif" font-size="14.00">24.umask()</text>
</g>
<!-- Start&#45;&gt;3 -->
<g id="edge5" class="edge">
<title>Start&#45;&gt;3</title>
<path fill="none" stroke="black" d="M2758.19,-264.11C2348.46,-264.52 447.34,-264.52 398.5,-229 391.14,-223.65 386.93,-214.94 384.54,-206.28"/>
<polygon fill="black" stroke="black" points="387.93,-205.42 382.48,-196.33 381.08,-206.84 387.93,-205.42"/>
<text text-anchor="middle" x="430" y="-217.8" font-family="Times New Roman,serif" font-size="14.00">23.umask()</text>
</g>
<!-- 4 -->
<g id="node5" class="node">
<title>4</title>
<ellipse fill="none" stroke="black" cx="698.5" cy="-178" rx="112.38" ry="18"/>
<text text-anchor="middle" x="698.5" y="-174.3" font-family="Times New Roman,serif" font-size="14.00">0x[0&#45;9a&#45;zA&#45;Z]{1,16} (mem)</text>
</g>
<!-- Start&#45;&gt;4 -->
<g id="edge6" class="edge">
<title>Start&#45;&gt;4</title>
<path fill="none" stroke="black" d="M2758.15,-263.59C2352.57,-261.34 489.06,-249.87 468.5,-229 463.82,-224.25 464.15,-219.06 468.5,-214 477.09,-203.99 536.83,-195.08 593.26,-188.76"/>
<polygon fill="black" stroke="black" points="593.82,-192.22 603.38,-187.65 593.05,-185.26 593.82,-192.22"/>
<text text-anchor="middle" x="496" y="-217.8" font-family="Times New Roman,serif" font-size="14.00">21.futex()</text>
</g>
<!-- Start&#45;&gt;4 -->
<g id="edge7" class="edge">
<title>Start&#45;&gt;4</title>
<path fill="none" stroke="black" d="M2758.1,-263.55C2360.59,-261.14 566.33,-249.14 546.5,-229 524.71,-206.88 550.92,-194.54 587.36,-187.66"/>
<polygon fill="black" stroke="black" points="588.09,-191.09 597.35,-185.95 586.91,-184.19 588.09,-191.09"/>
<text text-anchor="middle" x="566" y="-217.8" font-family="Times New Roman,serif" font-size="14.00">5.brk()</text>
</g>
<!-- Start&#45;&gt;4 -->
<g id="edge8" class="edge">
<title>Start&#45;&gt;4</title>
<path fill="none" stroke="black" d="M2758.04,-264.26C2369.19,-265.38 646.99,-268.11 608.5,-229 595.34,-215.63 608.09,-204.82 627.72,-196.72"/>
<polygon fill="black" stroke="black" points="629.01,-199.97 637.15,-193.19 626.56,-193.42 629.01,-199.97"/>
<text text-anchor="middle" x="642.5" y="-217.8" font-family="Times New Roman,serif" font-size="14.00">3.munmap()</text>
</g>
<!-- Start&#45;&gt;4 -->
<g id="edge9" class="edge">
<title>Start&#45;&gt;4</title>
<path fill="none" stroke="black" d="M2758.11,-264.19C2379.24,-264.94 736.68,-266.05 699.5,-229 693.55,-223.07 691.95,-214.49 692.27,-206.11"/>
<polygon fill="black" stroke="black" points="695.74,-206.51 693.44,-196.17 688.79,-205.69 695.74,-206.51"/>
<text text-anchor="middle" x="751" y="-217.8" font-family="Times New Roman,serif" font-size="14.00">8.set_robust_list()</text>
</g>
<!-- Start&#45;&gt;4 -->
<g id="edge10" class="edge">
<title>Start&#45;&gt;4</title>
<path fill="none" stroke="black" d="M2758.04,-263.85C2400.08,-263.01 919.31,-257.78 825.5,-229 813.83,-225.42 813.48,-219.32 802.5,-214 789.4,-207.65 774.87,-201.98 760.91,-197.14"/>
<polygon fill="black" stroke="black" points="761.96,-193.8 751.37,-193.93 759.73,-200.44 761.96,-193.8"/>
<text text-anchor="middle" x="860.5" y="-217.8" font-family="Times New Roman,serif" font-size="14.00">2.mprotect()</text>
</g>
<!-- Start&#45;&gt;4 -->
<g id="edge11" class="edge">
<title>Start&#45;&gt;4</title>
<path fill="none" stroke="black" d="M2758.17,-263.78C2410.82,-262.65 1007.66,-256.4 918.5,-229 906.83,-225.42 906.84,-218.49 895.5,-214 866.48,-202.51 833.56,-194.78 803.06,-189.58"/>
<polygon fill="black" stroke="black" points="803.25,-186.06 792.82,-187.91 802.13,-192.97 803.25,-186.06"/>
<text text-anchor="middle" x="957" y="-217.8" font-family="Times New Roman,serif" font-size="14.00">6.arch_prctl()</text>
</g>
<!-- Start&#45;&gt;4 -->
<g id="edge12" class="edge">
<title>Start&#45;&gt;4</title>
<path fill="none" stroke="black" d="M2758.09,-264.16C2434.98,-264.59 1202.81,-263.93 1032.5,-229 1015.11,-225.44 1012.68,-218.41 995.5,-214 936.55,-198.87 869.33,-190.26 813.76,-185.37"/>
<polygon fill="black" stroke="black" points="813.79,-181.86 803.52,-184.5 813.19,-188.83 813.79,-181.86"/>
<text text-anchor="middle" x="1087" y="-217.8" font-family="Times New Roman,serif" font-size="14.00">7.set_tid_address()</text>
</g>
<!-- 5 -->
<g id="node6" class="node">
<title>5</title>
<ellipse fill="none" stroke="black" cx="1512.5" cy="-178" rx="104.78" ry="18"/>
<text text-anchor="middle" x="1512.5" y="-174.3" font-family="Times New Roman,serif" font-size="14.00">ip_addr/ip_addr:port/port</text>
</g>
<!-- Start&#45;&gt;5 -->
<g id="edge13" class="edge">
<title>Start&#45;&gt;5</title>
<path fill="none" stroke="black" d="M2758.22,-263.85C2431.51,-263.05 1178.98,-258.08 1150.5,-229 1113.51,-191.23 1278.07,-181.45 1397.45,-179.22"/>
<polygon fill="black" stroke="black" points="1397.83,-182.71 1407.77,-179.04 1397.71,-175.71 1397.83,-182.71"/>
<text text-anchor="middle" x="1176" y="-217.8" font-family="Times New Roman,serif" font-size="14.00">60.read()</text>
</g>
<!-- Start&#45;&gt;5 -->
<g id="edge14" class="edge">
<title>Start&#45;&gt;5</title>
<path fill="none" stroke="black" d="M2758.16,-263.78C2440.52,-262.68 1251.61,-256.71 1224.5,-229 1196.93,-200.83 1308.86,-188.44 1401.14,-183.04"/>
<polygon fill="black" stroke="black" points="1401.36,-186.54 1411.15,-182.48 1400.97,-179.55 1401.36,-186.54"/>
<text text-anchor="middle" x="1250" y="-217.8" font-family="Times New Roman,serif" font-size="14.00">44.fstat()</text>
</g>
<!-- Start&#45;&gt;5 -->
<g id="edge15" class="edge">
<title>Start&#45;&gt;5</title>
<path fill="none" stroke="black" d="M2758.35,-263.69C2450.36,-262.29 1324.26,-255.36 1298.5,-229 1293.84,-224.23 1294.18,-219.08 1298.5,-214 1312.52,-197.5 1357.16,-188.76 1402.06,-184.14"/>
<polygon fill="black" stroke="black" points="1402.63,-187.6 1412.25,-183.16 1401.96,-180.63 1402.63,-187.6"/>
<text text-anchor="middle" x="1329" y="-217.8" font-family="Times New Roman,serif" font-size="14.00">45.mmap()</text>
</g>
<!-- Start&#45;&gt;5 -->
<g id="edge16" class="edge">
<title>Start&#45;&gt;5</title>
<path fill="none" stroke="black" d="M2758.31,-263.59C2461.19,-261.82 1406.72,-253.81 1382.5,-229 1363.74,-209.79 1385.7,-197.84 1416.59,-190.46"/>
<polygon fill="black" stroke="black" points="1417.4,-193.87 1426.43,-188.32 1415.91,-187.03 1417.4,-193.87"/>
<text text-anchor="middle" x="1418" y="-217.8" font-family="Times New Roman,serif" font-size="14.00">42.connect()</text>
</g>
<!-- Start&#45;&gt;5 -->
<g id="edge17" class="edge">
<title>Start&#45;&gt;5</title>
<path fill="none" stroke="black" d="M2758,-263.45C2473.1,-261.26 1498.99,-252.08 1476.5,-229 1468.8,-221.1 1473.14,-211.45 1481.08,-202.74"/>
<polygon fill="black" stroke="black" points="1483.61,-205.16 1488.4,-195.71 1478.77,-200.11 1483.61,-205.16"/>
<text text-anchor="middle" x="1502" y="-217.8" font-family="Times New Roman,serif" font-size="14.00">59.read()</text>
</g>
<!-- Start&#45;&gt;5 -->
<g id="edge18" class="edge">
<title>Start&#45;&gt;5</title>
<path fill="none" stroke="black" d="M2757.93,-263.73C2488.17,-262.55 1604.29,-256.6 1550.5,-229 1540.2,-223.72 1531.92,-214.23 1525.74,-204.92"/>
<polygon fill="black" stroke="black" points="1528.64,-202.95 1520.47,-196.2 1522.65,-206.57 1528.64,-202.95"/>
<text text-anchor="middle" x="1577" y="-217.8" font-family="Times New Roman,serif" font-size="14.00">68.send()</text>
</g>
<!-- Start&#45;&gt;5 -->
<g id="edge19" class="edge">
<title>Start&#45;&gt;5</title>
<path fill="none" stroke="black" d="M2758.08,-264.19C2508.32,-264.48 1733.83,-262.61 1626.5,-229 1614.85,-225.35 1614.36,-219.55 1603.5,-214 1592.08,-208.16 1579.45,-202.72 1567.33,-197.94"/>
<polygon fill="black" stroke="black" points="1568.34,-194.58 1557.75,-194.26 1565.83,-201.11 1568.34,-194.58"/>
<text text-anchor="middle" x="1652" y="-217.8" font-family="Times New Roman,serif" font-size="14.00">43.fstat()</text>
</g>
<!-- Start&#45;&gt;5 -->
<g id="edge20" class="edge">
<title>Start&#45;&gt;5</title>
<path fill="none" stroke="black" d="M2758.24,-264.03C2519.03,-263.79 1800.59,-260.44 1700.5,-229 1688.85,-225.34 1688.77,-218.68 1677.5,-214 1653.74,-204.14 1626.86,-196.92 1601.8,-191.7"/>
<polygon fill="black" stroke="black" points="1602.42,-188.25 1591.92,-189.72 1601.04,-195.12 1602.42,-188.25"/>
<text text-anchor="middle" x="1736" y="-217.8" font-family="Times New Roman,serif" font-size="14.00">41.connect()</text>
</g>
<!-- Start&#45;&gt;5 -->
<g id="edge21" class="edge">
<title>Start&#45;&gt;5</title>
<path fill="none" stroke="black" d="M2757.94,-263.79C2532.13,-262.86 1885.35,-257.68 1794.5,-229 1782.86,-225.33 1782.93,-218.25 1771.5,-214 1725.04,-196.72 1671.07,-187.81 1624.46,-183.28"/>
<polygon fill="black" stroke="black" points="1624.61,-179.78 1614.33,-182.35 1623.97,-186.75 1624.61,-179.78"/>
<text text-anchor="middle" x="1825" y="-217.8" font-family="Times New Roman,serif" font-size="14.00">46.mmap()</text>
</g>
<!-- Start&#45;&gt;5 -->
<g id="edge22" class="edge">
<title>Start&#45;&gt;5</title>
<path fill="none" stroke="black" d="M2758.14,-264.48C2563.59,-265.15 2057.78,-263.42 1893.5,-229 1875.72,-225.28 1873.14,-218.3 1855.5,-214 1779.85,-195.58 1692.52,-186.84 1624.92,-182.7"/>
<polygon fill="black" stroke="black" points="1624.85,-179.2 1614.67,-182.1 1624.44,-186.18 1624.85,-179.2"/>
<text text-anchor="middle" x="1920" y="-217.8" font-family="Times New Roman,serif" font-size="14.00">67.send()</text>
</g>
<!-- 6 -->
<g id="node7" class="node">
<title>6</title>
<ellipse fill="none" stroke="black" cx="2027.5" cy="-178" rx="61.19" ry="18"/>
<text text-anchor="middle" x="2027.5" y="-174.3" font-family="Times New Roman,serif" font-size="14.00">/etc/host.conf</text>
</g>
<!-- Start&#45;&gt;6 -->
<g id="edge23" class="edge">
<title>Start&#45;&gt;6</title>
<path fill="none" stroke="black" d="M2758.24,-263.8C2548.47,-262.88 1982.12,-257.75 1954.5,-229 1941.76,-215.75 1956.88,-203.96 1976.6,-195.16"/>
<polygon fill="black" stroke="black" points="1977.99,-198.38 1985.9,-191.33 1975.32,-191.9 1977.99,-198.38"/>
<text text-anchor="middle" x="1980" y="-217.8" font-family="Times New Roman,serif" font-size="14.00">62.fstat()</text>
</g>
<!-- Start&#45;&gt;6 -->
<g id="edge24" class="edge">
<title>Start&#45;&gt;6</title>
<path fill="none" stroke="black" d="M2758.41,-263.48C2561.52,-261.76 2053.75,-254.85 2028.5,-229 2022.69,-223.06 2021.09,-214.58 2021.35,-206.29"/>
<polygon fill="black" stroke="black" points="2024.86,-206.42 2022.51,-196.09 2017.9,-205.63 2024.86,-206.42"/>
<text text-anchor="middle" x="2056" y="-217.8" font-family="Times New Roman,serif" font-size="14.00">61.open()</text>
</g>
<!-- Start&#45;&gt;6 -->
<g id="edge25" class="edge">
<title>Start&#45;&gt;6</title>
<path fill="none" stroke="black" d="M2758.1,-264.41C2599,-264.56 2240.25,-261.18 2122.5,-229 2100.14,-222.89 2077.1,-210.92 2059.3,-200.23"/>
<polygon fill="black" stroke="black" points="2060.85,-197.07 2050.5,-194.79 2057.17,-203.02 2060.85,-197.07"/>
<text text-anchor="middle" x="2148" y="-217.8" font-family="Times New Roman,serif" font-size="14.00">63.read()</text>
</g>
<!-- 7 -->
<g id="node8" class="node">
<title>7</title>
<ellipse fill="none" stroke="black" cx="2224.5" cy="-178" rx="53.09" ry="18"/>
<text text-anchor="middle" x="2224.5" y="-174.3" font-family="Times New Roman,serif" font-size="14.00">/etc/rc.local</text>
</g>
<!-- Start&#45;&gt;7 -->
<g id="edge26" class="edge">
<title>Start&#45;&gt;7</title>
<path fill="none" stroke="black" d="M2758.63,-262.69C2589.82,-259.43 2200.11,-249.69 2180.5,-229 2171.58,-219.59 2178.91,-208.83 2189.97,-199.71"/>
<polygon fill="black" stroke="black" points="2192.13,-202.47 2198.07,-193.7 2187.96,-196.85 2192.13,-202.47"/>
<text text-anchor="middle" x="2214" y="-217.8" font-family="Times New Roman,serif" font-size="14.00">30.rename()</text>
</g>
<!-- Start&#45;&gt;7 -->
<g id="edge27" class="edge">
<title>Start&#45;&gt;7</title>
<path fill="none" stroke="black" d="M2759.34,-261.79C2618.44,-257.3 2327.43,-246.1 2284.5,-229 2270.1,-223.27 2256.6,-212.69 2246.07,-202.74"/>
<polygon fill="black" stroke="black" points="2248.52,-200.23 2238.95,-195.68 2243.59,-205.2 2248.52,-200.23"/>
<text text-anchor="middle" x="2312" y="-217.8" font-family="Times New Roman,serif" font-size="14.00">22.open()</text>
</g>
<!-- 8 -->
<g id="node9" class="node">
<title>8</title>
<ellipse fill="none" stroke="black" cx="2462.5" cy="-178" rx="67.69" ry="18"/>
<text text-anchor="middle" x="2462.5" y="-174.3" font-family="Times New Roman,serif" font-size="14.00">/etc/resolv.conf</text>
</g>
<!-- Start&#45;&gt;8 -->
<g id="edge28" class="edge">
<title>Start&#45;&gt;8</title>
<path fill="none" stroke="black" d="M2758.23,-264.09C2627.89,-263.42 2375.77,-258.3 2348.5,-229 2329.4,-208.48 2358.91,-195.92 2392.68,-188.52"/>
<polygon fill="black" stroke="black" points="2393.66,-191.89 2402.77,-186.48 2392.27,-185.03 2393.66,-191.89"/>
<text text-anchor="middle" x="2376" y="-217.8" font-family="Times New Roman,serif" font-size="14.00">38.open()</text>
</g>
<!-- Start&#45;&gt;8 -->
<g id="edge29" class="edge">
<title>Start&#45;&gt;8</title>
<path fill="none" stroke="black" d="M2758.23,-262.9C2645.9,-260.5 2448.43,-252.89 2426.5,-229 2418.92,-220.75 2423.56,-210.89 2431.7,-202.11"/>
<polygon fill="black" stroke="black" points="2434.3,-204.47 2439.16,-195.05 2429.49,-199.38 2434.3,-204.47"/>
<text text-anchor="middle" x="2452" y="-217.8" font-family="Times New Roman,serif" font-size="14.00">39.fstat()</text>
</g>
<!-- Start&#45;&gt;8 -->
<g id="edge30" class="edge">
<title>Start&#45;&gt;8</title>
<path fill="none" stroke="black" d="M2758.37,-262.95C2673.42,-260.59 2543.18,-253.02 2500.5,-229 2490.41,-223.33 2482.16,-213.77 2475.96,-204.52"/>
<polygon fill="black" stroke="black" points="2478.86,-202.56 2470.64,-195.88 2472.9,-206.23 2478.86,-202.56"/>
<text text-anchor="middle" x="2523.5" y="-217.8" font-family="Times New Roman,serif" font-size="14.00">47.stat()</text>
</g>
<!-- Start&#45;&gt;8 -->
<g id="edge31" class="edge">
<title>Start&#45;&gt;8</title>
<path fill="none" stroke="black" d="M2762.86,-258.72C2712.22,-253.86 2643.43,-244.92 2584.5,-229 2580.4,-227.89 2540.08,-211.28 2506.89,-197.5"/>
<polygon fill="black" stroke="black" points="2507.89,-194.13 2497.32,-193.52 2505.21,-200.59 2507.89,-194.13"/>
<text text-anchor="middle" x="2610" y="-217.8" font-family="Times New Roman,serif" font-size="14.00">40.read()</text>
</g>
<!-- 9 -->
<g id="node10" class="node">
<title>9</title>
<ellipse fill="none" stroke="black" cx="2720.5" cy="-178" rx="59.29" ry="18"/>
<text text-anchor="middle" x="2720.5" y="-174.3" font-family="Times New Roman,serif" font-size="14.00">/proc/net/dev</text>
</g>
<!-- Start&#45;&gt;9 -->
<g id="edge32" class="edge">
<title>Start&#45;&gt;9</title>
<path fill="none" stroke="black" d="M2761.04,-260.06C2713.69,-255.82 2658.55,-247.05 2643.5,-229 2631.32,-214.41 2647.19,-202.56 2667.63,-194.07"/>
<polygon fill="black" stroke="black" points="2669.15,-197.23 2677.25,-190.4 2666.66,-190.69 2669.15,-197.23"/>
<text text-anchor="middle" x="2671" y="-217.8" font-family="Times New Roman,serif" font-size="14.00">48.open()</text>
</g>
<!-- Start&#45;&gt;9 -->
<g id="edge33" class="edge">
<title>Start&#45;&gt;9</title>
<path fill="none" stroke="black" d="M2765.93,-257.09C2748.8,-251.93 2732.28,-243.29 2721.5,-229 2716.7,-222.64 2715.21,-214.41 2715.28,-206.48"/>
<polygon fill="black" stroke="black" points="2718.77,-206.64 2716.11,-196.39 2711.8,-206.07 2718.77,-206.64"/>
<text text-anchor="middle" x="2749" y="-217.8" font-family="Times New Roman,serif" font-size="14.00">49.lseek()</text>
</g>
<!-- Start&#45;&gt;9 -->
<g id="edge34" class="edge">
<title>Start&#45;&gt;9</title>
<path fill="none" stroke="black" d="M2817.19,-247.3C2805.82,-237.22 2790.7,-224.37 2776.5,-214 2769.86,-209.15 2762.54,-204.27 2755.45,-199.76"/>
<polygon fill="black" stroke="black" points="2756.99,-196.6 2746.66,-194.27 2753.29,-202.53 2756.99,-196.6"/>
<text text-anchor="middle" x="2821" y="-217.8" font-family="Times New Roman,serif" font-size="14.00">50.read()</text>
</g>
<!-- 10 -->
<g id="node11" class="node">
<title>10</title>
<ellipse fill="none" stroke="black" cx="2918.5" cy="-178" rx="36.29" ry="18"/>
<text text-anchor="middle" x="2918.5" y="-174.3" font-family="Times New Roman,serif" font-size="14.00">^PID.*</text>
</g>
<!-- Start&#45;&gt;10 -->
<g id="edge35" class="edge">
<title>Start&#45;&gt;10</title>
<path fill="none" stroke="black" d="M2846.81,-246.91C2853.89,-236.81 2863.53,-224.08 2873.5,-214 2878.45,-208.99 2884.13,-204.06 2889.75,-199.55"/>
<polygon fill="black" stroke="black" points="2892.08,-202.17 2897.85,-193.28 2887.8,-196.63 2892.08,-202.17"/>
<text text-anchor="middle" x="2908" y="-217.8" font-family="Times New Roman,serif" font-size="14.00">15.getppid()</text>
</g>
<!-- Start&#45;&gt;10 -->
<g id="edge36" class="edge">
<title>Start&#45;&gt;10</title>
<path fill="none" stroke="black" d="M2902.44,-255.83C2918.03,-250.63 2932.86,-242.29 2942.5,-229 2948.26,-221.05 2945.62,-211.5 2940.36,-202.88"/>
<polygon fill="black" stroke="black" points="2943.13,-200.73 2934.44,-194.67 2937.45,-204.83 2943.13,-200.73"/>
<text text-anchor="middle" x="2977" y="-217.8" font-family="Times New Roman,serif" font-size="14.00">13.getpid()</text>
</g>
<!-- 11 -->
<g id="node12" class="node">
<title>11</title>
<ellipse fill="none" stroke="black" cx="3040.5" cy="-91" rx="43.59" ry="18"/>
<text text-anchor="middle" x="3040.5" y="-87.3" font-family="Times New Roman,serif" font-size="14.00">/.*bin/rm</text>
</g>
<!-- Start&#45;&gt;11 -->
<g id="edge37" class="edge">
<title>Start&#45;&gt;11</title>
<path fill="none" stroke="black" d="M2906.73,-257.78C2948.77,-252.64 2996.59,-243.72 3011.5,-229 3040.58,-200.27 3043.97,-150.16 3042.87,-119.17"/>
<polygon fill="black" stroke="black" points="3046.36,-118.86 3042.33,-109.06 3039.37,-119.24 3046.36,-118.86"/>
<text text-anchor="middle" x="3064.5" y="-174.3" font-family="Times New Roman,serif" font-size="14.00">33.stat()</text>
</g>
<!-- 12 -->
<g id="node13" class="node">
<title>12</title>
<ellipse fill="none" stroke="black" cx="3152.5" cy="-178" rx="37.09" ry="18"/>
<text text-anchor="middle" x="3152.5" y="-174.3" font-family="Times New Roman,serif" font-size="14.00">^UID.*</text>
</g>
<!-- Start&#45;&gt;12 -->
<g id="edge38" class="edge">
<title>Start&#45;&gt;12</title>
<path fill="none" stroke="black" d="M2909.48,-259.66C2952.15,-255.3 3006.15,-246.55 3051.5,-229 3062.88,-224.6 3063.79,-219.85 3074.5,-214 3087.6,-206.84 3102.45,-199.91 3115.65,-194.12"/>
<polygon fill="black" stroke="black" points="3117.12,-197.3 3124.92,-190.13 3114.35,-190.87 3117.12,-197.3"/>
<text text-anchor="middle" x="3108" y="-217.8" font-family="Times New Roman,serif" font-size="14.00">14.geteuid()</text>
</g>
<!-- Start&#45;&gt;12 -->
<g id="edge39" class="edge">
<title>Start&#45;&gt;12</title>
<path fill="none" stroke="black" d="M2909.81,-259.98C2994.84,-254.69 3124.6,-244.25 3141.5,-229 3147.88,-223.24 3151.01,-214.7 3152.43,-206.3"/>
<polygon fill="black" stroke="black" points="3155.92,-206.62 3153.43,-196.32 3148.95,-205.92 3155.92,-206.62"/>
<text text-anchor="middle" x="3182" y="-217.8" font-family="Times New Roman,serif" font-size="14.00">11.getuid()</text>
</g>
<!-- 13 -->
<g id="node14" class="node">
<title>13</title>
<ellipse fill="none" stroke="black" cx="3296.5" cy="-178" rx="61.19" ry="18"/>
<text text-anchor="middle" x="3296.5" y="-174.3" font-family="Times New Roman,serif" font-size="14.00">/dev/urandom</text>
</g>
<!-- Start&#45;&gt;13 -->
<g id="edge40" class="edge">
<title>Start&#45;&gt;13</title>
<path fill="none" stroke="black" d="M2911.28,-261.19C3005.85,-256.97 3161.81,-247.43 3216.5,-229 3235.05,-222.75 3253.72,-211.43 3268.35,-201.14"/>
<polygon fill="black" stroke="black" points="3270.43,-203.96 3276.47,-195.25 3266.32,-198.29 3270.43,-203.96"/>
<text text-anchor="middle" x="3275" y="-217.8" font-family="Times New Roman,serif" font-size="14.00">35.open()</text>
</g>
<!-- Start&#45;&gt;13 -->
<g id="edge41" class="edge">
<title>Start&#45;&gt;13</title>
<path fill="none" stroke="black" d="M2912.76,-263.83C3038.86,-262.75 3277.53,-256.98 3303.5,-229 3309.32,-222.72 3309.68,-213.95 3307.89,-205.5"/>
<polygon fill="black" stroke="black" points="3311.24,-204.47 3305.01,-195.9 3304.54,-206.48 3311.24,-204.47"/>
<text text-anchor="middle" x="3335" y="-217.8" font-family="Times New Roman,serif" font-size="14.00">36.read()</text>
</g>
<!-- 14 -->
<g id="node15" class="node">
<title>14</title>
<ellipse fill="none" stroke="black" cx="3566.5" cy="-178" rx="94.78" ry="18"/>
<text text-anchor="middle" x="3566.5" y="-174.3" font-family="Times New Roman,serif" font-size="14.00">/etc/sed[0&#45;9a&#45;zA&#45;Z]{6}</text>
</g>
<!-- Start&#45;&gt;14 -->
<g id="edge42" class="edge">
<title>Start&#45;&gt;14</title>
<path fill="none" stroke="black" d="M2911.81,-262.03C3037.07,-258.27 3280.71,-248.66 3364.5,-229 3381.37,-225.04 3383.94,-219.14 3400.5,-214 3428.55,-205.28 3459.95,-198.04 3487.82,-192.46"/>
<polygon fill="black" stroke="black" points="3488.78,-195.83 3497.92,-190.47 3487.43,-188.97 3488.78,-195.83"/>
<text text-anchor="middle" x="3426" y="-217.8" font-family="Times New Roman,serif" font-size="14.00">26.fstat()</text>
</g>
<!-- Start&#45;&gt;14 -->
<g id="edge43" class="edge">
<title>Start&#45;&gt;14</title>
<path fill="none" stroke="black" d="M2912.87,-264.55C3055.37,-264.74 3353.67,-261.13 3451.5,-229 3463.09,-225.19 3463.62,-219.53 3474.5,-214 3486.27,-208.01 3499.32,-202.45 3511.8,-197.6"/>
<polygon fill="black" stroke="black" points="3513.1,-200.85 3521.21,-194.03 3510.62,-194.3 3513.1,-200.85"/>
<text text-anchor="middle" x="3509.5" y="-217.8" font-family="Times New Roman,serif" font-size="14.00">29.fchmod()</text>
</g>
<!-- Start&#45;&gt;14 -->
<g id="edge44" class="edge">
<title>Start&#45;&gt;14</title>
<path fill="none" stroke="black" d="M2912.87,-264.71C3086.01,-265.66 3493.51,-264.09 3544.5,-229 3552.33,-223.61 3557.4,-214.77 3560.67,-206.01"/>
<polygon fill="black" stroke="black" points="3564.05,-206.93 3563.65,-196.35 3557.36,-204.87 3564.05,-206.93"/>
<text text-anchor="middle" x="3584.5" y="-217.8" font-family="Times New Roman,serif" font-size="14.00">27.write()</text>
</g>
<!-- Start&#45;&gt;14 -->
<g id="edge45" class="edge">
<title>Start&#45;&gt;14</title>
<path fill="none" stroke="black" d="M2912.82,-263.38C3105.16,-261.46 3591.48,-254.12 3615.5,-229 3624.37,-219.72 3617.58,-209.59 3606.54,-200.88"/>
<polygon fill="black" stroke="black" points="3608.55,-198.02 3598.36,-195.11 3604.51,-203.74 3608.55,-198.02"/>
<text text-anchor="middle" x="3655" y="-217.8" font-family="Times New Roman,serif" font-size="14.00">28.fchown()</text>
</g>
<!-- Start&#45;&gt;14 -->
<g id="edge46" class="edge">
<title>Start&#45;&gt;14</title>
<path fill="none" stroke="black" d="M2912.96,-263.71C3119,-262.57 3666.7,-256.91 3693.5,-229 3712.38,-209.33 3688.62,-197.24 3656.73,-189.89"/>
<polygon fill="black" stroke="black" points="3657.12,-186.39 3646.62,-187.76 3655.68,-193.24 3657.12,-186.39"/>
<text text-anchor="middle" x="3726.5" y="-217.8" font-family="Times New Roman,serif" font-size="14.00">25.fcntl()</text>
</g>
<!-- 15 -->
<g id="node16" class="node">
<title>15</title>
<ellipse fill="none" stroke="black" cx="3884.5" cy="-178" rx="45.49" ry="18"/>
<text text-anchor="middle" x="3884.5" y="-174.3" font-family="Times New Roman,serif" font-size="14.00">/proc/stat</text>
</g>
<!-- Start&#45;&gt;15 -->
<g id="edge47" class="edge">
<title>Start&#45;&gt;15</title>
<path fill="none" stroke="black" d="M2912.87,-264.37C3104.33,-264.75 3596.32,-262.34 3756.5,-229 3788.6,-222.32 3823.13,-208.4 3848.22,-196.94"/>
<polygon fill="black" stroke="black" points="3849.76,-200.08 3857.35,-192.69 3846.81,-193.74 3849.76,-200.08"/>
<text text-anchor="middle" x="3833" y="-217.8" font-family="Times New Roman,serif" font-size="14.00">55.read()</text>
</g>
<!-- Start&#45;&gt;15 -->
<g id="edge48" class="edge">
<title>Start&#45;&gt;15</title>
<path fill="none" stroke="black" d="M2912.61,-263.6C3144.73,-262.11 3823.35,-255.51 3862.5,-229 3870.37,-223.67 3875.45,-214.84 3878.72,-206.08"/>
<polygon fill="black" stroke="black" points="3882.1,-206.99 3881.69,-196.4 3875.41,-204.93 3882.1,-206.99"/>
<text text-anchor="middle" x="3901" y="-217.8" font-family="Times New Roman,serif" font-size="14.00">54.fstat()</text>
</g>
<!-- Start&#45;&gt;15 -->
<g id="edge49" class="edge">
<title>Start&#45;&gt;15</title>
<path fill="none" stroke="black" d="M2913.09,-264.44C3157.17,-265.45 3895.18,-265.46 3930.5,-229 3940.05,-219.13 3931.39,-207.89 3919.11,-198.57"/>
<polygon fill="black" stroke="black" points="3920.89,-195.55 3910.67,-192.76 3916.92,-201.31 3920.89,-195.55"/>
<text text-anchor="middle" x="3963" y="-217.8" font-family="Times New Roman,serif" font-size="14.00">53.open()</text>
</g>
<!-- 16 -->
<g id="node17" class="node">
<title>16</title>
<ellipse fill="none" stroke="black" cx="4080.5" cy="-178" rx="77.19" ry="18"/>
<text text-anchor="middle" x="4080.5" y="-174.3" font-family="Times New Roman,serif" font-size="14.00">/etc/nsswitch.conf</text>
</g>
<!-- Start&#45;&gt;16 -->
<g id="edge50" class="edge">
<title>Start&#45;&gt;16</title>
<path fill="none" stroke="black" d="M2913.03,-263.87C3155.8,-263.14 3891.31,-258.49 3994.5,-229 4014.67,-223.23 4035.07,-211.68 4050.93,-201.13"/>
<polygon fill="black" stroke="black" points="4052.99,-203.96 4059.25,-195.41 4049.02,-198.19 4052.99,-203.96"/>
<text text-anchor="middle" x="4055" y="-217.8" font-family="Times New Roman,serif" font-size="14.00">58.read()</text>
</g>
<!-- Start&#45;&gt;16 -->
<g id="edge51" class="edge">
<title>Start&#45;&gt;16</title>
<path fill="none" stroke="black" d="M2912.66,-263.27C3181.83,-260.56 4064,-250.08 4084.5,-229 4090.37,-222.96 4091.23,-214.35 4090.03,-205.98"/>
<polygon fill="black" stroke="black" points="4093.41,-205.02 4087.75,-196.06 4086.59,-206.59 4093.41,-205.02"/>
<text text-anchor="middle" x="4116" y="-217.8" font-family="Times New Roman,serif" font-size="14.00">57.fstat()</text>
</g>
<!-- Start&#45;&gt;16 -->
<g id="edge52" class="edge">
<title>Start&#45;&gt;16</title>
<path fill="none" stroke="black" d="M2912.57,-263.38C3190.19,-260.96 4123.88,-251.2 4145.5,-229 4156.47,-217.72 4145.85,-206.87 4130.24,-198.16"/>
<polygon fill="black" stroke="black" points="4131.66,-194.96 4121.16,-193.56 4128.5,-201.2 4131.66,-194.96"/>
<text text-anchor="middle" x="4178" y="-217.8" font-family="Times New Roman,serif" font-size="14.00">56.open()</text>
</g>
<!-- 17 -->
<g id="node18" class="node">
<title>17</title>
<ellipse fill="none" stroke="black" cx="4185.5" cy="-18" rx="57.39" ry="18"/>
<text text-anchor="middle" x="4185.5" y="-14.3" font-family="Times New Roman,serif" font-size="14.00">/etc/rc.*.d/.*</text>
</g>
<!-- Start&#45;&gt;17 -->
<g id="edge53" class="edge">
<title>Start&#45;&gt;17</title>
<path fill="none" stroke="black" d="M2912.86,-263.48C3199.63,-261.35 4186.72,-252.36 4209.5,-229 4219.85,-218.38 4207.28,-210.57 4204.5,-196 4194.49,-143.68 4189.35,-81.58 4187.05,-46.59"/>
<polygon fill="black" stroke="black" points="4190.52,-45.99 4186.4,-36.22 4183.53,-46.42 4190.52,-45.99"/>
<text text-anchor="middle" x="4224" y="-130.8" font-family="Times New Roman,serif" font-size="14.00">31.open()</text>
</g>
<!-- 18 -->
<g id="node19" class="node">
<title>18</title>
<ellipse fill="none" stroke="black" cx="4267.5" cy="-178" rx="53.89" ry="18"/>
<text text-anchor="middle" x="4267.5" y="-174.3" font-family="Times New Roman,serif" font-size="14.00">/etc/init.d/.*</text>
</g>
<!-- Start&#45;&gt;18 -->
<g id="edge54" class="edge">
<title>Start&#45;&gt;18</title>
<path fill="none" stroke="black" d="M2912.68,-263.53C3206.69,-261.55 4241.21,-252.91 4265.5,-229 4271.42,-223.17 4273.19,-214.72 4273.09,-206.42"/>
<polygon fill="black" stroke="black" points="4276.55,-205.83 4272.14,-196.2 4269.58,-206.48 4276.55,-205.83"/>
<text text-anchor="middle" x="4300" y="-217.8" font-family="Times New Roman,serif" font-size="14.00">32.open()</text>
</g>
<!-- 19 -->
<g id="node20" class="node">
<title>19</title>
<ellipse fill="none" stroke="black" cx="4357.5" cy="-91" rx="28.7" ry="18"/>
<text text-anchor="middle" x="4357.5" y="-87.3" font-family="Times New Roman,serif" font-size="14.00">^rm$</text>
</g>
<!-- Start&#45;&gt;19 -->
<g id="edge55" class="edge">
<title>Start&#45;&gt;19</title>
<path fill="none" stroke="black" d="M2912.76,-263.5C3215.3,-261.38 4304.2,-252.14 4331.5,-229 4362.71,-202.53 4364.04,-151.27 4361.34,-119.51"/>
<polygon fill="black" stroke="black" points="4364.78,-118.74 4360.26,-109.16 4357.81,-119.47 4364.78,-118.74"/>
<text text-anchor="middle" x="4387.5" y="-174.3" font-family="Times New Roman,serif" font-size="14.00">34.exec()</text>
</g>
<!-- 20 -->
<g id="node21" class="node">
<title>20</title>
<ellipse fill="none" stroke="black" cx="4437.5" cy="-18" rx="46.29" ry="18"/>
<text text-anchor="middle" x="4437.5" y="-14.3" font-family="Times New Roman,serif" font-size="14.00">/.*bin/sed</text>
</g>
<!-- Start&#45;&gt;20 -->
<g id="edge56" class="edge">
<title>Start&#45;&gt;20</title>
<path fill="none" stroke="black" d="M2913.13,-264.22C3203.04,-264.78 4212.7,-264.16 4352.5,-229 4368.21,-225.05 4408.26,-209.31 4417.5,-196 4448.71,-151.03 4446.32,-83.61 4441.87,-46.3"/>
<polygon fill="black" stroke="black" points="4445.31,-45.63 4440.53,-36.18 4438.38,-46.56 4445.31,-45.63"/>
<text text-anchor="middle" x="4465.5" y="-130.8" font-family="Times New Roman,serif" font-size="14.00">17.stat()</text>
</g>
<!-- 21 -->
<g id="node22" class="node">
<title>21</title>
<ellipse fill="none" stroke="black" cx="4507.5" cy="-178" rx="42.49" ry="18"/>
<text text-anchor="middle" x="4507.5" y="-174.3" font-family="Times New Roman,serif" font-size="14.00">^uname$</text>
</g>
<!-- Start&#45;&gt;21 -->
<g id="edge57" class="edge">
<title>Start&#45;&gt;21</title>
<path fill="none" stroke="black" d="M2912.7,-263.44C3217.25,-261.09 4322.24,-251.06 4393.5,-229 4405.15,-225.39 4405.63,-219.55 4416.5,-214 4431.97,-206.09 4449.68,-198.89 4465.33,-193.11"/>
<polygon fill="black" stroke="black" points="4466.55,-196.39 4474.77,-189.7 4464.18,-189.81 4466.55,-196.39"/>
<text text-anchor="middle" x="4439.5" y="-217.8" font-family="Times New Roman,serif" font-size="14.00">4.exec()</text>
</g>
<!-- 22 -->
<g id="node23" class="node">
<title>22</title>
<ellipse fill="none" stroke="black" cx="4613.5" cy="-178" rx="46.29" ry="18"/>
<text text-anchor="middle" x="4613.5" y="-174.3" font-family="Times New Roman,serif" font-size="14.00">/etc/hosts</text>
</g>
<!-- Start&#45;&gt;22 -->
<g id="edge58" class="edge">
<title>Start&#45;&gt;22</title>
<path fill="none" stroke="black" d="M2912.64,-263.52C3225.64,-261.42 4387.8,-252.08 4462.5,-229 4474.16,-225.4 4474.3,-218.86 4485.5,-214 4516.14,-200.69 4526.3,-204.94 4558.5,-196 4562.03,-195.02 4565.67,-193.97 4569.33,-192.9"/>
<polygon fill="black" stroke="black" points="4570.39,-196.23 4578.97,-190.01 4568.38,-189.53 4570.39,-196.23"/>
<text text-anchor="middle" x="4511" y="-217.8" font-family="Times New Roman,serif" font-size="14.00">66.read()</text>
</g>
<!-- Start&#45;&gt;22 -->
<g id="edge59" class="edge">
<title>Start&#45;&gt;22</title>
<path fill="none" stroke="black" d="M2912.85,-263.59C3235.14,-261.75 4458.13,-253.18 4536.5,-229 4548.16,-225.4 4549.26,-220.65 4559.5,-214 4566.83,-209.23 4574.74,-204.1 4582.17,-199.28"/>
<polygon fill="black" stroke="black" points="4584.14,-202.18 4590.63,-193.8 4580.33,-196.3 4584.14,-202.18"/>
<text text-anchor="middle" x="4585" y="-217.8" font-family="Times New Roman,serif" font-size="14.00">65.fstat()</text>
</g>
<!-- Start&#45;&gt;22 -->
<g id="edge60" class="edge">
<title>Start&#45;&gt;22</title>
<path fill="none" stroke="black" d="M2912.84,-263.89C3250.43,-263.25 4579.45,-258.82 4610.5,-229 4616.49,-223.24 4618.43,-214.81 4618.5,-206.5"/>
<polygon fill="black" stroke="black" points="4621.97,-205.98 4617.76,-196.26 4614.99,-206.49 4621.97,-205.98"/>
<text text-anchor="middle" x="4646" y="-217.8" font-family="Times New Roman,serif" font-size="14.00">64.open()</text>
</g>
<!-- 23 -->
<g id="node24" class="node">
<title>23</title>
<ellipse fill="none" stroke="black" cx="4755.5" cy="-178" rx="44.69" ry="18"/>
<text text-anchor="middle" x="4755.5" y="-174.3" font-family="Times New Roman,serif" font-size="14.00">.*/selinux</text>
</g>
<!-- Start&#45;&gt;23 -->
<g id="edge61" class="edge">
<title>Start&#45;&gt;23</title>
<path fill="none" stroke="black" d="M2912.89,-263.71C3251.79,-262.26 4591.99,-254.94 4677.5,-229 4696.23,-223.32 4714.79,-211.73 4729.1,-201.14"/>
<polygon fill="black" stroke="black" points="4731.63,-203.61 4737.42,-194.74 4727.36,-198.06 4731.63,-203.61"/>
<text text-anchor="middle" x="4742.5" y="-217.8" font-family="Times New Roman,serif" font-size="14.00">20.access()</text>
</g>
<!-- Start&#45;&gt;23 -->
<g id="edge62" class="edge">
<title>Start&#45;&gt;23</title>
<path fill="none" stroke="black" d="M2912.79,-264.07C3269.67,-264.22 4742.31,-262.79 4775.5,-229 4782.28,-222.1 4780.3,-212.6 4775.55,-203.74"/>
<polygon fill="black" stroke="black" points="4778.43,-201.74 4770.09,-195.21 4772.53,-205.52 4778.43,-201.74"/>
<text text-anchor="middle" x="4809" y="-217.8" font-family="Times New Roman,serif" font-size="14.00">19.statfs()</text>
</g>
<!-- 24 -->
<g id="node25" class="node">
<title>24</title>
<ellipse fill="none" stroke="black" cx="4869.5" cy="-91" rx="32.49" ry="18"/>
<text text-anchor="middle" x="4869.5" y="-87.3" font-family="Times New Roman,serif" font-size="14.00">^eth.*</text>
</g>
<!-- Start&#45;&gt;24 -->
<g id="edge63" class="edge">
<title>Start&#45;&gt;24</title>
<path fill="none" stroke="black" d="M2912.83,-263.96C3276.86,-263.63 4803.75,-260.37 4841.5,-229 4873.2,-202.65 4875.17,-150.98 4872.89,-119.18"/>
<polygon fill="black" stroke="black" points="4876.38,-118.86 4872,-109.21 4869.41,-119.49 4876.38,-118.86"/>
<text text-anchor="middle" x="4898" y="-174.3" font-family="Times New Roman,serif" font-size="14.00">37.read()</text>
</g>
<!-- 25 -->
<g id="node26" class="node">
<title>25</title>
<ellipse fill="none" stroke="black" cx="4984.5" cy="-178" rx="37.89" ry="18"/>
<text text-anchor="middle" x="4984.5" y="-174.3" font-family="Times New Roman,serif" font-size="14.00">^GID.*</text>
</g>
<!-- Start&#45;&gt;25 -->
<g id="edge64" class="edge">
<title>Start&#45;&gt;25</title>
<path fill="none" stroke="black" d="M2912.79,-263.87C3274.31,-263.14 4784.91,-258.31 4880.5,-229 4892.16,-225.42 4892.74,-219.77 4903.5,-214 4917.07,-206.71 4932.48,-199.74 4946.19,-193.97"/>
<polygon fill="black" stroke="black" points="4947.92,-197.05 4955.82,-190 4945.25,-190.58 4947.92,-197.05"/>
<text text-anchor="middle" x="4937" y="-217.8" font-family="Times New Roman,serif" font-size="14.00">16.getegid()</text>
</g>
<!-- Start&#45;&gt;25 -->
<g id="edge65" class="edge">
<title>Start&#45;&gt;25</title>
<path fill="none" stroke="black" d="M2912.98,-263.99C3291.43,-263.78 4928.97,-261.04 4970.5,-229 4977.58,-223.54 4981.27,-214.8 4983.14,-206.15"/>
<polygon fill="black" stroke="black" points="4986.61,-206.63 4984.59,-196.23 4979.68,-205.62 4986.61,-206.63"/>
<text text-anchor="middle" x="5012" y="-217.8" font-family="Times New Roman,serif" font-size="14.00">12.getgid()</text>
</g>
<!-- 26 -->
<g id="node27" class="node">
<title>26</title>
<ellipse fill="none" stroke="black" cx="5115.5" cy="-178" rx="27.1" ry="18"/>
<text text-anchor="middle" x="5115.5" y="-174.3" font-family="Times New Roman,serif" font-size="14.00">^sh$</text>
</g>
<!-- Start&#45;&gt;26 -->
<g id="edge66" class="edge">
<title>Start&#45;&gt;26</title>
<path fill="none" stroke="black" d="M2913.01,-264.08C3292.85,-264.31 4943.4,-263.33 5046.5,-229 5064,-223.17 5080.82,-211.16 5093.47,-200.37"/>
<polygon fill="black" stroke="black" points="5096.01,-202.8 5101.15,-193.53 5091.35,-197.57 5096.01,-202.8"/>
<text text-anchor="middle" x="5103.5" y="-217.8" font-family="Times New Roman,serif" font-size="14.00">10.wait4()</text>
</g>
<!-- Start&#45;&gt;26 -->
<g id="edge67" class="edge">
<title>Start&#45;&gt;26</title>
<path fill="none" stroke="black" d="M2912.87,-263.55C3311.28,-261.16 5113.57,-249.23 5133.5,-229 5140.39,-222 5138.43,-212.17 5133.8,-203.08"/>
<polygon fill="black" stroke="black" points="5136.68,-201.09 5128.49,-194.36 5130.7,-204.72 5136.68,-201.09"/>
<text text-anchor="middle" x="5163.5" y="-217.8" font-family="Times New Roman,serif" font-size="14.00">9.clone()</text>
</g>
<!-- 27 -->
<g id="node28" class="node">
<title>27</title>
<ellipse fill="none" stroke="black" cx="5220.5" cy="-18" rx="31.7" ry="18"/>
<text text-anchor="middle" x="5220.5" y="-14.3" font-family="Times New Roman,serif" font-size="14.00">^sed$</text>
</g>
<!-- Start&#45;&gt;27 -->
<g id="edge68" class="edge">
<title>Start&#45;&gt;27</title>
<path fill="none" stroke="black" d="M2913.01,-264.23C3315.37,-265.24 5148.93,-267.72 5192.5,-229 5244.16,-183.08 5235.06,-91.41 5226.57,-45.9"/>
<polygon fill="black" stroke="black" points="5229.96,-45.02 5224.57,-35.9 5223.1,-46.39 5229.96,-45.02"/>
<text text-anchor="middle" x="5258.5" y="-130.8" font-family="Times New Roman,serif" font-size="14.00">18.exec()</text>
</g>
</g>
</svg>
