<?xml version="1.0" encoding="UTF-8" standalone="no"?>
<!DOCTYPE svg PUBLIC "-//W3C//DTD SVG 1.1//EN"
 "http://www.w3.org/Graphics/SVG/1.1/DTD/svg11.dtd">
<!-- Generated by graphviz version 6.0.1 (20220911.1526)
 -->
<!-- Title: Xorddos_asg_OPset Pages: 1 -->
<svg width="5752pt" height="291pt"
 viewBox="0.00 0.00 5752.01 291.00" xmlns="http://www.w3.org/2000/svg" xmlns:xlink="http://www.w3.org/1999/xlink">
<g id="graph0" class="graph" transform="scale(1 1) rotate(0) translate(4 287)">
<title>Xorddos_asg_OPset</title>
<polygon fill="white" stroke="none" points="-4,4 -4,-287 5748.01,-287 5748.01,4 -4,4"/>
<!-- Start -->
<g id="node1" class="node">
<title>Start</title>
<ellipse fill="none" stroke="black" cx="2955.96" cy="-265" rx="77.19" ry="18"/>
<text text-anchor="middle" x="2955.96" y="-261.3" font-family="Times New Roman,serif" font-size="14.00">Malware (Subject)</text>
</g>
<!-- 1 -->
<g id="node2" class="node">
<title>1</title>
<ellipse fill="none" stroke="black" cx="195.96" cy="-178" rx="66.89" ry="18"/>
<text text-anchor="middle" x="195.96" y="-174.3" font-family="Times New Roman,serif" font-size="14.00">/boot/[a&#45;z]{10}</text>
</g>
<!-- Start&#45;&gt;1 -->
<g id="edge1" class="edge">
<title>Start&#45;&gt;1</title>
<path fill="none" stroke="black" d="M2878.66,-263.82C2416.31,-262.64 35.93,-255.28 9.96,-229 -27.21,-191.39 52.51,-181.17 118.9,-178.84"/>
<polygon fill="black" stroke="black" points="119.11,-182.34 129,-178.55 118.9,-175.34 119.11,-182.34"/>
<text text-anchor="middle" x="30.96" y="-217.8" font-family="Times New Roman,serif" font-size="14.00">26.rm()</text>
</g>
<!-- Start&#45;&gt;1 -->
<g id="edge2" class="edge">
<title>Start&#45;&gt;1</title>
<path fill="none" stroke="black" d="M2878.52,-263.8C2421.92,-262.5 100.32,-254.67 74.96,-229 53.55,-207.33 87.72,-194.64 125.15,-187.48"/>
<polygon fill="black" stroke="black" points="125.99,-190.88 135.22,-185.69 124.76,-183.99 125.99,-190.88"/>
<text text-anchor="middle" x="103.46" y="-217.8" font-family="Times New Roman,serif" font-size="14.00">11.clone()</text>
</g>
<!-- Start&#45;&gt;1 -->
<g id="edge3" class="edge">
<title>Start&#45;&gt;1</title>
<path fill="none" stroke="black" d="M2878.49,-263.77C2429.42,-262.34 179.57,-253.92 154.96,-229 146.47,-220.41 152.36,-210.21 162.04,-201.27"/>
<polygon fill="black" stroke="black" points="164.5,-203.78 170,-194.72 160.05,-198.37 164.5,-203.78"/>
<text text-anchor="middle" x="184.96" y="-217.8" font-family="Times New Roman,serif" font-size="14.00">55.stat64()</text>
</g>
<!-- Start&#45;&gt;1 -->
<g id="edge4" class="edge">
<title>Start&#45;&gt;1</title>
<path fill="none" stroke="black" d="M2878.73,-263.89C2442.02,-263.15 299.23,-258.03 237.96,-229 226.98,-223.8 217.83,-214.19 210.91,-204.77"/>
<polygon fill="black" stroke="black" points="213.68,-202.63 205.18,-196.31 207.89,-206.55 213.68,-202.63"/>
<text text-anchor="middle" x="261.46" y="-217.8" font-family="Times New Roman,serif" font-size="14.00">9.write()</text>
</g>
<!-- Start&#45;&gt;1 -->
<g id="edge5" class="edge">
<title>Start&#45;&gt;1</title>
<path fill="none" stroke="black" d="M2878.36,-264.19C2454.51,-265.09 433.9,-267.34 307.96,-229 296.29,-225.45 295.81,-219.6 284.96,-214 272.37,-207.51 258.3,-201.46 245.11,-196.27"/>
<polygon fill="black" stroke="black" points="246.3,-192.98 235.71,-192.66 243.79,-199.51 246.3,-192.98"/>
<text text-anchor="middle" x="331.96" y="-217.8" font-family="Times New Roman,serif" font-size="14.00">7.lseek()</text>
</g>
<!-- Start&#45;&gt;1 -->
<g id="edge6" class="edge">
<title>Start&#45;&gt;1</title>
<path fill="none" stroke="black" d="M2878.55,-263.77C2463.57,-262.43 516.54,-254.8 391.96,-229 374.99,-225.48 372.49,-219.21 355.96,-214 325.15,-204.3 290.17,-196.31 260.8,-190.43"/>
<polygon fill="black" stroke="black" points="261.15,-186.94 250.66,-188.44 259.8,-193.8 261.15,-186.94"/>
<text text-anchor="middle" x="415.96" y="-217.8" font-family="Times New Roman,serif" font-size="14.00">5.open()</text>
</g>
<!-- 2 -->
<g id="node3" class="node">
<title>2</title>
<ellipse fill="none" stroke="black" cx="564.96" cy="-178" rx="42.79" ry="18"/>
<text text-anchor="middle" x="564.96" y="-174.3" font-family="Times New Roman,serif" font-size="14.00">/etc/cron</text>
</g>
<!-- Start&#45;&gt;2 -->
<g id="edge7" class="edge">
<title>Start&#45;&gt;2</title>
<path fill="none" stroke="black" d="M2878.6,-263.65C2458.75,-261.68 471.82,-251.16 449.96,-229 426.31,-205.01 473.27,-191.76 514.11,-185.02"/>
<polygon fill="black" stroke="black" points="514.7,-188.47 524.05,-183.49 513.63,-181.55 514.7,-188.47"/>
<text text-anchor="middle" x="476.96" y="-217.8" font-family="Times New Roman,serif" font-size="14.00">18.write()</text>
</g>
<!-- Start&#45;&gt;2 -->
<g id="edge8" class="edge">
<title>Start&#45;&gt;2</title>
<path fill="none" stroke="black" d="M2878.63,-263.62C2466.68,-261.49 548.1,-250.45 526.96,-229 518.28,-220.19 524.75,-209.37 534.66,-200.05"/>
<polygon fill="black" stroke="black" points="536.94,-202.71 542.31,-193.58 532.42,-197.36 536.94,-202.71"/>
<text text-anchor="middle" x="554.46" y="-217.8" font-family="Times New Roman,serif" font-size="14.00">17.lseek()</text>
</g>
<!-- Start&#45;&gt;2 -->
<g id="edge9" class="edge">
<title>Start&#45;&gt;2</title>
<path fill="none" stroke="black" d="M2878.63,-263.75C2478.23,-262.35 657.16,-254.57 604.96,-229 594.11,-223.68 585.26,-213.87 578.67,-204.33"/>
<polygon fill="black" stroke="black" points="581.57,-202.36 573.26,-195.78 575.65,-206.11 581.57,-202.36"/>
<text text-anchor="middle" x="632.46" y="-217.8" font-family="Times New Roman,serif" font-size="14.00">16.open()</text>
</g>
<!-- Start&#45;&gt;2 -->
<g id="edge10" class="edge">
<title>Start&#45;&gt;2</title>
<path fill="none" stroke="black" d="M2878.7,-263.67C2494.37,-261.9 802.74,-252.81 693.96,-229 677.83,-225.47 675.27,-220.19 659.96,-214 642.52,-206.95 623.07,-199.68 606.33,-193.6"/>
<polygon fill="black" stroke="black" points="607.41,-190.27 596.82,-190.17 605.04,-196.86 607.41,-190.27"/>
<text text-anchor="middle" x="727.46" y="-217.8" font-family="Times New Roman,serif" font-size="14.00">48.rename()</text>
</g>
<!-- 3 -->
<g id="node4" class="node">
<title>3</title>
<ellipse fill="none" stroke="black" cx="953.96" cy="-178" rx="32.49" ry="18"/>
<text text-anchor="middle" x="953.96" y="-174.3" font-family="Times New Roman,serif" font-size="14.00">/boot/</text>
</g>
<!-- Start&#45;&gt;3 -->
<g id="edge11" class="edge">
<title>Start&#45;&gt;3</title>
<path fill="none" stroke="black" d="M2878.45,-264.23C2494.22,-265.21 810.64,-267.29 772.96,-229 730.42,-185.77 845.31,-178.97 911.27,-178.48"/>
<polygon fill="black" stroke="black" points="911.42,-181.98 921.41,-178.45 911.4,-174.98 911.42,-181.98"/>
<text text-anchor="middle" x="796.96" y="-217.8" font-family="Times New Roman,serif" font-size="14.00">6.lseek()</text>
</g>
<!-- Start&#45;&gt;3 -->
<g id="edge12" class="edge">
<title>Start&#45;&gt;3</title>
<path fill="none" stroke="black" d="M2878.5,-264.19C2502.06,-264.93 880.32,-265.97 843.96,-229 819.82,-204.46 871.82,-190.84 912.27,-184.22"/>
<polygon fill="black" stroke="black" points="912.9,-187.66 922.26,-182.68 911.84,-180.74 912.9,-187.66"/>
<text text-anchor="middle" x="867.96" y="-217.8" font-family="Times New Roman,serif" font-size="14.00">4.open()</text>
</g>
<!-- Start&#45;&gt;3 -->
<g id="edge13" class="edge">
<title>Start&#45;&gt;3</title>
<path fill="none" stroke="black" d="M2878.67,-264.14C2510.4,-264.64 950.01,-264.66 914.96,-229 905.68,-219.56 913.72,-207.96 924.86,-198.3"/>
<polygon fill="black" stroke="black" points="927.2,-200.92 932.89,-191.98 922.87,-195.42 927.2,-200.92"/>
<text text-anchor="middle" x="943.46" y="-217.8" font-family="Times New Roman,serif" font-size="14.00">10.clone()</text>
</g>
<!-- Start&#45;&gt;3 -->
<g id="edge14" class="edge">
<title>Start&#45;&gt;3</title>
<path fill="none" stroke="black" d="M2878.85,-263.5C2521.05,-261.1 1038.07,-249.87 994.96,-229 983.98,-223.68 974.93,-213.86 968.15,-204.32"/>
<polygon fill="black" stroke="black" points="970.97,-202.24 962.57,-195.78 965.11,-206.07 970.97,-202.24"/>
<text text-anchor="middle" x="1015.96" y="-217.8" font-family="Times New Roman,serif" font-size="14.00">25.rm()</text>
</g>
<!-- Start&#45;&gt;3 -->
<g id="edge15" class="edge">
<title>Start&#45;&gt;3</title>
<path fill="none" stroke="black" d="M2878.62,-263.77C2533.61,-262.57 1148.07,-256.08 1059.96,-229 1048.29,-225.41 1047.74,-219.73 1036.96,-214 1021.89,-205.99 1004.59,-198.45 989.7,-192.44"/>
<polygon fill="black" stroke="black" points="990.9,-189.15 980.31,-188.72 988.32,-195.65 990.9,-189.15"/>
<text text-anchor="middle" x="1089.96" y="-217.8" font-family="Times New Roman,serif" font-size="14.00">54.stat64()</text>
</g>
<!-- Start&#45;&gt;3 -->
<g id="edge16" class="edge">
<title>Start&#45;&gt;3</title>
<path fill="none" stroke="black" d="M2878.55,-264.07C2556.16,-264.16 1328.96,-262.28 1158.96,-229 1140.74,-225.43 1137.77,-219.27 1119.96,-214 1077.98,-201.59 1028.79,-191.79 994.92,-185.76"/>
<polygon fill="black" stroke="black" points="995.37,-182.28 984.92,-184.01 994.17,-189.18 995.37,-182.28"/>
<text text-anchor="middle" x="1182.46" y="-217.8" font-family="Times New Roman,serif" font-size="14.00">8.write()</text>
</g>
<!-- 4 -->
<g id="node5" class="node">
<title>4</title>
<ellipse fill="none" stroke="black" cx="1445.96" cy="-178" rx="53.09" ry="18"/>
<text text-anchor="middle" x="1445.96" y="-174.3" font-family="Times New Roman,serif" font-size="14.00">^systemctl$</text>
</g>
<!-- Start&#45;&gt;4 -->
<g id="edge17" class="edge">
<title>Start&#45;&gt;4</title>
<path fill="none" stroke="black" d="M2878.57,-263.91C2544.63,-263.33 1242.5,-259.14 1212.96,-229 1208.29,-224.24 1208.61,-219.05 1212.96,-214 1234.44,-189.06 1321,-181.64 1382.32,-179.58"/>
<polygon fill="black" stroke="black" points="1382.8,-183.06 1392.69,-179.27 1382.59,-176.07 1382.8,-183.06"/>
<text text-anchor="middle" x="1256.96" y="-217.8" font-family="Times New Roman,serif" font-size="14.00">72.setsockopt()</text>
</g>
<!-- Start&#45;&gt;4 -->
<g id="edge18" class="edge">
<title>Start&#45;&gt;4</title>
<path fill="none" stroke="black" d="M2878.7,-263.8C2558.55,-262.78 1351.47,-257.1 1323.96,-229 1300.52,-205.05 1343.8,-192.14 1385.16,-185.47"/>
<polygon fill="black" stroke="black" points="1385.94,-188.9 1395.31,-183.95 1384.9,-181.97 1385.94,-188.9"/>
<text text-anchor="middle" x="1373.96" y="-217.8" font-family="Times New Roman,serif" font-size="14.00">73.getsockname()</text>
</g>
<!-- Start&#45;&gt;4 -->
<g id="edge19" class="edge">
<title>Start&#45;&gt;4</title>
<path fill="none" stroke="black" d="M2878.68,-263.64C2574.16,-262.06 1472.46,-254.58 1446.96,-229 1441.03,-223.05 1439.44,-214.47 1439.75,-206.08"/>
<polygon fill="black" stroke="black" points="1443.23,-206.49 1440.92,-196.15 1436.28,-205.67 1443.23,-206.49"/>
<text text-anchor="middle" x="1491.46" y="-217.8" font-family="Times New Roman,serif" font-size="14.00">71.getsockopt()</text>
</g>
<!-- Start&#45;&gt;4 -->
<g id="edge20" class="edge">
<title>Start&#45;&gt;4</title>
<path fill="none" stroke="black" d="M2878.89,-263.23C2595.2,-260.26 1622.23,-248.68 1558.96,-229 1547.31,-225.38 1546.82,-219.57 1535.96,-214 1522.15,-206.91 1506.55,-200.36 1492.26,-194.9"/>
<polygon fill="black" stroke="black" points="1493.21,-191.52 1482.62,-191.3 1490.76,-198.08 1493.21,-191.52"/>
<text text-anchor="middle" x="1586.96" y="-217.8" font-family="Times New Roman,serif" font-size="14.00">36.wait4()</text>
</g>
<!-- Start&#45;&gt;4 -->
<g id="edge21" class="edge">
<title>Start&#45;&gt;4</title>
<path fill="none" stroke="black" d="M2878.72,-263.27C2617.78,-260.62 1778.54,-250.48 1658.96,-229 1638.63,-225.35 1634.89,-219.44 1614.96,-214 1577.76,-203.85 1535.26,-195.06 1502.18,-188.83"/>
<polygon fill="black" stroke="black" points="1502.7,-185.37 1492.23,-186.98 1501.42,-192.25 1502.7,-185.37"/>
<text text-anchor="middle" x="1684.96" y="-217.8" font-family="Times New Roman,serif" font-size="14.00">35.exec()</text>
</g>
<!-- 5 -->
<g id="node6" class="node">
<title>5</title>
<ellipse fill="none" stroke="black" cx="1711.96" cy="-178" rx="29.5" ry="18"/>
<text text-anchor="middle" x="1711.96" y="-174.3" font-family="Times New Roman,serif" font-size="14.00">/perl/</text>
</g>
<!-- Start&#45;&gt;5 -->
<g id="edge22" class="edge">
<title>Start&#45;&gt;5</title>
<path fill="none" stroke="black" d="M2878.41,-264.37C2615.06,-265.29 1768.82,-265.41 1723.96,-229 1717.16,-223.48 1713.81,-214.85 1712.26,-206.3"/>
<polygon fill="black" stroke="black" points="1715.72,-205.69 1711.16,-196.13 1708.76,-206.45 1715.72,-205.69"/>
<text text-anchor="middle" x="1746.96" y="-217.8" font-family="Times New Roman,serif" font-size="14.00">29.stat()</text>
</g>
<!-- 6 -->
<g id="node7" class="node">
<title>6</title>
<ellipse fill="none" stroke="black" cx="1946.96" cy="-178" rx="38.99" ry="18"/>
<text text-anchor="middle" x="1946.96" y="-174.3" font-family="Times New Roman,serif" font-size="14.00">/etc/sed</text>
</g>
<!-- Start&#45;&gt;6 -->
<g id="edge23" class="edge">
<title>Start&#45;&gt;6</title>
<path fill="none" stroke="black" d="M2878.99,-263.13C2620.89,-260.05 1801.1,-248.72 1781.96,-229 1745.3,-191.24 1836.84,-181.76 1897.76,-179.53"/>
<polygon fill="black" stroke="black" points="1898.11,-183.02 1908,-179.21 1897.89,-176.02 1898.11,-183.02"/>
<text text-anchor="middle" x="1816.46" y="-217.8" font-family="Times New Roman,serif" font-size="14.00">46.fchown()</text>
</g>
<!-- Start&#45;&gt;6 -->
<g id="edge24" class="edge">
<title>Start&#45;&gt;6</title>
<path fill="none" stroke="black" d="M2878.43,-264.41C2636.4,-265.31 1908.81,-264.99 1873.96,-229 1859.36,-213.92 1881.15,-200.69 1904.64,-191.63"/>
<polygon fill="black" stroke="black" points="1906.14,-194.81 1914.36,-188.13 1903.77,-188.23 1906.14,-194.81"/>
<text text-anchor="middle" x="1899.46" y="-217.8" font-family="Times New Roman,serif" font-size="14.00">44.fstat()</text>
</g>
<!-- Start&#45;&gt;6 -->
<g id="edge25" class="edge">
<title>Start&#45;&gt;6</title>
<path fill="none" stroke="black" d="M2878.53,-264.18C2648.07,-264.36 1980.47,-261.99 1947.96,-229 1942.13,-223.09 1940.52,-214.61 1940.78,-206.32"/>
<polygon fill="black" stroke="black" points="1944.29,-206.45 1941.95,-196.12 1937.34,-205.65 1944.29,-206.45"/>
<text text-anchor="middle" x="1974.96" y="-217.8" font-family="Times New Roman,serif" font-size="14.00">45.write()</text>
</g>
<!-- Start&#45;&gt;6 -->
<g id="edge26" class="edge">
<title>Start&#45;&gt;6</title>
<path fill="none" stroke="black" d="M2878.87,-263.46C2670.3,-261.67 2105.17,-254.49 2024.96,-229 2013.33,-225.3 2012.22,-220.61 2001.96,-214 1994.08,-208.92 1985.54,-203.47 1977.59,-198.41"/>
<polygon fill="black" stroke="black" points="1979.26,-195.32 1968.94,-192.91 1975.5,-201.23 1979.26,-195.32"/>
<text text-anchor="middle" x="2059.96" y="-217.8" font-family="Times New Roman,serif" font-size="14.00">47.fchmod()</text>
</g>
<!-- Start&#45;&gt;6 -->
<g id="edge27" class="edge">
<title>Start&#45;&gt;6</title>
<path fill="none" stroke="black" d="M2878.56,-263.89C2702.15,-263.14 2274.69,-258.24 2133.96,-229 2115.78,-225.22 2112.7,-219.48 2094.96,-214 2061,-203.51 2021.83,-194.37 1992.32,-188.07"/>
<polygon fill="black" stroke="black" points="1992.81,-184.59 1982.31,-185.96 1991.37,-191.44 1992.81,-184.59"/>
<text text-anchor="middle" x="2159.96" y="-217.8" font-family="Times New Roman,serif" font-size="14.00">43.fcntl()</text>
</g>
<!-- 7 -->
<g id="node8" class="node">
<title>7</title>
<ellipse fill="none" stroke="black" cx="2405.96" cy="-178" rx="27.1" ry="18"/>
<text text-anchor="middle" x="2405.96" y="-174.3" font-family="Times New Roman,serif" font-size="14.00">/run/</text>
</g>
<!-- Start&#45;&gt;7 -->
<g id="edge28" class="edge">
<title>Start&#45;&gt;7</title>
<path fill="none" stroke="black" d="M2878.94,-263.3C2689.85,-261.21 2216.39,-253.53 2192.96,-229 2188.36,-224.18 2188.65,-219.08 2192.96,-214 2215.06,-187.97 2313.65,-181.26 2368.62,-179.56"/>
<polygon fill="black" stroke="black" points="2368.77,-183.06 2378.67,-179.29 2368.58,-176.06 2368.77,-183.06"/>
<text text-anchor="middle" x="2220.46" y="-217.8" font-family="Times New Roman,serif" font-size="14.00">51.open()</text>
</g>
<!-- Start&#45;&gt;7 -->
<g id="edge29" class="edge">
<title>Start&#45;&gt;7</title>
<path fill="none" stroke="black" d="M2878.85,-262.87C2704.14,-259.94 2291.62,-250.74 2270.96,-229 2240.1,-196.52 2318.64,-185.01 2368.51,-181.03"/>
<polygon fill="black" stroke="black" points="2368.95,-184.51 2378.67,-180.29 2368.44,-177.53 2368.95,-184.51"/>
<text text-anchor="middle" x="2300.96" y="-217.8" font-family="Times New Roman,serif" font-size="14.00">49.stat64()</text>
</g>
<!-- Start&#45;&gt;7 -->
<g id="edge30" class="edge">
<title>Start&#45;&gt;7</title>
<path fill="none" stroke="black" d="M2879.4,-262.31C2721.25,-258.45 2371.72,-247.82 2353.96,-229 2342.25,-216.59 2357.73,-203.23 2374.78,-193.44"/>
<polygon fill="black" stroke="black" points="2376.54,-196.47 2383.71,-188.67 2373.24,-190.3 2376.54,-196.47"/>
<text text-anchor="middle" x="2395.46" y="-217.8" font-family="Times New Roman,serif" font-size="14.00">70.newfstatat()</text>
</g>
<!-- Start&#45;&gt;7 -->
<g id="edge31" class="edge">
<title>Start&#45;&gt;7</title>
<path fill="none" stroke="black" d="M2878.6,-264.74C2758.41,-264.86 2533.04,-260.65 2459.96,-229 2452.29,-225.68 2438.35,-212.69 2426.56,-200.79"/>
<polygon fill="black" stroke="black" points="2429.05,-198.33 2419.57,-193.61 2424.04,-203.21 2429.05,-198.33"/>
<text text-anchor="middle" x="2486.96" y="-217.8" font-family="Times New Roman,serif" font-size="14.00">59.write()</text>
</g>
<!-- Start&#45;&gt;7 -->
<g id="edge32" class="edge">
<title>Start&#45;&gt;7</title>
<path fill="none" stroke="black" d="M2879.21,-262.08C2775.97,-258.72 2598.24,-250.03 2536.96,-229 2525.42,-225.04 2524.97,-219.26 2513.96,-214 2490.47,-202.78 2462.47,-193.82 2440.87,-187.78"/>
<polygon fill="black" stroke="black" points="2441.69,-184.37 2431.13,-185.13 2439.86,-191.13 2441.69,-184.37"/>
<text text-anchor="middle" x="2559.96" y="-217.8" font-family="Times New Roman,serif" font-size="14.00">33.stat()</text>
</g>
<!-- Start&#45;&gt;7 -->
<g id="edge33" class="edge">
<title>Start&#45;&gt;7</title>
<path fill="none" stroke="black" d="M2879.45,-261.91C2810.89,-258.64 2708.01,-250.3 2620.96,-229 2603.32,-224.68 2600.38,-219.12 2582.96,-214 2535.23,-199.98 2478.59,-189.89 2442.48,-184.24"/>
<polygon fill="black" stroke="black" points="2442.82,-180.75 2432.41,-182.7 2441.76,-187.67 2442.82,-180.75"/>
<text text-anchor="middle" x="2648.46" y="-217.8" font-family="Times New Roman,serif" font-size="14.00">56.lseek()</text>
</g>
<!-- 8 -->
<g id="node9" class="node">
<title>8</title>
<ellipse fill="none" stroke="black" cx="2776.96" cy="-178" rx="38.99" ry="18"/>
<text text-anchor="middle" x="2776.96" y="-174.3" font-family="Times New Roman,serif" font-size="14.00">ip_addr</text>
</g>
<!-- Start&#45;&gt;8 -->
<g id="edge34" class="edge">
<title>Start&#45;&gt;8</title>
<path fill="none" stroke="black" d="M2882.2,-259.47C2806.18,-254.02 2696.93,-243.75 2683.96,-229 2666.21,-208.82 2699.3,-195.35 2730.82,-187.53"/>
<polygon fill="black" stroke="black" points="2731.98,-190.85 2740.93,-185.19 2730.4,-184.03 2731.98,-190.85"/>
<text text-anchor="middle" x="2719.46" y="-217.8" font-family="Times New Roman,serif" font-size="14.00">66.connect()</text>
</g>
<!-- Start&#45;&gt;8 -->
<g id="edge35" class="edge">
<title>Start&#45;&gt;8</title>
<path fill="none" stroke="black" d="M2882.94,-258.79C2840.02,-254.06 2791.58,-245.22 2777.96,-229 2772.7,-222.73 2771.18,-214.31 2771.35,-206.16"/>
<polygon fill="black" stroke="black" points="2774.84,-206.47 2772.33,-196.17 2767.87,-205.78 2774.84,-206.47"/>
<text text-anchor="middle" x="2821.96" y="-217.8" font-family="Times New Roman,serif" font-size="14.00">64._newselect()</text>
</g>
<!-- Start&#45;&gt;8 -->
<g id="edge36" class="edge">
<title>Start&#45;&gt;8</title>
<path fill="none" stroke="black" d="M2924.6,-248.41C2913.24,-242.56 2900.4,-235.7 2888.96,-229 2878.43,-222.83 2876.81,-219.6 2865.96,-214 2850.59,-206.07 2832.99,-198.8 2817.52,-192.96"/>
<polygon fill="black" stroke="black" points="2818.3,-189.52 2807.71,-189.34 2815.88,-196.09 2818.3,-189.52"/>
<text text-anchor="middle" x="2915.46" y="-217.8" font-family="Times New Roman,serif" font-size="14.00">62.send()</text>
</g>
<!-- 9 -->
<g id="node10" class="node">
<title>9</title>
<ellipse fill="none" stroke="black" cx="2955.96" cy="-91" rx="50.09" ry="18"/>
<text text-anchor="middle" x="2955.96" y="-87.3" font-family="Times New Roman,serif" font-size="14.00">^pipe($|.|$)</text>
</g>
<!-- Start&#45;&gt;9 -->
<g id="edge37" class="edge">
<title>Start&#45;&gt;9</title>
<path fill="none" stroke="black" d="M2955.96,-246.88C2955.96,-217 2955.96,-155.11 2955.96,-119.27"/>
<polygon fill="black" stroke="black" points="2959.46,-119.05 2955.96,-109.05 2952.46,-119.05 2959.46,-119.05"/>
<text text-anchor="middle" x="2981.46" y="-174.3" font-family="Times New Roman,serif" font-size="14.00">34.pipe()</text>
</g>
<!-- 10 -->
<g id="node11" class="node">
<title>10</title>
<ellipse fill="none" stroke="black" cx="3069.96" cy="-178" rx="38.19" ry="18"/>
<text text-anchor="middle" x="3069.96" y="-174.3" font-family="Times New Roman,serif" font-size="14.00">/selinux</text>
</g>
<!-- Start&#45;&gt;10 -->
<g id="edge38" class="edge">
<title>Start&#45;&gt;10</title>
<path fill="none" stroke="black" d="M2964.39,-246.88C2970.33,-236.26 2979.14,-222.99 2989.96,-214 3001.22,-204.65 3015.37,-197.37 3028.63,-191.93"/>
<polygon fill="black" stroke="black" points="3029.99,-195.16 3038.06,-188.3 3027.48,-188.63 3029.99,-195.16"/>
<text text-anchor="middle" x="3021.96" y="-217.8" font-family="Times New Roman,serif" font-size="14.00">40.access()</text>
</g>
<!-- Start&#45;&gt;10 -->
<g id="edge39" class="edge">
<title>Start&#45;&gt;10</title>
<path fill="none" stroke="black" d="M3013.92,-252.97C3028.55,-247.78 3043.16,-240.17 3053.96,-229 3059.93,-222.83 3063.67,-214.43 3066.02,-206.27"/>
<polygon fill="black" stroke="black" points="3069.49,-206.79 3068.31,-196.26 3062.67,-205.23 3069.49,-206.79"/>
<text text-anchor="middle" x="3092.46" y="-217.8" font-family="Times New Roman,serif" font-size="14.00">39.statfs()</text>
</g>
<!-- 11 -->
<g id="node12" class="node">
<title>11</title>
<ellipse fill="none" stroke="black" cx="3147.96" cy="-18" rx="50.09" ry="18"/>
<text text-anchor="middle" x="3147.96" y="-14.3" font-family="Times New Roman,serif" font-size="14.00">bin/insserv</text>
</g>
<!-- Start&#45;&gt;11 -->
<g id="edge40" class="edge">
<title>Start&#45;&gt;11</title>
<path fill="none" stroke="black" d="M3026.68,-257.68C3066.8,-252.55 3111.61,-243.69 3124.96,-229 3170.89,-178.48 3162.18,-90.4 3154.01,-46.09"/>
<polygon fill="black" stroke="black" points="3157.41,-45.2 3152.04,-36.07 3150.54,-46.55 3157.41,-45.2"/>
<text text-anchor="middle" x="3183.96" y="-130.8" font-family="Times New Roman,serif" font-size="14.00">30.stat()</text>
</g>
<!-- 12 -->
<g id="node13" class="node">
<title>12</title>
<ellipse fill="none" stroke="black" cx="3325.96" cy="-178" rx="32.49" ry="18"/>
<text text-anchor="middle" x="3325.96" y="-174.3" font-family="Times New Roman,serif" font-size="14.00">/proc/</text>
</g>
<!-- Start&#45;&gt;12 -->
<g id="edge41" class="edge">
<title>Start&#45;&gt;12</title>
<path fill="none" stroke="black" d="M3028.82,-258.67C3068.37,-254 3117.52,-245.28 3158.96,-229 3170.32,-224.54 3170.76,-218.84 3181.96,-214 3215.23,-199.61 3255.49,-190.46 3284.98,-185.14"/>
<polygon fill="black" stroke="black" points="3285.67,-188.57 3294.93,-183.41 3284.48,-181.67 3285.67,-188.57"/>
<text text-anchor="middle" x="3223.46" y="-217.8" font-family="Times New Roman,serif" font-size="14.00">69.newfstatat()</text>
</g>
<!-- Start&#45;&gt;12 -->
<g id="edge42" class="edge">
<title>Start&#45;&gt;12</title>
<path fill="none" stroke="black" d="M3030.84,-260.38C3108.48,-255.78 3224.12,-246.25 3264.96,-229 3273.24,-225.5 3289.06,-212.45 3302.52,-200.56"/>
<polygon fill="black" stroke="black" points="3304.98,-203.05 3310.09,-193.77 3300.31,-197.84 3304.98,-203.05"/>
<text text-anchor="middle" x="3313.46" y="-217.8" font-family="Times New Roman,serif" font-size="14.00">19.open()</text>
</g>
<!-- Start&#45;&gt;12 -->
<g id="edge43" class="edge">
<title>Start&#45;&gt;12</title>
<path fill="none" stroke="black" d="M3032.62,-262.5C3139.48,-259.61 3322.48,-251.41 3342.96,-229 3349.39,-221.97 3347.8,-212.41 3343.64,-203.53"/>
<polygon fill="black" stroke="black" points="3346.58,-201.63 3338.6,-194.66 3340.49,-205.08 3346.58,-201.63"/>
<text text-anchor="middle" x="3379.96" y="-217.8" font-family="Times New Roman,serif" font-size="14.00">1.readlink()</text>
</g>
<!-- Start&#45;&gt;12 -->
<g id="edge44" class="edge">
<title>Start&#45;&gt;12</title>
<path fill="none" stroke="black" d="M3033.15,-263.72C3157.42,-262.46 3390.54,-256.43 3415.96,-229 3434.65,-208.83 3398.37,-194.85 3366.44,-186.9"/>
<polygon fill="black" stroke="black" points="3366.84,-183.39 3356.3,-184.53 3365.25,-190.21 3366.84,-183.39"/>
<text text-anchor="middle" x="3453.96" y="-217.8" font-family="Times New Roman,serif" font-size="14.00">68.access()</text>
</g>
<!-- 13 -->
<g id="node14" class="node">
<title>13</title>
<ellipse fill="none" stroke="black" cx="3610.96" cy="-178" rx="33.6" ry="18"/>
<text text-anchor="middle" x="3610.96" y="-174.3" font-family="Times New Roman,serif" font-size="14.00">/etc/rc</text>
</g>
<!-- Start&#45;&gt;13 -->
<g id="edge45" class="edge">
<title>Start&#45;&gt;13</title>
<path fill="none" stroke="black" d="M3032.48,-262.05C3158.76,-258.32 3405.24,-248.72 3489.96,-229 3521.09,-221.75 3554.53,-207.38 3578.35,-195.9"/>
<polygon fill="black" stroke="black" points="3580.19,-198.9 3587.62,-191.34 3577.1,-192.61 3580.19,-198.9"/>
<text text-anchor="middle" x="3559.46" y="-217.8" font-family="Times New Roman,serif" font-size="14.00">32.lstat()</text>
</g>
<!-- Start&#45;&gt;13 -->
<g id="edge46" class="edge">
<title>Start&#45;&gt;13</title>
<path fill="none" stroke="black" d="M3033.46,-264.13C3192.19,-263.77 3543.16,-259.49 3587.96,-229 3595.88,-223.61 3601.13,-214.77 3604.57,-206.01"/>
<polygon fill="black" stroke="black" points="3607.95,-206.94 3607.75,-196.35 3601.3,-204.75 3607.95,-206.94"/>
<text text-anchor="middle" x="3627.96" y="-217.8" font-family="Times New Roman,serif" font-size="14.00">22.write()</text>
</g>
<!-- Start&#45;&gt;13 -->
<g id="edge47" class="edge">
<title>Start&#45;&gt;13</title>
<path fill="none" stroke="black" d="M3033.1,-262.98C3211.23,-260.24 3637.67,-251.38 3658.96,-229 3669.36,-218.07 3658.06,-205.85 3643.82,-196.23"/>
<polygon fill="black" stroke="black" points="3645.57,-193.2 3635.23,-190.89 3641.88,-199.14 3645.57,-193.2"/>
<text text-anchor="middle" x="3684.96" y="-217.8" font-family="Times New Roman,serif" font-size="14.00">21.rm()</text>
</g>
<!-- 14 -->
<g id="node15" class="node">
<title>14</title>
<ellipse fill="none" stroke="black" cx="3842.96" cy="-178" rx="71.49" ry="18"/>
<text text-anchor="middle" x="3842.96" y="-174.3" font-family="Times New Roman,serif" font-size="14.00">[a&#45;zA&#45;z]:d{1,5}$</text>
</g>
<!-- Start&#45;&gt;14 -->
<g id="edge48" class="edge">
<title>Start&#45;&gt;14</title>
<path fill="none" stroke="black" d="M3033.08,-263.47C3198.44,-261.84 3582.41,-255.25 3709.96,-229 3718.9,-227.16 3762,-210.72 3796.75,-197.18"/>
<polygon fill="black" stroke="black" points="3798.25,-200.36 3806.29,-193.46 3795.7,-193.84 3798.25,-200.36"/>
<text text-anchor="middle" x="3786.46" y="-217.8" font-family="Times New Roman,serif" font-size="14.00">12.shmget()</text>
</g>
<!-- Start&#45;&gt;14 -->
<g id="edge49" class="edge">
<title>Start&#45;&gt;14</title>
<path fill="none" stroke="black" d="M3033.12,-263.08C3239.14,-260.34 3788.71,-250.99 3820.96,-229 3828.82,-223.64 3833.89,-214.81 3837.16,-206.05"/>
<polygon fill="black" stroke="black" points="3840.54,-206.96 3840.14,-196.38 3833.85,-204.91 3840.54,-206.96"/>
<text text-anchor="middle" x="3865.46" y="-217.8" font-family="Times New Roman,serif" font-size="14.00">41.umask()</text>
</g>
<!-- Start&#45;&gt;14 -->
<g id="edge50" class="edge">
<title>Start&#45;&gt;14</title>
<path fill="none" stroke="black" d="M3033.24,-264.02C3253.58,-263.71 3871.04,-260.05 3900.96,-229 3911.22,-218.36 3901.62,-207.53 3887.49,-198.68"/>
<polygon fill="black" stroke="black" points="3889.18,-195.62 3878.76,-193.72 3885.72,-201.7 3889.18,-195.62"/>
<text text-anchor="middle" x="3945.96" y="-217.8" font-family="Times New Roman,serif" font-size="14.00">2.exit_group()</text>
</g>
<!-- 15 -->
<g id="node16" class="node">
<title>15</title>
<ellipse fill="none" stroke="black" cx="4145.96" cy="-178" rx="27" ry="18"/>
<text text-anchor="middle" x="4145.96" y="-174.3" font-family="Times New Roman,serif" font-size="14.00">/var/</text>
</g>
<!-- Start&#45;&gt;15 -->
<g id="edge51" class="edge">
<title>Start&#45;&gt;15</title>
<path fill="none" stroke="black" d="M3033.51,-264.39C3241.23,-264.96 3806.78,-263.23 3989.96,-229 4009.86,-225.28 4013.73,-220.33 4032.96,-214 4059.35,-205.31 4089.4,-196.03 4111.88,-189.21"/>
<polygon fill="black" stroke="black" points="4113.08,-192.51 4121.63,-186.26 4111.05,-185.81 4113.08,-192.51"/>
<text text-anchor="middle" x="4059.46" y="-217.8" font-family="Times New Roman,serif" font-size="14.00">3.stat64()</text>
</g>
<!-- Start&#45;&gt;15 -->
<g id="edge52" class="edge">
<title>Start&#45;&gt;15</title>
<path fill="none" stroke="black" d="M3033.46,-264.51C3272.55,-265.69 3988.36,-266.05 4085.96,-229 4094.44,-225.78 4110.43,-212.28 4123.78,-200.11"/>
<polygon fill="black" stroke="black" points="4126.29,-202.56 4131.25,-193.2 4121.54,-197.42 4126.29,-202.56"/>
<text text-anchor="middle" x="4133.96" y="-217.8" font-family="Times New Roman,serif" font-size="14.00">61.write()</text>
</g>
<!-- Start&#45;&gt;15 -->
<g id="edge53" class="edge">
<title>Start&#45;&gt;15</title>
<path fill="none" stroke="black" d="M3033.25,-263.2C3296.54,-260.27 4143.23,-249.31 4162.96,-229 4169.76,-222 4167.96,-212.17 4163.54,-203.07"/>
<polygon fill="black" stroke="black" points="4166.52,-201.24 4158.47,-194.36 4160.48,-204.76 4166.52,-201.24"/>
<text text-anchor="middle" x="4194.46" y="-217.8" font-family="Times New Roman,serif" font-size="14.00">58.lseek()</text>
</g>
<!-- Start&#45;&gt;15 -->
<g id="edge54" class="edge">
<title>Start&#45;&gt;15</title>
<path fill="none" stroke="black" d="M3033.01,-263.31C3305.01,-260.71 4205.08,-250.47 4225.96,-229 4243.79,-210.67 4210.13,-196.11 4181.15,-187.53"/>
<polygon fill="black" stroke="black" points="4181.75,-184.06 4171.18,-184.75 4179.87,-190.81 4181.75,-184.06"/>
<text text-anchor="middle" x="4257.46" y="-217.8" font-family="Times New Roman,serif" font-size="14.00">53.open()</text>
</g>
<!-- 16 -->
<g id="node17" class="node">
<title>16</title>
<ellipse fill="none" stroke="black" cx="4385.96" cy="-178" rx="27.1" ry="18"/>
<text text-anchor="middle" x="4385.96" y="-174.3" font-family="Times New Roman,serif" font-size="14.00">^sh$</text>
</g>
<!-- Start&#45;&gt;16 -->
<g id="edge55" class="edge">
<title>Start&#45;&gt;16</title>
<path fill="none" stroke="black" d="M3033.63,-263.98C3300.13,-263.63 4167.73,-260.1 4288.96,-229 4314.19,-222.53 4340.3,-208.58 4359.07,-197.06"/>
<polygon fill="black" stroke="black" points="4361.07,-199.94 4367.66,-191.64 4357.33,-194.02 4361.07,-199.94"/>
<text text-anchor="middle" x="4361.46" y="-217.8" font-family="Times New Roman,serif" font-size="14.00">24.waitpid()</text>
</g>
<!-- Start&#45;&gt;16 -->
<g id="edge56" class="edge">
<title>Start&#45;&gt;16</title>
<path fill="none" stroke="black" d="M3033.12,-263.57C3328.88,-261.77 4374.92,-253.63 4398.96,-229 4405.4,-222.4 4404.57,-213.04 4401.27,-204.2"/>
<polygon fill="black" stroke="black" points="4404.36,-202.53 4396.95,-194.96 4398.02,-205.5 4404.36,-202.53"/>
<text text-anchor="middle" x="4431.46" y="-217.8" font-family="Times New Roman,serif" font-size="14.00">23.clone()</text>
</g>
<!-- 17 -->
<g id="node18" class="node">
<title>17</title>
<ellipse fill="none" stroke="black" cx="4568.96" cy="-178" rx="46.59" ry="18"/>
<text text-anchor="middle" x="4568.96" y="-174.3" font-family="Times New Roman,serif" font-size="14.00">/etc/init.d/</text>
</g>
<!-- Start&#45;&gt;17 -->
<g id="edge57" class="edge">
<title>Start&#45;&gt;17</title>
<path fill="none" stroke="black" d="M3033.6,-264.1C3322.34,-264.21 4324.64,-262.18 4463.96,-229 4489.68,-222.87 4516.56,-209.93 4536.68,-198.75"/>
<polygon fill="black" stroke="black" points="4538.47,-201.76 4545.43,-193.77 4535.01,-195.68 4538.47,-201.76"/>
<text text-anchor="middle" x="4531.96" y="-217.8" font-family="Times New Roman,serif" font-size="14.00">15.write()</text>
</g>
<!-- Start&#45;&gt;17 -->
<g id="edge58" class="edge">
<title>Start&#45;&gt;17</title>
<path fill="none" stroke="black" d="M3033.29,-263.68C3350.2,-262.21 4534.32,-254.97 4562.96,-229 4569.15,-223.38 4571.56,-214.99 4572.14,-206.67"/>
<polygon fill="black" stroke="black" points="4575.64,-206.36 4572.05,-196.39 4568.64,-206.42 4575.64,-206.36"/>
<text text-anchor="middle" x="4598.46" y="-217.8" font-family="Times New Roman,serif" font-size="14.00">14.lseek()</text>
</g>
<!-- Start&#45;&gt;17 -->
<g id="edge59" class="edge">
<title>Start&#45;&gt;17</title>
<path fill="none" stroke="black" d="M3033.28,-263.84C3358.71,-263 4601.68,-257.87 4629.96,-229 4641.79,-216.92 4628.02,-204.86 4610.59,-195.61"/>
<polygon fill="black" stroke="black" points="4611.78,-192.3 4601.26,-191.05 4608.7,-198.59 4611.78,-192.3"/>
<text text-anchor="middle" x="4661.46" y="-217.8" font-family="Times New Roman,serif" font-size="14.00">13.open()</text>
</g>
<!-- 18 -->
<g id="node19" class="node">
<title>18</title>
<ellipse fill="none" stroke="black" cx="4683.96" cy="-178" rx="50.09" ry="18"/>
<text text-anchor="middle" x="4683.96" y="-174.3" font-family="Times New Roman,serif" font-size="14.00">bin/openrc</text>
</g>
<!-- Start&#45;&gt;18 -->
<g id="edge60" class="edge">
<title>Start&#45;&gt;18</title>
<path fill="none" stroke="black" d="M3033.36,-263.9C3366.6,-263.3 4663.53,-259.03 4692.96,-229 4698.99,-222.84 4699.11,-214.1 4696.94,-205.64"/>
<polygon fill="black" stroke="black" points="4700.18,-204.29 4693.57,-196.01 4693.57,-206.61 4700.18,-204.29"/>
<text text-anchor="middle" x="4720.96" y="-217.8" font-family="Times New Roman,serif" font-size="14.00">31.stat()</text>
</g>
<!-- 19 -->
<g id="node20" class="node">
<title>19</title>
<ellipse fill="none" stroke="black" cx="4900.96" cy="-178" rx="148.67" ry="18"/>
<text text-anchor="middle" x="4900.96" y="-174.3" font-family="Times New Roman,serif" font-size="14.00">d{1,3}.d{1,3}.d{1,3}.d{1,3}:d{1,5}$</text>
</g>
<!-- Start&#45;&gt;19 -->
<g id="edge61" class="edge">
<title>Start&#45;&gt;19</title>
<path fill="none" stroke="black" d="M3033.38,-263.84C3355.12,-262.98 4577.68,-257.82 4747.96,-229 4783.61,-222.97 4822.3,-210.26 4851.86,-199.17"/>
<polygon fill="black" stroke="black" points="4853.42,-202.32 4861.51,-195.48 4850.92,-195.78 4853.42,-202.32"/>
<text text-anchor="middle" x="4833.46" y="-217.8" font-family="Times New Roman,serif" font-size="14.00">63.send()</text>
</g>
<!-- Start&#45;&gt;19 -->
<g id="edge62" class="edge">
<title>Start&#45;&gt;19</title>
<path fill="none" stroke="black" d="M3033.05,-263.51C3384.85,-261.17 4822.62,-250.31 4863.96,-229 4874.14,-223.75 4882.24,-214.26 4888.23,-204.95"/>
<polygon fill="black" stroke="black" points="4891.31,-206.63 4893.33,-196.23 4885.26,-203.1 4891.31,-206.63"/>
<text text-anchor="middle" x="4923.96" y="-217.8" font-family="Times New Roman,serif" font-size="14.00">65._newselect()</text>
</g>
<!-- Start&#45;&gt;19 -->
<g id="edge63" class="edge">
<title>Start&#45;&gt;19</title>
<path fill="none" stroke="black" d="M3033.21,-264.13C3398.63,-264.54 4937.37,-264.2 4971.96,-229 4982.65,-218.12 4973.81,-208.04 4959.2,-199.81"/>
<polygon fill="black" stroke="black" points="4960.54,-196.57 4950.04,-195.19 4957.39,-202.82 4960.54,-196.57"/>
<text text-anchor="middle" x="5011.46" y="-217.8" font-family="Times New Roman,serif" font-size="14.00">67.connect()</text>
</g>
<!-- 20 -->
<g id="node21" class="node">
<title>20</title>
<ellipse fill="none" stroke="black" cx="5085.96" cy="-91" rx="31.7" ry="18"/>
<text text-anchor="middle" x="5085.96" y="-87.3" font-family="Times New Roman,serif" font-size="14.00">^sed$</text>
</g>
<!-- Start&#45;&gt;20 -->
<g id="edge64" class="edge">
<title>Start&#45;&gt;20</title>
<path fill="none" stroke="black" d="M3033.25,-263.98C3406.98,-263.75 5010.62,-260.87 5050.96,-229 5083.67,-203.16 5088.38,-151.32 5087.85,-119.35"/>
<polygon fill="black" stroke="black" points="5091.35,-119.2 5087.5,-109.33 5084.35,-119.45 5091.35,-119.2"/>
<text text-anchor="middle" x="5109.96" y="-174.3" font-family="Times New Roman,serif" font-size="14.00">38.exec()</text>
</g>
<!-- 21 -->
<g id="node22" class="node">
<title>21</title>
<ellipse fill="none" stroke="black" cx="5165.96" cy="-18" rx="52.79" ry="18"/>
<text text-anchor="middle" x="5165.96" y="-14.3" font-family="Times New Roman,serif" font-size="14.00">update&#45;rc.d</text>
</g>
<!-- Start&#45;&gt;21 -->
<g id="edge65" class="edge">
<title>Start&#45;&gt;21</title>
<path fill="none" stroke="black" d="M3033.39,-263.66C3402.65,-261.9 4971.11,-253.06 5071.96,-229 5104.64,-221.2 5120.1,-223.1 5139.96,-196 5172.54,-151.54 5172.44,-83.65 5169.32,-46.19"/>
<polygon fill="black" stroke="black" points="5172.78,-45.65 5168.33,-36.04 5165.82,-46.33 5172.78,-45.65"/>
<text text-anchor="middle" x="5194.46" y="-130.8" font-family="Times New Roman,serif" font-size="14.00">28.clone()</text>
</g>
<!-- 22 -->
<g id="node23" class="node">
<title>22</title>
<ellipse fill="none" stroke="black" cx="5269.96" cy="-178" rx="40.89" ry="18"/>
<text text-anchor="middle" x="5269.96" y="-174.3" font-family="Times New Roman,serif" font-size="14.00">/var/run/</text>
</g>
<!-- Start&#45;&gt;22 -->
<g id="edge66" class="edge">
<title>Start&#45;&gt;22</title>
<path fill="none" stroke="black" d="M3033.42,-263.95C3408.28,-263.57 5020.31,-260.11 5121.96,-229 5133.63,-225.43 5133.84,-219.04 5144.96,-214 5169.93,-202.69 5199.38,-194.22 5223.43,-188.46"/>
<polygon fill="black" stroke="black" points="5224.43,-191.82 5233.38,-186.15 5222.84,-185 5224.43,-191.82"/>
<text text-anchor="middle" x="5174.96" y="-217.8" font-family="Times New Roman,serif" font-size="14.00">50.stat64()</text>
</g>
<!-- Start&#45;&gt;22 -->
<g id="edge67" class="edge">
<title>Start&#45;&gt;22</title>
<path fill="none" stroke="black" d="M3033.24,-264.16C3416.65,-264.79 5100.45,-265.45 5204.96,-229 5209.51,-227.41 5227.43,-213.52 5243.3,-200.78"/>
<polygon fill="black" stroke="black" points="5245.76,-203.3 5251.34,-194.29 5241.36,-197.85 5245.76,-203.3"/>
<text text-anchor="middle" x="5252.96" y="-217.8" font-family="Times New Roman,serif" font-size="14.00">60.write()</text>
</g>
<!-- Start&#45;&gt;22 -->
<g id="edge68" class="edge">
<title>Start&#45;&gt;22</title>
<path fill="none" stroke="black" d="M3033.28,-263.57C3434.53,-261.23 5261.78,-249.49 5281.96,-229 5288.24,-222.62 5287.76,-213.57 5284.85,-204.92"/>
<polygon fill="black" stroke="black" points="5287.95,-203.27 5280.77,-195.48 5281.53,-206.05 5287.95,-203.27"/>
<text text-anchor="middle" x="5313.46" y="-217.8" font-family="Times New Roman,serif" font-size="14.00">57.lseek()</text>
</g>
<!-- Start&#45;&gt;22 -->
<g id="edge69" class="edge">
<title>Start&#45;&gt;22</title>
<path fill="none" stroke="black" d="M3033.36,-263.6C3441.31,-261.39 5324.19,-250.07 5344.96,-229 5359.94,-213.8 5337.67,-200.6 5313.59,-191.59"/>
<polygon fill="black" stroke="black" points="5314.58,-188.23 5303.98,-188.23 5312.27,-194.83 5314.58,-188.23"/>
<text text-anchor="middle" x="5376.46" y="-217.8" font-family="Times New Roman,serif" font-size="14.00">52.open()</text>
</g>
<!-- 23 -->
<g id="node24" class="node">
<title>23</title>
<ellipse fill="none" stroke="black" cx="5440.96" cy="-178" rx="55.49" ry="18"/>
<text text-anchor="middle" x="5440.96" y="-174.3" font-family="Times New Roman,serif" font-size="14.00">^chkconfig$</text>
</g>
<!-- Start&#45;&gt;23 -->
<g id="edge70" class="edge">
<title>Start&#45;&gt;23</title>
<path fill="none" stroke="black" d="M3033.26,-263.89C3444.05,-263.15 5354.64,-258.19 5407.96,-229 5417.54,-223.76 5424.81,-214.4 5430.06,-205.19"/>
<polygon fill="black" stroke="black" points="5433.23,-206.69 5434.64,-196.19 5426.99,-203.51 5433.23,-206.69"/>
<text text-anchor="middle" x="5451.46" y="-217.8" font-family="Times New Roman,serif" font-size="14.00">27.clone()</text>
</g>
<!-- 24 -->
<g id="node25" class="node">
<title>24</title>
<ellipse fill="none" stroke="black" cx="5512.96" cy="-91" rx="100.98" ry="18"/>
<text text-anchor="middle" x="5512.96" y="-87.3" font-family="Times New Roman,serif" font-size="14.00">permission(s|:)[0&#45;9]{1,4}</text>
</g>
<!-- Start&#45;&gt;24 -->
<g id="edge71" class="edge">
<title>Start&#45;&gt;24</title>
<path fill="none" stroke="black" d="M3033.24,-263.93C3451.68,-263.46 5429.13,-259.59 5483.96,-229 5520.74,-208.48 5521.02,-152.99 5517.36,-119.26"/>
<polygon fill="black" stroke="black" points="5520.81,-118.62 5516.07,-109.14 5513.86,-119.5 5520.81,-118.62"/>
<text text-anchor="middle" x="5549.46" y="-174.3" font-family="Times New Roman,serif" font-size="14.00">42.umask()</text>
</g>
<!-- 25 -->
<g id="node26" class="node">
<title>25</title>
<ellipse fill="none" stroke="black" cx="5641.96" cy="-18" rx="57.69" ry="18"/>
<text text-anchor="middle" x="5641.96" y="-14.3" font-family="Times New Roman,serif" font-size="14.00">/proc/rs_dev</text>
</g>
<!-- Start&#45;&gt;25 -->
<g id="edge72" class="edge">
<title>Start&#45;&gt;25</title>
<path fill="none" stroke="black" d="M3033.29,-263.77C3446.73,-262.41 5382.11,-254.71 5505.96,-229 5543.22,-221.26 5557.84,-222.69 5584.96,-196 5626.29,-155.33 5637.68,-84.6 5640.8,-46.01"/>
<polygon fill="black" stroke="black" points="5644.3,-46.24 5641.48,-36.03 5637.31,-45.77 5644.3,-46.24"/>
<text text-anchor="middle" x="5651.46" y="-130.8" font-family="Times New Roman,serif" font-size="14.00">20.open()</text>
</g>
<!-- 26 -->
<g id="node27" class="node">
<title>26</title>
<ellipse fill="none" stroke="black" cx="5706.96" cy="-178" rx="37.09" ry="18"/>
<text text-anchor="middle" x="5706.96" y="-174.3" font-family="Times New Roman,serif" font-size="14.00">bin/sed</text>
</g>
<!-- Start&#45;&gt;26 -->
<g id="edge73" class="edge">
<title>Start&#45;&gt;26</title>
<path fill="none" stroke="black" d="M3033.34,-263.79C3468.54,-262.49 5593.81,-254.86 5655.96,-229 5668.97,-223.59 5680.48,-213.13 5689.25,-203.17"/>
<polygon fill="black" stroke="black" points="5692.01,-205.34 5695.68,-195.4 5686.61,-200.87 5692.01,-205.34"/>
<text text-anchor="middle" x="5700.96" y="-217.8" font-family="Times New Roman,serif" font-size="14.00">37.stat()</text>
</g>
</g>
</svg>
