<?xml version="1.0" encoding="UTF-8" standalone="no"?>
<!DOCTYPE svg PUBLIC "-//W3C//DTD SVG 1.1//EN"
 "http://www.w3.org/Graphics/SVG/1.1/DTD/svg11.dtd">
<!-- Generated by graphviz version 6.0.1 (20220911.1526)
 -->
<!-- Pages: 1 -->
<svg width="3516pt" height="392pt"
 viewBox="0.00 0.00 3515.50 392.00" xmlns="http://www.w3.org/2000/svg" xmlns:xlink="http://www.w3.org/1999/xlink">
<g id="graph0" class="graph" transform="scale(1 1) rotate(0) translate(4 388)">
<polygon fill="white" stroke="none" points="-4,4 -4,-388 3511.5,-388 3511.5,4 -4,4"/>
<!-- 0 -->
<g id="node1" class="node">
<title>0</title>
<ellipse fill="lightgrey" stroke="black" cx="2950.5" cy="-366" rx="40.09" ry="18"/>
<text text-anchor="middle" x="2950.5" y="-362.3" font-family="Times New Roman,serif" font-size="14.00">malware</text>
</g>
<!-- 1 -->
<g id="node2" class="node">
<title>1</title>
<polygon fill="lightgrey" stroke="black" points="1382.78,-23.56 1290.5,-36 1198.22,-23.56 1233.47,-3.44 1347.53,-3.44 1382.78,-23.56"/>
<text text-anchor="middle" x="1290.5" y="-14.3" font-family="Times New Roman,serif" font-size="14.00">Memory Address</text>
</g>
<!-- 0&#45;&gt;1 -->
<g id="edge1" class="edge">
<title>0&#45;&gt;1</title>
<path fill="none" stroke="black" d="M2910.13,-365.1C2571.97,-365.91 222.19,-370.03 162.5,-330 60.62,-261.67 63.53,-122.2 165.5,-54 170.81,-50.45 917.72,-29.36 1191.44,-21.74"/>
<polygon fill="black" stroke="black" points="1191.87,-25.23 1201.76,-21.45 1191.67,-18.23 1191.87,-25.23"/>
<text text-anchor="middle" x="111" y="-188.3" font-family="Times New Roman,serif" font-size="14.00">1. brk()</text>
</g>
<!-- 0&#45;&gt;1 -->
<g id="edge2" class="edge">
<title>0&#45;&gt;1</title>
<path fill="none" stroke="black" d="M2919.32,-354.35C2902.84,-348.19 2882.55,-339.73 2865.5,-330 2688.53,-229.06 2691.74,-121.47 2499.5,-54 2395.58,-17.53 1649.97,-17.33 1384.25,-18.44"/>
<polygon fill="black" stroke="black" points="1384.23,-14.94 1374.24,-18.49 1384.26,-21.94 1384.23,-14.94"/>
<text text-anchor="middle" x="2753.5" y="-188.3" font-family="Times New Roman,serif" font-size="14.00">2. mprotect()</text>
</g>
<!-- 0&#45;&gt;1 -->
<g id="edge3" class="edge">
<title>0&#45;&gt;1</title>
<path fill="none" stroke="black" d="M2939.84,-348.19C2923.05,-320.62 2891.17,-263.5 2879.5,-210 2876.09,-194.37 2870.48,-187.22 2879.5,-174 2891.88,-155.87 2913.12,-174.13 2925.5,-156 2929.26,-150.49 2927.35,-147.41 2925.5,-141 2911.89,-93.85 2902.77,-72.95 2857.5,-54 2823.48,-39.76 1723.07,-24.54 1387.01,-20.21"/>
<polygon fill="black" stroke="black" points="1386.85,-16.71 1376.81,-20.08 1386.76,-23.71 1386.85,-16.71"/>
<text text-anchor="middle" x="2920" y="-188.3" font-family="Times New Roman,serif" font-size="14.00">3. arch_prctl()</text>
</g>
<!-- 0&#45;&gt;1 -->
<g id="edge4" class="edge">
<title>0&#45;&gt;1</title>
<path fill="none" stroke="black" d="M2910.22,-364.86C2569.09,-363.52 176.5,-351.6 176.5,-280 176.5,-280 176.5,-280 176.5,-104 176.5,-96.37 226.34,-64.77 265.5,-54 287.62,-47.91 938.74,-28.93 1191.53,-21.77"/>
<polygon fill="black" stroke="black" points="1191.91,-25.26 1201.81,-21.48 1191.71,-18.27 1191.91,-25.26"/>
<text text-anchor="middle" x="212.5" y="-188.3" font-family="Times New Roman,serif" font-size="14.00">4. munmap()</text>
</g>
<!-- 2 -->
<g id="node3" class="node">
<title>2</title>
<polygon fill="lightgrey" stroke="black" points="3013,-297 2946,-297 2946,-261 3013,-261 3013,-297"/>
<text text-anchor="middle" x="2979.5" y="-275.3" font-family="Times New Roman,serif" font-size="14.00">/proc/.inl</text>
</g>
<!-- 0&#45;&gt;2 -->
<g id="edge5" class="edge">
<title>0&#45;&gt;2</title>
<path fill="none" stroke="black" d="M2948.16,-347.84C2947.47,-337.95 2947.72,-325.45 2951.5,-315 2952.7,-311.68 2954.36,-308.44 2956.27,-305.35"/>
<polygon fill="black" stroke="black" points="2959.19,-307.29 2962.16,-297.12 2953.5,-303.21 2959.19,-307.29"/>
<text text-anchor="middle" x="2977.5" y="-318.8" font-family="Times New Roman,serif" font-size="14.00">5. open()</text>
</g>
<!-- 3 -->
<g id="node4" class="node">
<title>3</title>
<polygon fill="lightgrey" stroke="black" points="3100,-297 3043,-297 3043,-301 3031,-301 3031,-261 3100,-261 3100,-297"/>
<polyline fill="none" stroke="black" points="3031,-297 3043,-297"/>
<text text-anchor="middle" x="3065.5" y="-275.3" font-family="Times New Roman,serif" font-size="14.00">PID:1510</text>
</g>
<!-- 0&#45;&gt;3 -->
<g id="edge6" class="edge">
<title>0&#45;&gt;3</title>
<path fill="none" stroke="black" d="M2972.74,-350.99C2982.34,-344.76 2993.62,-337.22 3003.5,-330 3014.78,-321.76 3026.8,-312.24 3037.24,-303.73"/>
<polygon fill="black" stroke="black" points="3039.72,-306.22 3045.22,-297.17 3035.27,-300.82 3039.72,-306.22"/>
<text text-anchor="middle" x="3052.5" y="-318.8" font-family="Times New Roman,serif" font-size="14.00">6. getpid()</text>
</g>
<!-- 4 -->
<g id="node5" class="node">
<title>4</title>
<polygon fill="lightgrey" stroke="black" points="3272.5,-297 3158.5,-297 3158.5,-261 3272.5,-261 3272.5,-297"/>
<text text-anchor="middle" x="3215.5" y="-275.3" font-family="Times New Roman,serif" font-size="14.00">/tmp/.tmp_k4jzVl</text>
</g>
<!-- 0&#45;&gt;4 -->
<g id="edge7" class="edge">
<title>0&#45;&gt;4</title>
<path fill="none" stroke="black" d="M2990.33,-362.84C3063.22,-358.47 3212.07,-347.5 3227.5,-330 3233.19,-323.55 3232.89,-314.88 3230.32,-306.57"/>
<polygon fill="black" stroke="black" points="3233.49,-305.07 3226.47,-297.13 3227.01,-307.71 3233.49,-305.07"/>
<text text-anchor="middle" x="3255.5" y="-318.8" font-family="Times New Roman,serif" font-size="14.00">7. lstat()</text>
</g>
<!-- 0&#45;&gt;4 -->
<g id="edge8" class="edge">
<title>0&#45;&gt;4</title>
<path fill="none" stroke="black" d="M2990.63,-363.72C3074.72,-360.62 3263.28,-351.35 3282.5,-330 3291.82,-319.65 3284.73,-310.03 3272.23,-302.05"/>
<polygon fill="black" stroke="black" points="3273.79,-298.91 3263.36,-297.05 3270.35,-305.01 3273.79,-298.91"/>
<text text-anchor="middle" x="3313.5" y="-318.8" font-family="Times New Roman,serif" font-size="14.00">8. open()</text>
</g>
<!-- 0&#45;&gt;4 -->
<g id="edge9" class="edge">
<title>0&#45;&gt;4</title>
<path fill="none" stroke="black" d="M2987.4,-358.7C3014.93,-353.21 3053.06,-343.92 3084.5,-330 3095.66,-325.06 3096.49,-320.26 3107.5,-315 3120.51,-308.79 3134.89,-303.27 3148.81,-298.55"/>
<polygon fill="black" stroke="black" points="3149.94,-301.87 3158.35,-295.42 3147.76,-295.22 3149.94,-301.87"/>
<text text-anchor="middle" x="3133" y="-318.8" font-family="Times New Roman,serif" font-size="14.00">9. write()</text>
</g>
<!-- 0&#45;&gt;4 -->
<g id="edge14" class="edge">
<title>0&#45;&gt;4</title>
<path fill="none" stroke="black" d="M2990.76,-364.67C3034.15,-362.88 3104.25,-355.76 3158.5,-330 3162.25,-328.22 3176.16,-316.04 3189.3,-304.15"/>
<polygon fill="black" stroke="black" points="3191.83,-306.58 3196.86,-297.26 3187.11,-301.4 3191.83,-306.58"/>
<text text-anchor="middle" x="3199.5" y="-318.8" font-family="Times New Roman,serif" font-size="14.00">14. rm()</text>
</g>
<!-- 5 -->
<g id="node6" class="node">
<title>5</title>
<ellipse fill="lightgrey" stroke="black" cx="2140.5" cy="-279" rx="325.74" ry="18"/>
<text text-anchor="middle" x="2140.5" y="-275.3" font-family="Times New Roman,serif" font-size="14.00">./malware/602c435834d796943b1e547316c18a9a64c68f032985e7a5a763339d82598915</text>
</g>
<!-- 0&#45;&gt;5 -->
<g id="edge10" class="edge">
<title>0&#45;&gt;5</title>
<path fill="none" stroke="black" d="M2910.64,-362.87C2830.65,-358.4 2644.89,-347.01 2489.5,-330 2409.32,-321.22 2319.22,-308.23 2250.65,-297.7"/>
<polygon fill="black" stroke="black" points="2251.11,-294.22 2240.69,-296.16 2250.04,-301.14 2251.11,-294.22"/>
<text text-anchor="middle" x="2520" y="-318.8" font-family="Times New Roman,serif" font-size="14.00">10. clone()</text>
</g>
<!-- 0&#45;&gt;5 -->
<g id="edge11" class="edge">
<title>0&#45;&gt;5</title>
<path fill="none" stroke="black" d="M2910.15,-364.01C2788.51,-360.85 2426.61,-349.97 2310.5,-330 2271.9,-323.36 2229.64,-310.96 2196.91,-300.16"/>
<polygon fill="black" stroke="black" points="2197.67,-296.73 2187.08,-296.88 2195.45,-303.37 2197.67,-296.73"/>
<text text-anchor="middle" x="2340.5" y="-318.8" font-family="Times New Roman,serif" font-size="14.00">11. wait4()</text>
</g>
<!-- 6 -->
<g id="node7" class="node">
<title>6</title>
<ellipse fill="lightgrey" stroke="black" cx="3435.5" cy="-279" rx="28.7" ry="18"/>
<text text-anchor="middle" x="3435.5" y="-275.3" font-family="Times New Roman,serif" font-size="14.00">1513</text>
</g>
<!-- 0&#45;&gt;6 -->
<g id="edge12" class="edge">
<title>0&#45;&gt;6</title>
<path fill="none" stroke="black" d="M2990.57,-363.5C3076.97,-359.92 3278.25,-349.71 3343.5,-330 3366.77,-322.97 3390.82,-309.65 3408.5,-298.52"/>
<polygon fill="black" stroke="black" points="3410.62,-301.31 3417.12,-292.95 3406.82,-295.44 3410.62,-301.31"/>
<text text-anchor="middle" x="3408" y="-318.8" font-family="Times New Roman,serif" font-size="14.00">12. clone()</text>
</g>
<!-- 0&#45;&gt;6 -->
<g id="edge13" class="edge">
<title>0&#45;&gt;6</title>
<path fill="none" stroke="black" d="M2991.08,-365.2C3103.38,-365.35 3412.01,-362.74 3442.5,-330 3448.43,-323.64 3448.71,-314.7 3446.83,-306.14"/>
<polygon fill="black" stroke="black" points="3450.13,-304.96 3443.85,-296.43 3443.44,-307.02 3450.13,-304.96"/>
<text text-anchor="middle" x="3477.5" y="-318.8" font-family="Times New Roman,serif" font-size="14.00">13. wait4()</text>
</g>
<!-- 7 -->
<g id="node8" class="node">
<title>7</title>
<polygon fill="lightgrey" stroke="black" points="2916,-36 2869,-36 2869,-40 2857,-40 2857,0 2916,0 2916,-36"/>
<polyline fill="none" stroke="black" points="2857,-36 2869,-36"/>
<text text-anchor="middle" x="2886.5" y="-14.3" font-family="Times New Roman,serif" font-size="14.00">status:1</text>
</g>
<!-- 0&#45;&gt;7 -->
<g id="edge15" class="edge">
<title>0&#45;&gt;7</title>
<path fill="none" stroke="black" d="M2946.02,-348.1C2942.65,-334.43 2938.3,-314.63 2936.5,-297 2934.88,-281.08 2932.53,-276.5 2936.5,-261 2942.92,-235.95 2958.08,-235.05 2964.5,-210 2974.92,-169.36 2972.26,-81.99 2953.5,-54 2946.78,-43.97 2936.23,-36.62 2925.47,-31.33"/>
<polygon fill="black" stroke="black" points="2926.62,-28.02 2916.06,-27.2 2923.8,-34.42 2926.62,-28.02"/>
<text text-anchor="middle" x="3016" y="-188.3" font-family="Times New Roman,serif" font-size="14.00">15. exit_group()</text>
</g>
<!-- 5&#45;&gt;1 -->
<g id="edge16" class="edge">
<title>5&#45;&gt;1</title>
<path fill="none" stroke="black" d="M2258.52,-262.21C2332.11,-246.65 2424,-216.03 2484.5,-156 2516.81,-123.95 2515.07,-76.49 2475.5,-54 2428.46,-27.27 1659.05,-20.84 1385.83,-19.39"/>
<polygon fill="black" stroke="black" points="1385.55,-15.89 1375.54,-19.34 1385.52,-22.89 1385.55,-15.89"/>
<text text-anchor="middle" x="2521" y="-144.8" font-family="Times New Roman,serif" font-size="14.00">16. brk()</text>
</g>
<!-- 5&#45;&gt;1 -->
<g id="edge17" class="edge">
<title>5&#45;&gt;1</title>
<path fill="none" stroke="black" d="M1820.54,-275.6C1302.31,-271.19 333.47,-260.63 300.5,-243 267.56,-225.39 281.46,-197.6 252.5,-174 236.76,-161.17 221.68,-172.95 210.5,-156 193.24,-129.82 217.99,-88.91 299.5,-54 319.82,-45.3 945.51,-28.03 1192.05,-21.54"/>
<polygon fill="black" stroke="black" points="1192.17,-25.04 1202.08,-21.28 1191.99,-18.04 1192.17,-25.04"/>
<text text-anchor="middle" x="251" y="-144.8" font-family="Times New Roman,serif" font-size="14.00">17. mprotect()</text>
</g>
<!-- 5&#45;&gt;1 -->
<g id="edge18" class="edge">
<title>5&#45;&gt;1</title>
<path fill="none" stroke="black" d="M1816.26,-277.28C1333.3,-275.38 474.45,-268.41 410.5,-243 356.99,-221.74 337.84,-208.64 314.5,-156 300.13,-123.59 283.68,-97.04 337.5,-54 345.76,-47.39 948.6,-29.02 1191.1,-21.88"/>
<polygon fill="black" stroke="black" points="1191.43,-25.38 1201.32,-21.58 1191.22,-18.38 1191.43,-25.38"/>
<text text-anchor="middle" x="358.5" y="-144.8" font-family="Times New Roman,serif" font-size="14.00">18. arch_prctl()</text>
</g>
<!-- 5&#45;&gt;1 -->
<g id="edge19" class="edge">
<title>5&#45;&gt;1</title>
<path fill="none" stroke="black" d="M1830.6,-273.42C1539.48,-268.27 1125.15,-258.54 963.5,-243 872.95,-234.3 851.17,-225.34 761.5,-210 627.1,-187.01 591.36,-190.69 459.5,-156 448.79,-153.18 371.9,-132.03 365.5,-123 286.97,-12.2 399.72,-70.14 533.5,-54 770.91,-25.35 1052.81,-19.74 1196.34,-18.9"/>
<polygon fill="black" stroke="black" points="1196.45,-22.4 1206.43,-18.84 1196.41,-15.4 1196.45,-22.4"/>
<text text-anchor="middle" x="499" y="-144.8" font-family="Times New Roman,serif" font-size="14.00">19. munmap()</text>
</g>
<!-- 5&#45;&gt;7 -->
<g id="edge27" class="edge">
<title>5&#45;&gt;7</title>
<path fill="none" stroke="black" d="M2455.88,-274.44C2557.92,-269.83 2656.79,-260.68 2703.5,-243 2772.51,-216.88 2769.55,-176.02 2834.5,-141 2856.4,-129.19 2873.01,-143.22 2887.5,-123 2903.37,-100.85 2900.18,-68.68 2894.89,-46"/>
<polygon fill="black" stroke="black" points="2898.28,-45.11 2892.37,-36.31 2891.5,-46.87 2898.28,-45.11"/>
<text text-anchor="middle" x="2880" y="-144.8" font-family="Times New Roman,serif" font-size="14.00">27. exit_group()</text>
</g>
<!-- 8 -->
<g id="node9" class="node">
<title>8</title>
<polygon fill="lightgrey" stroke="black" points="1100,-123 1043,-123 1043,-127 1031,-127 1031,-87 1100,-87 1100,-123"/>
<polyline fill="none" stroke="black" points="1031,-123 1043,-123"/>
<text text-anchor="middle" x="1065.5" y="-101.3" font-family="Times New Roman,serif" font-size="14.00">PID:1511</text>
</g>
<!-- 5&#45;&gt;8 -->
<g id="edge20" class="edge">
<title>5&#45;&gt;8</title>
<path fill="none" stroke="black" d="M1819.08,-276.04C1501.13,-271.38 1037.71,-256.49 864.5,-210 810.35,-195.47 780.48,-203.37 750.5,-156 746.94,-150.37 745.94,-145.87 750.5,-141 769.75,-120.43 963.58,-128.26 1020.72,-122.07"/>
<polygon fill="black" stroke="black" points="1021.38,-125.51 1030.73,-120.53 1020.31,-118.6 1021.38,-125.51"/>
<text text-anchor="middle" x="897" y="-188.3" font-family="Times New Roman,serif" font-size="14.00">20. getpid()</text>
</g>
<!-- 9 -->
<g id="node10" class="node">
<title>9</title>
<polygon fill="lightgrey" stroke="black" points="2728,-36 2615,-36 2615,0 2728,0 2728,-36"/>
<text text-anchor="middle" x="2671.5" y="-14.3" font-family="Times New Roman,serif" font-size="14.00">/tmp/.tmp_9SEtfj</text>
</g>
<!-- 5&#45;&gt;9 -->
<g id="edge21" class="edge">
<title>5&#45;&gt;9</title>
<path fill="none" stroke="black" d="M2442.89,-272.3C2554.79,-267.55 2659.7,-258.87 2680.5,-243 2748.62,-191.03 2756.95,-130.57 2718.5,-54 2716.55,-50.11 2713.94,-46.55 2710.94,-43.31"/>
<polygon fill="black" stroke="black" points="2713.11,-40.54 2703.39,-36.33 2708.36,-45.68 2713.11,-40.54"/>
<text text-anchor="middle" x="2768" y="-144.8" font-family="Times New Roman,serif" font-size="14.00">21. lstat()</text>
</g>
<!-- 5&#45;&gt;9 -->
<g id="edge26" class="edge">
<title>5&#45;&gt;9</title>
<path fill="none" stroke="black" d="M2410.93,-268.94C2510.34,-260.02 2607.28,-242.83 2642.5,-210 2691.03,-164.77 2680.46,-134.42 2691.5,-69 2692.61,-62.43 2693.21,-60.44 2691.5,-54 2690.7,-50.99 2689.57,-47.96 2688.25,-45.02"/>
<polygon fill="black" stroke="black" points="2691.3,-43.28 2683.57,-36.03 2685.09,-46.51 2691.3,-43.28"/>
<text text-anchor="middle" x="2705.5" y="-144.8" font-family="Times New Roman,serif" font-size="14.00">26. rm()</text>
</g>
<!-- 10 -->
<g id="node11" class="node">
<title>10</title>
<ellipse fill="lightgrey" stroke="black" cx="2152.5" cy="-192" rx="27" ry="18"/>
<text text-anchor="middle" x="2152.5" y="-188.3" font-family="Times New Roman,serif" font-size="14.00">sh</text>
</g>
<!-- 5&#45;&gt;10 -->
<g id="edge22" class="edge">
<title>5&#45;&gt;10</title>
<path fill="none" stroke="black" d="M2160.7,-260.93C2165.49,-255.72 2169.94,-249.6 2172.5,-243 2175.79,-234.51 2173.69,-225.25 2169.82,-217.03"/>
<polygon fill="black" stroke="black" points="2172.85,-215.28 2164.89,-208.29 2166.75,-218.72 2172.85,-215.28"/>
<text text-anchor="middle" x="2202.5" y="-231.8" font-family="Times New Roman,serif" font-size="14.00">22. exec()</text>
</g>
<!-- 5&#45;&gt;10 -->
<g id="edge23" class="edge">
<title>5&#45;&gt;10</title>
<path fill="none" stroke="black" d="M2119.32,-261.01C2110.28,-251.6 2102.95,-239.51 2108.5,-228 2111.88,-220.99 2117.43,-214.95 2123.46,-209.96"/>
<polygon fill="black" stroke="black" points="2125.84,-212.55 2131.83,-203.8 2121.7,-206.91 2125.84,-212.55"/>
<text text-anchor="middle" x="2138.5" y="-231.8" font-family="Times New Roman,serif" font-size="14.00">23. wait4()</text>
</g>
<!-- 11 -->
<g id="node12" class="node">
<title>11</title>
<ellipse fill="lightgrey" stroke="black" cx="965.5" cy="-192" rx="27" ry="18"/>
<text text-anchor="middle" x="965.5" y="-188.3" font-family="Times New Roman,serif" font-size="14.00">sh</text>
</g>
<!-- 5&#45;&gt;11 -->
<g id="edge24" class="edge">
<title>5&#45;&gt;11</title>
<path fill="none" stroke="black" d="M1951.39,-264.32C1666.5,-243.71 1145.32,-206.01 1002.52,-195.68"/>
<polygon fill="black" stroke="black" points="1002.75,-192.19 992.52,-194.95 1002.24,-199.17 1002.75,-192.19"/>
<text text-anchor="middle" x="1651.5" y="-231.8" font-family="Times New Roman,serif" font-size="14.00">24. exec()</text>
</g>
<!-- 5&#45;&gt;11 -->
<g id="edge25" class="edge">
<title>5&#45;&gt;11</title>
<path fill="none" stroke="black" d="M1871.48,-268.85C1735.81,-263.25 1568.79,-254.83 1419.5,-243 1263.79,-230.66 1078.9,-207.71 1001.93,-197.78"/>
<polygon fill="black" stroke="black" points="1002.17,-194.28 991.8,-196.47 1001.27,-201.22 1002.17,-194.28"/>
<text text-anchor="middle" x="1449.5" y="-231.8" font-family="Times New Roman,serif" font-size="14.00">25. wait4()</text>
</g>
<!-- 10&#45;&gt;1 -->
<g id="edge28" class="edge">
<title>10&#45;&gt;1</title>
<path fill="none" stroke="black" d="M2175.75,-182.46C2198.17,-173.01 2226.65,-156.98 2211.5,-141 2185.86,-113.94 1911.02,-137.07 1876.5,-123 1854.04,-113.85 1857.62,-96.94 1835.5,-87 1758.36,-52.34 1526.47,-33.06 1391.31,-24.49"/>
<polygon fill="black" stroke="black" points="1391.15,-20.98 1380.95,-23.85 1390.71,-27.96 1391.15,-20.98"/>
<text text-anchor="middle" x="1901" y="-101.3" font-family="Times New Roman,serif" font-size="14.00">28. brk()</text>
</g>
<!-- 10&#45;&gt;1 -->
<g id="edge29" class="edge">
<title>10&#45;&gt;1</title>
<path fill="none" stroke="black" d="M2177.67,-184.79C2206.37,-176.59 2247.05,-160.84 2228.5,-141 2208.19,-119.28 1988.57,-135.3 1961.5,-123 1940.9,-113.64 1945.5,-97.59 1925.5,-87 1856.32,-50.37 1830.09,-64.31 1752.5,-54 1628.83,-37.57 1485.43,-28.2 1391.6,-23.37"/>
<polygon fill="black" stroke="black" points="1391.71,-19.87 1381.55,-22.86 1391.36,-26.86 1391.71,-19.87"/>
<text text-anchor="middle" x="2002" y="-101.3" font-family="Times New Roman,serif" font-size="14.00">29. mprotect()</text>
</g>
<!-- 10&#45;&gt;1 -->
<g id="edge30" class="edge">
<title>10&#45;&gt;1</title>
<path fill="none" stroke="black" d="M2178.63,-186.78C2213.22,-180.13 2267.42,-165.41 2245.5,-141 2220.56,-113.23 2112.17,-139.11 2078.5,-123 2058.09,-113.23 2062.67,-97.26 2042.5,-87 1929.88,-29.7 1560.42,-20.14 1384.82,-18.91"/>
<polygon fill="black" stroke="black" points="1384.58,-15.41 1374.56,-18.85 1384.53,-22.41 1384.58,-15.41"/>
<text text-anchor="middle" x="2122.5" y="-101.3" font-family="Times New Roman,serif" font-size="14.00">30. arch_prctl()</text>
</g>
<!-- 10&#45;&gt;1 -->
<g id="edge31" class="edge">
<title>10&#45;&gt;1</title>
<path fill="none" stroke="black" d="M2179.25,-188.65C2218.82,-184.11 2285.87,-171.72 2262.5,-141 2244.35,-117.14 2222.82,-139.05 2197.5,-123 2179.67,-111.69 2184.86,-97.43 2166.5,-87 2148.06,-76.52 1999.57,-56.38 1978.5,-54 1768.27,-30.29 1520.08,-22.64 1386.77,-20.17"/>
<polygon fill="black" stroke="black" points="1386.64,-16.67 1376.58,-19.99 1386.52,-23.67 1386.64,-16.67"/>
<text text-anchor="middle" x="2237" y="-101.3" font-family="Times New Roman,serif" font-size="14.00">31. munmap()</text>
</g>
<!-- 10&#45;&gt;7 -->
<g id="edge42" class="edge">
<title>10&#45;&gt;7</title>
<path fill="none" stroke="black" d="M2179.48,-189.74C2299.67,-184.1 2780.81,-161.21 2786.5,-156 2809.36,-135.08 2776.21,-110.42 2796.5,-87 2815.01,-65.64 2835.28,-86.47 2857.5,-69 2865.38,-62.81 2871.53,-53.84 2876.09,-45.2"/>
<polygon fill="black" stroke="black" points="2879.28,-46.63 2880.43,-36.1 2872.97,-43.62 2879.28,-46.63"/>
<text text-anchor="middle" x="2842" y="-101.3" font-family="Times New Roman,serif" font-size="14.00">42. exit_group()</text>
</g>
<!-- 10&#45;&gt;8 -->
<g id="edge36" class="edge">
<title>10&#45;&gt;8</title>
<path fill="none" stroke="black" d="M2125.38,-191.2C1958.31,-192.33 1074.62,-196.36 1035.5,-156 1028.38,-148.65 1031.56,-139.31 1038.01,-130.7"/>
<polygon fill="black" stroke="black" points="1040.73,-132.91 1044.66,-123.07 1035.45,-128.31 1040.73,-132.91"/>
<text text-anchor="middle" x="1072" y="-144.8" font-family="Times New Roman,serif" font-size="14.00">36. getppid()</text>
</g>
<!-- 12 -->
<g id="node13" class="node">
<title>12</title>
<polygon fill="lightgrey" stroke="black" points="1408.5,-123 1366.5,-123 1366.5,-127 1354.5,-127 1354.5,-87 1408.5,-87 1408.5,-123"/>
<polyline fill="none" stroke="black" points="1354.5,-123 1366.5,-123"/>
<text text-anchor="middle" x="1381.5" y="-101.3" font-family="Times New Roman,serif" font-size="14.00">UID:0</text>
</g>
<!-- 10&#45;&gt;12 -->
<g id="edge32" class="edge">
<title>10&#45;&gt;12</title>
<path fill="none" stroke="black" d="M2125.6,-190.39C2015.78,-187.75 1604.69,-176.59 1550.5,-156 1540.44,-152.18 1541.19,-145.67 1531.5,-141 1495.35,-123.59 1450.05,-114.57 1418.74,-110.08"/>
<polygon fill="black" stroke="black" points="1419.07,-106.59 1408.69,-108.72 1418.14,-113.53 1419.07,-106.59"/>
<text text-anchor="middle" x="1582.5" y="-144.8" font-family="Times New Roman,serif" font-size="14.00">32. getuid()</text>
</g>
<!-- 10&#45;&gt;12 -->
<g id="edge35" class="edge">
<title>10&#45;&gt;12</title>
<path fill="none" stroke="black" d="M2125.33,-190.77C1991.9,-189.51 1411.41,-182.53 1384.5,-156 1378.58,-150.16 1376.66,-141.71 1376.58,-133.41"/>
<polygon fill="black" stroke="black" points="1380.09,-133.41 1377.31,-123.19 1373.11,-132.91 1380.09,-133.41"/>
<text text-anchor="middle" x="1419.5" y="-144.8" font-family="Times New Roman,serif" font-size="14.00">35. geteuid()</text>
</g>
<!-- 13 -->
<g id="node14" class="node">
<title>13</title>
<polygon fill="lightgrey" stroke="black" points="1826.5,-123 1784.5,-123 1784.5,-127 1772.5,-127 1772.5,-87 1826.5,-87 1826.5,-123"/>
<polyline fill="none" stroke="black" points="1772.5,-123 1784.5,-123"/>
<text text-anchor="middle" x="1799.5" y="-101.3" font-family="Times New Roman,serif" font-size="14.00">GID:0</text>
</g>
<!-- 10&#45;&gt;13 -->
<g id="edge33" class="edge">
<title>10&#45;&gt;13</title>
<path fill="none" stroke="black" d="M2149.63,-173.7C2146.79,-162.43 2141.23,-148.49 2130.5,-141 2104.02,-122.53 1871.95,-130.28 1840.5,-123 1839.23,-122.71 1837.96,-122.38 1836.67,-122.02"/>
<polygon fill="black" stroke="black" points="1837.47,-118.6 1826.88,-118.8 1835.29,-125.25 1837.47,-118.6"/>
<text text-anchor="middle" x="2175.5" y="-144.8" font-family="Times New Roman,serif" font-size="14.00">33. getgid()</text>
</g>
<!-- 10&#45;&gt;13 -->
<g id="edge39" class="edge">
<title>10&#45;&gt;13</title>
<path fill="none" stroke="black" d="M2127.9,-184.4C2107.93,-178.49 2079.43,-168.79 2056.5,-156 2047.1,-150.76 2047.49,-144.99 2037.5,-141 1955.84,-108.41 1925.86,-144.08 1840.5,-123 1839.24,-122.69 1837.96,-122.34 1836.68,-121.97"/>
<polygon fill="black" stroke="black" points="1837.5,-118.55 1826.91,-118.69 1835.27,-125.19 1837.5,-118.55"/>
<text text-anchor="middle" x="2091.5" y="-144.8" font-family="Times New Roman,serif" font-size="14.00">39. getegid()</text>
</g>
<!-- 14 -->
<g id="node15" class="node">
<title>14</title>
<polygon fill="lightgrey" stroke="black" points="2488,-123 2431,-123 2431,-127 2419,-127 2419,-87 2488,-87 2488,-123"/>
<polyline fill="none" stroke="black" points="2419,-123 2431,-123"/>
<text text-anchor="middle" x="2453.5" y="-101.3" font-family="Times New Roman,serif" font-size="14.00">PID:1512</text>
</g>
<!-- 10&#45;&gt;14 -->
<g id="edge34" class="edge">
<title>10&#45;&gt;14</title>
<path fill="none" stroke="black" d="M2179.79,-191.5C2225.37,-191.37 2319.02,-186.94 2390.5,-156 2404.73,-149.84 2418.47,-139.62 2429.47,-130.01"/>
<polygon fill="black" stroke="black" points="2431.92,-132.52 2436.96,-123.2 2427.2,-127.34 2431.92,-132.52"/>
<text text-anchor="middle" x="2448" y="-144.8" font-family="Times New Roman,serif" font-size="14.00">34. getpid()</text>
</g>
<!-- 15 -->
<g id="node16" class="node">
<title>15</title>
<polygon fill="lightgrey" stroke="black" points="1331.5,-123 1273.5,-123 1273.5,-87 1331.5,-87 1331.5,-123"/>
<text text-anchor="middle" x="1302.5" y="-101.3" font-family="Times New Roman,serif" font-size="14.00">/prober</text>
</g>
<!-- 10&#45;&gt;15 -->
<g id="edge37" class="edge">
<title>10&#45;&gt;15</title>
<path fill="none" stroke="black" d="M2125.21,-190.66C1985.68,-188.85 1357.13,-179.39 1323.5,-156 1315.75,-150.61 1310.85,-141.77 1307.75,-133.01"/>
<polygon fill="black" stroke="black" points="1311.1,-131.99 1304.97,-123.35 1304.38,-133.93 1311.1,-131.99"/>
<text text-anchor="middle" x="1348.5" y="-144.8" font-family="Times New Roman,serif" font-size="14.00">37. stat()</text>
</g>
<!-- 16 -->
<g id="node17" class="node">
<title>16</title>
<polygon fill="lightgrey" stroke="black" points="1561.5,-123 1507.5,-123 1507.5,-87 1561.5,-87 1561.5,-123"/>
<text text-anchor="middle" x="1534.5" y="-101.3" font-family="Times New Roman,serif" font-size="14.00">.</text>
</g>
<!-- 10&#45;&gt;16 -->
<g id="edge38" class="edge">
<title>10&#45;&gt;16</title>
<path fill="none" stroke="black" d="M2125.54,-190.52C2043.72,-188.8 1799.27,-181.59 1724.5,-156 1712.95,-152.05 1712.78,-145.67 1701.5,-141 1689.63,-136.09 1617.15,-121.76 1571.66,-113.03"/>
<polygon fill="black" stroke="black" points="1572.05,-109.54 1561.57,-111.1 1570.73,-116.42 1572.05,-109.54"/>
<text text-anchor="middle" x="1749.5" y="-144.8" font-family="Times New Roman,serif" font-size="14.00">38. stat()</text>
</g>
<!-- 17 -->
<g id="node18" class="node">
<title>17</title>
<ellipse fill="lightgrey" stroke="black" cx="2343.5" cy="-105" rx="57.69" ry="18"/>
<text text-anchor="middle" x="2343.5" y="-101.3" font-family="Times New Roman,serif" font-size="14.00">/sbin/insmod</text>
</g>
<!-- 10&#45;&gt;17 -->
<g id="edge40" class="edge">
<title>10&#45;&gt;17</title>
<path fill="none" stroke="black" d="M2178.89,-188.16C2219.79,-183.31 2296,-172.35 2317.5,-156 2325.2,-150.15 2330.82,-141.36 2334.83,-132.78"/>
<polygon fill="black" stroke="black" points="2338.15,-133.93 2338.7,-123.35 2331.67,-131.28 2338.15,-133.93"/>
<text text-anchor="middle" x="2358.5" y="-144.8" font-family="Times New Roman,serif" font-size="14.00">40. exec()</text>
</g>
<!-- 18 -->
<g id="node19" class="node">
<title>18</title>
<ellipse fill="lightgrey" stroke="black" cx="1677.5" cy="-105" rx="43.59" ry="18"/>
<text text-anchor="middle" x="1677.5" y="-101.3" font-family="Times New Roman,serif" font-size="14.00">NO_PID</text>
</g>
<!-- 10&#45;&gt;18 -->
<g id="edge41" class="edge">
<title>10&#45;&gt;18</title>
<path fill="none" stroke="black" d="M2125.51,-189.68C2089.38,-187.04 2024,-179.2 1973.5,-156 1963.72,-151.51 1964.49,-145 1954.5,-141 1875.35,-109.28 1847.88,-135.28 1763.5,-123 1751.03,-121.18 1737.63,-118.76 1725.2,-116.32"/>
<polygon fill="black" stroke="black" points="1725.53,-112.82 1715.03,-114.28 1724.15,-119.68 1725.53,-112.82"/>
<text text-anchor="middle" x="2003.5" y="-144.8" font-family="Times New Roman,serif" font-size="14.00">41. wait4()</text>
</g>
<!-- 11&#45;&gt;1 -->
<g id="edge50" class="edge">
<title>11&#45;&gt;1</title>
<path fill="none" stroke="black" d="M938.92,-188.4C858.47,-180.52 622.98,-157.34 621.5,-156 598.31,-134.99 626.24,-112.06 607.5,-87 597.26,-73.31 582.32,-83.65 573.5,-69 570.06,-63.29 568.9,-58.83 573.5,-54 594.56,-31.89 1003.63,-23.12 1194.25,-20.22"/>
<polygon fill="black" stroke="black" points="1194.33,-23.72 1204.27,-20.07 1194.22,-16.72 1194.33,-23.72"/>
<text text-anchor="middle" x="639" y="-101.3" font-family="Times New Roman,serif" font-size="14.00">50. brk()</text>
</g>
<!-- 11&#45;&gt;1 -->
<g id="edge51" class="edge">
<title>11&#45;&gt;1</title>
<path fill="none" stroke="black" d="M938.84,-188.58C883.99,-183.33 762.6,-170.22 750.5,-156 746.18,-150.92 746.44,-146.29 750.5,-141 769.26,-116.53 790.8,-138.43 817.5,-123 837.09,-111.68 832.74,-96 853.5,-87 881.6,-74.82 1383.2,-91.01 1404.5,-69 1423.23,-49.65 1396.72,-37.29 1364.57,-29.7"/>
<polygon fill="black" stroke="black" points="1364.97,-26.21 1354.45,-27.5 1363.48,-33.05 1364.97,-26.21"/>
<text text-anchor="middle" x="894" y="-101.3" font-family="Times New Roman,serif" font-size="14.00">51. mprotect()</text>
</g>
<!-- 11&#45;&gt;1 -->
<g id="edge52" class="edge">
<title>11&#45;&gt;1</title>
<path fill="none" stroke="black" d="M956.37,-174.72C951.66,-163.92 948.42,-150.1 956.5,-141 979.09,-115.57 1076.03,-133.13 1108.5,-123 1141.14,-112.82 1143.64,-96.45 1176.5,-87 1202.84,-79.43 1403.84,-89.07 1422.5,-69 1443.1,-46.84 1413.12,-34.42 1376.57,-27.51"/>
<polygon fill="black" stroke="black" points="1377.09,-24.05 1366.64,-25.78 1375.89,-30.94 1377.09,-24.05"/>
<text text-anchor="middle" x="1220.5" y="-101.3" font-family="Times New Roman,serif" font-size="14.00">52. arch_prctl()</text>
</g>
<!-- 11&#45;&gt;1 -->
<g id="edge53" class="edge">
<title>11&#45;&gt;1</title>
<path fill="none" stroke="black" d="M939.03,-188.4C856.53,-180.29 609.5,-156 609.5,-156 570.08,-146.6 547.39,-156.44 524.5,-123 515.46,-109.8 517.51,-101.39 524.5,-87 534.88,-65.65 544.26,-62.3 566.5,-54 623.67,-32.67 1009.81,-23.57 1193.61,-20.41"/>
<polygon fill="black" stroke="black" points="1193.88,-23.91 1203.82,-20.24 1193.76,-16.91 1193.88,-23.91"/>
<text text-anchor="middle" x="564" y="-101.3" font-family="Times New Roman,serif" font-size="14.00">53. munmap()</text>
</g>
<!-- 11&#45;&gt;8 -->
<g id="edge58" class="edge">
<title>11&#45;&gt;8</title>
<path fill="none" stroke="black" d="M938.58,-188.96C895.11,-184.7 817.06,-172.49 845.5,-141 870.15,-113.7 969.26,-129.75 1020.77,-122.3"/>
<polygon fill="black" stroke="black" points="1021.54,-125.72 1030.7,-120.41 1020.23,-118.85 1021.54,-125.72"/>
<text text-anchor="middle" x="882" y="-144.8" font-family="Times New Roman,serif" font-size="14.00">58. getppid()</text>
</g>
<!-- 11&#45;&gt;12 -->
<g id="edge54" class="edge">
<title>11&#45;&gt;12</title>
<path fill="none" stroke="black" d="M992.72,-190.8C1038.24,-189.65 1132.04,-183.76 1205.5,-156 1216.92,-151.69 1217.12,-145.4 1228.5,-141 1275.53,-122.83 1291.99,-136.75 1340.5,-123 1341.94,-122.59 1343.39,-122.15 1344.85,-121.68"/>
<polygon fill="black" stroke="black" points="1346.23,-124.9 1354.47,-118.25 1343.87,-118.31 1346.23,-124.9"/>
<text text-anchor="middle" x="1260.5" y="-144.8" font-family="Times New Roman,serif" font-size="14.00">54. getuid()</text>
</g>
<!-- 11&#45;&gt;12 -->
<g id="edge57" class="edge">
<title>11&#45;&gt;12</title>
<path fill="none" stroke="black" d="M992.15,-188.17C1022.53,-184.17 1073.07,-175.1 1112.5,-156 1122.18,-151.31 1121.5,-144.96 1131.5,-141 1218.18,-106.67 1249.93,-145.12 1340.5,-123 1341.76,-122.69 1343.04,-122.35 1344.32,-121.98"/>
<polygon fill="black" stroke="black" points="1345.73,-125.2 1354.1,-118.71 1343.51,-118.56 1345.73,-125.2"/>
<text text-anchor="middle" x="1166.5" y="-144.8" font-family="Times New Roman,serif" font-size="14.00">57. geteuid()</text>
</g>
<!-- 11&#45;&gt;13 -->
<g id="edge55" class="edge">
<title>11&#45;&gt;13</title>
<path fill="none" stroke="black" d="M992.93,-190.99C1140.69,-190.82 1836.43,-188.29 1867.5,-156 1872.12,-151.2 1870.97,-146.69 1867.5,-141 1865.48,-137.69 1851.16,-130.12 1836.17,-122.86"/>
<polygon fill="black" stroke="black" points="1837.4,-119.57 1826.86,-118.42 1834.38,-125.89 1837.4,-119.57"/>
<text text-anchor="middle" x="1903.5" y="-144.8" font-family="Times New Roman,serif" font-size="14.00">55. getgid()</text>
</g>
<!-- 11&#45;&gt;13 -->
<g id="edge61" class="edge">
<title>11&#45;&gt;13</title>
<path fill="none" stroke="black" d="M992.55,-190.6C1129.48,-188.46 1740.99,-177.72 1774.5,-156 1782.75,-150.65 1788.39,-141.7 1792.19,-132.84"/>
<polygon fill="black" stroke="black" points="1795.48,-134.03 1795.62,-123.43 1788.91,-131.62 1795.48,-134.03"/>
<text text-anchor="middle" x="1823.5" y="-144.8" font-family="Times New Roman,serif" font-size="14.00">61. getegid()</text>
</g>
<!-- 11&#45;&gt;15 -->
<g id="edge59" class="edge">
<title>11&#45;&gt;15</title>
<path fill="none" stroke="black" d="M960.57,-173.96C958.56,-163.11 958.33,-149.53 966.5,-141 988.29,-118.24 1218.54,-128.86 1249.5,-123 1254.18,-122.11 1259.02,-120.94 1263.79,-119.62"/>
<polygon fill="black" stroke="black" points="1264.82,-122.97 1273.4,-116.76 1262.81,-116.26 1264.82,-122.97"/>
<text text-anchor="middle" x="991.5" y="-144.8" font-family="Times New Roman,serif" font-size="14.00">59. stat()</text>
</g>
<!-- 11&#45;&gt;16 -->
<g id="edge60" class="edge">
<title>11&#45;&gt;16</title>
<path fill="none" stroke="black" d="M992.66,-190.87C1082.78,-190.16 1371.13,-185.57 1458.5,-156 1458.82,-155.89 1480.13,-141.87 1500.1,-128.7"/>
<polygon fill="black" stroke="black" points="1502.09,-131.58 1508.51,-123.15 1498.24,-125.73 1502.09,-131.58"/>
<text text-anchor="middle" x="1506.5" y="-144.8" font-family="Times New Roman,serif" font-size="14.00">60. stat()</text>
</g>
<!-- 11&#45;&gt;18 -->
<g id="edge63" class="edge">
<title>11&#45;&gt;18</title>
<path fill="none" stroke="black" d="M992.71,-190.56C1108.85,-188.56 1559.75,-179.35 1618.5,-156 1620.61,-155.16 1636.99,-141.22 1651.96,-128.28"/>
<polygon fill="black" stroke="black" points="1654.31,-130.87 1659.58,-121.67 1649.73,-125.58 1654.31,-130.87"/>
<text text-anchor="middle" x="1666.5" y="-144.8" font-family="Times New Roman,serif" font-size="14.00">63. wait4()</text>
</g>
<!-- 19 -->
<g id="node20" class="node">
<title>19</title>
<polygon fill="lightgrey" stroke="black" points="1013,-123 956,-123 956,-127 944,-127 944,-87 1013,-87 1013,-123"/>
<polyline fill="none" stroke="black" points="944,-123 956,-123"/>
<text text-anchor="middle" x="978.5" y="-101.3" font-family="Times New Roman,serif" font-size="14.00">PID:1514</text>
</g>
<!-- 11&#45;&gt;19 -->
<g id="edge56" class="edge">
<title>11&#45;&gt;19</title>
<path fill="none" stroke="black" d="M938.45,-190.6C887.51,-189.2 780.38,-183.05 757.5,-156 753.19,-150.91 753.04,-145.95 757.5,-141 783.22,-112.45 891.99,-131.35 929.5,-123 930.98,-122.67 932.48,-122.31 933.99,-121.92"/>
<polygon fill="black" stroke="black" points="935.33,-125.18 943.99,-119.08 933.41,-118.45 935.33,-125.18"/>
<text text-anchor="middle" x="790" y="-144.8" font-family="Times New Roman,serif" font-size="14.00">56. getpid()</text>
</g>
<!-- 20 -->
<g id="node21" class="node">
<title>20</title>
<ellipse fill="lightgrey" stroke="black" cx="757.5" cy="-105" rx="50.89" ry="18"/>
<text text-anchor="middle" x="757.5" y="-101.3" font-family="Times New Roman,serif" font-size="14.00">/bin/dmesg</text>
</g>
<!-- 11&#45;&gt;20 -->
<g id="edge62" class="edge">
<title>11&#45;&gt;20</title>
<path fill="none" stroke="black" d="M938.89,-188.35C859.52,-180.45 629.8,-157.45 628.5,-156 624.04,-151.05 624.45,-146.3 628.5,-141 629.15,-140.15 671.95,-128.64 708.06,-119.05"/>
<polygon fill="black" stroke="black" points="709.27,-122.35 718.03,-116.41 707.47,-115.59 709.27,-122.35"/>
<text text-anchor="middle" x="656.5" y="-144.8" font-family="Times New Roman,serif" font-size="14.00">62. exec()</text>
</g>
<!-- 21 -->
<g id="node22" class="node">
<title>21</title>
<polygon fill="lightgrey" stroke="black" points="59,-36 12,-36 12,-40 0,-40 0,0 59,0 59,-36"/>
<polyline fill="none" stroke="black" points="0,-36 12,-36"/>
<text text-anchor="middle" x="29.5" y="-14.3" font-family="Times New Roman,serif" font-size="14.00">status:0</text>
</g>
<!-- 11&#45;&gt;21 -->
<g id="edge64" class="edge">
<title>11&#45;&gt;21</title>
<path fill="none" stroke="black" d="M938.85,-188.15C904.89,-184.58 844.37,-178.39 792.5,-174 679.73,-164.47 648.34,-183.24 538.5,-156 522.47,-152.02 520.19,-146.15 504.5,-141 469.46,-129.5 459.34,-131.71 423.5,-123 293.11,-91.32 139.65,-49.49 68.88,-29.95"/>
<polygon fill="black" stroke="black" points="69.63,-26.52 59.05,-27.23 67.76,-33.27 69.63,-26.52"/>
<text text-anchor="middle" x="469" y="-101.3" font-family="Times New Roman,serif" font-size="14.00">64. exit_group()</text>
</g>
<!-- 17&#45;&gt;1 -->
<g id="edge43" class="edge">
<title>17&#45;&gt;1</title>
<path fill="none" stroke="black" d="M2300.26,-92.97C2290.82,-90.79 2280.86,-88.67 2271.5,-87 2206.27,-75.37 2185.76,-91.69 2123.5,-69 2112.03,-64.82 2112.12,-57.73 2100.5,-54 2034.26,-32.74 1587.31,-23.44 1387.12,-20.31"/>
<polygon fill="black" stroke="black" points="1386.96,-16.81 1376.91,-20.15 1386.85,-23.81 1386.96,-16.81"/>
<text text-anchor="middle" x="2148" y="-57.8" font-family="Times New Roman,serif" font-size="14.00">43. brk()</text>
</g>
<!-- 17&#45;&gt;1 -->
<g id="edge44" class="edge">
<title>17&#45;&gt;1</title>
<path fill="none" stroke="black" d="M2298.82,-93.46C2255.36,-83.2 2195.81,-69.13 2195.5,-69 2184.28,-64.19 2184.13,-57.71 2172.5,-54 2099.33,-30.66 1599.91,-22.41 1386.68,-19.93"/>
<polygon fill="black" stroke="black" points="1386.47,-16.43 1376.43,-19.81 1386.39,-23.43 1386.47,-16.43"/>
<text text-anchor="middle" x="2236" y="-57.8" font-family="Times New Roman,serif" font-size="14.00">44. mprotect()</text>
</g>
<!-- 17&#45;&gt;1 -->
<g id="edge45" class="edge">
<title>17&#45;&gt;1</title>
<path fill="none" stroke="black" d="M2323.26,-87.93C2305.55,-74.03 2281.84,-55.88 2276.5,-54 2194.01,-24.98 1615.69,-19.99 1385.09,-19.15"/>
<polygon fill="black" stroke="black" points="1385.05,-15.65 1375.04,-19.12 1385.03,-22.65 1385.05,-15.65"/>
<text text-anchor="middle" x="2342.5" y="-57.8" font-family="Times New Roman,serif" font-size="14.00">45. arch_prctl()</text>
</g>
<!-- 17&#45;&gt;1 -->
<g id="edge46" class="edge">
<title>17&#45;&gt;1</title>
<path fill="none" stroke="black" d="M2370.33,-89.01C2385.15,-78.9 2398.52,-65.38 2387.5,-54 2352.87,-18.25 1643.89,-17.54 1384.5,-18.49"/>
<polygon fill="black" stroke="black" points="1384.34,-14.99 1374.35,-18.53 1384.36,-21.99 1384.34,-14.99"/>
<text text-anchor="middle" x="2432" y="-57.8" font-family="Times New Roman,serif" font-size="14.00">46. munmap()</text>
</g>
<!-- 17&#45;&gt;7 -->
<g id="edge49" class="edge">
<title>17&#45;&gt;7</title>
<path fill="none" stroke="black" d="M2384.44,-92.18C2392.68,-90.16 2401.32,-88.3 2409.5,-87 2533.53,-67.25 2567.46,-88.68 2691.5,-69 2746.27,-60.31 2808.07,-43.18 2847.13,-31.41"/>
<polygon fill="black" stroke="black" points="2848.25,-34.73 2856.8,-28.47 2846.21,-28.04 2848.25,-34.73"/>
<text text-anchor="middle" x="2808" y="-57.8" font-family="Times New Roman,serif" font-size="14.00">49. exit_group()</text>
</g>
<!-- 17&#45;&gt;9 -->
<g id="edge47" class="edge">
<title>17&#45;&gt;9</title>
<path fill="none" stroke="black" d="M2386.04,-92.78C2393.83,-90.8 2401.9,-88.8 2409.5,-87 2446.23,-78.29 2455.86,-78.08 2492.5,-69 2529.98,-59.71 2571.54,-48.18 2605.18,-38.53"/>
<polygon fill="black" stroke="black" points="2606.25,-41.86 2614.89,-35.73 2604.31,-35.14 2606.25,-41.86"/>
<text text-anchor="middle" x="2572.5" y="-57.8" font-family="Times New Roman,serif" font-size="14.00">47. stat()</text>
</g>
<!-- 17&#45;&gt;9 -->
<g id="edge48" class="edge">
<title>17&#45;&gt;9</title>
<path fill="none" stroke="black" d="M2384.83,-92.29C2392.96,-90.29 2401.46,-88.4 2409.5,-87 2493.93,-72.26 2521.19,-98.94 2601.5,-69 2617.3,-63.11 2632.79,-52.68 2645.16,-42.87"/>
<polygon fill="black" stroke="black" points="2647.71,-45.31 2653.19,-36.24 2643.25,-39.91 2647.71,-45.31"/>
<text text-anchor="middle" x="2658.5" y="-57.8" font-family="Times New Roman,serif" font-size="14.00">48. open()</text>
</g>
<!-- 20&#45;&gt;1 -->
<g id="edge65" class="edge">
<title>20&#45;&gt;1</title>
<path fill="none" stroke="black" d="M796.49,-93.44C829.2,-84.48 871.78,-72.53 879.5,-69 890.6,-63.93 890.97,-58 902.5,-54 953.8,-36.2 1093.39,-26.96 1190.33,-22.55"/>
<polygon fill="black" stroke="black" points="1190.62,-26.04 1200.46,-22.09 1190.31,-19.04 1190.62,-26.04"/>
<text text-anchor="middle" x="927" y="-57.8" font-family="Times New Roman,serif" font-size="14.00">65. brk()</text>
</g>
<!-- 20&#45;&gt;1 -->
<g id="edge66" class="edge">
<title>20&#45;&gt;1</title>
<path fill="none" stroke="black" d="M795.82,-93.18C804.55,-90.94 813.81,-88.74 822.5,-87 879.27,-75.66 897.29,-89.3 951.5,-69 962.93,-64.72 963.01,-58.12 974.5,-54 1013.35,-40.08 1114.63,-30.48 1192.16,-24.9"/>
<polygon fill="black" stroke="black" points="1192.72,-28.37 1202.45,-24.17 1192.23,-21.39 1192.72,-28.37"/>
<text text-anchor="middle" x="1015" y="-57.8" font-family="Times New Roman,serif" font-size="14.00">66. mprotect()</text>
</g>
<!-- 20&#45;&gt;1 -->
<g id="edge67" class="edge">
<title>20&#45;&gt;1</title>
<path fill="none" stroke="black" d="M795.4,-92.87C804.23,-90.62 813.64,-88.49 822.5,-87 924.93,-69.79 957.16,-102.41 1055.5,-69 1067.06,-65.07 1067.13,-58.42 1078.5,-54 1115.84,-39.48 1159.17,-30.99 1196.88,-26.01"/>
<polygon fill="black" stroke="black" points="1197.36,-29.48 1206.85,-24.76 1196.49,-22.54 1197.36,-29.48"/>
<text text-anchor="middle" x="1122.5" y="-57.8" font-family="Times New Roman,serif" font-size="14.00">67. arch_prctl()</text>
</g>
<!-- 20&#45;&gt;1 -->
<g id="edge68" class="edge">
<title>20&#45;&gt;1</title>
<path fill="none" stroke="black" d="M795.03,-92.8C803.96,-90.52 813.51,-88.4 822.5,-87 898.14,-75.25 1093.72,-92.72 1166.5,-69 1178.1,-65.22 1178.54,-59.37 1189.5,-54 1205.37,-46.22 1223.41,-39.39 1239.81,-33.87"/>
<polygon fill="black" stroke="black" points="1241.36,-37.05 1249.77,-30.61 1239.18,-30.39 1241.36,-37.05"/>
<text text-anchor="middle" x="1229" y="-57.8" font-family="Times New Roman,serif" font-size="14.00">68. munmap()</text>
</g>
<!-- 20&#45;&gt;1 -->
<g id="edge69" class="edge">
<title>20&#45;&gt;1</title>
<path fill="none" stroke="black" d="M795.02,-92.72C803.95,-90.44 813.5,-88.34 822.5,-87 871.55,-79.68 1227.52,-96.93 1268.5,-69 1276.47,-63.57 1281.58,-54.56 1284.84,-45.67"/>
<polygon fill="black" stroke="black" points="1288.26,-46.47 1287.8,-35.89 1281.56,-44.45 1288.26,-46.47"/>
<text text-anchor="middle" x="1341" y="-57.8" font-family="Times New Roman,serif" font-size="14.00">69. set_tid_address()</text>
</g>
<!-- 20&#45;&gt;1 -->
<g id="edge70" class="edge">
<title>20&#45;&gt;1</title>
<path fill="none" stroke="black" d="M719.83,-92.91C695.29,-83.86 670.41,-69.99 685.5,-54 702.6,-35.88 1025.59,-25.42 1192.46,-21.2"/>
<polygon fill="black" stroke="black" points="1192.82,-24.69 1202.73,-20.94 1192.65,-17.69 1192.82,-24.69"/>
<text text-anchor="middle" x="742" y="-57.8" font-family="Times New Roman,serif" font-size="14.00">70. set_robust_list()</text>
</g>
<!-- 20&#45;&gt;1 -->
<g id="edge72" class="edge">
<title>20&#45;&gt;1</title>
<path fill="none" stroke="black" d="M776.05,-88.07C792.74,-73.81 815.02,-55 817.5,-54 883.79,-27.19 1077.86,-20.65 1195.81,-19.21"/>
<polygon fill="black" stroke="black" points="1195.96,-22.71 1205.92,-19.1 1195.88,-15.71 1195.96,-22.71"/>
<text text-anchor="middle" x="846.5" y="-57.8" font-family="Times New Roman,serif" font-size="14.00">72. futex()</text>
</g>
<!-- 20&#45;&gt;21 -->
<g id="edge73" class="edge">
<title>20&#45;&gt;21</title>
<path fill="none" stroke="black" d="M719.59,-92.93C710.76,-90.67 701.35,-88.53 692.5,-87 600.19,-71.09 575.73,-78.14 482.5,-69 329.51,-54 147.84,-32.97 69.12,-23.7"/>
<polygon fill="black" stroke="black" points="69.5,-20.22 59.15,-22.53 68.68,-27.17 69.5,-20.22"/>
<text text-anchor="middle" x="528" y="-57.8" font-family="Times New Roman,serif" font-size="14.00">73. exit_group()</text>
</g>
<!-- 22 -->
<g id="node23" class="node">
<title>22</title>
<polygon fill="lightgrey" stroke="black" points="638,-36 539,-36 539,-40 527,-40 527,0 638,0 638,-36"/>
<polyline fill="none" stroke="black" points="527,-36 539,-36"/>
<text text-anchor="middle" x="582.5" y="-14.3" font-family="Times New Roman,serif" font-size="14.00">8192*1024 bytes</text>
</g>
<!-- 20&#45;&gt;22 -->
<g id="edge71" class="edge">
<title>20&#45;&gt;22</title>
<path fill="none" stroke="black" d="M718.8,-93.25C710.18,-91.03 701.06,-88.82 692.5,-87 668.49,-81.89 599.57,-87.56 583.5,-69 578.15,-62.82 576.6,-54.41 576.78,-46.26"/>
<polygon fill="black" stroke="black" points="580.27,-46.55 577.78,-36.25 573.3,-45.85 580.27,-46.55"/>
<text text-anchor="middle" x="623" y="-57.8" font-family="Times New Roman,serif" font-size="14.00">71. prlimit64()</text>
</g>
</g>
</svg>
