<?xml version="1.0" encoding="UTF-8" standalone="no"?>
<!DOCTYPE svg PUBLIC "-//W3C//DTD SVG 1.1//EN"
 "http://www.w3.org/Graphics/SVG/1.1/DTD/svg11.dtd">
<!-- Generated by graphviz version 6.0.1 (20220911.1526)
 -->
<!-- Title: Xorddos_asg_OPset Pages: 1 -->
<svg width="5200pt" height="291pt"
 viewBox="0.00 0.00 5199.93 291.00" xmlns="http://www.w3.org/2000/svg" xmlns:xlink="http://www.w3.org/1999/xlink">
<g id="graph0" class="graph" transform="scale(1 1) rotate(0) translate(4 287)">
<title>Xorddos_asg_OPset</title>
<polygon fill="white" stroke="none" points="-4,4 -4,-287 5195.93,-287 5195.93,4 -4,4"/>
<!-- Start -->
<g id="node1" class="node">
<title>Start</title>
<ellipse fill="none" stroke="black" cx="2615.69" cy="-265" rx="77.19" ry="18"/>
<text text-anchor="middle" x="2615.69" y="-261.3" font-family="Times New Roman,serif" font-size="14.00">Malware (Subject)</text>
</g>
<!-- 1 -->
<g id="node2" class="node">
<title>1</title>
<ellipse fill="none" stroke="black" cx="72.69" cy="-178" rx="46.59" ry="18"/>
<text text-anchor="middle" x="72.69" y="-174.3" font-family="Times New Roman,serif" font-size="14.00">/etc/init.d/</text>
</g>
<!-- Start&#45;&gt;1 -->
<g id="edge1" class="edge">
<title>Start&#45;&gt;1</title>
<path fill="none" stroke="black" d="M2538.28,-263.7C2107.84,-261.92 27.52,-252.14 4.69,-229 -8.43,-215.7 8.38,-203.25 28.56,-194.1"/>
<polygon fill="black" stroke="black" points="30.12,-197.24 37.98,-190.14 27.4,-190.79 30.12,-197.24"/>
<text text-anchor="middle" x="27.69" y="-217.8" font-family="Times New Roman,serif" font-size="14.00">13.open</text>
</g>
<!-- Start&#45;&gt;1 -->
<g id="edge2" class="edge">
<title>Start&#45;&gt;1</title>
<path fill="none" stroke="black" d="M2538.27,-263.66C2114.69,-261.71 96.1,-251.28 73.69,-229 67.74,-223.08 66.14,-214.5 66.45,-206.12"/>
<polygon fill="black" stroke="black" points="69.93,-206.51 67.62,-196.17 62.98,-205.69 69.93,-206.51"/>
<text text-anchor="middle" x="96.69" y="-217.8" font-family="Times New Roman,serif" font-size="14.00">14.lseek</text>
</g>
<!-- Start&#45;&gt;1 -->
<g id="edge3" class="edge">
<title>Start&#45;&gt;1</title>
<path fill="none" stroke="black" d="M2538.44,-264.01C2134.05,-263.94 274.85,-261.8 157.69,-229 137.1,-223.24 116.37,-211.2 100.54,-200.38"/>
<polygon fill="black" stroke="black" points="102.47,-197.45 92.28,-194.54 98.43,-203.17 102.47,-197.45"/>
<text text-anchor="middle" x="180.19" y="-217.8" font-family="Times New Roman,serif" font-size="14.00">15.write</text>
</g>
<!-- 2 -->
<g id="node3" class="node">
<title>2</title>
<ellipse fill="none" stroke="black" cx="265.69" cy="-178" rx="33.6" ry="18"/>
<text text-anchor="middle" x="265.69" y="-174.3" font-family="Times New Roman,serif" font-size="14.00">/etc/rc</text>
</g>
<!-- Start&#45;&gt;2 -->
<g id="edge4" class="edge">
<title>Start&#45;&gt;2</title>
<path fill="none" stroke="black" d="M2538.45,-263.61C2129.16,-261.43 231.61,-250.23 210.69,-229 198.81,-216.95 213.53,-204.12 230.72,-194.48"/>
<polygon fill="black" stroke="black" points="232.56,-197.47 239.81,-189.75 229.32,-191.26 232.56,-197.47"/>
<text text-anchor="middle" x="227.19" y="-217.8" font-family="Times New Roman,serif" font-size="14.00">21.rm</text>
</g>
<!-- Start&#45;&gt;2 -->
<g id="edge5" class="edge">
<title>Start&#45;&gt;2</title>
<path fill="none" stroke="black" d="M2538.27,-263.57C2134.45,-261.25 287.29,-249.5 266.69,-229 260.74,-223.08 259.14,-214.5 259.46,-206.11"/>
<polygon fill="black" stroke="black" points="262.93,-206.51 260.62,-196.17 255.98,-205.69 262.93,-206.51"/>
<text text-anchor="middle" x="286.69" y="-217.8" font-family="Times New Roman,serif" font-size="14.00">32.lstat</text>
</g>
<!-- Start&#45;&gt;2 -->
<g id="edge6" class="edge">
<title>Start&#45;&gt;2</title>
<path fill="none" stroke="black" d="M2538.32,-264C2152.5,-263.83 450.81,-261.28 343.69,-229 324.25,-223.14 305.02,-210.9 290.51,-200"/>
<polygon fill="black" stroke="black" points="292.59,-197.19 282.55,-193.8 288.29,-202.71 292.59,-197.19"/>
<text text-anchor="middle" x="366.19" y="-217.8" font-family="Times New Roman,serif" font-size="14.00">22.write</text>
</g>
<!-- 3 -->
<g id="node4" class="node">
<title>3</title>
<ellipse fill="none" stroke="black" cx="498.69" cy="-178" rx="42.79" ry="18"/>
<text text-anchor="middle" x="498.69" y="-174.3" font-family="Times New Roman,serif" font-size="14.00">/etc/cron</text>
</g>
<!-- Start&#45;&gt;3 -->
<g id="edge7" class="edge">
<title>Start&#45;&gt;3</title>
<path fill="none" stroke="black" d="M2538.23,-264.25C2150.32,-265.34 436.02,-267.94 397.69,-229 377.39,-208.38 414.26,-194.89 449.01,-187.19"/>
<polygon fill="black" stroke="black" points="450.11,-190.53 459.19,-185.07 448.68,-183.68 450.11,-190.53"/>
<text text-anchor="middle" x="420.19" y="-217.8" font-family="Times New Roman,serif" font-size="14.00">18.write</text>
</g>
<!-- Start&#45;&gt;3 -->
<g id="edge8" class="edge">
<title>Start&#45;&gt;3</title>
<path fill="none" stroke="black" d="M2538.41,-264.21C2158.19,-265.08 502.76,-266.68 465.69,-229 457.57,-220.75 462.75,-210.23 471.19,-200.97"/>
<polygon fill="black" stroke="black" points="473.75,-203.36 478.47,-193.88 468.86,-198.35 473.75,-203.36"/>
<text text-anchor="middle" x="488.69" y="-217.8" font-family="Times New Roman,serif" font-size="14.00">16.open</text>
</g>
<!-- Start&#45;&gt;3 -->
<g id="edge9" class="edge">
<title>Start&#45;&gt;3</title>
<path fill="none" stroke="black" d="M2538.52,-263.65C2167.13,-261.82 579.92,-252.65 534.69,-229 524.63,-223.74 516.73,-214.25 510.92,-204.95"/>
<polygon fill="black" stroke="black" points="513.96,-203.21 505.99,-196.22 507.86,-206.65 513.96,-203.21"/>
<text text-anchor="middle" x="563.69" y="-217.8" font-family="Times New Roman,serif" font-size="14.00">48.rename</text>
</g>
<!-- Start&#45;&gt;3 -->
<g id="edge10" class="edge">
<title>Start&#45;&gt;3</title>
<path fill="none" stroke="black" d="M2538.59,-263.47C2183.92,-260.95 722.54,-249.34 627.69,-229 611.14,-225.45 608.4,-220.29 592.69,-214 575.39,-207.08 556.13,-199.83 539.57,-193.73"/>
<polygon fill="black" stroke="black" points="540.76,-190.44 530.17,-190.29 538.36,-197.01 540.76,-190.44"/>
<text text-anchor="middle" x="650.69" y="-217.8" font-family="Times New Roman,serif" font-size="14.00">17.lseek</text>
</g>
<!-- 4 -->
<g id="node5" class="node">
<title>4</title>
<ellipse fill="none" stroke="black" cx="833.69" cy="-178" rx="38.99" ry="18"/>
<text text-anchor="middle" x="833.69" y="-174.3" font-family="Times New Roman,serif" font-size="14.00">/etc/sed</text>
</g>
<!-- Start&#45;&gt;4 -->
<g id="edge11" class="edge">
<title>Start&#45;&gt;4</title>
<path fill="none" stroke="black" d="M2538.16,-264.06C2181.9,-264.18 717.7,-262.61 684.69,-229 651.93,-195.64 729.77,-184.54 784.83,-180.84"/>
<polygon fill="black" stroke="black" points="785.05,-184.34 794.81,-180.24 784.62,-177.35 785.05,-184.34"/>
<text text-anchor="middle" x="715.19" y="-217.8" font-family="Times New Roman,serif" font-size="14.00">47.fchmod</text>
</g>
<!-- Start&#45;&gt;4 -->
<g id="edge12" class="edge">
<title>Start&#45;&gt;4</title>
<path fill="none" stroke="black" d="M2538.38,-264C2192.21,-263.81 800.15,-261.07 768.69,-229 755.46,-215.52 773.4,-202.58 793.76,-193.24"/>
<polygon fill="black" stroke="black" points="795.36,-196.37 803.18,-189.22 792.61,-189.93 795.36,-196.37"/>
<text text-anchor="middle" x="790.19" y="-217.8" font-family="Times New Roman,serif" font-size="14.00">43.fcntl</text>
</g>
<!-- Start&#45;&gt;4 -->
<g id="edge13" class="edge">
<title>Start&#45;&gt;4</title>
<path fill="none" stroke="black" d="M2538.34,-263.93C2199.94,-263.43 865.24,-259.54 834.69,-229 828.75,-223.07 827.16,-214.48 827.47,-206.1"/>
<polygon fill="black" stroke="black" points="830.95,-206.5 828.64,-196.16 824,-205.68 830.95,-206.5"/>
<text text-anchor="middle" x="857.19" y="-217.8" font-family="Times New Roman,serif" font-size="14.00">45.write</text>
</g>
<!-- Start&#45;&gt;4 -->
<g id="edge14" class="edge">
<title>Start&#45;&gt;4</title>
<path fill="none" stroke="black" d="M2538.31,-263.71C2214.45,-262.31 981.03,-255.29 902.69,-229 897.84,-227.37 878.08,-212.9 860.94,-199.94"/>
<polygon fill="black" stroke="black" points="862.89,-197.03 852.81,-193.76 858.65,-202.6 862.89,-197.03"/>
<text text-anchor="middle" x="923.69" y="-217.8" font-family="Times New Roman,serif" font-size="14.00">44.fstat</text>
</g>
<!-- Start&#45;&gt;4 -->
<g id="edge15" class="edge">
<title>Start&#45;&gt;4</title>
<path fill="none" stroke="black" d="M2538.46,-263.99C2235.17,-263.72 1134.8,-260.56 981.69,-229 964.31,-225.42 961.39,-220.01 944.69,-214 922.14,-205.89 896.66,-197.78 875.81,-191.42"/>
<polygon fill="black" stroke="black" points="876.56,-187.99 865.97,-188.44 874.53,-194.69 876.56,-187.99"/>
<text text-anchor="middle" x="1011.69" y="-217.8" font-family="Times New Roman,serif" font-size="14.00">46.fchown</text>
</g>
<!-- 5 -->
<g id="node6" class="node">
<title>5</title>
<ellipse fill="none" stroke="black" cx="1143.69" cy="-178" rx="71.49" ry="18"/>
<text text-anchor="middle" x="1143.69" y="-174.3" font-family="Times New Roman,serif" font-size="14.00">[a&#45;zA&#45;z]:d{1,5}$</text>
</g>
<!-- Start&#45;&gt;5 -->
<g id="edge16" class="edge">
<title>Start&#45;&gt;5</title>
<path fill="none" stroke="black" d="M2538.46,-263.73C2226.79,-262.44 1076.96,-255.87 1050.69,-229 1035.23,-213.19 1054.98,-201.18 1080.19,-192.9"/>
<polygon fill="black" stroke="black" points="1081.5,-196.16 1090.05,-189.91 1079.47,-189.46 1081.5,-196.16"/>
<text text-anchor="middle" x="1086.19" y="-217.8" font-family="Times New Roman,serif" font-size="14.00">2.exit_group</text>
</g>
<!-- Start&#45;&gt;5 -->
<g id="edge17" class="edge">
<title>Start&#45;&gt;5</title>
<path fill="none" stroke="black" d="M2538.33,-263.6C2238.64,-261.85 1169.49,-253.89 1144.69,-229 1138.76,-223.05 1137.17,-214.47 1137.49,-206.08"/>
<polygon fill="black" stroke="black" points="1140.96,-206.48 1138.65,-196.15 1134.01,-205.67 1140.96,-206.48"/>
<text text-anchor="middle" x="1171.69" y="-217.8" font-family="Times New Roman,serif" font-size="14.00">41.umask</text>
</g>
<!-- Start&#45;&gt;5 -->
<g id="edge18" class="edge">
<title>Start&#45;&gt;5</title>
<path fill="none" stroke="black" d="M2538.4,-264.22C2265.73,-264.68 1358.39,-263.6 1232.69,-229 1221.3,-225.87 1197.65,-212.44 1177.59,-200.29"/>
<polygon fill="black" stroke="black" points="1179.33,-197.25 1168.97,-195.02 1175.67,-203.23 1179.33,-197.25"/>
<text text-anchor="middle" x="1261.69" y="-217.8" font-family="Times New Roman,serif" font-size="14.00">12.shmget</text>
</g>
<!-- 6 -->
<g id="node7" class="node">
<title>6</title>
<ellipse fill="none" stroke="black" cx="1473.69" cy="-178" rx="27.1" ry="18"/>
<text text-anchor="middle" x="1473.69" y="-174.3" font-family="Times New Roman,serif" font-size="14.00">/run/</text>
</g>
<!-- Start&#45;&gt;6 -->
<g id="edge19" class="edge">
<title>Start&#45;&gt;6</title>
<path fill="none" stroke="black" d="M2538.44,-263.38C2260.18,-260.98 1324.35,-251.25 1302.69,-229 1262,-187.21 1374.06,-179.86 1435.9,-178.88"/>
<polygon fill="black" stroke="black" points="1436.13,-182.38 1446.09,-178.77 1436.05,-175.38 1436.13,-182.38"/>
<text text-anchor="middle" x="1325.69" y="-217.8" font-family="Times New Roman,serif" font-size="14.00">56.lseek</text>
</g>
<!-- Start&#45;&gt;6 -->
<g id="edge20" class="edge">
<title>Start&#45;&gt;6</title>
<path fill="none" stroke="black" d="M2538.37,-263.26C2269.73,-260.53 1392.09,-249.99 1371.69,-229 1348.76,-205.41 1399.02,-191.33 1436.83,-184.39"/>
<polygon fill="black" stroke="black" points="1437.83,-187.77 1447.09,-182.62 1436.64,-180.87 1437.83,-187.77"/>
<text text-anchor="middle" x="1394.19" y="-217.8" font-family="Times New Roman,serif" font-size="14.00">59.write</text>
</g>
<!-- Start&#45;&gt;6 -->
<g id="edge21" class="edge">
<title>Start&#45;&gt;6</title>
<path fill="none" stroke="black" d="M2538.59,-263.14C2280.04,-260.06 1458.86,-248.75 1439.69,-229 1430.81,-219.85 1438.01,-208.12 1448.04,-198.32"/>
<polygon fill="black" stroke="black" points="1450.48,-200.84 1455.65,-191.59 1445.84,-195.6 1450.48,-200.84"/>
<text text-anchor="middle" x="1462.69" y="-217.8" font-family="Times New Roman,serif" font-size="14.00">51.open</text>
</g>
<!-- Start&#45;&gt;6 -->
<g id="edge22" class="edge">
<title>Start&#45;&gt;6</title>
<path fill="none" stroke="black" d="M2538.45,-263.45C2294.49,-261.46 1553.85,-253.43 1508.69,-229 1498.66,-223.58 1490.88,-213.88 1485.23,-204.46"/>
<polygon fill="black" stroke="black" points="1488.3,-202.78 1480.46,-195.66 1482.15,-206.12 1488.3,-202.78"/>
<text text-anchor="middle" x="1534.19" y="-217.8" font-family="Times New Roman,serif" font-size="14.00">49.stat64</text>
</g>
<!-- Start&#45;&gt;6 -->
<g id="edge23" class="edge">
<title>Start&#45;&gt;6</title>
<path fill="none" stroke="black" d="M2538.33,-263.77C2313.89,-262.78 1672.79,-257.45 1582.69,-229 1571.05,-225.32 1570.5,-219.66 1559.69,-214 1542.78,-205.15 1523.11,-197 1506.85,-190.79"/>
<polygon fill="black" stroke="black" points="1507.82,-187.42 1497.23,-187.19 1505.37,-193.97 1507.82,-187.42"/>
<text text-anchor="middle" x="1619.69" y="-217.8" font-family="Times New Roman,serif" font-size="14.00">70.newfstatat</text>
</g>
<!-- Start&#45;&gt;6 -->
<g id="edge24" class="edge">
<title>Start&#45;&gt;6</title>
<path fill="none" stroke="black" d="M2538.3,-263.85C2348.02,-263.02 1861.24,-258.04 1701.69,-229 1680.95,-225.23 1677.09,-219.33 1656.69,-214 1606.55,-200.91 1547.51,-190.5 1510.34,-184.54"/>
<polygon fill="black" stroke="black" points="1510.42,-181.01 1500,-182.9 1509.33,-187.92 1510.42,-181.01"/>
<text text-anchor="middle" x="1720.19" y="-217.8" font-family="Times New Roman,serif" font-size="14.00">33.stat</text>
</g>
<!-- 7 -->
<g id="node8" class="node">
<title>7</title>
<ellipse fill="none" stroke="black" cx="1738.69" cy="-178" rx="31.7" ry="18"/>
<text text-anchor="middle" x="1738.69" y="-174.3" font-family="Times New Roman,serif" font-size="14.00">^sed$</text>
</g>
<!-- Start&#45;&gt;7 -->
<g id="edge25" class="edge">
<title>Start&#45;&gt;7</title>
<path fill="none" stroke="black" d="M2538.53,-263.31C2332.55,-261.16 1783.23,-253.16 1752.69,-229 1745.68,-223.45 1742,-214.7 1740.12,-206.06"/>
<polygon fill="black" stroke="black" points="1743.58,-205.54 1738.65,-196.16 1736.66,-206.56 1743.58,-205.54"/>
<text text-anchor="middle" x="1774.19" y="-217.8" font-family="Times New Roman,serif" font-size="14.00">38.exec</text>
</g>
<!-- 8 -->
<g id="node9" class="node">
<title>8</title>
<ellipse fill="none" stroke="black" cx="1940.69" cy="-178" rx="32.49" ry="18"/>
<text text-anchor="middle" x="1940.69" y="-174.3" font-family="Times New Roman,serif" font-size="14.00">/proc/</text>
</g>
<!-- Start&#45;&gt;8 -->
<g id="edge26" class="edge">
<title>Start&#45;&gt;8</title>
<path fill="none" stroke="black" d="M2538.29,-263.51C2340.59,-261.9 1830.77,-255.19 1805.69,-229 1775.75,-197.74 1848.1,-185.89 1898.04,-181.5"/>
<polygon fill="black" stroke="black" points="1898.63,-184.96 1908.32,-180.67 1898.07,-177.98 1898.63,-184.96"/>
<text text-anchor="middle" x="1842.69" y="-217.8" font-family="Times New Roman,serif" font-size="14.00">69.newfstatat</text>
</g>
<!-- Start&#45;&gt;8 -->
<g id="edge27" class="edge">
<title>Start&#45;&gt;8</title>
<path fill="none" stroke="black" d="M2538.79,-263.04C2358.93,-260.42 1924.35,-251.75 1902.69,-229 1893.8,-219.66 1901.23,-208.28 1911.81,-198.73"/>
<polygon fill="black" stroke="black" points="1914.33,-201.19 1919.88,-192.16 1909.91,-195.76 1914.33,-201.19"/>
<text text-anchor="middle" x="1930.19" y="-217.8" font-family="Times New Roman,serif" font-size="14.00">68.access</text>
</g>
<!-- Start&#45;&gt;8 -->
<g id="edge28" class="edge">
<title>Start&#45;&gt;8</title>
<path fill="none" stroke="black" d="M2538.66,-263.26C2380.34,-261.23 2029.12,-253.94 1980.69,-229 1969.94,-223.47 1961.11,-213.62 1954.51,-204.11"/>
<polygon fill="black" stroke="black" points="1957.41,-202.15 1949.07,-195.62 1951.51,-205.93 1957.41,-202.15"/>
<text text-anchor="middle" x="2008.19" y="-217.8" font-family="Times New Roman,serif" font-size="14.00">1.readlink</text>
</g>
<!-- Start&#45;&gt;8 -->
<g id="edge29" class="edge">
<title>Start&#45;&gt;8</title>
<path fill="none" stroke="black" d="M2539.11,-262.29C2410.66,-258.88 2157.37,-249.71 2070.69,-229 2054.23,-225.07 2051.41,-220.26 2035.69,-214 2016.4,-206.32 1994.68,-198.27 1976.89,-191.84"/>
<polygon fill="black" stroke="black" points="1978.04,-188.53 1967.45,-188.44 1975.67,-195.12 1978.04,-188.53"/>
<text text-anchor="middle" x="2093.69" y="-217.8" font-family="Times New Roman,serif" font-size="14.00">19.open</text>
</g>
<!-- 9 -->
<g id="node10" class="node">
<title>9</title>
<ellipse fill="none" stroke="black" cx="2298.69" cy="-178" rx="32.49" ry="18"/>
<text text-anchor="middle" x="2298.69" y="-174.3" font-family="Times New Roman,serif" font-size="14.00">/boot/</text>
</g>
<!-- Start&#45;&gt;9 -->
<g id="edge30" class="edge">
<title>Start&#45;&gt;9</title>
<path fill="none" stroke="black" d="M2538.27,-264.1C2407.66,-263.45 2155.02,-258.36 2127.69,-229 2089.14,-187.59 2192.98,-179.83 2255.41,-178.77"/>
<polygon fill="black" stroke="black" points="2255.84,-182.27 2265.8,-178.65 2255.76,-175.27 2255.84,-182.27"/>
<text text-anchor="middle" x="2153.19" y="-217.8" font-family="Times New Roman,serif" font-size="14.00">54.stat64</text>
</g>
<!-- Start&#45;&gt;9 -->
<g id="edge31" class="edge">
<title>Start&#45;&gt;9</title>
<path fill="none" stroke="black" d="M2538.41,-262.99C2424.88,-260.7 2223.96,-253.23 2201.69,-229 2181.5,-207.04 2222.84,-193.17 2257.66,-185.76"/>
<polygon fill="black" stroke="black" points="2258.6,-189.14 2267.72,-183.75 2257.23,-182.28 2258.6,-189.14"/>
<text text-anchor="middle" x="2221.19" y="-217.8" font-family="Times New Roman,serif" font-size="14.00">6.lseek</text>
</g>
<!-- Start&#45;&gt;9 -->
<g id="edge32" class="edge">
<title>Start&#45;&gt;9</title>
<path fill="none" stroke="black" d="M2539.36,-261.75C2441.4,-258.06 2281.83,-249.03 2263.69,-229 2255.41,-219.86 2261.89,-208.7 2271.42,-199.25"/>
<polygon fill="black" stroke="black" points="2273.96,-201.67 2279.1,-192.41 2269.31,-196.44 2273.96,-201.67"/>
<text text-anchor="middle" x="2287.69" y="-217.8" font-family="Times New Roman,serif" font-size="14.00">10.clone</text>
</g>
<!-- Start&#45;&gt;9 -->
<g id="edge33" class="edge">
<title>Start&#45;&gt;9</title>
<path fill="none" stroke="black" d="M2539.71,-261.32C2468.56,-257.61 2368.3,-248.94 2334.69,-229 2325.03,-223.27 2317.24,-213.83 2311.41,-204.69"/>
<polygon fill="black" stroke="black" points="2314.29,-202.67 2306.23,-195.79 2308.23,-206.19 2314.29,-202.67"/>
<text text-anchor="middle" x="2353.69" y="-217.8" font-family="Times New Roman,serif" font-size="14.00">8.write</text>
</g>
<!-- Start&#45;&gt;9 -->
<g id="edge34" class="edge">
<title>Start&#45;&gt;9</title>
<path fill="none" stroke="black" d="M2541.35,-259.95C2497.74,-255.69 2442.24,-246.94 2395.69,-229 2384.3,-224.61 2383.34,-219.96 2372.69,-214 2359.94,-206.87 2345.5,-199.82 2332.78,-193.94"/>
<polygon fill="black" stroke="black" points="2333.99,-190.65 2323.44,-189.69 2331.09,-197.02 2333.99,-190.65"/>
<text text-anchor="middle" x="2415.19" y="-217.8" font-family="Times New Roman,serif" font-size="14.00">4.open</text>
</g>
<!-- Start&#45;&gt;9 -->
<g id="edge35" class="edge">
<title>Start&#45;&gt;9</title>
<path fill="none" stroke="black" d="M2560.54,-252.35C2533.78,-246.22 2501.31,-238.1 2472.69,-229 2455.39,-223.5 2451.96,-219.61 2434.69,-214 2402.72,-203.62 2365.73,-194.27 2338.41,-187.85"/>
<polygon fill="black" stroke="black" points="2338.97,-184.39 2328.44,-185.53 2337.39,-191.2 2338.97,-184.39"/>
<text text-anchor="middle" x="2489.19" y="-217.8" font-family="Times New Roman,serif" font-size="14.00">25.rm</text>
</g>
<!-- 10 -->
<g id="node11" class="node">
<title>10</title>
<ellipse fill="none" stroke="black" cx="2681.69" cy="-178" rx="53.09" ry="18"/>
<text text-anchor="middle" x="2681.69" y="-174.3" font-family="Times New Roman,serif" font-size="14.00">^systemctl$</text>
</g>
<!-- Start&#45;&gt;10 -->
<g id="edge36" class="edge">
<title>Start&#45;&gt;10</title>
<path fill="none" stroke="black" d="M2554.13,-254.04C2524.07,-246.47 2497.51,-233.89 2513.69,-214 2527.13,-197.47 2578,-188.48 2620.27,-183.77"/>
<polygon fill="black" stroke="black" points="2620.67,-187.25 2630.25,-182.72 2619.94,-180.29 2620.67,-187.25"/>
<text text-anchor="middle" x="2553.69" y="-217.8" font-family="Times New Roman,serif" font-size="14.00">71.getsockopt</text>
</g>
<!-- Start&#45;&gt;10 -->
<g id="edge37" class="edge">
<title>Start&#45;&gt;10</title>
<path fill="none" stroke="black" d="M2611.9,-246.59C2610.64,-236.37 2610.8,-223.63 2616.69,-214 2621.2,-206.61 2627.86,-200.68 2635.22,-195.96"/>
<polygon fill="black" stroke="black" points="2637.1,-198.92 2644.09,-190.96 2633.66,-192.82 2637.1,-198.92"/>
<text text-anchor="middle" x="2638.19" y="-217.8" font-family="Times New Roman,serif" font-size="14.00">35.exec</text>
</g>
<!-- Start&#45;&gt;10 -->
<g id="edge38" class="edge">
<title>Start&#45;&gt;10</title>
<path fill="none" stroke="black" d="M2640.43,-247.71C2647.3,-242.35 2654.33,-235.96 2659.69,-229 2665.04,-222.06 2669.4,-213.61 2672.78,-205.65"/>
<polygon fill="black" stroke="black" points="2676.04,-206.91 2676.42,-196.32 2669.52,-204.36 2676.04,-206.91"/>
<text text-anchor="middle" x="2714.19" y="-217.8" font-family="Times New Roman,serif" font-size="14.00">73.getsockname</text>
</g>
<!-- Start&#45;&gt;10 -->
<g id="edge39" class="edge">
<title>Start&#45;&gt;10</title>
<path fill="none" stroke="black" d="M2683.44,-256.18C2717.36,-250.73 2753.37,-242.05 2763.69,-229 2776.65,-212.62 2757.3,-200.3 2734.15,-191.99"/>
<polygon fill="black" stroke="black" points="2735.04,-188.6 2724.45,-188.78 2732.84,-195.24 2735.04,-188.6"/>
<text text-anchor="middle" x="2792.19" y="-217.8" font-family="Times New Roman,serif" font-size="14.00">36.wait4</text>
</g>
<!-- Start&#45;&gt;10 -->
<g id="edge40" class="edge">
<title>Start&#45;&gt;10</title>
<path fill="none" stroke="black" d="M2691.24,-260.96C2742.28,-257.14 2803.24,-248.51 2819.69,-229 2844.61,-199.44 2791.53,-187.36 2744.14,-182.42"/>
<polygon fill="black" stroke="black" points="2744.44,-178.93 2734.15,-181.47 2743.77,-185.9 2744.44,-178.93"/>
<text text-anchor="middle" x="2866.19" y="-217.8" font-family="Times New Roman,serif" font-size="14.00">72.setsockopt</text>
</g>
<!-- 11 -->
<g id="node12" class="node">
<title>11</title>
<ellipse fill="none" stroke="black" cx="3052.69" cy="-178" rx="38.99" ry="18"/>
<text text-anchor="middle" x="3052.69" y="-174.3" font-family="Times New Roman,serif" font-size="14.00">ip_addr</text>
</g>
<!-- Start&#45;&gt;11 -->
<g id="edge41" class="edge">
<title>Start&#45;&gt;11</title>
<path fill="none" stroke="black" d="M2689.86,-259.66C2749.77,-255.08 2835.95,-246.07 2909.69,-229 2946.48,-220.49 2986.98,-205.8 3015.46,-194.53"/>
<polygon fill="black" stroke="black" points="3017.02,-197.68 3025,-190.71 3014.42,-191.18 3017.02,-197.68"/>
<text text-anchor="middle" x="2992.69" y="-217.8" font-family="Times New Roman,serif" font-size="14.00">66.connect</text>
</g>
<!-- Start&#45;&gt;11 -->
<g id="edge42" class="edge">
<title>Start&#45;&gt;11</title>
<path fill="none" stroke="black" d="M2691.83,-261.53C2803.28,-257.32 3000.62,-247.36 3027.69,-229 3035.74,-223.54 3041.32,-214.68 3045.13,-205.93"/>
<polygon fill="black" stroke="black" points="3048.51,-206.88 3048.72,-196.28 3041.95,-204.44 3048.51,-206.88"/>
<text text-anchor="middle" x="3062.69" y="-217.8" font-family="Times New Roman,serif" font-size="14.00">62.send</text>
</g>
<!-- Start&#45;&gt;11 -->
<g id="edge43" class="edge">
<title>Start&#45;&gt;11</title>
<path fill="none" stroke="black" d="M2693.01,-263.9C2820.25,-262.93 3062.39,-257.32 3088.69,-229 3096.93,-220.13 3090.85,-209.33 3081.5,-200.05"/>
<polygon fill="black" stroke="black" points="3083.7,-197.32 3073.9,-193.29 3079.05,-202.55 3083.7,-197.32"/>
<text text-anchor="middle" x="3132.19" y="-217.8" font-family="Times New Roman,serif" font-size="14.00">64._newselect</text>
</g>
<!-- 12 -->
<g id="node13" class="node">
<title>12</title>
<ellipse fill="none" stroke="black" cx="3382.69" cy="-178" rx="66.89" ry="18"/>
<text text-anchor="middle" x="3382.69" y="-174.3" font-family="Times New Roman,serif" font-size="14.00">/boot/[a&#45;z]{10}</text>
</g>
<!-- Start&#45;&gt;12 -->
<g id="edge44" class="edge">
<title>Start&#45;&gt;12</title>
<path fill="none" stroke="black" d="M2691.83,-261.56C2822.75,-256.99 3085.16,-246.01 3175.69,-229 3197.24,-224.95 3201.51,-219.68 3222.69,-214 3254.64,-205.43 3290.6,-197.42 3320.32,-191.23"/>
<polygon fill="black" stroke="black" points="3321.06,-194.65 3330.15,-189.2 3319.65,-187.79 3321.06,-194.65"/>
<text text-anchor="middle" x="3239.19" y="-217.8" font-family="Times New Roman,serif" font-size="14.00">26.rm</text>
</g>
<!-- Start&#45;&gt;12 -->
<g id="edge45" class="edge">
<title>Start&#45;&gt;12</title>
<path fill="none" stroke="black" d="M2693.21,-264.75C2840.08,-265.35 3153.37,-262.48 3255.69,-229 3267.29,-225.2 3267.71,-219.32 3278.69,-214 3294.16,-206.5 3311.66,-199.94 3327.82,-194.58"/>
<polygon fill="black" stroke="black" points="3329.23,-197.81 3337.68,-191.41 3327.09,-191.14 3329.23,-197.81"/>
<text text-anchor="middle" x="3304.19" y="-217.8" font-family="Times New Roman,serif" font-size="14.00">55.stat64</text>
</g>
<!-- Start&#45;&gt;12 -->
<g id="edge46" class="edge">
<title>Start&#45;&gt;12</title>
<path fill="none" stroke="black" d="M2692.78,-263.23C2865.38,-261.07 3272.35,-253.42 3329.69,-229 3342.73,-223.45 3354.51,-213.18 3363.63,-203.38"/>
<polygon fill="black" stroke="black" points="3366.38,-205.55 3370.35,-195.73 3361.12,-200.93 3366.38,-205.55"/>
<text text-anchor="middle" x="3371.19" y="-217.8" font-family="Times New Roman,serif" font-size="14.00">7.lseek</text>
</g>
<!-- Start&#45;&gt;12 -->
<g id="edge47" class="edge">
<title>Start&#45;&gt;12</title>
<path fill="none" stroke="black" d="M2692.97,-263.36C2884.56,-261.4 3367.81,-253.98 3391.69,-229 3397.65,-222.77 3397.74,-214 3395.58,-205.55"/>
<polygon fill="black" stroke="black" points="3398.83,-204.23 3392.23,-195.94 3392.22,-206.54 3398.83,-204.23"/>
<text text-anchor="middle" x="3421.69" y="-217.8" font-family="Times New Roman,serif" font-size="14.00">11.clone</text>
</g>
<!-- Start&#45;&gt;12 -->
<g id="edge48" class="edge">
<title>Start&#45;&gt;12</title>
<path fill="none" stroke="black" d="M2693.17,-263.62C2895.1,-262.24 3423.75,-256.05 3449.69,-229 3461.24,-216.96 3448.9,-205.65 3431.81,-196.84"/>
<polygon fill="black" stroke="black" points="3433.07,-193.57 3422.53,-192.47 3430.09,-199.9 3433.07,-193.57"/>
<text text-anchor="middle" x="3473.69" y="-217.8" font-family="Times New Roman,serif" font-size="14.00">9.write</text>
</g>
<!-- Start&#45;&gt;12 -->
<g id="edge49" class="edge">
<title>Start&#45;&gt;12</title>
<path fill="none" stroke="black" d="M2692.95,-263.8C2902.71,-262.88 3469.06,-257.75 3496.69,-229 3516.25,-208.65 3486.18,-196.05 3452.03,-188.59"/>
<polygon fill="black" stroke="black" points="3452.33,-185.08 3441.84,-186.53 3450.94,-191.94 3452.33,-185.08"/>
<text text-anchor="middle" x="3523.19" y="-217.8" font-family="Times New Roman,serif" font-size="14.00">5.open</text>
</g>
<!-- 13 -->
<g id="node14" class="node">
<title>13</title>
<ellipse fill="none" stroke="black" cx="3641.69" cy="-178" rx="38.19" ry="18"/>
<text text-anchor="middle" x="3641.69" y="-174.3" font-family="Times New Roman,serif" font-size="14.00">/selinux</text>
</g>
<!-- Start&#45;&gt;13 -->
<g id="edge50" class="edge">
<title>Start&#45;&gt;13</title>
<path fill="none" stroke="black" d="M2692.66,-263.06C2900.93,-260.26 3465.38,-250.72 3546.69,-229 3570,-222.77 3594.02,-210.06 3612.08,-199.01"/>
<polygon fill="black" stroke="black" points="3614.35,-201.72 3620.94,-193.43 3610.62,-195.8 3614.35,-201.72"/>
<text text-anchor="middle" x="3613.19" y="-217.8" font-family="Times New Roman,serif" font-size="14.00">40.access</text>
</g>
<!-- Start&#45;&gt;13 -->
<g id="edge51" class="edge">
<title>Start&#45;&gt;13</title>
<path fill="none" stroke="black" d="M2693.1,-264.27C2926.89,-264.71 3611.75,-263.08 3644.69,-229 3650.53,-222.95 3651.53,-214.34 3650.52,-205.97"/>
<polygon fill="black" stroke="black" points="3653.92,-205.14 3648.47,-196.05 3647.07,-206.56 3653.92,-205.14"/>
<text text-anchor="middle" x="3674.69" y="-217.8" font-family="Times New Roman,serif" font-size="14.00">39.statfs</text>
</g>
<!-- 14 -->
<g id="node15" class="node">
<title>14</title>
<ellipse fill="none" stroke="black" cx="3748.69" cy="-91" rx="50.09" ry="18"/>
<text text-anchor="middle" x="3748.69" y="-87.3" font-family="Times New Roman,serif" font-size="14.00">bin/openrc</text>
</g>
<!-- Start&#45;&gt;14 -->
<g id="edge52" class="edge">
<title>Start&#45;&gt;14</title>
<path fill="none" stroke="black" d="M2693.12,-263.91C2934.93,-263.32 3662.31,-259.04 3702.69,-229 3736.87,-203.57 3745.95,-151.6 3748.18,-119.49"/>
<polygon fill="black" stroke="black" points="3751.68,-119.59 3748.7,-109.42 3744.69,-119.23 3751.68,-119.59"/>
<text text-anchor="middle" x="3761.19" y="-174.3" font-family="Times New Roman,serif" font-size="14.00">31.stat</text>
</g>
<!-- 15 -->
<g id="node16" class="node">
<title>15</title>
<ellipse fill="none" stroke="black" cx="3882.69" cy="-178" rx="27" ry="18"/>
<text text-anchor="middle" x="3882.69" y="-174.3" font-family="Times New Roman,serif" font-size="14.00">/var/</text>
</g>
<!-- Start&#45;&gt;15 -->
<g id="edge53" class="edge">
<title>Start&#45;&gt;15</title>
<path fill="none" stroke="black" d="M2693.13,-264.05C2933.81,-263.88 3658.74,-260.7 3759.69,-229 3771.33,-225.34 3771.74,-219.39 3782.69,-214 3803.77,-203.63 3828.71,-194.89 3848.41,-188.74"/>
<polygon fill="black" stroke="black" points="3849.64,-192.03 3858.19,-185.77 3847.6,-185.33 3849.64,-192.03"/>
<text text-anchor="middle" x="3804.69" y="-217.8" font-family="Times New Roman,serif" font-size="14.00">3.stat64</text>
</g>
<!-- Start&#45;&gt;15 -->
<g id="edge54" class="edge">
<title>Start&#45;&gt;15</title>
<path fill="none" stroke="black" d="M2693.07,-263.22C2951.89,-260.43 3774.05,-249.96 3826.69,-229 3834.66,-225.83 3849.25,-212.69 3861.53,-200.68"/>
<polygon fill="black" stroke="black" points="3864.19,-202.98 3868.81,-193.44 3859.25,-198.01 3864.19,-202.98"/>
<text text-anchor="middle" x="3870.69" y="-217.8" font-family="Times New Roman,serif" font-size="14.00">58.lseek</text>
</g>
<!-- Start&#45;&gt;15 -->
<g id="edge55" class="edge">
<title>Start&#45;&gt;15</title>
<path fill="none" stroke="black" d="M2692.87,-263.33C2966.45,-260.77 3874.63,-250.65 3895.69,-229 3902.12,-222.39 3901.29,-213.03 3897.99,-204.18"/>
<polygon fill="black" stroke="black" points="3901.08,-202.53 3893.67,-194.95 3894.74,-205.49 3901.08,-202.53"/>
<text text-anchor="middle" x="3923.19" y="-217.8" font-family="Times New Roman,serif" font-size="14.00">61.write</text>
</g>
<!-- Start&#45;&gt;15 -->
<g id="edge56" class="edge">
<title>Start&#45;&gt;15</title>
<path fill="none" stroke="black" d="M2693.2,-263.41C2974.7,-261.1 3927.65,-251.62 3949.69,-229 3964.64,-213.65 3940.06,-199.37 3916.57,-190.04"/>
<polygon fill="black" stroke="black" points="3917.62,-186.69 3907.03,-186.47 3915.17,-193.25 3917.62,-186.69"/>
<text text-anchor="middle" x="3977.69" y="-217.8" font-family="Times New Roman,serif" font-size="14.00">53.open</text>
</g>
<!-- 16 -->
<g id="node17" class="node">
<title>16</title>
<ellipse fill="none" stroke="black" cx="4046.69" cy="-18" rx="50.09" ry="18"/>
<text text-anchor="middle" x="4046.69" y="-14.3" font-family="Times New Roman,serif" font-size="14.00">bin/insserv</text>
</g>
<!-- Start&#45;&gt;16 -->
<g id="edge57" class="edge">
<title>Start&#45;&gt;16</title>
<path fill="none" stroke="black" d="M2692.76,-263.35C2980.88,-260.76 3979.42,-250.25 4004.69,-229 4058.16,-184.02 4055.76,-91.91 4050.7,-46.1"/>
<polygon fill="black" stroke="black" points="4054.16,-45.53 4049.46,-36.03 4047.21,-46.38 4054.16,-45.53"/>
<text text-anchor="middle" x="4070.19" y="-130.8" font-family="Times New Roman,serif" font-size="14.00">30.stat</text>
</g>
<!-- 17 -->
<g id="node18" class="node">
<title>17</title>
<ellipse fill="none" stroke="black" cx="4153.69" cy="-178" rx="40.89" ry="18"/>
<text text-anchor="middle" x="4153.69" y="-174.3" font-family="Times New Roman,serif" font-size="14.00">/var/run/</text>
</g>
<!-- Start&#45;&gt;17 -->
<g id="edge58" class="edge">
<title>Start&#45;&gt;17</title>
<path fill="none" stroke="black" d="M2692.75,-263.3C2982.32,-260.5 3992.18,-249.34 4057.69,-229 4069.34,-225.38 4070.05,-219.98 4080.69,-214 4092.19,-207.53 4105.08,-201.1 4116.78,-195.54"/>
<polygon fill="black" stroke="black" points="4118.29,-198.7 4125.87,-191.3 4115.33,-192.36 4118.29,-198.7"/>
<text text-anchor="middle" x="4103.69" y="-217.8" font-family="Times New Roman,serif" font-size="14.00">57.lseek</text>
</g>
<!-- Start&#45;&gt;17 -->
<g id="edge59" class="edge">
<title>Start&#45;&gt;17</title>
<path fill="none" stroke="black" d="M2693.02,-264.35C2992.86,-265.45 4065.13,-266.69 4126.69,-229 4135.34,-223.7 4141.4,-214.6 4145.55,-205.59"/>
<polygon fill="black" stroke="black" points="4148.9,-206.64 4149.34,-196.05 4142.39,-204.05 4148.9,-206.64"/>
<text text-anchor="middle" x="4162.19" y="-217.8" font-family="Times New Roman,serif" font-size="14.00">60.write</text>
</g>
<!-- Start&#45;&gt;17 -->
<g id="edge60" class="edge">
<title>Start&#45;&gt;17</title>
<path fill="none" stroke="black" d="M2693.05,-263.73C3005.93,-262.48 4162.27,-256.01 4188.69,-229 4197.07,-220.43 4191.21,-209.67 4182.05,-200.32"/>
<polygon fill="black" stroke="black" points="4184.33,-197.67 4174.59,-193.52 4179.62,-202.84 4184.33,-197.67"/>
<text text-anchor="middle" x="4215.69" y="-217.8" font-family="Times New Roman,serif" font-size="14.00">52.open</text>
</g>
<!-- Start&#45;&gt;17 -->
<g id="edge61" class="edge">
<title>Start&#45;&gt;17</title>
<path fill="none" stroke="black" d="M2692.98,-263.79C3012.56,-262.76 4215.28,-257.01 4242.69,-229 4247.35,-224.24 4246.44,-219.51 4242.69,-214 4239.66,-209.55 4216.82,-200.61 4195.04,-192.89"/>
<polygon fill="black" stroke="black" points="4196.11,-189.55 4185.51,-189.55 4193.8,-196.16 4196.11,-189.55"/>
<text text-anchor="middle" x="4271.19" y="-217.8" font-family="Times New Roman,serif" font-size="14.00">50.stat64</text>
</g>
<!-- 18 -->
<g id="node19" class="node">
<title>18</title>
<ellipse fill="none" stroke="black" cx="4275.69" cy="-178" rx="57.69" ry="18"/>
<text text-anchor="middle" x="4275.69" y="-174.3" font-family="Times New Roman,serif" font-size="14.00">/proc/rs_dev</text>
</g>
<!-- Start&#45;&gt;18 -->
<g id="edge62" class="edge">
<title>Start&#45;&gt;18</title>
<path fill="none" stroke="black" d="M2692.96,-263.85C3019.68,-263.05 4272.21,-258.08 4300.69,-229 4307.69,-221.85 4305,-212.36 4299.29,-203.56"/>
<polygon fill="black" stroke="black" points="4301.95,-201.28 4293.11,-195.44 4296.38,-205.52 4301.95,-201.28"/>
<text text-anchor="middle" x="4327.69" y="-217.8" font-family="Times New Roman,serif" font-size="14.00">20.open</text>
</g>
<!-- 19 -->
<g id="node20" class="node">
<title>19</title>
<ellipse fill="none" stroke="black" cx="4364.69" cy="-91" rx="52.79" ry="18"/>
<text text-anchor="middle" x="4364.69" y="-87.3" font-family="Times New Roman,serif" font-size="14.00">update&#45;rc.d</text>
</g>
<!-- Start&#45;&gt;19 -->
<g id="edge63" class="edge">
<title>Start&#45;&gt;19</title>
<path fill="none" stroke="black" d="M2693.13,-263.85C3026.53,-263.03 4324.15,-257.97 4354.69,-229 4383.91,-201.28 4378.93,-150.5 4372.15,-119.16"/>
<polygon fill="black" stroke="black" points="4375.54,-118.26 4369.83,-109.33 4368.72,-119.87 4375.54,-118.26"/>
<text text-anchor="middle" x="4400.69" y="-174.3" font-family="Times New Roman,serif" font-size="14.00">28.clone</text>
</g>
<!-- 20 -->
<g id="node21" class="node">
<title>20</title>
<ellipse fill="none" stroke="black" cx="4445.69" cy="-18" rx="29.5" ry="18"/>
<text text-anchor="middle" x="4445.69" y="-14.3" font-family="Times New Roman,serif" font-size="14.00">/perl/</text>
</g>
<!-- Start&#45;&gt;20 -->
<g id="edge64" class="edge">
<title>Start&#45;&gt;20</title>
<path fill="none" stroke="black" d="M2692.82,-263.57C3021.48,-261.6 4292.01,-252.5 4373.69,-229 4401.08,-221.12 4413.47,-220.11 4428.69,-196 4457.86,-149.79 4454.82,-82.85 4450.16,-45.95"/>
<polygon fill="black" stroke="black" points="4453.62,-45.37 4448.77,-35.95 4446.68,-46.33 4453.62,-45.37"/>
<text text-anchor="middle" x="4469.19" y="-130.8" font-family="Times New Roman,serif" font-size="14.00">29.stat</text>
</g>
<!-- 21 -->
<g id="node22" class="node">
<title>21</title>
<ellipse fill="none" stroke="black" cx="4510.69" cy="-178" rx="37.09" ry="18"/>
<text text-anchor="middle" x="4510.69" y="-174.3" font-family="Times New Roman,serif" font-size="14.00">bin/sed</text>
</g>
<!-- Start&#45;&gt;21 -->
<g id="edge65" class="edge">
<title>Start&#45;&gt;21</title>
<path fill="none" stroke="black" d="M2693.03,-264.12C3032.48,-264.46 4377.18,-263.62 4459.69,-229 4472.68,-223.55 4484.19,-213.09 4492.97,-203.14"/>
<polygon fill="black" stroke="black" points="4495.72,-205.3 4499.4,-195.37 4490.33,-200.84 4495.72,-205.3"/>
<text text-anchor="middle" x="4500.19" y="-217.8" font-family="Times New Roman,serif" font-size="14.00">37.stat</text>
</g>
<!-- 22 -->
<g id="node23" class="node">
<title>22</title>
<ellipse fill="none" stroke="black" cx="4583.69" cy="-91" rx="100.98" ry="18"/>
<text text-anchor="middle" x="4583.69" y="-87.3" font-family="Times New Roman,serif" font-size="14.00">permission(s|:)[0&#45;9]{1,4}</text>
</g>
<!-- Start&#45;&gt;22 -->
<g id="edge66" class="edge">
<title>Start&#45;&gt;22</title>
<path fill="none" stroke="black" d="M2693.04,-264.17C3039.68,-264.7 4437.04,-264.65 4522.69,-229 4564.73,-211.5 4577.8,-153.96 4581.86,-119.26"/>
<polygon fill="black" stroke="black" points="4585.34,-119.6 4582.85,-109.3 4578.38,-118.9 4585.34,-119.6"/>
<text text-anchor="middle" x="4599.69" y="-174.3" font-family="Times New Roman,serif" font-size="14.00">42.umask</text>
</g>
<!-- 23 -->
<g id="node24" class="node">
<title>23</title>
<ellipse fill="none" stroke="black" cx="4804.69" cy="-178" rx="148.67" ry="18"/>
<text text-anchor="middle" x="4804.69" y="-174.3" font-family="Times New Roman,serif" font-size="14.00">d{1,3}.d{1,3}.d{1,3}.d{1,3}:d{1,5}$</text>
</g>
<!-- Start&#45;&gt;23 -->
<g id="edge67" class="edge">
<title>Start&#45;&gt;23</title>
<path fill="none" stroke="black" d="M2692.87,-263.54C3047.05,-261.31 4503.51,-250.85 4597.69,-229 4612.99,-225.45 4614.77,-218.91 4629.69,-214 4653.98,-206.01 4680.8,-199.53 4706,-194.42"/>
<polygon fill="black" stroke="black" points="4706.8,-197.83 4715.93,-192.46 4705.45,-190.96 4706.8,-197.83"/>
<text text-anchor="middle" x="4651.69" y="-217.8" font-family="Times New Roman,serif" font-size="14.00">63.send</text>
</g>
<!-- Start&#45;&gt;23 -->
<g id="edge68" class="edge">
<title>Start&#45;&gt;23</title>
<path fill="none" stroke="black" d="M2693.12,-263.7C3056.16,-262.18 4576.29,-254.33 4673.69,-229 4687.35,-225.45 4688.74,-219.62 4701.69,-214 4714.72,-208.34 4728.99,-202.98 4742.65,-198.24"/>
<polygon fill="black" stroke="black" points="4744.11,-201.44 4752.45,-194.9 4741.86,-194.81 4744.11,-201.44"/>
<text text-anchor="middle" x="4741.19" y="-217.8" font-family="Times New Roman,serif" font-size="14.00">65._newselect</text>
</g>
<!-- Start&#45;&gt;23 -->
<g id="edge69" class="edge">
<title>Start&#45;&gt;23</title>
<path fill="none" stroke="black" d="M2692.89,-263.86C3073.74,-263.02 4735.85,-257.72 4780.69,-229 4789.03,-223.66 4794.54,-214.54 4798.15,-205.55"/>
<polygon fill="black" stroke="black" points="4801.48,-206.61 4801.36,-196.02 4794.85,-204.37 4801.48,-206.61"/>
<text text-anchor="middle" x="4823.69" y="-217.8" font-family="Times New Roman,serif" font-size="14.00">67.connect</text>
</g>
<!-- 24 -->
<g id="node25" class="node">
<title>24</title>
<ellipse fill="none" stroke="black" cx="4998.69" cy="-178" rx="27.1" ry="18"/>
<text text-anchor="middle" x="4998.69" y="-174.3" font-family="Times New Roman,serif" font-size="14.00">^sh$</text>
</g>
<!-- Start&#45;&gt;24 -->
<g id="edge70" class="edge">
<title>Start&#45;&gt;24</title>
<path fill="none" stroke="black" d="M2693.16,-264.14C3063.19,-264.61 4641.78,-264.51 4858.69,-229 4880.33,-225.46 4884.79,-220.63 4905.69,-214 4931.01,-205.96 4937.95,-205.69 4962.69,-196 4964.52,-195.28 4966.4,-194.51 4968.27,-193.71"/>
<polygon fill="black" stroke="black" points="4969.88,-196.83 4977.58,-189.55 4967.02,-190.44 4969.88,-196.83"/>
<text text-anchor="middle" x="4934.69" y="-217.8" font-family="Times New Roman,serif" font-size="14.00">24.waitpid</text>
</g>
<!-- Start&#45;&gt;24 -->
<g id="edge71" class="edge">
<title>Start&#45;&gt;24</title>
<path fill="none" stroke="black" d="M2692.95,-263.81C3092.99,-262.7 4912.4,-256.19 4963.69,-229 4973.76,-223.66 4981.55,-213.97 4987.2,-204.54"/>
<polygon fill="black" stroke="black" points="4990.29,-206.18 4991.96,-195.72 4984.13,-202.86 4990.29,-206.18"/>
<text text-anchor="middle" x="5003.69" y="-217.8" font-family="Times New Roman,serif" font-size="14.00">23.clone</text>
</g>
<!-- 25 -->
<g id="node26" class="node">
<title>25</title>
<ellipse fill="none" stroke="black" cx="5053.69" cy="-18" rx="50.09" ry="18"/>
<text text-anchor="middle" x="5053.69" y="-14.3" font-family="Times New Roman,serif" font-size="14.00">^pipe($|.|$)</text>
</g>
<!-- Start&#45;&gt;25 -->
<g id="edge72" class="edge">
<title>Start&#45;&gt;25</title>
<path fill="none" stroke="black" d="M2692.91,-263.57C3103.17,-261.22 5009.58,-249.2 5031.69,-229 5082.42,-182.64 5070.65,-91.56 5060.71,-46.12"/>
<polygon fill="black" stroke="black" points="5064.06,-45.07 5058.39,-36.12 5057.24,-46.65 5064.06,-45.07"/>
<text text-anchor="middle" x="5089.69" y="-130.8" font-family="Times New Roman,serif" font-size="14.00">34.pipe</text>
</g>
<!-- 26 -->
<g id="node27" class="node">
<title>26</title>
<ellipse fill="none" stroke="black" cx="5136.69" cy="-178" rx="55.49" ry="18"/>
<text text-anchor="middle" x="5136.69" y="-174.3" font-family="Times New Roman,serif" font-size="14.00">^chkconfig$</text>
</g>
<!-- Start&#45;&gt;26 -->
<g id="edge73" class="edge">
<title>Start&#45;&gt;26</title>
<path fill="none" stroke="black" d="M2693.14,-264.21C3097.54,-265.13 4952.54,-267.25 5067.69,-229 5084.39,-223.45 5100.47,-212.27 5112.89,-201.88"/>
<polygon fill="black" stroke="black" points="5115.27,-204.45 5120.5,-195.24 5110.67,-199.18 5115.27,-204.45"/>
<text text-anchor="middle" x="5119.69" y="-217.8" font-family="Times New Roman,serif" font-size="14.00">27.clone</text>
</g>
</g>
</svg>
